<svg width="24" height="24" viewBox="0 0 24 24" fill="none" xmlns="http://www.w3.org/2000/svg">
<g clip-path="url(#clip0_3_8773)">
<path d="M18.003 13H16.743C15.704 8.974 11.753 6.415 7.65399 7.114C3.55499 7.812 0.673995 11.534 1.02599 15.677C1.37799 19.82 4.845 23.003 9.003 23H18.003C20.765 23 23.003 20.761 23.003 18C23.003 15.239 20.765 13 18.003 13Z" stroke="black" stroke-width="2" stroke-linecap="round" stroke-linejoin="round"/>
<path d="M19.691 13.301C21.632 12.321 23.03 10.393 23.243 8.086C21.226 9.576 18.423 9.367 16.649 7.594C14.876 5.821 14.667 3.017 16.158 1C12.923 1.299 10.435 3.924 10.247 7.109" stroke="black" stroke-width="2" stroke-linecap="round" stroke-linejoin="round"/>
</g>
<defs>
<clipPath id="clip0_3_8773">
<rect width="24" height="24" fill="white"/>
</clipPath>
</defs>
</svg>
