<svg width="24" height="24" viewBox="0 0 24 24" fill="none" xmlns="http://www.w3.org/2000/svg">
<g clip-path="url(#clip0_3_8761)">
<path d="M18.003 13H16.743C15.704 8.974 11.753 6.415 7.65399 7.114C3.55499 7.812 0.673995 11.534 1.02599 15.677C1.37799 19.82 4.845 23.003 9.003 23H18.003C20.765 23 23.003 20.761 23.003 18C23.003 15.239 20.765 13 18.003 13Z" stroke="black" stroke-width="2" stroke-linecap="round" stroke-linejoin="round"/>
<path d="M16.329 11.712L16.33 11.713" stroke="black" stroke-width="2" stroke-linecap="round" stroke-linejoin="round"/>
<path d="M12.216 7.599C12.573 6.106 13.917 5 15.519 5C17.4 5 18.928 6.528 18.928 8.409C18.928 10.01 17.822 11.355 16.33 11.712" stroke="black" stroke-width="2" stroke-linecap="round" stroke-linejoin="round"/>
<path d="M15.5 1V2.364" stroke="black" stroke-width="2" stroke-linecap="round" stroke-linejoin="round"/>
<path d="M10.195 3.19501L11.164 4.16401" stroke="black" stroke-width="2" stroke-linecap="round" stroke-linejoin="round"/>
<path d="M21.636 8.5H23" stroke="black" stroke-width="2" stroke-linecap="round" stroke-linejoin="round"/>
<path d="M19.836 4.16401L20.805 3.19501" stroke="black" stroke-width="2" stroke-linecap="round" stroke-linejoin="round"/>
</g>
<defs>
<clipPath id="clip0_3_8761">
<rect width="24" height="24" fill="white"/>
</clipPath>
</defs>
</svg>
