<svg width="24" height="24" viewBox="0 0 24 24" fill="none" xmlns="http://www.w3.org/2000/svg">
<path d="M20.006 16.58C22.173 15.631 23.378 13.294 22.894 10.978C22.411 8.66303 20.371 7.00303 18.006 7.00003H16.746C15.875 3.62903 12.925 1.20903 9.45 1.01303C5.974 0.817026 2.771 2.89103 1.528 6.14303C1.176 7.06403 1.004 8.01903 1 8.96403C0.997002 9.64203 1.08 10.314 1.245 10.966" stroke="black" stroke-width="2" stroke-linecap="round" stroke-linejoin="round"/>
<path d="M10.623 11L13.1 13.476C14.101 14.477 14.401 15.982 13.859 17.29C13.318 18.598 12.041 19.451 10.626 19.451C9.21001 19.451 7.933 18.598 7.392 17.29C6.85 15.982 7.15001 14.477 8.15201 13.476L10.623 11Z" stroke="black" stroke-width="2" stroke-linecap="round" stroke-linejoin="round"/>
</svg>
