<svg width="24" height="24" viewBox="0 0 24 24" fill="none" xmlns="http://www.w3.org/2000/svg">
<path d="M20.006 16.58C22.173 15.631 23.378 13.294 22.894 10.978C22.411 8.66303 20.371 7.00303 18.006 7.00003H16.746C15.875 3.62903 12.925 1.20903 9.45 1.01303C5.974 0.817026 2.771 2.89103 1.528 6.14303C1.176 7.06403 1.004 8.01903 1 8.96403C0.997002 9.64203 1.08 10.314 1.245 10.966" stroke="black" stroke-width="2" stroke-linecap="round" stroke-linejoin="round"/>
<path d="M7.04201 11L4.37601 15H8.37601L5.70901 19" stroke="black" stroke-width="2" stroke-linecap="round" stroke-linejoin="round"/>
<path d="M14.374 15L16.143 16.768C16.858 17.483 17.072 18.559 16.685 19.493C16.298 20.427 15.387 21.037 14.376 21.037C13.364 21.037 12.453 20.427 12.066 19.493C11.679 18.559 11.893 17.483 12.608 16.768L14.374 15Z" stroke="black" stroke-width="2" stroke-linecap="round" stroke-linejoin="round"/>
</svg>
