<svg width="24" height="24" viewBox="0 0 24 24" fill="none" xmlns="http://www.w3.org/2000/svg">
<path d="M20.006 16.58C22.173 15.631 23.378 13.294 22.894 10.978C22.411 8.66303 20.371 7.00303 18.006 7.00003H16.746C15.875 3.62903 12.925 1.20903 9.45 1.01303C5.974 0.817026 2.771 2.89103 1.528 6.14303C1.176 7.06403 1.004 8.01903 1 8.96403C0.997002 9.64203 1.08 10.314 1.245 10.966" stroke="black" stroke-width="2" stroke-linecap="round" stroke-linejoin="round"/>
<path d="M6.542 11L3.876 15H7.876L5.209 19" stroke="black" stroke-width="2" stroke-linecap="round" stroke-linejoin="round"/>
<path d="M12.875 11L13.936 12.061C14.365 12.49 14.494 13.135 14.261 13.696C14.029 14.256 13.482 14.622 12.876 14.622C12.269 14.622 11.722 14.256 11.49 13.696C11.258 13.135 11.386 12.49 11.815 12.061L12.875 11Z" stroke="black" stroke-width="2" stroke-linecap="round" stroke-linejoin="round"/>
<path d="M15.875 17L16.936 18.061C17.365 18.49 17.494 19.135 17.261 19.696C17.029 20.257 16.482 20.622 15.876 20.622C15.269 20.622 14.722 20.257 14.49 19.696C14.258 19.135 14.386 18.49 14.815 18.061L15.875 17Z" stroke="black" stroke-width="2" stroke-linecap="round" stroke-linejoin="round"/>
</svg>
