<svg width="24" height="24" viewBox="0 0 24 24" fill="none" xmlns="http://www.w3.org/2000/svg">
<path d="M10.29 3.91097L1.82 18.051C1.465 18.667 1.463 19.425 1.814 20.042C2.166 20.659 2.819 21.044 3.53 21.051H20.47C21.181 21.044 21.834 20.659 22.186 20.042C22.537 19.425 22.535 18.667 22.18 18.051L13.71 3.91097C13.347 3.31397 12.699 2.94897 12 2.94897C11.301 2.94897 10.653 3.31397 10.29 3.91097Z" stroke="black" stroke-width="2" stroke-linecap="round" stroke-linejoin="round"/>
<circle cx="12" cy="17" r="1" fill="black"/>
<path d="M10 11C10 9.985 10.896 9 12 9C13.103 9 13.967 9.905 13.999 11C14.026 11.907 13.073 12.567 12.641 12.999C12.2137 13.339 12 13.6507 12 13.934V14.551" stroke="black" stroke-width="2" stroke-miterlimit="3" stroke-linecap="round" stroke-linejoin="round"/>
</svg>
