<svg xmlns="http://www.w3.org/2000/svg" width="24" height="24" fill="none" stroke="currentColor" stroke-width="2" stroke-linecap="round" stroke-linejoin="round"><path d="M3.499 2.043C2.38 2.232 1.461 3.048 1.114 4.16l-.094.3v11.08l.094.3a3.097 3.097 0 0 0 2.026 2.042c.243.078.391.092 1.12.108.545.012.898.003 1.004-.026.233-.063.473-.25.603-.472.097-.165.113-.235.113-.492 0-.254-.017-.328-.108-.484a1.111 1.111 0 0 0-.499-.443c-.066-.028-.439-.057-.893-.07-.756-.022-.786-.026-.964-.131a1.199 1.199 0 0 1-.291-.249C2.988 15.312 3 15.608 3 10.022c0-5.782-.02-5.395.303-5.719C3.632 3.974 2.892 4 12 4c9.108 0 8.368-.026 8.697.303.323.324.303-.06.303 5.698 0 4.211-.01 5.138-.055 5.289a1.02 1.02 0 0 1-.461.582c-.178.105-.208.109-.964.131-.454.013-.827.042-.893.07a1.111 1.111 0 0 0-.499.443c-.091.156-.108.23-.108.484 0 .257.016.327.113.492.13.222.37.409.603.472.106.029.459.038 1.004.026.729-.016.877-.03 1.12-.108a3.097 3.097 0 0 0 2.026-2.042l.094-.3V4.46l-.094-.3a3.089 3.089 0 0 0-2.025-2.039l-.321-.101-8.42-.006c-4.631-.003-8.511.01-8.621.029m8.181 12.016a1.052 1.052 0 0 0-.308.169c-.071.062-1.281 1.497-2.689 3.189-2.095 2.517-2.573 3.113-2.627 3.275-.169.509.106 1.07.614 1.251.122.044 1.104.054 5.313.055 5.804.002 5.398.023 5.719-.298.3-.3.383-.821.185-1.158-.043-.073-1.24-1.525-2.658-3.227-1.958-2.35-2.62-3.118-2.747-3.189-.21-.118-.555-.147-.802-.067m1.762 4.231 1.408 1.69-1.425.011c-.784.005-2.066.005-2.85 0L9.15 19.98l1.408-1.69c.775-.93 1.424-1.69 1.442-1.69.018 0 .667.76 1.442 1.69" fill-rule="evenodd" fill="#000" stroke="none"/></svg>