<svg xmlns="http://www.w3.org/2000/svg" width="24" height="24" fill="none" stroke="currentColor" stroke-width="2" stroke-linecap="round" stroke-linejoin="round"><path d="M7.54 1.061a1.639 1.639 0 0 1-.179.058A370.74 370.74 0 0 0 4.266 4.19C1.807 6.646 1.173 7.3 1.096 7.46l-.095.2V12c.001 4.266.002 4.343.081 4.52.063.139.776.876 3.13 3.233 1.742 1.744 3.117 3.09 3.208 3.14l.16.087H12c4.22 0 4.426-.003 4.56-.074.193-.102 6.223-6.125 6.333-6.326l.087-.16V12c0-4.22-.003-4.426-.074-4.56-.102-.193-6.125-6.223-6.326-6.333l-.16-.087-4.36-.009c-3.724-.007-4.383 0-4.52.05M18.37 5.63 21 8.26v7.48l-2.63 2.63L15.74 21H8.26l-2.63-2.63L3 15.74V8.26l2.63-2.63L8.26 3h7.48l2.63 2.63m-6.675 1.427a1.04 1.04 0 0 0-.567.459l-.108.184v4.606l.121.197c.068.11.205.253.311.325.471.316 1.102.171 1.407-.325l.121-.197V7.7l-.108-.184a1.005 1.005 0 0 0-1.177-.459m0 7.998a1.05 1.05 0 0 0-.567.461c-.091.156-.108.23-.108.484 0 .257.016.327.113.492.518.882 1.865.526 1.865-.492a.994.994 0 0 0-.535-.888 1.17 1.17 0 0 0-.768-.057" fill="#000" fill-rule="evenodd" stroke="none"/></svg>