<svg xmlns="http://www.w3.org/2000/svg" width="24" height="24" fill="none" stroke="currentColor" stroke-width="2" stroke-linecap="round" stroke-linejoin="round"><path d="M11.358 1.061c-1.627.254-2.941 1.523-3.275 3.166-.383 1.878.673 3.804 2.457 4.484.176.067.352.132.39.144.066.021.07.345.07 6.057v6.035l-.25-.033c-1.518-.2-3.141-.903-4.38-1.895a9.661 9.661 0 0 1-1.93-2.139c-.667-1.017-1.232-2.545-1.346-3.641L3.069 13l1.055-.002c1.135-.002 1.235-.016 1.495-.215.077-.058.189-.191.25-.294.095-.161.111-.233.111-.489 0-.254-.017-.328-.108-.484a1.02 1.02 0 0 0-.582-.461c-.264-.08-3.316-.08-3.58 0a1.01 1.01 0 0 0-.579.458c-.134.227-.159.602-.094 1.384.173 2.08.919 4.033 2.189 5.736.475.636 1.527 1.683 2.174 2.164 3.964 2.948 9.266 2.937 13.237-.027.609-.454 1.679-1.524 2.133-2.133a11.04 11.04 0 0 0 2.192-5.746c.066-.782.041-1.15-.093-1.379a1.016 1.016 0 0 0-.579-.457c-.264-.08-3.316-.08-3.58 0a1.02 1.02 0 0 0-.582.461c-.091.156-.108.23-.108.484 0 .256.016.328.111.489.061.103.173.236.25.294.26.199.36.213 1.495.215l1.055.002-.025.239c-.114 1.096-.679 2.624-1.346 3.641-.522.796-1.263 1.613-1.96 2.163-1.249.985-2.849 1.673-4.35 1.871l-.25.033v-6.035c0-5.712.004-6.036.07-6.057 1.272-.405 2.167-1.209 2.634-2.367a3.963 3.963 0 0 0 .001-2.972 3.978 3.978 0 0 0-3.1-2.458 3.728 3.728 0 0 0-1.247.003m1.165 2.012a2.011 2.011 0 0 1 1.27 2.807c-.155.318-.566.745-.863.895a2.07 2.07 0 0 1-1.422.165c-.685-.178-1.259-.746-1.435-1.417a2.001 2.001 0 0 1 2.45-2.45" fill-rule="evenodd" fill="#000" stroke="none"/></svg>