<svg xmlns="http://www.w3.org/2000/svg" width="24" height="24" fill="none" stroke="currentColor" stroke-width="2" stroke-linecap="round" stroke-linejoin="round"><path d="m11.28 1.023-.56.06c-3.332.353-6.418 2.359-8.196 5.327-.792 1.322-1.344 3.04-1.481 4.61-.239 2.73.524 5.389 2.183 7.613.46.615 1.526 1.681 2.141 2.141 3.98 2.97 9.31 2.969 13.267-.004.801-.602 1.794-1.625 2.357-2.43a11.006 11.006 0 0 0 .391-12.077c-.452-.742-.913-1.319-1.62-2.024-.955-.954-1.807-1.568-2.942-2.119-1.098-.533-2.056-.826-3.34-1.019-.397-.06-1.892-.113-2.2-.078m-.316 2.767L9.722 5.94 8.147 8.668c-.421.73-.768 1.324-.771 1.32a625.33 625.33 0 0 1-1.111-1.921L5.161 6.154l.229-.258c.928-1.039 2.365-1.965 3.77-2.43.695-.23 1.563-.409 2.049-.421l.188-.005-.433.75m3.236-.513a9.08 9.08 0 0 1 5.137 3.513l.151.21h-4.024c-2.213 0-4.024-.006-4.024-.014 0-.012 1.456-2.543 2.046-3.556.087-.149.179-.27.206-.27.026 0 .255.053.508.117M5.681 11.06c.951 1.65 1.853 3.212 2.004 3.47l.273.471-2.225-.011-2.225-.01-.073-.214c-.278-.816-.412-1.718-.412-2.766 0-1.15.143-2.013.496-3 .162-.453.393-.983.416-.956.008.009.794 1.366 1.746 3.016m8.899-.595c.462.803.84 1.494.84 1.535 0 .041-.378.732-.84 1.535l-.84 1.462h-3.48l-.84-1.462c-.462-.803-.84-1.494-.84-1.536 0-.041.378-.732.84-1.535l.84-1.461h3.48l.84 1.462m5.985-1.231c.278.816.412 1.718.412 2.766 0 1.15-.143 2.013-.496 3-.162.453-.393.983-.416.956-.009-.009-.696-1.195-1.527-2.636l-2.003-3.47-.491-.851 2.224.011 2.224.01.073.214m-2.83 6.7 1.105 1.913-.221.247c-.493.549-1.308 1.215-1.984 1.62a9.45 9.45 0 0 1-2.844 1.103c-.425.085-1.191.186-1.191.157 0-.005.533-.933 1.185-2.062 1.368-2.367 1.91-3.306 2.448-4.24.212-.367.388-.664.391-.66.004.005.504.869 1.111 1.922m-5.175 1.08c0 .024-2.165 3.764-2.2 3.801-.047.049-.563-.072-1.22-.286a10.217 10.217 0 0 1-2.1-1.018 9.475 9.475 0 0 1-2.377-2.301L4.512 17h4.024c2.213 0 4.024.006 4.024.014" fill="#000" fill-rule="evenodd" stroke="none"/></svg>