<svg xmlns="http://www.w3.org/2000/svg" width="24" height="24" fill="none" stroke="currentColor" stroke-width="2" stroke-linecap="round" stroke-linejoin="round"><path d="M11.695 4.057a1.04 1.04 0 0 0-.567.459l-.108.184-.011 5.939-.01 5.938-2.73-2.725c-2.641-2.637-2.736-2.727-2.946-2.788-.266-.078-.378-.08-.613-.009a1.02 1.02 0 0 0-.582.461c-.092.156-.108.229-.107.484 0 .212.022.341.074.44.04.077 1.696 1.766 3.679 3.754 3.914 3.923 3.783 3.805 4.226 3.805.443 0 .312.118 4.226-3.805 1.983-1.988 3.639-3.677 3.679-3.754.052-.099.074-.228.074-.44.001-.255-.015-.328-.107-.484a1.02 1.02 0 0 0-.582-.461c-.235-.071-.347-.069-.613.009-.21.061-.305.151-2.946 2.788l-2.73 2.725-.01-5.938L12.98 4.7l-.108-.184a1.005 1.005 0 0 0-1.177-.459" fill="#000" fill-rule="evenodd" stroke="none"/></svg>