<svg xmlns="http://www.w3.org/2000/svg" width="24" height="24" fill="none" stroke="currentColor" stroke-width="2" stroke-linecap="round" stroke-linejoin="round"><path d="M6.695 6.057a1.04 1.04 0 0 0-.567.459L6.02 6.7l-.011 5.24c-.01 4.789-.005 5.255.055 5.414.091.241.279.442.516.552l.2.093 5.2-.001c4.24-.001 5.228-.011 5.35-.055.221-.079.414-.241.539-.454.095-.161.111-.233.111-.489 0-.254-.017-.328-.108-.484a1.209 1.209 0 0 0-.254-.295c-.298-.227-.183-.221-4.354-.221H9.421l4.205-4.21c2.313-2.316 4.239-4.273 4.279-4.35.052-.099.074-.228.074-.44.001-.255-.015-.328-.107-.484a1.02 1.02 0 0 0-.582-.461c-.235-.071-.347-.069-.613.008-.212.062-.323.169-4.446 4.289l-4.229 4.225-.011-3.938L7.98 6.7l-.108-.184a1.005 1.005 0 0 0-1.177-.459" fill="#000" fill-rule="evenodd" stroke="none"/></svg>