<svg xmlns="http://www.w3.org/2000/svg" width="24" height="24" fill="none" stroke="currentColor" stroke-width="2" stroke-linecap="round" stroke-linejoin="round"><path d="M6.58 6.094c-.237.11-.425.311-.516.552-.06.159-.065.626-.055 5.417l.011 5.243.121.197a.998.998 0 0 0 1.718 0l.121-.197.011-3.942.011-3.942 4.209 4.205c2.315 2.313 4.272 4.238 4.349 4.278.099.052.228.074.44.074.258.001.327-.015.492-.112.222-.13.409-.369.473-.603.054-.202.024-.53-.066-.709-.037-.074-1.96-2.029-4.273-4.345L9.421 8l3.879-.002c3.137-.001 3.909-.012 4.03-.055.221-.079.414-.241.539-.454.095-.161.111-.233.111-.489 0-.254-.017-.328-.108-.484a1.02 1.02 0 0 0-.582-.461C17.139 6.01 16.204 6 11.944 6l-5.164.001-.2.093" fill="#000" fill-rule="evenodd" stroke="none"/></svg>