<svg xmlns="http://www.w3.org/2000/svg" width="24" height="24" fill="none" stroke="currentColor" stroke-width="2" stroke-linecap="round" stroke-linejoin="round"><path d="M6.695 6.057a1.04 1.04 0 0 0-.567.459c-.092.156-.108.229-.107.484 0 .212.022.341.074.44.04.077 1.966 2.034 4.279 4.35L14.579 16h-3.843c-4.171 0-4.056-.006-4.354.221-.08.061-.195.194-.254.295-.091.156-.108.23-.108.484 0 .256.016.328.111.489.125.213.318.375.539.454.122.044 1.11.054 5.35.055l5.2.001.2-.093c.237-.11.425-.311.516-.552.06-.159.065-.625.055-5.414L17.98 6.7l-.109-.186a1.01 1.01 0 0 0-1.742 0l-.109.186-.011 3.939-.011 3.938-4.229-4.225c-4.123-4.12-4.234-4.227-4.446-4.289-.257-.075-.404-.076-.628-.006" fill="#000" fill-rule="evenodd" stroke="none"/></svg>