<svg xmlns="http://www.w3.org/2000/svg" width="24" height="24" fill="none" stroke="currentColor" stroke-width="2" stroke-linecap="round" stroke-linejoin="round"><path d="M11.67 4.061c-.222.081-.42.248-.542.455-.092.156-.108.229-.107.484 0 .212.022.341.074.44.04.077 1.291 1.36 2.779 2.85L16.579 11h-5.843c-4.835 0-5.875.009-6.026.055a1.02 1.02 0 0 0-.582.461c-.091.156-.108.23-.108.484 0 .256.016.328.111.489.125.213.318.375.539.454.123.044 1.222.054 6.03.055l5.879.002-2.705 2.71c-1.488 1.491-2.739 2.773-2.779 2.85-.052.099-.074.228-.074.44-.001.258.015.327.112.492.13.222.369.409.603.473.202.054.53.024.709-.066.074-.037 1.761-1.69 3.749-3.673 3.923-3.914 3.805-3.783 3.805-4.226 0-.443.121-.31-3.825-4.245-3.32-3.312-3.651-3.63-3.831-3.69a1.015 1.015 0 0 0-.673-.004" fill="#000" fill-rule="evenodd" stroke="none"/></svg>