<svg xmlns="http://www.w3.org/2000/svg" width="24" height="24" fill="none" stroke="currentColor" stroke-width="2" stroke-linecap="round" stroke-linejoin="round"><path d="M11.58 4.096c-.161.077-.907.804-3.806 3.71-1.983 1.988-3.636 3.675-3.673 3.749-.229.455-.045 1.046.407 1.312.165.097.234.113.492.112.212 0 .341-.022.44-.074.077-.04 1.359-1.29 2.849-2.778l2.71-2.705.01 5.942.011 5.942.121.197a.998.998 0 0 0 1.718 0l.121-.197.011-5.942.01-5.942 2.71 2.705c1.49 1.488 2.772 2.738 2.849 2.778.099.052.228.074.44.074.258.001.327-.015.492-.112.222-.13.409-.369.473-.603.054-.202.024-.53-.066-.709-.037-.074-1.69-1.761-3.673-3.749-2.899-2.906-3.645-3.633-3.806-3.71a.967.967 0 0 0-.84 0" fill="#000" fill-rule="evenodd" stroke="none"/></svg>