<svg xmlns="http://www.w3.org/2000/svg" width="24" height="24" fill="none" stroke="currentColor" stroke-width="2" stroke-linecap="round" stroke-linejoin="round"><path d="M11.64 4.068c-.156.053-.665.545-3.814 3.687C3.881 11.69 4.001 11.557 4.001 12c0 .443-.118.312 3.805 4.226 1.988 1.983 3.675 3.636 3.749 3.673.455.229 1.046.045 1.312-.407.097-.165.113-.234.112-.492 0-.212-.022-.341-.074-.44-.04-.077-1.291-1.359-2.779-2.85L7.421 13l5.879-.002c4.808-.001 5.907-.011 6.03-.055.221-.079.414-.241.539-.454.095-.161.111-.233.111-.489 0-.254-.017-.328-.108-.484a1.02 1.02 0 0 0-.582-.461c-.151-.046-1.191-.055-6.026-.055H7.421l2.705-2.71c1.488-1.49 2.739-2.773 2.779-2.85.052-.099.074-.228.074-.44.001-.255-.015-.328-.107-.484a1.016 1.016 0 0 0-1.232-.448" fill="#000" fill-rule="evenodd" stroke="none"/></svg>