<svg xmlns="http://www.w3.org/2000/svg" width="24" height="24" fill="none" stroke="currentColor" stroke-width="2" stroke-linecap="round" stroke-linejoin="round"><path d="M11.207.043A8.055 8.055 0 0 0 6.9 1.847a7.857 7.857 0 0 0-2.1 2.682 7.994 7.994 0 0 0 .989 8.511c.247.304.9.958 1.189 1.191l.158.127-.573 4.316c-.422 3.171-.566 4.364-.546 4.5.084.562.736.96 1.269.776.096-.033 1.194-.672 2.44-1.421l2.267-1.361 2.233 1.342c1.229.738 2.32 1.375 2.424 1.416a.968.968 0 0 0 1.051-.225c.167-.167.298-.455.3-.658 0-.057-.255-2.034-.568-4.394l-.568-4.291.157-.127c.087-.07.335-.299.552-.509A7.955 7.955 0 0 0 19.2 4.529a7.857 7.857 0 0 0-2.1-2.682C15.483.494 13.337-.163 11.207.043m1.357 1.996a5.991 5.991 0 0 1 5.107 4.021c.497 1.457.397 3.191-.261 4.52-.859 1.735-2.356 2.899-4.25 3.305-.606.13-1.714.13-2.32 0-1.905-.409-3.386-1.56-4.25-3.305-.658-1.329-.758-3.063-.261-4.52a5.892 5.892 0 0 1 1.402-2.255 5.918 5.918 0 0 1 4.833-1.766m-3.06 13.557c1.648.54 3.344.54 4.993 0 .262-.086.48-.152.484-.146.023.027.74 5.562.724 5.578-.011.011-.754-.42-1.652-.958-.898-.538-1.694-.999-1.769-1.024A1.081 1.081 0 0 0 12 19c-.081 0-.209.021-.284.046-.075.025-.871.486-1.769 1.024-.898.538-1.641.969-1.651.959-.016-.016.707-5.589.725-5.589.004 0 .221.07.483.156" fill="#000" fill-rule="evenodd" stroke="none"/></svg>