<svg xmlns="http://www.w3.org/2000/svg" width="24" height="24" fill="none" stroke="currentColor" stroke-width="2" stroke-linecap="round" stroke-linejoin="round"><path d="M17.695 3.057a1.04 1.04 0 0 0-.567.459l-.108.184v16.606l.121.197a.998.998 0 0 0 1.718 0l.121-.197V3.7l-.108-.184a1.005 1.005 0 0 0-1.177-.459m-6 6a1.04 1.04 0 0 0-.567.459l-.108.184v10.606l.121.197a.998.998 0 0 0 1.718 0l.121-.197V9.7l-.108-.184a1.005 1.005 0 0 0-1.177-.459m-6 6a1.04 1.04 0 0 0-.567.459l-.108.184v4.606l.121.197c.068.11.205.253.311.325.471.316 1.102.171 1.407-.325l.121-.197V15.7l-.108-.184a1.005 1.005 0 0 0-1.177-.459" fill="#000" fill-rule="evenodd" stroke="none"/></svg>