<svg xmlns="http://www.w3.org/2000/svg" width="24" height="24" fill="none" stroke="currentColor" stroke-width="2" stroke-linecap="round" stroke-linejoin="round"><path d="M2.499 5.042C1.377 5.234.461 6.048.114 7.16l-.094.3v9.08l.094.3a3.106 3.106 0 0 0 2.026 2.044c.264.086.355.092 1.624.107.883.01 1.399.001 1.504-.028.23-.062.469-.25.599-.471.097-.165.113-.235.113-.492 0-.254-.017-.328-.108-.484a1.136 1.136 0 0 0-.499-.445c-.077-.033-.519-.055-1.393-.07L2.7 16.98l-.184-.108a1.199 1.199 0 0 1-.291-.249C1.99 16.315 2 16.515 2 12.022c0-4.665-.017-4.399.303-4.719.3-.299.328-.303 2.317-.303 1.928 0 1.963-.004 2.235-.269.234-.226.322-.427.322-.731 0-.393-.189-.697-.556-.894-.158-.084-.2-.086-2.041-.092-1.034-.003-1.971.009-2.081.028m8.169.019a1.412 1.412 0 0 0-.273.143c-.136.096-4.257 6.246-4.341 6.476-.161.446.063.993.496 1.206l.19.094 2.19.02 2.19.02-1.521 2.28c-.836 1.254-1.538 2.343-1.559 2.42-.123.438.068.912.459 1.142.214.125.546.168.765.099.379-.12.346-.077 2.541-3.369 1.147-1.719 2.112-3.206 2.145-3.303.159-.466-.097-1.006-.577-1.219-.084-.037-.674-.055-2.303-.07l-2.19-.02 1.504-2.255c.827-1.241 1.529-2.327 1.56-2.415.268-.76-.516-1.527-1.276-1.249m4.027-.006a1.05 1.05 0 0 0-.567.461c-.091.156-.108.23-.108.484 0 .256.016.328.111.489.061.103.173.236.25.294.263.201.353.213 1.582.215 1.343.002 1.45.021 1.734.305.32.32.303.056.303 4.698 0 4.457.007 4.318-.221 4.617-.061.08-.194.195-.295.254l-.184.108-1.88.02c-1.827.019-1.884.022-2.041.106-.367.197-.556.501-.556.894 0 .304.088.505.322.732.281.273.295.275 2.483.259 1.914-.013 1.957-.016 2.232-.106a3.111 3.111 0 0 0 2.026-2.045l.094-.3V7.46l-.094-.3a3.077 3.077 0 0 0-2.025-2.036c-.31-.096-.366-.099-1.661-.11-1.034-.009-1.378 0-1.505.041m8 5.002a1.04 1.04 0 0 0-.567.459l-.108.184v2.606l.121.197a.998.998 0 0 0 1.718 0l.121-.197V10.7l-.108-.184a1.005 1.005 0 0 0-1.177-.459" fill-rule="evenodd" fill="#000" stroke="none"/></svg>