<svg width="24" height="24" fill="none" xmlns="http://www.w3.org/2000/svg"><path d="M2.499 5.043C1.38 5.232.461 6.048.114 7.16.023 7.451.02 7.503.02 8.883v1.423l.121.197a.998.998 0 0 0 1.718 0l.121-.196L2 9.023c.023-1.442.025-1.452.321-1.74C2.635 6.979 2.062 7 10 7c7.991 0 7.369-.024 7.697.303.32.32.303.056.303 4.697 0 4.592.013 4.373-.278 4.673-.327.337.265.305-5.962.327l-5.54.02-.16.086c-.354.192-.548.509-.548.897 0 .289.107.533.315.721.334.3-.14.28 6.133.267l5.62-.011.307-.105a3.129 3.129 0 0 0 1.988-1.988l.105-.307V7.42l-.105-.307a3.11 3.11 0 0 0-2.014-1.992l-.321-.101-7.42-.006c-4.081-.003-7.511.01-7.621.029M4.24 8.035c-.311.102-.589.358-.685.63-.076.216-.076 1.454 0 1.67.127.361.559.664.945.664.386 0 .818-.303.945-.664.076-.216.076-1.454 0-1.67-.07-.199-.295-.448-.499-.552-.175-.089-.547-.13-.706-.078m3.709.02a1.064 1.064 0 0 0-.671.712c-.025.095-.036 1.302-.029 3.321.011 3.17.011 3.172.098 3.335.414.773 1.456.76 1.81-.023.08-.176.081-.246.081-3.4s-.001-3.224-.081-3.4a.949.949 0 0 0-.834-.585.98.98 0 0 0-.374.04m14.746 2.002a1.04 1.04 0 0 0-.567.459l-.108.184v2.606l.121.197a.998.998 0 0 0 1.718 0l.121-.197V10.7l-.108-.184a1.005 1.005 0 0 0-1.177-.459M2.24 12.035c-.197.065-.35.163-.477.308-.071.08-.49.87-.931 1.754-.884 1.772-.903 1.828-.771 2.225.089.27.336.522.599.612.154.052.351.066.947.066.414 0 .753.008.753.018 0 .01-.191.403-.424.873-.392.789-.424.872-.426 1.092-.004.431.251.799.664.957.354.135.8.016 1.063-.282.071-.081.492-.875.936-1.765l.807-1.618v-.288c0-.24-.018-.317-.108-.471a1.209 1.209 0 0 0-.254-.295C4.373 15.034 4.181 15 3.374 15c-.404 0-.734-.008-.734-.017 0-.009.191-.403.424-.876.391-.79.424-.877.426-1.093a.977.977 0 0 0-.547-.902c-.172-.088-.544-.129-.703-.077" fill-rule="evenodd" fill="#000"/></svg>