<svg width="24" height="24" fill="none" xmlns="http://www.w3.org/2000/svg"><path d="M2.499 5.043C1.38 5.232.461 6.048.114 7.16l-.094.3v9.08l.094.3a3.086 3.086 0 0 0 2.046 2.046l.3.094h15.12l.307-.105a3.129 3.129 0 0 0 1.988-1.988l.105-.307V7.42l-.105-.307a3.11 3.11 0 0 0-2.014-1.992l-.321-.101-7.42-.006c-4.081-.003-7.511.01-7.621.029M17.31 7.061c.279.083.546.35.629.629.091.306.092 8.311.001 8.618-.066.22-.283.477-.508.6-.126.069-.474.072-7.432.072H2.7l-.184-.108a1.051 1.051 0 0 1-.458-.556c-.089-.254-.087-8.324.003-8.626.079-.269.351-.547.612-.627.291-.089 14.336-.092 14.637-.002M4.122 8.583a1.006 1.006 0 0 0-.513.469L3.5 9.26V12c0 2.599.004 2.747.075 2.88.137.257.254.381.47.501l.215.119h4.1c4.073 0 4.101-.001 4.28-.084.225-.103.429-.304.525-.515.069-.151.073-.333.073-2.901 0-2.568-.004-2.75-.073-2.901a1.099 1.099 0 0 0-.504-.504c-.153-.069-.375-.073-4.281-.073-3.572.001-4.138.009-4.258.061m18.573 1.474a1.04 1.04 0 0 0-.567.459l-.108.184v2.606l.121.197a.998.998 0 0 0 1.718 0l.121-.197V10.7l-.108-.184a1.005 1.005 0 0 0-1.177-.459" fill-rule="evenodd" fill="#000"/></svg>