<svg width="24" height="24" fill="none" xmlns="http://www.w3.org/2000/svg"><path d="M2.499 5.043C1.38 5.232.461 6.048.114 7.16l-.094.3v9.08l.094.3a3.086 3.086 0 0 0 2.046 2.046l.3.094h15.12l.307-.105a3.129 3.129 0 0 0 1.988-1.988l.105-.307V7.42l-.105-.307a3.11 3.11 0 0 0-2.014-1.992l-.321-.101-7.42-.006c-4.081-.003-7.511.01-7.621.029M17.31 7.061c.279.083.546.35.629.629.091.306.092 8.311.001 8.618-.066.22-.283.477-.508.6-.126.069-.474.072-7.432.072H2.7l-.184-.108a1.051 1.051 0 0 1-.458-.556c-.089-.254-.087-8.324.003-8.626.079-.269.351-.547.612-.627.291-.089 14.336-.092 14.637-.002m-13.07.974c-.311.102-.589.358-.685.63-.081.229-.081 6.441 0 6.67.127.361.559.664.945.664.386 0 .818-.303.945-.664.045-.126.055-.744.055-3.335s-.01-3.209-.055-3.335c-.07-.199-.295-.448-.499-.552-.175-.089-.547-.13-.706-.078m3.709.02a1.064 1.064 0 0 0-.671.712c-.025.095-.036 1.302-.029 3.321.011 3.17.011 3.172.098 3.335.414.773 1.456.76 1.81-.023.08-.176.081-.246.081-3.4s-.001-3.224-.081-3.4a.949.949 0 0 0-.834-.585.98.98 0 0 0-.374.04m3.531-.02a.995.995 0 0 0-.637.565c-.08.176-.081.246-.081 3.4s.001 3.224.081 3.4c.157.346.44.55.817.588.402.042.784-.176.993-.565l.087-.163V12c0-3.259 0-3.26-.086-3.421a1.1 1.1 0 0 0-.471-.467c-.172-.088-.545-.129-.703-.077m3.76 0c-.311.102-.589.358-.685.63-.045.126-.055.744-.055 3.335 0 3.507-.01 3.357.255 3.652a.984.984 0 0 0 1.49 0c.265-.295.255-.145.255-3.652 0-2.591-.01-3.209-.055-3.335-.07-.199-.295-.448-.499-.552-.175-.089-.547-.13-.706-.078m7.455 2.022a1.04 1.04 0 0 0-.567.459l-.108.184v2.606l.121.197a.998.998 0 0 0 1.718 0l.121-.197V10.7l-.108-.184a1.005 1.005 0 0 0-1.177-.459" fill-rule="evenodd" fill="#000"/></svg>