<svg xmlns="http://www.w3.org/2000/svg" width="24" height="24" fill="none" stroke="currentColor" stroke-width="2" stroke-linecap="round" stroke-linejoin="round"><path d="M.695.057a1.04 1.04 0 0 0-.567.459C.037.672.02.746.02 1s.016.327.107.48c.06.1 1.196 1.267 2.564 2.633l2.456 2.454-.053.286c-.029.158-.071.764-.093 1.347-.079 2.087-.224 3.2-.579 4.434-.426 1.478-1.019 2.569-1.845 3.395-.513.512-.605.687-.565 1.072.027.26.106.419.312.618.312.303-.262.281 7.393.281h6.863l2.88 2.883c1.621 1.622 2.959 2.929 3.06 2.99.153.091.226.107.48.107.257 0 .327-.016.492-.113.476-.28.647-.9.373-1.359-.055-.092-5.1-5.166-11.212-11.275C1.73.316 1.536.125 1.323.063 1.066-.012.919-.013.695.057m10.479.987a6.887 6.887 0 0 0-2.679.898c-.482.283-.608.395-.72.636a.988.988 0 0 0 .804 1.41c.265.028.415-.022.865-.288a4.936 4.936 0 0 1 2.576-.699c2.326 0 4.364 1.645 4.863 3.925.065.299.088.612.116 1.554.038 1.273.107 2.037.264 2.955.119.696.39 1.836.482 2.03.136.286.553.535.896.535.46 0 .906-.393.981-.863.018-.114-.015-.33-.116-.758-.351-1.483-.504-2.754-.506-4.179-.001-.997-.091-1.597-.364-2.418a7.017 7.017 0 0 0-5.716-4.724 8.857 8.857 0 0 0-1.746-.014M10.8 12.22 14.58 16H5.166l.294-.57c.886-1.717 1.354-3.629 1.505-6.14.028-.468.052-.85.053-.85l3.782 3.78m-.854 7.845c-.248.076-.548.368-.617.6-.145.488.009.879.568 1.439.307.309.421.393.743.55.528.258.803.324 1.36.324s.832-.066 1.36-.324c.322-.157.436-.241.743-.55.444-.445.617-.754.617-1.103a.997.997 0 0 0-1.21-.966c-.254.058-.454.202-.659.476-.189.251-.316.353-.533.43a.927.927 0 0 1-.636 0c-.217-.077-.344-.179-.534-.432-.339-.451-.72-.592-1.202-.444" fill-rule="evenodd" fill="#000" stroke="none"/></svg>