<svg xmlns="http://www.w3.org/2000/svg" width="24" height="24" fill="none" stroke="currentColor" stroke-width="2" stroke-linecap="round" stroke-linejoin="round"><path d="M11.54 1.023c-.825.079-1.29.177-1.92.404A7.011 7.011 0 0 0 5.456 5.53C5.148 6.337 5.049 6.919 5 8.2c-.049 1.284-.072 1.621-.162 2.34-.188 1.5-.55 2.769-1.109 3.883a5.758 5.758 0 0 1-1.152 1.606c-.513.512-.605.687-.565 1.072.027.26.106.419.312.618.314.305-.526.281 9.693.279 7.55-.001 9.189-.011 9.313-.055a1 1 0 0 0 .613-1.254c-.055-.165-.15-.285-.518-.656a5.852 5.852 0 0 1-1.149-1.602c-.587-1.169-.949-2.458-1.133-4.031-.075-.643-.098-1.002-.143-2.2-.048-1.273-.126-1.744-.427-2.58-.857-2.382-2.992-4.147-5.471-4.522-.376-.057-1.289-.101-1.562-.075m1.012 2.02a5.008 5.008 0 0 1 4.128 3.205c.218.566.32 1.243.32 2.12.001.605.088 1.83.179 2.511.232 1.738.678 3.227 1.361 4.551l.294.57H5.166l.294-.57c.683-1.324 1.127-2.809 1.361-4.551.088-.655.178-1.932.179-2.531 0-.857.104-1.539.32-2.1a4.997 4.997 0 0 1 5.232-3.205M9.946 20.065c-.248.076-.548.368-.617.6-.145.488.009.879.568 1.439.307.309.421.393.743.55.528.258.803.324 1.36.324s.832-.066 1.36-.324c.322-.157.436-.241.743-.55.444-.445.617-.754.617-1.103a.997.997 0 0 0-1.21-.966c-.254.058-.454.202-.659.476-.189.251-.316.353-.533.43a.927.927 0 0 1-.636 0c-.217-.077-.344-.179-.534-.432-.339-.451-.72-.592-1.202-.444" fill-rule="evenodd" fill="#000" stroke="none"/></svg>