<svg xmlns="http://www.w3.org/2000/svg" width="24" height="24" fill="none" stroke="currentColor" stroke-width="2" stroke-linecap="round" stroke-linejoin="round"><path d="M11.695.055a1.05 1.05 0 0 0-.567.461L11.02.7l-.011 4.439-.01 4.439-1.95-1.947C7.573 6.156 7.056 5.664 6.92 5.603c-.572-.258-1.272.088-1.391.686-.047.238.006.562.12.73.045.066 1.173 1.214 2.507 2.551L10.58 12l-2.424 2.43c-1.334 1.337-2.461 2.484-2.505 2.55-.275.409-.138 1.047.289 1.34.298.205.8.22 1.077.032.068-.046.991-.949 2.053-2.008L11 14.42v4.365c0 4.752-.01 4.529.225 4.838.059.077.19.19.291.249.156.091.23.108.484.108s.328-.016.48-.107c.102-.061 1.412-1.342 3.008-2.94 2.277-2.28 2.845-2.87 2.912-3.022.132-.301.111-.691-.051-.931-.044-.066-1.171-1.213-2.504-2.55L13.421 12l2.448-2.45c2.607-2.61 2.61-2.612 2.617-3.001.005-.255-.043-.429-.168-.609-.202-.289-5.725-5.762-5.891-5.837a1.161 1.161 0 0 0-.732-.048M14.55 4.97l1.53 1.53-1.54 1.54L13 9.58V6.51c0-1.689.005-3.07.01-3.07.006 0 .699.689 1.54 1.53m0 11 1.53 1.53-1.54 1.54L13 20.58v-3.07c0-1.689.005-3.07.01-3.07.006 0 .699.689 1.54 1.53" fill="#000" fill-rule="evenodd" stroke="none"/></svg>