<svg xmlns="http://www.w3.org/2000/svg" width="24" height="24" fill="none" stroke="currentColor" stroke-width="2" stroke-linecap="round" stroke-linejoin="round"><path d="M5.695 3.057a1.04 1.04 0 0 0-.567.459L5.02 3.7l-.01 8.214c-.007 5.419.003 8.266.03 8.364.059.22.251.461.468.589l.192.113h4.96c4.645 0 4.982-.005 5.3-.073 1.528-.327 2.788-1.277 3.473-2.619.229-.449.372-.849.474-1.328.101-.471.101-1.449 0-1.92-.283-1.325-1.04-2.458-2.12-3.177l-.353-.234.199-.205c.606-.622 1.073-1.525 1.274-2.464.053-.246.073-.512.073-.96 0-.448-.02-.714-.073-.96-.282-1.319-1.044-2.464-2.107-3.166-.754-.499-1.404-.739-2.248-.831-.605-.067-8.642-.053-8.857.014m9.166 2.065a3.072 3.072 0 0 1 2.014 2.017c.083.273.098.403.098.861 0 .458-.015.588-.098.861-.29.95-1.031 1.695-2.015 2.025l-.28.094-3.79.011-3.79.012V4.997l3.77.012 3.77.012.321.101m1 7.999a3.076 3.076 0 0 1 2.014 2.018c.083.273.098.403.098.861 0 .458-.015.588-.098.861-.289.95-1.031 1.695-2.015 2.025l-.28.094-4.29.011-4.29.011v-6.004l4.27.011 4.27.011.321.101" fill-rule="evenodd" fill="#000" stroke="none"/></svg>