<svg xmlns="http://www.w3.org/2000/svg" width="24" height="24" fill="none" stroke="currentColor" stroke-width="2" stroke-linecap="round" stroke-linejoin="round"><path d="M6.499 2.043c-1.109.188-2.011.981-2.385 2.097l-.094.28-.011 8.34c-.009 6.317-.001 8.382.035 8.512.146.532.751.856 1.264.677.095-.033 1.603-1.083 3.43-2.388L12 17.232l3.255 2.325c2.133 1.523 3.321 2.347 3.445 2.389.512.175 1.12-.148 1.261-.669.027-.1.037-2.955.03-8.504L19.98 4.42l-.094-.28c-.33-.982-1.065-1.715-2.025-2.019l-.321-.101-5.42-.006c-2.981-.003-5.511.01-5.621.029M17.31 4.061a.996.996 0 0 1 .63.632c.053.183.059 1.072.05 7.28l-.01 7.073-2.765-1.976c-1.69-1.206-2.828-1.993-2.925-2.022a.942.942 0 0 0-.58 0c-.097.029-1.235.816-2.925 2.022L6.02 19.046l-.01-7.073c-.011-7.959-.035-7.342.293-7.67.318-.318-.07-.297 5.68-.3 4.475-.003 5.148.005 5.327.058" fill-rule="evenodd" fill="#000" stroke="none"/></svg>