<svg xmlns="http://www.w3.org/2000/svg" width="24" height="24" fill="none" stroke="currentColor" stroke-width="2" stroke-linecap="round" stroke-linejoin="round"><path d="M1.695 2.057a1.04 1.04 0 0 0-.567.459L1.02 2.7l-.01 7.714c-.007 5.087.003 7.765.029 7.864.06.22.252.461.469.589l.192.113 3.86.021c4.312.023 4.026.003 4.503.311A2.03 2.03 0 0 1 11 21.02a1 1 0 0 0 2-.012c.001-.684.344-1.305.937-1.694.474-.31.188-.29 4.503-.313l3.86-.021.192-.113c.217-.128.409-.369.469-.589.026-.099.036-2.777.029-7.864L22.98 2.7l-.108-.184a1.209 1.209 0 0 0-.254-.295C22.324 1.997 22.374 2 18.972 2c-3.219 0-3.643.016-4.212.162a5.05 5.05 0 0 0-2.404 1.431L12 3.969l-.355-.374c-.843-.891-1.901-1.422-3.093-1.552-.598-.066-6.643-.053-6.857.014m7.166 2.065a3.088 3.088 0 0 1 2.018 2.017l.101.321.011 5.53c.006 3.042.001 5.53-.011 5.53s-.125-.051-.251-.114a3.638 3.638 0 0 0-1.124-.348C9.294 17.012 8.622 17 6.11 17H3V3.996l2.77.013 2.77.013.321.1M21 10.5V17h-3.11c-2.512 0-3.184.012-3.495.058a3.638 3.638 0 0 0-1.124.348 2.172 2.172 0 0 1-.251.114c-.012 0-.017-2.488-.011-5.53l.011-5.53.101-.321c.347-1.096 1.27-1.91 2.378-2.096.11-.018 1.394-.036 2.851-.038L21 4v6.5" fill-rule="evenodd" fill="#000" stroke="none"/></svg>