<svg xmlns="http://www.w3.org/2000/svg" width="24" height="24" fill="none" stroke="currentColor" stroke-width="2" stroke-linecap="round" stroke-linejoin="round"><path d="M.695.057a1.04 1.04 0 0 0-.567.459C.036.672.02.745.021 1c0 .212.022.341.074.44.04.077.838.907 1.773 1.844l1.699 1.705-.553.021c-.418.017-.633.046-.875.117C1.186 5.41.42 6.179.114 7.16l-.094.3v12.08l.094.3c.304.976 1.035 1.714 2.026 2.046l.28.094 9.079.011 9.08.01.92.915c.507.503.982.945 1.056.983.454.229 1.046.045 1.312-.407.097-.165.113-.235.113-.492 0-.254-.016-.328-.107-.48-.064-.106-4.665-4.735-11.22-11.287C1.73.316 1.536.125 1.323.063 1.066-.012.919-.013.695.057m8 2a1.04 1.04 0 0 0-.567.459c-.091.156-.108.23-.108.484 0 .256.016.328.111.489.125.213.318.375.539.454.12.043.719.054 2.973.055L14.466 4l.902 1.35c.521.78.956 1.389 1.029 1.442.282.207.297.208 2.581.208 2.436 0 2.413-.003 2.719.303.323.323.303-.027.303 5.414l.001 4.823.094.2c.181.382.5.588.908.588a.936.936 0 0 0 .721-.315c.299-.332.28.072.267-5.553l-.011-5.04-.094-.28c-.33-.983-1.069-1.719-2.025-2.017l-.321-.1-2.005-.014-2.004-.014-.901-1.349c-.958-1.434-1.034-1.522-1.39-1.603-.286-.065-6.334-.052-6.545.014m-1.78 6.278L8.25 9.67l-.17.215c-1.614 2.041-1.431 4.924.426 6.718a4.56 4.56 0 0 0 1.11.821 5.02 5.02 0 0 0 5.499-.504l.215-.17 1.625 1.625 1.625 1.626-7.94-.011-7.94-.01-.184-.108a1.199 1.199 0 0 1-.291-.249c-.238-.312-.225.032-.225-6.101 0-6.341-.022-5.894.304-6.219.287-.288.347-.297 1.916-.3L5.58 7l1.335 1.335M11.8 13.22l2.1 2.101-.12.1c-.19.159-.813.45-1.12.523a3.522 3.522 0 0 1-.66.069 2.979 2.979 0 0 1-2.696-1.668c-.247-.505-.32-.87-.294-1.48.02-.493.088-.775.28-1.165.093-.19.353-.58.387-.58.013 0 .968.945 2.123 2.1" fill-rule="evenodd" fill="#000" stroke="none"/></svg>