<svg xmlns="http://www.w3.org/2000/svg" width="24" height="24" fill="none" stroke="currentColor" stroke-width="2" stroke-linecap="round" stroke-linejoin="round"><path d="M8.697 2.056c-.09.029-.223.095-.295.148-.08.058-.487.628-1.032 1.444l-.901 1.347-2.004.014-2.005.014-.321.1A3.08 3.08 0 0 0 .114 7.16l-.094.3v12.08l.094.3a3.086 3.086 0 0 0 2.046 2.046l.3.094h19.08l.3-.094a3.086 3.086 0 0 0 2.046-2.046l.094-.3V7.46l-.094-.3a3.08 3.08 0 0 0-2.025-2.037l-.321-.1-2.005-.014-2.004-.014-.901-1.349c-.958-1.434-1.034-1.522-1.39-1.603-.283-.065-6.334-.052-6.543.013m6.671 3.294c.521.78.956 1.389 1.029 1.442.282.207.297.208 2.581.208 2.436 0 2.413-.003 2.719.303.325.325.303-.119.303 6.198 0 4.635-.01 5.638-.055 5.789a1.02 1.02 0 0 1-.461.582l-.184.108H2.7l-.184-.108a1.199 1.199 0 0 1-.291-.249c-.238-.312-.225.032-.225-6.101 0-6.34-.022-5.894.303-6.219C2.609 6.997 2.586 7 5.022 7c2.284 0 2.299-.001 2.581-.208.073-.053.508-.662 1.029-1.442L9.534 4h4.932l.902 1.35M11.4 8.044c-1.639.185-3.139 1.246-3.874 2.741-.368.748-.506 1.351-.506 2.215 0 .67.058 1.044.248 1.6.578 1.691 1.985 2.925 3.772 3.307.471.101 1.449.101 1.92 0 1.528-.327 2.788-1.277 3.473-2.619.405-.794.547-1.389.547-2.288 0-.899-.142-1.494-.547-2.287a5.022 5.022 0 0 0-3.193-2.551 5.223 5.223 0 0 0-1.84-.118m1.461 2.085c.943.276 1.723 1.054 2.014 2.01.083.273.098.403.098.861 0 .458-.015.588-.098.861a3.073 3.073 0 0 1-2.035 2.025c-.434.135-1.246.135-1.68 0a3.073 3.073 0 0 1-2.035-2.025c-.083-.273-.098-.403-.098-.861 0-.458.015-.588.098-.861a3.042 3.042 0 0 1 2.374-2.099c.333-.06 1.001-.017 1.362.089" fill-rule="evenodd" fill="#000" stroke="none"/></svg>