<svg xmlns="http://www.w3.org/2000/svg" width="24" height="24" fill="none" stroke="currentColor" stroke-width="2" stroke-linecap="round" stroke-linejoin="round"><path d="M3.499 3.043C2.38 3.232 1.461 4.048 1.114 5.16c-.091.291-.094.343-.094 1.723v1.423l.121.197a.998.998 0 0 0 1.718 0l.121-.196L3 7.023c.023-1.442.025-1.452.321-1.74C3.636 4.978 2.95 5 12 5c9.108 0 8.368-.026 8.697.303.326.326.303-.177.303 6.698 0 5.058-.009 6.138-.055 6.289a1.02 1.02 0 0 1-.461.582l-.184.108-3.28.02c-2.503.015-3.307.032-3.393.07a1.146 1.146 0 0 0-.499.446c-.091.156-.108.23-.108.484 0 .257.016.327.113.492.128.219.369.409.593.47.102.027 1.284.037 3.504.029l3.35-.012.28-.093c.99-.331 1.722-1.07 2.026-2.046l.094-.3V5.46l-.094-.3a3.089 3.089 0 0 0-2.025-2.039l-.321-.101-8.42-.006c-4.631-.003-8.511.01-8.621.029M1.8 11.077c-.211.043-.367.138-.546.333a.965.965 0 0 0-.118 1.127c.193.327.44.466.964.543 1.755.256 3.327 1.037 4.555 2.265 1.121 1.121 1.911 2.611 2.184 4.115.188 1.041.238 1.159.591 1.383a.96.96 0 0 0 1.159-.095c.278-.257.351-.428.345-.808-.006-.357-.148-1.103-.332-1.741a10.222 10.222 0 0 0-1.751-3.395c-.381-.482-1.202-1.302-1.657-1.656-1.401-1.089-2.957-1.765-4.666-2.029a8.743 8.743 0 0 0-.548-.074 3.324 3.324 0 0 0-.18.032m-.183 4.1a1.156 1.156 0 0 0-.523.523c-.253.544.061 1.199.654 1.36.848.23 1.296.445 1.801.862.705.582 1.092 1.23 1.391 2.33.162.594.819.909 1.36.653.373-.177.586-.497.588-.882.002-.391-.297-1.322-.597-1.863-.809-1.459-2.155-2.526-3.711-2.943-.398-.107-.774-.123-.963-.04m.078 3.878a1.05 1.05 0 0 0-.567.461c-.091.156-.108.23-.108.484 0 .257.016.327.113.492.518.882 1.865.526 1.865-.492a.994.994 0 0 0-.535-.888 1.17 1.17 0 0 0-.768-.057" fill-rule="evenodd" fill="#000" stroke="none"/></svg>