<svg width="24" height="24" fill="none" xmlns="http://www.w3.org/2000/svg"><path d="M.695.057a1.04 1.04 0 0 0-.567.459C.037.672.02.746.02 1s.016.327.107.48C.19 1.585 3 4.424 6.857 8.28l6.623 6.62v2.288c0 1.549.015 2.356.045 2.499.229 1.068 1.722 1.069 1.95.001.028-.132.045-.688.045-1.48v-1.267l3.45 3.445c1.897 1.895 3.513 3.479 3.59 3.519.099.052.228.074.44.074.258.001.327-.015.492-.112.476-.28.647-.9.373-1.359-.055-.092-5.1-5.166-11.212-11.275C1.73.316 1.536.125 1.323.063 1.066-.012.919-.013.695.057m18.349 3.568c-.288.144-.465.392-.525.735-.032.185-.041 1.641-.032 5.06.012 4.521.017 4.809.085 4.96.16.356.555.619.928.619s.768-.263.928-.619c.068-.151.073-.437.083-4.96.008-3.328-.002-4.88-.032-5.06-.085-.511-.469-.84-.979-.84a.9.9 0 0 0-.456.105M9 13.65a.962.962 0 0 0-.476.666c-.062.306-.06 5.084.001 5.371.23 1.069 1.72 1.069 1.95 0 .061-.287.063-5.065.001-5.371A.962.962 0 0 0 10 13.65c-.19-.114-.251-.13-.5-.13s-.31.016-.5.13m-4.953 4.974a.989.989 0 0 0-.449 1.306c.17.356.499.56.902.56 1.094 0 1.381-1.486.369-1.909-.233-.097-.577-.079-.822.043" fill-rule="evenodd" fill="#000"/></svg>