<svg width="24" height="24" fill="none" xmlns="http://www.w3.org/2000/svg"><path d="M19.044 3.625a.984.984 0 0 0-.52.69c-.063.314-.062 15.077.001 15.372.23 1.069 1.72 1.069 1.95 0 .062-.288.064-14.99.003-15.344a.965.965 0 0 0-.978-.823.9.9 0 0 0-.456.105M14.012 8.64a1.011 1.011 0 0 0-.487.672c-.064.3-.064 10.076 0 10.376.228 1.067 1.722 1.067 1.95 0 .064-.3.064-10.076 0-10.376a1.011 1.011 0 0 0-.487-.672c-.176-.101-.25-.119-.488-.119s-.312.018-.488.119M9 13.65a.962.962 0 0 0-.476.666c-.062.306-.06 5.084.001 5.371.23 1.069 1.72 1.069 1.95 0 .061-.287.063-5.065.001-5.371A.962.962 0 0 0 10 13.65c-.19-.114-.251-.13-.5-.13s-.31.016-.5.13m-4.953 4.974a.989.989 0 0 0-.449 1.306c.17.356.499.56.902.56 1.094 0 1.381-1.486.369-1.909-.233-.097-.577-.079-.822.043" fill-rule="evenodd" fill="#000"/></svg>