<svg xmlns="http://www.w3.org/2000/svg" width="24" height="24" fill="none" stroke="currentColor" stroke-width="2" stroke-linecap="round" stroke-linejoin="round"><path d="M4.499 2.043C3.383 2.23 2.461 3.048 2.114 4.16l-.094.3v15.08l.094.3a3.086 3.086 0 0 0 2.046 2.046l.3.094h15.08l.3-.094a3.086 3.086 0 0 0 2.046-2.046l.094-.3V11.7l-.109-.186a1.01 1.01 0 0 0-1.742 0l-.109.186-.02 3.78c-.015 2.903-.032 3.806-.07 3.893a1.146 1.146 0 0 1-.446.499l-.184.108H4.7l-.184-.108a1.199 1.199 0 0 1-.291-.249c-.239-.314-.225.172-.225-7.601 0-8.016-.025-7.391.303-7.719.325-.325-.122-.303 6.234-.305 4.61-.001 5.67-.011 5.793-.055.221-.079.414-.241.539-.454.095-.161.111-.233.111-.489 0-.254-.017-.328-.108-.484a1.02 1.02 0 0 0-.582-.461c-.152-.046-1.159-.054-5.886-.05-3.137.002-5.795.02-5.905.038M21.64 3.068c-.157.053-.789.67-4.909 4.785l-4.73 4.724-1.23-1.222c-1.083-1.076-1.255-1.231-1.428-1.289a1 1 0 0 0-1.215.45c-.091.156-.108.23-.108.484s.016.328.107.48c.134.224 3.241 3.324 3.433 3.425.194.101.686.102.88 0 .193-.1 10.297-10.197 10.433-10.425.091-.153.107-.226.107-.48s-.017-.328-.108-.484a1.016 1.016 0 0 0-1.232-.448" fill-rule="evenodd" fill="#000" stroke="none"/></svg>