<svg xmlns="http://www.w3.org/2000/svg" width="24" height="24" fill="none" stroke="currentColor" stroke-width="2" stroke-linecap="round" stroke-linejoin="round"><path d="M11.16 1.027c-.469.035-1.375.188-1.865.315a11.058 11.058 0 0 0-6.601 4.787c-.33.518-.797 1.472-1.013 2.071-.738 2.042-.871 4.095-.402 6.226.347 1.58 1.088 3.119 2.145 4.454.342.431 1.253 1.341 1.696 1.694 1.227.977 2.828 1.762 4.3 2.109 1.858.438 3.644.41 5.474-.086A10.978 10.978 0 0 0 22.572 15c.313-1.096.407-1.824.407-3.18l.001-1.04-.109-.186a1.008 1.008 0 0 0-1.741 0c-.109.185-.11.191-.136 1.186-.035 1.303-.11 1.858-.375 2.775-.57 1.97-1.925 3.8-3.659 4.94a8.981 8.981 0 0 1-10.271-.243 10.979 10.979 0 0 1-1.585-1.488 9.032 9.032 0 0 1-2.028-4.644c-.065-.487-.066-1.749-.002-2.24a8.988 8.988 0 0 1 4.983-6.959 8.938 8.938 0 0 1 2.631-.828c.566-.088 1.959-.099 2.492-.019a9.396 9.396 0 0 1 2.151.57c.546.218.685.244.96.18.557-.13.894-.688.736-1.224-.095-.325-.266-.506-.645-.683-.924-.432-2.243-.769-3.422-.875a15.449 15.449 0 0 0-1.8-.015m10.5 2.039c-.188.057-.48.339-4.93 4.786l-4.729 4.726-1.191-1.184c-.789-.786-1.251-1.215-1.37-1.275-.242-.122-.632-.125-.863-.008-.51.261-.717.866-.463 1.354.046.088.779.851 1.693 1.763 1.745 1.74 1.782 1.77 2.193 1.771.448.001.189.241 5.726-5.305 2.808-2.813 5.139-5.177 5.179-5.254.052-.099.074-.228.074-.44.001-.255-.015-.328-.107-.484a1.051 1.051 0 0 0-.556-.458c-.206-.072-.398-.07-.656.008" fill-rule="evenodd" fill="#000" stroke="none"/></svg>