<svg width="24" height="24" viewBox="0 0 24 24" fill="none" xmlns="http://www.w3.org/2000/svg">
<g clip-path="url(#clip0_3_8876)">
<path d="M12 6C8.69894 6 6 8.69894 6 12C6 15.3011 8.69894 18 12 18C15.3011 18 18 15.3011 18 12C18 8.69894 15.3011 6 12 6ZM12 8C14.2189 8 16 9.78106 16 12C16 14.2189 14.2189 16 12 16C9.78106 16 8 14.2189 8 12C8 9.78106 9.78106 8 12 8Z" fill="black"/>
<path d="M11.9844 -0.013672C11.7195 -0.00953155 11.4671 0.0995285 11.2825 0.289572C11.098 0.479616 10.9964 0.735117 11 1V3C10.9981 3.13251 11.0226 3.26407 11.072 3.38704C11.1214 3.51001 11.1948 3.62193 11.2878 3.7163C11.3809 3.81067 11.4918 3.88561 11.614 3.93676C11.7363 3.9879 11.8675 4.01424 12 4.01424C12.1325 4.01424 12.2637 3.9879 12.386 3.93676C12.5083 3.88561 12.6191 3.81067 12.7122 3.7163C12.8052 3.62193 12.8786 3.51001 12.928 3.38704C12.9774 3.26407 13.0019 3.13251 13 3V1C13.0018 0.86621 12.9768 0.733414 12.9264 0.609473C12.876 0.485533 12.8012 0.372969 12.7065 0.278448C12.6118 0.183927 12.4991 0.10937 12.3751 0.0591931C12.251 0.00901587 12.1182 -0.0157616 11.9844 -0.013672Z" fill="black"/>
<path d="M11.9844 19.9863C11.7195 19.9905 11.4671 20.0995 11.2825 20.2896C11.098 20.4796 10.9964 20.7351 11 21V23C10.9981 23.1325 11.0226 23.2641 11.072 23.387C11.1214 23.51 11.1948 23.6219 11.2878 23.7163C11.3809 23.8107 11.4918 23.8856 11.614 23.9368C11.7363 23.9879 11.8675 24.0142 12 24.0142C12.1325 24.0142 12.2637 23.9879 12.386 23.9368C12.5083 23.8856 12.6191 23.8107 12.7122 23.7163C12.8052 23.6219 12.8786 23.51 12.928 23.387C12.9774 23.2641 13.0019 23.1325 13 23V21C13.0018 20.8662 12.9768 20.7334 12.9264 20.6095C12.876 20.4855 12.8012 20.373 12.7065 20.2784C12.6118 20.1839 12.4991 20.1094 12.3751 20.0592C12.251 20.009 12.1182 19.9842 11.9844 19.9863Z" fill="black"/>
<path d="M4.20897 3.20898C4.0098 3.20902 3.81517 3.26854 3.65003 3.3799C3.48489 3.49125 3.35676 3.64939 3.28207 3.83403C3.20737 4.01867 3.18951 4.22141 3.23077 4.41626C3.27203 4.61112 3.37054 4.78922 3.51366 4.92773L4.93358 6.34766C5.02573 6.44363 5.1361 6.52025 5.25822 6.57303C5.38035 6.62582 5.51179 6.6537 5.64483 6.65506C5.77787 6.65641 5.90984 6.6312 6.03302 6.58091C6.15619 6.53063 6.2681 6.45626 6.36217 6.36219C6.45625 6.26811 6.53061 6.1562 6.5809 6.03303C6.63119 5.90985 6.6564 5.77788 6.65505 5.64484C6.65369 5.5118 6.62581 5.38036 6.57302 5.25824C6.52024 5.13611 6.44362 5.02574 6.34764 4.93359L4.92772 3.51367C4.83447 3.41729 4.72278 3.34064 4.5993 3.2883C4.47583 3.23596 4.34309 3.20898 4.20897 3.20898Z" fill="black"/>
<path d="M18.3496 17.3496C18.1507 17.3497 17.9563 17.409 17.7913 17.5202C17.6262 17.6313 17.4981 17.7891 17.4233 17.9734C17.3484 18.1577 17.3302 18.3601 17.371 18.5548C17.4118 18.7495 17.5098 18.9277 17.6523 19.0664L19.0723 20.4863C19.1644 20.5823 19.2748 20.6589 19.3969 20.7117C19.519 20.7645 19.6505 20.7924 19.7835 20.7937C19.9165 20.7951 20.0485 20.7699 20.1717 20.7196C20.2949 20.6693 20.4068 20.5949 20.5009 20.5009C20.5949 20.4068 20.6693 20.2949 20.7196 20.1717C20.7699 20.0485 20.7951 19.9166 20.7937 19.7835C20.7924 19.6505 20.7645 19.519 20.7117 19.3969C20.6589 19.2748 20.5823 19.1644 20.4863 19.0723L19.0664 17.6523C18.9732 17.5565 18.8618 17.4804 18.7386 17.4284C18.6155 17.3764 18.4832 17.3496 18.3496 17.3496Z" fill="black"/>
<path d="M0.999991 11C0.867479 10.9981 0.735916 11.0226 0.612948 11.072C0.489979 11.1214 0.378058 11.1948 0.283689 11.2878C0.189319 11.3809 0.114383 11.4917 0.0632352 11.614C0.0120875 11.7362 -0.0142517 11.8675 -0.0142517 12C-0.0142517 12.1325 0.0120875 12.2637 0.0632352 12.386C0.114383 12.5082 0.189319 12.6191 0.283689 12.7121C0.378058 12.8052 0.489979 12.8785 0.612948 12.928C0.735916 12.9774 0.867479 13.0019 0.999991 13H2.99999C3.1325 13.0019 3.26407 12.9774 3.38703 12.928C3.51 12.8785 3.62192 12.8052 3.71629 12.7121C3.81066 12.6191 3.8856 12.5082 3.93675 12.386C3.98789 12.2637 4.01423 12.1325 4.01423 12C4.01423 11.8675 3.98789 11.7362 3.93675 11.614C3.8856 11.4917 3.81066 11.3809 3.71629 11.2878C3.62192 11.1948 3.51 11.1214 3.38703 11.072C3.26407 11.0226 3.1325 10.9981 2.99999 11H0.999991Z" fill="black"/>
<path d="M21 11C20.8675 10.9981 20.7359 11.0226 20.6129 11.072C20.49 11.1214 20.3781 11.1948 20.2837 11.2878C20.1893 11.3809 20.1144 11.4917 20.0632 11.614C20.0121 11.7362 19.9857 11.8675 19.9857 12C19.9857 12.1325 20.0121 12.2637 20.0632 12.386C20.1144 12.5082 20.1893 12.6191 20.2837 12.7121C20.3781 12.8052 20.49 12.8785 20.6129 12.928C20.7359 12.9774 20.8675 13.0019 21 13H23C23.1325 13.0019 23.2641 12.9774 23.387 12.928C23.51 12.8785 23.6219 12.8052 23.7163 12.7121C23.8107 12.6191 23.8856 12.5082 23.9367 12.386C23.9879 12.2637 24.0142 12.1325 24.0142 12C24.0142 11.8675 23.9879 11.7362 23.9367 11.614C23.8856 11.4917 23.8107 11.3809 23.7163 11.2878C23.6219 11.1948 23.51 11.1214 23.387 11.072C23.2641 11.0226 23.1325 10.9981 23 11H21Z" fill="black"/>
<path d="M5.62109 17.3496C5.36129 17.3573 5.11471 17.4659 4.93359 17.6523L3.51366 19.0722C3.41769 19.1644 3.34107 19.2747 3.28828 19.3969C3.2355 19.519 3.20761 19.6504 3.20626 19.7835C3.20491 19.9165 3.23011 20.0485 3.2804 20.1716C3.33069 20.2948 3.40505 20.4067 3.49913 20.5008C3.59321 20.5949 3.70511 20.6692 3.82829 20.7195C3.95147 20.7698 4.08344 20.795 4.21648 20.7937C4.34952 20.7923 4.48096 20.7644 4.60308 20.7117C4.72521 20.6589 4.83558 20.5822 4.92773 20.4863L6.34765 19.0664C6.49215 18.9259 6.59085 18.745 6.63081 18.5475C6.67077 18.35 6.65012 18.145 6.57158 17.9594C6.49304 17.7739 6.36027 17.6163 6.19066 17.5075C6.02105 17.3987 5.82252 17.3436 5.62109 17.3496Z" fill="black"/>
<path d="M19.7598 3.21088C19.5 3.21863 19.2534 3.3272 19.0723 3.51362L17.6523 4.93354C17.5564 5.02569 17.4797 5.13605 17.427 5.25818C17.3742 5.38031 17.3463 5.51174 17.3449 5.64479C17.3436 5.77783 17.3688 5.9098 17.4191 6.03298C17.4694 6.15615 17.5437 6.26806 17.6378 6.36214C17.7319 6.45622 17.8438 6.53058 17.967 6.58087C18.0901 6.63116 18.2221 6.65636 18.3552 6.65501C18.4882 6.65365 18.6196 6.62577 18.7418 6.57298C18.8639 6.5202 18.9743 6.44358 19.0664 6.3476L20.4863 4.92768C20.6308 4.78722 20.7295 4.60638 20.7695 4.40886C20.8094 4.21134 20.7888 4.00635 20.7103 3.82077C20.6317 3.63518 20.4989 3.47765 20.3293 3.36882C20.1597 3.26 19.9612 3.20494 19.7598 3.21088Z" fill="black"/>
</g>
<defs>
<clipPath id="clip0_3_8876">
<rect width="24" height="24" fill="white"/>
</clipPath>
</defs>
</svg>
