<svg width="24" height="24" viewBox="0 0 24 24" fill="none" xmlns="http://www.w3.org/2000/svg">
<path d="M11.1973 2.01957C11.1647 2.01928 11.1321 2.02059 11.0996 2.02348C5.84715 2.50924 1.86151 7.01559 2.02344 12.2871C2.18536 17.5597 6.44039 21.8147 11.7129 21.9766C16.9845 22.1385 21.4908 18.1529 21.9766 12.9004C21.9943 12.7083 21.9561 12.5152 21.8665 12.3444C21.777 12.1735 21.64 12.0322 21.4719 11.9374C21.3039 11.8427 21.112 11.7985 20.9195 11.8103C20.7269 11.8221 20.5419 11.8894 20.3867 12.0039C17.9919 13.7741 14.6813 13.529 12.5762 11.4239C10.4711 9.31876 10.226 6.00816 11.9961 3.61332C12.1056 3.46481 12.172 3.28888 12.1877 3.10501C12.2035 2.92114 12.168 2.7365 12.0853 2.57152C12.0026 2.40654 11.8759 2.26766 11.7192 2.17024C11.5624 2.07283 11.3818 2.02068 11.1973 2.01957ZM9.32813 4.58402C8.35148 7.41331 8.953 10.6288 11.1621 12.8379C13.3712 15.047 16.5867 15.6486 19.416 14.6719C18.262 17.845 15.3023 20.085 11.7734 19.9766C7.53794 19.8465 4.15352 16.4621 4.02344 12.2266C3.91504 8.69775 6.155 5.73805 9.32813 4.58402Z" fill="black"/>
</svg>
