<svg xmlns="http://www.w3.org/2000/svg" width="24" height="24" fill="none" stroke="currentColor" stroke-width="2" stroke-linecap="round" stroke-linejoin="round"><path d="M8.46.024A9.731 9.731 0 0 0 6.4.389 9.004 9.004 0 0 0 0 8.998a8.999 8.999 0 0 0 3.66 7.241c.43.318.941.631 1.155.706.756.267 1.513-.504 1.244-1.267-.095-.27-.233-.417-.6-.638a7.011 7.011 0 0 1-1.439-1.136C.934 10.789 1.462 5.636 5.12 3.181c2.172-1.458 5.061-1.558 7.338-.254a6.996 6.996 0 0 1 1.811 1.48 7.107 7.107 0 0 1 1.396 2.508c.206.634.321.812.632.977.151.08.243.088 1.223.111 1.127.028 1.388.063 1.904.257.9.339 1.72 1.077 2.156 1.94.299.591.445 1.324.406 2.038-.013.254-.053.57-.087.702-.368 1.402-1.429 2.518-2.74 2.881-.619.171-.704.21-.89.418-.365.406-.356.959.023 1.354.156.163.283.232.526.287.154.034.251.026.554-.045A6.027 6.027 0 0 0 23.66 14a6.02 6.02 0 0 0 .178-3.38c-.5-2.164-2.239-3.915-4.409-4.441-.388-.094-1.074-.172-1.663-.19l-.294-.009-.169-.42a8.498 8.498 0 0 0-1.812-2.764C14.042 1.297 12.262.379 10.26.1 9.844.042 8.807-.002 8.46.024m4.208 10.037a1.412 1.412 0 0 0-.273.143c-.136.096-4.257 6.246-4.341 6.476-.161.446.063.993.496 1.206l.19.094 2.19.02 2.19.02-1.521 2.28c-.836 1.254-1.538 2.343-1.559 2.42-.123.438.068.912.459 1.142.214.125.546.168.765.099.379-.12.346-.077 2.541-3.369 1.147-1.719 2.112-3.206 2.145-3.303.159-.466-.097-1.006-.577-1.219-.084-.037-.674-.055-2.303-.07l-2.19-.02 1.52-2.28c.837-1.254 1.539-2.343 1.56-2.42.217-.771-.548-1.492-1.292-1.219" fill-rule="evenodd" fill="#000" stroke="none"/></svg>