<svg xmlns="http://www.w3.org/2000/svg" width="24" height="24" fill="none" stroke="currentColor" stroke-width="2" stroke-linecap="round" stroke-linejoin="round"><path d="M8.44 3.024a11.85 11.85 0 0 0-1.382.195c-1.691.354-3.467 1.362-4.626 2.625C1.182 7.205.418 8.765.093 10.622c-.099.566-.099 2.19 0 2.756.454 2.593 1.809 4.702 3.936 6.128.869.582 2.12 1.099 3.171 1.311.911.183 1.114.188 6.5.174l5.08-.014.4-.091c1.248-.284 2.241-.827 3.089-1.691.84-.855 1.357-1.826 1.616-3.035.13-.606.13-1.714 0-2.32-.408-1.904-1.562-3.387-3.305-4.25-.763-.378-1.619-.561-2.811-.6l-.291-.01-.174-.427c-1.173-2.882-3.85-4.97-6.986-5.451-.408-.063-1.52-.109-1.878-.078m1.272 2.019a7.035 7.035 0 0 1 5.049 3.003c.354.515.693 1.216.904 1.868.206.635.321.813.632.978.15.079.246.088 1.223.113.725.019 1.147.048 1.335.09a4.08 4.08 0 0 1 2.942 2.66c.1.295.203.925.203 1.245 0 .322-.103.951-.204 1.245-.475 1.387-1.601 2.383-3.023 2.672-.397.081-.512.083-5.281.083-5.272 0-5.356-.003-6.198-.216a7.004 7.004 0 0 1-5.293-6.801 7.025 7.025 0 0 1 1.901-4.778c1.449-1.558 3.697-2.394 5.81-2.162" fill-rule="evenodd" fill="#000" stroke="none"/></svg>