<svg xmlns="http://www.w3.org/2000/svg" width="24" height="24" fill="none" stroke="currentColor" stroke-width="2" stroke-linecap="round" stroke-linejoin="round"><path d="M.695.057a1.04 1.04 0 0 0-.567.459C.036.672.02.745.021 1c0 .212.022.341.074.44.04.077.805.873 1.698 1.77l1.625 1.63-.159.13a9.326 9.326 0 0 0-2.11 2.413 9.33 9.33 0 0 0-.85 1.897c-.29.919-.275.781-.289 2.601-.013 1.546-.008 1.687.066 2.02.436 1.95 1.502 3.723 2.981 4.958A9.105 9.105 0 0 0 8.04 20.96c.32.031 2.015.041 5.58.032 4.762-.012 5.144-.018 5.457-.085l.336-.073 1.504 1.499c.826.824 1.566 1.532 1.643 1.572.099.052.228.074.44.074.258.001.327-.015.492-.112.476-.28.647-.9.373-1.359-.055-.092-5.1-5.166-11.212-11.275C1.73.316 1.536.125 1.323.063 1.066-.012.919-.013.695.057M9.32 3.083c-.394.178-.613.504-.616.917-.002.304.084.498.323.728.198.19.283.22.91.315.616.092.921.165 1.383.327 1 .351 1.911.942 2.706 1.757.83.85 1.332 1.731 1.713 3.005.117.394.277.611.558.76.15.079.246.088 1.203.112.572.015 1.137.047 1.255.071 1.467.304 2.645 1.359 3.063 2.745.265.878.241 1.645-.081 2.611-.159.478-.165.57-.056.864.107.285.353.514.656.609a.69.69 0 0 0 .452.025c.467-.098.674-.339.906-1.05.236-.726.284-1.043.284-1.899 0-.829-.04-1.1-.267-1.82-.659-2.084-2.465-3.661-4.652-4.063a9.045 9.045 0 0 0-.972-.091l-.613-.026-.151-.384c-1.157-2.944-3.93-5.093-7.144-5.538-.534-.074-.648-.071-.86.025m1.9 9.557L17.58 19h-4.589c-3.928 0-4.652-.009-5.033-.062a7.004 7.004 0 0 1-4.779-2.878c-.506-.705-.983-1.787-1.154-2.622-.539-2.62.429-5.266 2.543-6.954.139-.111.261-.202.272-.203.011 0 2.882 2.861 6.38 6.359" fill-rule="evenodd" fill="#000" stroke="none"/></svg>