<svg xmlns="http://www.w3.org/2000/svg" width="24" height="24" fill="none" stroke="currentColor" stroke-width="2" stroke-linecap="round" stroke-linejoin="round"><path d="M8.34 1.028c-1.489.098-3.043.632-4.315 1.482a8.073 8.073 0 0 0-1.424 1.172A9.083 9.083 0 0 0 .276 7.775a9.264 9.264 0 0 0-.112 3.952c.377 1.901 1.38 3.677 2.793 4.941.495.444.727.571 1.043.571.676 0 1.137-.628.945-1.287-.059-.204-.106-.261-.6-.726a11.297 11.297 0 0 1-.756-.776 6.931 6.931 0 0 1-1.577-4.194c-.045-1.215.153-2.162.686-3.276.41-.858.807-1.41 1.464-2.035a6.99 6.99 0 0 1 7.824-1.266c1.781.848 3.058 2.314 3.674 4.218.211.653.323.829.637.995.151.08.243.088 1.223.111 1.34.033 1.589.082 2.311.455 2.313 1.194 2.871 4.231 1.143 6.21-.299.342-.649.61-1.137.871-.488.262-.614.371-.742.641a.983.983 0 0 0 .23 1.128c.324.307.736.346 1.223.115a5.848 5.848 0 0 0 1.797-1.314 5.932 5.932 0 0 0 1.492-5.429c-.271-1.166-.764-2.053-1.614-2.903C21.029 7.584 19.587 7 17.835 7c-.304 0-.361-.01-.382-.07a23.043 23.043 0 0 0-.239-.567c-.652-1.522-1.845-2.932-3.274-3.871a9.05 9.05 0 0 0-5.6-1.464m-.645 14.027a1.05 1.05 0 0 0-.567.461c-.091.156-.108.23-.108.484 0 .257.016.327.113.492.518.882 1.865.526 1.865-.492a.994.994 0 0 0-.535-.888 1.17 1.17 0 0 0-.768-.057m8 0a1.05 1.05 0 0 0-.567.461c-.091.156-.108.23-.108.484 0 .257.016.327.113.492.518.882 1.865.526 1.865-.492a.994.994 0 0 0-.535-.888 1.17 1.17 0 0 0-.768-.057m-4 2a1.05 1.05 0 0 0-.567.461c-.091.156-.108.23-.108.484 0 .257.016.327.113.492.518.882 1.865.526 1.865-.492a.994.994 0 0 0-.535-.888 1.17 1.17 0 0 0-.768-.057m-4 2a1.05 1.05 0 0 0-.567.461c-.091.156-.108.23-.108.484 0 .257.016.327.113.492.518.882 1.865.526 1.865-.492a.994.994 0 0 0-.535-.888 1.17 1.17 0 0 0-.768-.057m8 0a1.05 1.05 0 0 0-.567.461c-.091.156-.108.23-.108.484 0 .257.016.327.113.492.518.882 1.865.526 1.865-.492a.994.994 0 0 0-.535-.888 1.17 1.17 0 0 0-.768-.057m-4 2a1.05 1.05 0 0 0-.567.461c-.091.156-.108.23-.108.484 0 .257.016.327.113.492.518.882 1.865.526 1.865-.492a.994.994 0 0 0-.535-.888 1.17 1.17 0 0 0-.768-.057" fill-rule="evenodd" fill="#000" stroke="none"/></svg>