<svg xmlns="http://www.w3.org/2000/svg" width="24" height="24" fill="none" stroke="currentColor" stroke-width="2" stroke-linecap="round" stroke-linejoin="round"><path d="M7.64 5.068c-.155.053-.604.485-3.293 3.167-1.777 1.773-3.159 3.182-3.22 3.285-.091.152-.107.226-.107.48s.016.328.107.48c.136.227 6.243 6.327 6.428 6.419.455.229 1.046.045 1.312-.407.097-.165.113-.234.112-.492 0-.212-.022-.341-.074-.44-.04-.077-1.291-1.36-2.779-2.85L3.421 12l2.705-2.71C7.614 7.8 8.865 6.517 8.905 6.44c.052-.099.074-.228.074-.44.001-.255-.015-.328-.107-.484a1.016 1.016 0 0 0-1.232-.448m8.03-.007c-.222.081-.42.248-.542.455-.092.156-.108.229-.107.484 0 .212.022.341.074.44.04.077 1.291 1.36 2.779 2.85L20.579 12l-2.705 2.71c-1.488 1.49-2.739 2.773-2.779 2.85-.052.099-.074.228-.074.44-.001.258.015.327.112.492.13.222.369.409.603.473.202.054.53.024.709-.066.185-.092 6.292-6.192 6.428-6.419.091-.152.107-.226.107-.48s-.016-.328-.107-.48c-.061-.103-1.442-1.512-3.22-3.285-2.836-2.828-3.131-3.11-3.31-3.17a1.015 1.015 0 0 0-.673-.004" fill="#000" fill-rule="evenodd" stroke="none"/></svg>