<svg xmlns="http://www.w3.org/2000/svg" width="24" height="24" fill="none" stroke="currentColor" stroke-width="2" stroke-linecap="round" stroke-linejoin="round"><path d="M11.563 1.11c-.321.167-10.152 6.574-10.281 6.701a1.13 1.13 0 0 0-.188.26c-.07.141-.075.337-.085 3.849-.009 2.777 0 3.743.036 3.874.03.11.115.245.231.366.129.135 1.658 1.151 5.129 3.406 2.719 1.768 5.04 3.264 5.157 3.324.158.082.27.11.438.11.168 0 .28-.028.438-.11.117-.061 2.438-1.556 5.157-3.324 3.438-2.234 5-3.271 5.127-3.404.102-.106.203-.26.23-.351.068-.226.069-7.391.002-7.617-.071-.236-.285-.454-.73-.741l-4.991-3.247c-2.522-1.642-4.681-3.035-4.797-3.096A.835.835 0 0 0 12 1a.841.841 0 0 0-.437.11M11 5.91v2.071l-1.958 1.37a119.48 119.48 0 0 1-2.012 1.391c-.049.018-3.149-2.114-3.192-2.196-.013-.024 7.048-4.667 7.152-4.703.005-.001.01.929.01 2.067m6.52.869c1.419.92 2.602 1.694 2.629 1.718.038.034-.324.307-1.519 1.142-.863.604-1.597 1.098-1.63 1.098-.034 0-.947-.62-2.03-1.378L13 7.981V3.843l.97.631 3.55 2.305m-3.889 4.081A62.755 62.755 0 0 1 15.237 12c0 .011-.728.529-1.618 1.15L12 14.281l-1.619-1.131c-.89-.621-1.618-1.139-1.618-1.15.001-.028 3.212-2.274 3.24-2.266.012.003.745.51 1.628 1.126m-9.458.38c.585.407 1.063.749 1.064.76 0 .018-1.833 1.309-2.122 1.494L3 13.568v-1.566c0-1.32.009-1.561.055-1.534a90.1 90.1 0 0 1 1.118.772m16.818 1.543-.011.782-1.109-.772c-.609-.425-1.108-.782-1.108-.793.001-.011.5-.367 1.109-.791l1.108-.771.011.781c.006.43.006 1.133 0 1.564M9.036 14.647l1.963 1.373v2.069l.001 2.07-.39-.253a1024.138 1024.138 0 0 1-6.758-4.401c-.036-.034.336-.314 1.539-1.156.874-.611 1.609-1.102 1.635-1.092.026.01.931.636 2.01 1.39m9.599-.279c1.175.822 1.549 1.103 1.513 1.136-.026.025-1.416.933-3.088 2.018-1.672 1.085-3.27 2.122-3.55 2.305l-.51.331.001-2.069V16.02l1.989-1.391c1.094-.764 2.01-1.382 2.036-1.372.026.01.75.51 1.609 1.111" fill="#000" fill-rule="evenodd" stroke="none"/></svg>