<svg xmlns="http://www.w3.org/2000/svg" width="24" height="24" fill="none" stroke="currentColor" stroke-width="2" stroke-linecap="round" stroke-linejoin="round"><path d="M11.541 1.042c-.537.084-.639.133-2.657 1.288-.846.483-1.609.904-1.698.935a1.701 1.701 0 0 0-.363.21c-.112.084-.955.582-1.875 1.106-.954.544-1.762 1.032-1.882 1.137-.494.43-.744.82-.952 1.482l-.094.3v9l.094.3c.236.756.681 1.35 1.307 1.746.109.069.901.526 1.759 1.015.858.49 1.617.94 1.687 1a.957.957 0 0 0 .28.161c.084.027.846.446 1.693.93 1.699.971 2.037 1.145 2.48 1.27.58.164.667.177.87.129.838-.196 1-.272 2.97-1.399.847-.484 1.609-.903 1.693-.93a.957.957 0 0 0 .28-.161c.07-.06.829-.51 1.687-1 .858-.489 1.65-.946 1.759-1.015a2.91 2.91 0 0 0 1.084-1.206c.339-.69.317-.312.317-5.34 0-4.163-.005-4.477-.072-4.72-.182-.66-.47-1.123-.974-1.562-.12-.105-.928-.593-1.882-1.137-.92-.524-1.763-1.022-1.875-1.106a1.701 1.701 0 0 0-.363-.21c-.089-.031-.861-.458-1.718-.947-1.689-.967-1.993-1.124-2.353-1.216a3.829 3.829 0 0 0-1.202-.06m.748 2.011c.164.052 2.11 1.151 2.111 1.193 0 .04-2.33 1.374-2.4 1.374-.07 0-2.4-1.334-2.4-1.374.001-.042 1.947-1.141 2.111-1.193.082-.026.212-.047.289-.047.077 0 .207.021.289.047m-2.82 3.453a92.972 92.972 0 0 0 2.111 1.199.969.969 0 0 0 .42.094.969.969 0 0 0 .42-.094c.11-.052 1.062-.592 2.115-1.202l1.915-1.107 1.256.716 1.257.717-3.45 1.996C13.616 9.922 12.035 10.82 12 10.82c-.035 0-1.616-.898-3.513-1.995L5.037 6.83l1.251-.715c.689-.393 1.256-.715 1.261-.715.005 0 .869.497 1.92 1.106M7.534 10.58l3.463 2 .002 3.99c0 2.195-.012 3.989-.029 3.988-.016-.002-.57-.313-1.23-.692l-1.2-.689-.02-2.399-.02-2.398-.094-.19a1.215 1.215 0 0 0-.245-.32c-.084-.071-1.054-.651-2.157-1.287L4 11.425V9.989c0-.833.015-1.43.036-1.422.02.007 1.594.913 3.498 2.013M20 9.993v1.432l-2.004 1.158c-1.103.636-2.073 1.216-2.157 1.287a1.215 1.215 0 0 0-.245.32l-.094.19-.02 2.398-.02 2.399-1.2.689c-.66.379-1.213.69-1.23.692-.017.001-.029-1.793-.029-3.988l.002-3.99 3.468-2.007a332.4 332.4 0 0 1 3.499-2.01c.017-.002.03.642.03 1.43M5.262 14.464l1.218.704v2.839l-.13-.079c-.071-.043-.534-.309-1.027-.591-.544-.31-.957-.573-1.05-.669-.252-.26-.273-.392-.273-1.735 0-.645.01-1.173.022-1.173.012 0 .57.317 1.24.704M20 14.933c0 1.343-.021 1.475-.273 1.735-.093.096-.506.359-1.05.669-.493.282-.955.548-1.027.591l-.13.079v-2.84l1.21-.702a39.478 39.478 0 0 1 1.24-.703c.017-.001.03.526.03 1.171" fill-rule="evenodd" fill="#000" stroke="none"/></svg>