<svg width="24" height="24" xmlns="http://www.w3.org/2000/svg" fill="none" stroke="currentColor" stroke-width="2" stroke-linecap="round" stroke-linejoin="round"><path d="M5.695.057a1.04 1.04 0 0 0-.567.459L5.02.7v3.606l.121.197a.998.998 0 0 0 1.718 0l.121-.197V.7L6.872.516A1.005 1.005 0 0 0 5.695.057m4 0a1.04 1.04 0 0 0-.567.459L9.02.7v3.606l.121.197a.998.998 0 0 0 1.718 0l.121-.197V.7l-.108-.184A1.005 1.005 0 0 0 9.695.057m4 0a1.04 1.04 0 0 0-.567.459L13.02.7v3.606l.121.197a.998.998 0 0 0 1.718 0l.121-.197V.7l-.108-.184a1.005 1.005 0 0 0-1.177-.459m-12 7a1.04 1.04 0 0 0-.567.459L1.02 7.7v4.96c0 4.645.005 4.982.073 5.3.433 2.024 1.923 3.514 3.947 3.947.318.068.644.073 4.96.073s4.642-.005 4.96-.073c1.528-.327 2.788-1.277 3.473-2.619a4.985 4.985 0 0 0 .555-1.952l.023-.325.325-.023a5.099 5.099 0 0 0 3.698-2.04c.393-.532.722-1.281.873-1.988.101-.471.101-1.449 0-1.92-.282-1.319-1.044-2.464-2.107-3.166-.754-.499-1.404-.739-2.248-.831-.616-.068-17.64-.054-17.857.014m15.296 6.213-.011 4.27-.101.321a3.089 3.089 0 0 1-2.039 2.025l-.3.094H5.46l-.3-.094a3.089 3.089 0 0 1-2.039-2.025l-.101-.321-.011-4.27L2.998 9h14.004l-.011 4.27m2.885-4.136c.925.268 1.71 1.056 1.999 2.005.083.273.098.403.098.861 0 .458-.015.588-.098.861-.353 1.157-1.393 2.016-2.573 2.123l-.302.027V8.99l.286.028c.157.015.423.068.59.116" fill-rule="evenodd" fill="#000" stroke="none"/></svg>