<svg xmlns="http://www.w3.org/2000/svg" width="24" height="24" fill="none" stroke="currentColor" stroke-width="2" stroke-linecap="round" stroke-linejoin="round"><path d="M3.499 1.043c-1.12.19-2.038 1.005-2.385 2.117l-.094.3v10.08l.094.3a3.097 3.097 0 0 0 2.026 2.042c.243.078.391.092 1.12.108.545.012.898.003 1.004-.026.233-.063.473-.25.603-.472.097-.165.113-.235.113-.492 0-.254-.017-.328-.108-.484a1.111 1.111 0 0 0-.499-.443c-.066-.028-.439-.057-.893-.07-.756-.022-.786-.026-.964-.131a1.199 1.199 0 0 1-.291-.249C2.989 13.314 3 13.562 3 8.522c0-5.223-.019-4.897.303-5.219C3.625 2.981 3.301 3 8.5 3c5.158 0 4.87-.016 5.179.283.271.264.294.353.319 1.24l.022.783.121.197a.998.998 0 0 0 1.718 0l.121-.197v-.923c0-.856-.007-.945-.094-1.223a3.089 3.089 0 0 0-2.025-2.039l-.321-.101-4.92-.006c-2.706-.003-5.011.01-5.121.029m7 7c-1.12.19-2.038 1.005-2.385 2.117l-.094.3v10.08l.094.3a3.086 3.086 0 0 0 2.046 2.046l.3.094h10.08l.3-.094a3.086 3.086 0 0 0 2.046-2.046l.094-.3V10.46l-.094-.3a3.089 3.089 0 0 0-2.025-2.039l-.321-.101-4.92-.006c-2.706-.003-5.011.01-5.121.029m9.811 2.018c.279.083.546.35.629.629.053.178.061.804.061 4.811 0 5 .008 4.817-.221 5.117-.061.08-.194.195-.295.254l-.184.108h-9.6l-.184-.108a1.051 1.051 0 0 1-.458-.556c-.089-.255-.087-9.324.003-9.626.079-.269.351-.547.612-.627.289-.089 9.338-.091 9.637-.002" fill-rule="evenodd" fill="#000" stroke="none"/></svg>