<svg xmlns="http://www.w3.org/2000/svg" width="24" height="24" fill="none" stroke="currentColor" stroke-width="2" stroke-linecap="round" stroke-linejoin="round"><path d="M3.695 3.057c-.644.201-.896.983-.497 1.534.065.09.205.214.31.276l.192.113 3.92.021 3.92.02.321.101a3.088 3.088 0 0 1 2.018 2.017l.101.321.011 5.06.011 5.059-1.731-1.724c-1.55-1.543-1.752-1.731-1.928-1.789-.48-.16-.961.018-1.215.45-.092.156-.108.229-.107.484 0 .212.022.341.074.44.04.077 1.246 1.316 2.679 2.754 2.833 2.842 2.791 2.805 3.226 2.805.435 0 .393.037 3.226-2.805 1.433-1.438 2.639-2.677 2.679-2.754.052-.099.074-.228.074-.44.001-.255-.015-.328-.107-.484a1.002 1.002 0 0 0-1.215-.45c-.176.058-.378.246-1.926 1.787l-1.729 1.722-.013-5.137c-.011-4.766-.017-5.16-.084-5.438-.317-1.334-1.058-2.434-2.105-3.126-.754-.499-1.404-.739-2.248-.831-.602-.066-7.642-.053-7.857.014" fill-rule="evenodd" fill="#000" stroke="none"/></svg>