<svg xmlns="http://www.w3.org/2000/svg" width="24" height="24" fill="none" stroke="currentColor" stroke-width="2" stroke-linecap="round" stroke-linejoin="round"><path d="M14.67 3.061c-.222.081-.42.248-.542.455-.092.156-.108.229-.107.484 0 .212.022.341.074.44.04.077.841.91 1.779 1.85L17.579 8h-4.871c-5.006 0-5.352.009-5.948.162a5.042 5.042 0 0 0-3.667 3.878c-.068.316-.073.622-.073 4.303v3.963l.121.197a.998.998 0 0 0 1.718 0l.121-.197.021-3.923.02-3.923.101-.321a3.088 3.088 0 0 1 2.017-2.018l.321-.101 5.06-.011 5.06-.011-1.706 1.711c-.938.941-1.739 1.774-1.779 1.851-.052.099-.074.228-.074.44-.001.258.015.327.112.492.13.222.369.409.603.473.202.054.53.024.709-.066.074-.037 1.311-1.24 2.749-2.673C21.036 9.393 20.999 9.435 20.999 9c0-.436.04-.391-2.825-3.245-2.389-2.381-2.652-2.631-2.831-2.69a1.015 1.015 0 0 0-.673-.004" fill-rule="evenodd" fill="#000" stroke="none"/></svg>