<svg xmlns="http://www.w3.org/2000/svg" width="24" height="24" fill="none" stroke="currentColor" stroke-width="2" stroke-linecap="round" stroke-linejoin="round"><path d="M14.58 3.096c-.159.076-.729.627-2.806 2.71-1.433 1.438-2.639 2.677-2.679 2.754-.052.099-.074.228-.074.44-.001.258.015.327.112.492.13.222.369.409.603.473.203.054.531.024.709-.066.074-.037.905-.835 1.846-1.773l1.711-1.706-.011 5.06-.011 5.06-.101.321c-.304.96-1.038 1.697-2.019 2.025l-.28.093L7.66 19c-3.014.015-3.946.032-4.033.07a1.146 1.146 0 0 0-.499.446c-.091.156-.108.23-.108.484 0 .257.016.327.113.492.128.219.369.409.592.469.102.028 1.465.037 4.064.028 3.58-.012 3.936-.019 4.211-.084 1.542-.365 2.756-1.291 3.433-2.617.215-.422.361-.82.472-1.288.067-.278.073-.672.084-5.438l.013-5.139 1.709 1.704c.94.938 1.772 1.738 1.849 1.778.099.052.228.074.44.074.258.001.327-.015.492-.112.222-.13.409-.369.473-.603.054-.202.024-.53-.066-.709-.037-.074-1.24-1.311-2.673-2.749C15.393 2.964 15.435 3.001 15 3.001a.945.945 0 0 0-.42.095" fill-rule="evenodd" fill="#000" stroke="none"/></svg>