<svg xmlns="http://www.w3.org/2000/svg" width="24" height="24" fill="none" stroke="currentColor" stroke-width="2" stroke-linecap="round" stroke-linejoin="round"><path d="M19.695 3.057a1.04 1.04 0 0 0-.567.459l-.108.184-.021 3.92-.02 3.92-.101.321c-.301.958-1.035 1.695-2.018 2.025l-.28.094-5.08.011-5.08.011 1.706-1.711c.938-.941 1.739-1.774 1.779-1.851.052-.099.074-.228.074-.44.001-.255-.015-.328-.107-.484a1.003 1.003 0 0 0-1.215-.451c-.179.059-.442.309-2.831 2.69C2.961 14.609 3.001 14.564 3.001 15c0 .435-.037.393 2.805 3.226 1.438 1.433 2.675 2.636 2.749 2.673.455.229 1.046.045 1.312-.407.097-.165.113-.234.112-.492 0-.212-.022-.341-.074-.44-.04-.077-.84-.909-1.778-1.849l-1.704-1.709 5.139-.013c4.766-.011 5.16-.017 5.438-.084 1.545-.367 2.756-1.291 3.433-2.617.229-.449.372-.849.474-1.328.068-.316.073-.622.073-4.3V3.7l-.108-.184a1.005 1.005 0 0 0-1.177-.459" fill-rule="evenodd" fill="#000" stroke="none"/></svg>