<svg xmlns="http://www.w3.org/2000/svg" width="24" height="24" fill="none" stroke="currentColor" stroke-width="2" stroke-linecap="round" stroke-linejoin="round"><path d="M3.695 3.057a1.04 1.04 0 0 0-.567.459L3.02 3.7v3.96c0 3.678.005 3.984.073 4.3.43 2.008 1.867 3.46 3.907 3.945.278.067.672.073 5.438.084l5.139.013-1.704 1.709c-.938.94-1.738 1.772-1.778 1.849-.052.099-.074.228-.074.44-.001.258.015.327.112.492.13.222.369.409.603.473.202.054.53.024.709-.066.074-.037 1.311-1.24 2.749-2.673 2.842-2.833 2.805-2.791 2.805-3.226 0-.436.04-.391-2.825-3.245-2.389-2.381-2.652-2.631-2.831-2.69a1.003 1.003 0 0 0-1.215.451c-.092.156-.108.229-.107.484 0 .212.022.341.074.44.04.077.841.91 1.779 1.851l1.706 1.711-5.08-.011-5.08-.011-.28-.094c-.983-.33-1.717-1.067-2.018-2.025l-.101-.321-.02-3.92L4.98 3.7l-.108-.184a1.005 1.005 0 0 0-1.177-.459" fill-rule="evenodd" fill="#000" stroke="none"/></svg>