<svg xmlns="http://www.w3.org/2000/svg" width="24" height="24" fill="none" stroke="currentColor" stroke-width="2" stroke-linecap="round" stroke-linejoin="round"><path d="M8.64 3.068c-.155.053-.55.43-2.814 2.687C2.961 8.609 3.001 8.564 3.001 9c0 .435-.037.393 2.805 3.226 1.438 1.433 2.675 2.636 2.749 2.673.455.229 1.046.045 1.312-.407.097-.165.113-.234.112-.492 0-.212-.022-.341-.074-.44-.04-.077-.841-.91-1.779-1.851L6.42 9.998l5.06.011 5.06.011.321.101a3.088 3.088 0 0 1 2.017 2.018l.101.321.02 3.923.021 3.923.121.197a.998.998 0 0 0 1.718 0l.121-.197v-3.963c0-3.681-.005-3.987-.073-4.303-.41-1.914-1.821-3.407-3.667-3.878-.596-.153-.942-.162-5.948-.162H6.421l1.705-1.71c.938-.94 1.739-1.773 1.779-1.85.052-.099.074-.228.074-.44.001-.255-.015-.328-.107-.484a1.016 1.016 0 0 0-1.232-.448" fill-rule="evenodd" fill="#000" stroke="none"/></svg>