<svg xmlns="http://www.w3.org/2000/svg" width="24" height="24" fill="none" stroke="currentColor" stroke-width="2" stroke-linecap="round" stroke-linejoin="round"><path d="M12.4 3.044c-1.639.185-3.139 1.246-3.874 2.741A5.911 5.911 0 0 0 8.095 7c-.067.278-.073.672-.084 5.438l-.013 5.137-1.729-1.722c-1.548-1.541-1.75-1.729-1.926-1.787-.48-.16-.961.018-1.215.45-.092.156-.108.229-.107.484 0 .212.022.341.074.44.04.077 1.246 1.316 2.679 2.754C8.607 21.036 8.565 20.999 9 20.999c.435 0 .393.037 3.226-2.805 1.433-1.438 2.639-2.677 2.679-2.754.052-.099.074-.228.074-.44.001-.255-.015-.328-.107-.484a1.002 1.002 0 0 0-1.215-.45c-.176.058-.378.246-1.928 1.789l-1.731 1.724.011-5.059.011-5.06.101-.321a3.088 3.088 0 0 1 2.018-2.017l.321-.101 3.92-.02 3.92-.021.192-.113c.756-.444.631-1.561-.202-1.812-.15-.045-.852-.054-3.886-.05-2.037.003-3.839.021-4.004.039" fill-rule="evenodd" fill="#000" stroke="none"/></svg>