<svg xmlns="http://www.w3.org/2000/svg" width="24" height="24" fill="none" stroke="currentColor" stroke-width="2" stroke-linecap="round" stroke-linejoin="round"><path d="M8.58 3.096c-.159.076-.729.627-2.806 2.71C4.341 7.244 3.135 8.483 3.095 8.56c-.052.099-.074.228-.074.44-.001.258.015.327.112.492.13.222.369.409.603.473.203.054.531.024.709-.066.074-.037.904-.834 1.844-1.772l1.709-1.704.013 5.139c.014 5.652-.002 5.276.257 6.038.571 1.673 1.931 2.878 3.732 3.305.275.065.631.072 4.211.084 2.599.009 3.962 0 4.064-.028.223-.06.464-.25.592-.469.097-.165.113-.235.113-.492 0-.254-.017-.328-.108-.484a1.146 1.146 0 0 0-.499-.446c-.087-.038-1.019-.055-4.033-.07l-3.92-.021-.28-.093c-.981-.328-1.715-1.065-2.019-2.025l-.101-.321-.011-5.06-.011-5.06 1.711 1.706c.941.938 1.774 1.739 1.851 1.779.099.052.228.074.44.074.258.001.327-.015.492-.112.222-.13.409-.369.473-.603.054-.202.024-.53-.066-.709-.037-.074-1.24-1.311-2.673-2.749C9.393 2.964 9.435 3.001 9 3.001a.945.945 0 0 0-.42.095" fill-rule="evenodd" fill="#000" stroke="none"/></svg>