<svg xmlns="http://www.w3.org/2000/svg" width="24" height="24" fill="none" stroke="currentColor" stroke-width="2" stroke-linecap="round" stroke-linejoin="round"><path d="M8.695.057a1.04 1.04 0 0 0-.567.459L8.02.7l-.012 1.147-.012 1.146-1.268.016c-1.21.016-1.283.021-1.589.115A3.098 3.098 0 0 0 3.116 5.14c-.085.263-.092.358-.107 1.57L2.993 8h-1.05c-1.146 0-1.3.022-1.561.221-.08.061-.195.194-.254.295C.037 8.672.02 8.746.02 9c0 .256.016.328.111.489.061.103.173.236.25.294.262.2.357.213 1.529.215L3 10v3H1.946c-1.149 0-1.302.022-1.564.221-.08.061-.195.194-.254.295-.091.156-.108.23-.108.484 0 .256.016.328.111.489.061.103.173.236.25.294.261.2.357.213 1.526.215L2.995 15l.014 1.79c.014 1.743.017 1.797.107 2.07a3.128 3.128 0 0 0 2.024 2.024c.263.085.358.092 1.568.107l1.288.016.012 1.15.012 1.15.121.196a.998.998 0 0 0 1.718 0l.121-.196.012-1.154.013-1.153h3.99l.013 1.153.012 1.154.121.196a.998.998 0 0 0 1.718 0l.121-.196.012-1.15.012-1.15 1.288-.016c1.21-.015 1.305-.022 1.568-.107a3.128 3.128 0 0 0 2.024-2.024c.09-.273.093-.327.107-2.07l.014-1.79 1.088-.002c1.169-.002 1.265-.015 1.526-.215.077-.058.189-.191.25-.294.095-.161.111-.233.111-.489 0-.254-.017-.328-.108-.484a1.209 1.209 0 0 0-.254-.295c-.262-.199-.415-.221-1.564-.221H21v-3l1.09-.002c1.172-.002 1.267-.015 1.529-.215.077-.058.189-.191.25-.294.095-.161.111-.233.111-.489 0-.254-.017-.328-.108-.484a1.209 1.209 0 0 0-.254-.295C23.357 8.022 23.203 8 22.057 8h-1.05l-.016-1.29c-.015-1.212-.022-1.307-.107-1.57a3.098 3.098 0 0 0-2.023-2.016c-.306-.094-.379-.099-1.589-.115l-1.268-.016-.012-1.146L15.98.7l-.109-.186a1.01 1.01 0 0 0-1.742 0L14.02.7l-.012 1.15L13.995 3h-3.99l-.013-1.15L9.98.7 9.872.516A1.005 1.005 0 0 0 8.695.057m9.615 5.004c.279.083.546.35.629.629.053.179.061.961.061 6.311 0 5.058-.009 6.138-.055 6.289a1.02 1.02 0 0 1-.461.582l-.184.108H5.7l-.184-.108a1.051 1.051 0 0 1-.458-.556c-.09-.256-.087-12.323.003-12.626.079-.269.351-.547.612-.627.29-.089 12.337-.091 12.637-.002M8.695 8.057a1.04 1.04 0 0 0-.567.459L8.02 8.7v6.6l.111.189c.125.213.318.375.539.454.221.079 6.439.079 6.66 0 .221-.079.414-.241.539-.454l.111-.189V8.7l-.108-.184a1.02 1.02 0 0 0-.582-.461c-.26-.078-6.345-.076-6.595.002M14 12v2h-4v-4h4v2" fill="#000" fill-rule="evenodd" stroke="none"/></svg>