<svg xmlns="http://www.w3.org/2000/svg" width="24" height="24" fill="none" stroke="currentColor" stroke-width="2" stroke-linecap="round" stroke-linejoin="round"><path d="M5.829.055c-.346.129-.593.393-.664.708-.023.099-.049 1.089-.061 2.232-.011 1.13-.031 2.066-.045 2.08-.014.014-.992.034-2.172.045-2.109.02-2.15.022-2.31.107-.389.209-.607.591-.565.993.04.389.276.7.634.836.155.06.401.065 2.308.055L5.087 7.1l-.025 1.56c-.014.858-.029 2.991-.034 4.74l-.008 3.18.105.307a3.139 3.139 0 0 0 2.015 1.999l.28.094 4.789.011 4.788.011.012 2.152.011 2.152.121.197c.305.496.936.641 1.407.325.106-.072.243-.215.311-.325l.121-.197.011-2.153.012-2.153 2.088-.002c1.64-.001 2.121-.013 2.239-.055.221-.079.414-.241.539-.454.095-.161.111-.233.111-.489 0-.254-.017-.328-.108-.484a1.209 1.209 0 0 0-.254-.295c-.284-.217-.335-.221-2.563-.221h-2.053l-.011-4.79-.011-4.79-.094-.28c-.33-.982-1.065-1.715-2.025-2.019l-.321-.101-1.78.006c-.979.003-3.103.018-4.72.033l-2.94.028.011-2.134C7.124.596 7.127.627 6.869.333c-.243-.276-.71-.401-1.04-.278m10.603 7.037c.073.04.203.145.29.235.293.301.278.031.278 5.121v4.553l-4.65-.01-4.65-.011-.184-.108a1.09 1.09 0 0 1-.464-.561c-.044-.13-.046-.907-.009-4.684.024-2.49.048-4.531.053-4.536.015-.015 7.094-.081 8.184-.076.902.004 1.035.013 1.152.077" fill-rule="evenodd" fill="#000" stroke="none"/></svg>