<svg xmlns="http://www.w3.org/2000/svg" width="24" height="24" fill="none" stroke="currentColor" stroke-width="2" stroke-linecap="round" stroke-linejoin="round"><path d="m11.28 1.023-.56.06c-1.888.2-3.729.94-5.36 2.152-.609.453-1.676 1.52-2.134 2.132C.728 8.714.301 13.032 2.097 16.78c.546 1.138 1.179 2.021 2.141 2.982.961.962 1.844 1.595 2.982 2.141 3.747 1.796 8.068 1.367 11.417-1.133.609-.454 1.679-1.524 2.133-2.133 2.974-3.985 2.974-9.289 0-13.274-.454-.608-1.523-1.677-2.13-2.128-1.595-1.186-3.275-1.875-5.217-2.139C13 1.038 11.574.99 11.28 1.023m-.272 3.67.012 1.613.121.197a.998.998 0 0 0 1.718 0l.121-.197.012-1.618.011-1.619.237.025c1.095.114 2.624.68 3.64 1.346a9.323 9.323 0 0 1 2.68 2.68c.667 1.017 1.232 2.545 1.346 3.641l.025.239h-1.519c-1.651 0-1.755.011-2.03.221-.08.061-.195.194-.254.295-.091.156-.108.23-.108.484 0 .256.016.328.111.489.061.103.173.236.25.294.272.208.321.213 1.995.215l1.555.002-.025.239c-.114 1.096-.679 2.624-1.346 3.641-.522.796-1.263 1.613-1.96 2.163-1.248.984-2.849 1.673-4.348 1.871l-.249.032-.011-1.623-.012-1.623-.109-.186a1.01 1.01 0 0 0-1.742 0l-.109.186-.012 1.623-.011 1.623-.249-.032c-1.516-.2-3.139-.903-4.378-1.895a9.661 9.661 0 0 1-1.93-2.139c-.667-1.017-1.232-2.545-1.346-3.641L3.069 13l1.555-.002c1.674-.002 1.723-.007 1.995-.215.077-.058.189-.191.25-.294.095-.161.111-.233.111-.489 0-.254-.017-.328-.108-.484a1.209 1.209 0 0 0-.254-.295c-.275-.21-.379-.221-2.03-.221H3.069l.025-.239c.114-1.096.679-2.624 1.346-3.641a9.323 9.323 0 0 1 2.68-2.68c.824-.54 2.071-1.054 3-1.235l.5-.099c.044-.009.147-.019.228-.021l.149-.005.011 1.613" fill="#000" fill-rule="evenodd" stroke="none"/></svg>