<svg xmlns="http://www.w3.org/2000/svg" width="24" height="24" fill="none" stroke="currentColor" stroke-width="2" stroke-linecap="round" stroke-linejoin="round"><path d="M7.74 3.042c-.066.02-.18.068-.253.107-.145.077-7.218 8.129-7.376 8.397-.13.22-.13.688 0 .908.05.085 1.703 1.996 3.673 4.248 3.03 3.463 3.611 4.108 3.769 4.186l.187.092h13.8l.3-.094a3.086 3.086 0 0 0 2.046-2.046l.094-.3V5.46l-.094-.3a3.089 3.089 0 0 0-2.025-2.039l-.321-.101-6.84-.007c-3.977-.004-6.89.008-6.96.029m13.57 2.019c.279.083.546.35.629.629.053.179.061.961.061 6.311 0 5.058-.009 6.138-.055 6.289a1.02 1.02 0 0 1-.461.582l-.184.108-6.422.01-6.422.011-3.037-3.47C3.749 13.622 2.383 12.033 2.383 12c0-.033 1.366-1.622 3.036-3.53L8.455 5h6.325c5.546 0 6.351.007 6.53.061m-9.64 3c-.222.081-.42.248-.542.455-.092.156-.108.229-.107.484 0 .213.022.341.074.44.041.077.616.685 1.279 1.35L13.578 12l-1.204 1.21c-.663.666-1.236 1.271-1.273 1.345-.229.454-.045 1.046.407 1.312.165.097.234.113.492.112.213 0 .341-.022.44-.074.077-.041.685-.616 1.35-1.279L15 13.422l1.21 1.204c.665.663 1.271 1.236 1.345 1.273.454.229 1.046.045 1.312-.407.097-.165.113-.234.112-.492 0-.213-.022-.341-.074-.44-.041-.077-.616-.684-1.279-1.35L16.422 12l1.204-1.21c.663-.665 1.238-1.273 1.279-1.35.052-.099.074-.227.074-.44.001-.255-.015-.328-.107-.484a1 1 0 0 0-1.215-.45c-.173.058-.345.213-1.427 1.288L15 10.576l-1.23-1.222c-1.082-1.075-1.254-1.23-1.427-1.288a1.003 1.003 0 0 0-.673-.005" fill-rule="evenodd" fill="#000" stroke="none"/></svg>