<svg xmlns="http://www.w3.org/2000/svg" width="24" height="24" fill="none" stroke="currentColor" stroke-width="2" stroke-linecap="round" stroke-linejoin="round"><path d="M11.695.057a1.04 1.04 0 0 0-.567.459L11.02.7l-.012 1.65L10.997 4h-.849c-.466 0-1.01.02-1.208.044a4.499 4.499 0 0 0-3.928 4.673c.098 1.994 1.441 3.623 3.425 4.154.356.095.46.103 1.473.119l1.09.018V18H8.446c-2.771 0-2.774 0-3.064.221-.08.061-.195.194-.254.295-.091.156-.108.23-.108.484 0 .256.016.328.111.489.125.213.318.375.539.454.119.043.681.054 2.738.055l2.589.002.011 1.653.012 1.653.121.197a.998.998 0 0 0 1.718 0l.121-.197.012-1.649.011-1.649 1.089-.018c1.011-.016 1.115-.024 1.471-.119 1.984-.531 3.327-2.16 3.425-4.154a4.499 4.499 0 0 0-3.928-4.673A14.065 14.065 0 0 0 13.85 11H13V6l2.09-.002c1.641-.001 2.122-.013 2.24-.055.221-.079.414-.241.539-.454.095-.161.111-.233.111-.489 0-.254-.017-.328-.108-.484a1.209 1.209 0 0 0-.254-.295C17.334 4.004 17.282 4 15.055 4h-2.052l-.011-1.65L12.98.7l-.108-.184a1.005 1.005 0 0 0-1.177-.459M11 8.504v2.503l-1.01-.015c-.98-.015-1.019-.019-1.31-.124A2.53 2.53 0 0 1 7.277 9.62c-.367-.742-.364-1.502.008-2.258.23-.465.611-.847 1.077-1.077.491-.242.712-.278 1.748-.282L11 6v2.504m4.02 4.556a2.502 2.502 0 0 1 1.695 1.302c.372.756.375 1.516.008 2.258a2.53 2.53 0 0 1-1.403 1.248c-.291.105-.33.109-1.31.124l-1.01.015V13l.87.001c.607 0 .954.018 1.15.059" fill-rule="evenodd" fill="#000" stroke="none"/></svg>