<svg xmlns="http://www.w3.org/2000/svg" width="24" height="24" fill="none" stroke="currentColor" stroke-width="2" stroke-linecap="round" stroke-linejoin="round"><path d="M7.955 2.04c-1.616.185-3.302.897-4.635 1.957C1.797 5.208.59 7.176.184 9.112c-.158.751-.196 1.218-.173 2.104.056 2.111.734 3.932 2.049 5.497.362.431.523.535.869.56a.976.976 0 0 0 1.059-.875c.036-.307-.049-.533-.334-.883-1.105-1.357-1.651-2.856-1.653-4.543C1.998 9.546 2.418 8.206 3.245 7 4.248 5.537 5.82 4.504 7.64 4.115c.359-.077.545-.091 1.28-.093.925-.002 1.157.025 1.911.222a6 6 0 0 1 1.409.544c1.744.938 2.919 2.397 3.499 4.344.117.394.277.611.558.76.151.079.245.088 1.243.113.902.022 1.135.041 1.412.111 1.216.307 2.245 1.18 2.726 2.313.227.535.3.92.298 1.591-.001.488-.017.661-.089.927-.247.924-.713 1.644-1.426 2.205-.358.282-.443.382-.525.623a.99.99 0 0 0 .944 1.303c.382 0 .762-.238 1.402-.877.786-.785 1.326-1.794 1.603-2.994.127-.552.146-1.539.042-2.147-.246-1.439-.956-2.714-1.998-3.588-1.151-.965-2.296-1.403-3.841-1.466l-.616-.026-.129-.34c-.77-2.04-2.54-3.893-4.622-4.84-.739-.337-1.461-.552-2.361-.703-.443-.075-1.938-.11-2.405-.057m3.74 9.017a1.04 1.04 0 0 0-.567.459l-.108.184-.011 3.437-.011 3.437-1.229-1.221c-1.081-1.074-1.253-1.229-1.426-1.287a1 1 0 0 0-1.215.45c-.092.156-.108.229-.107.484 0 .212.022.341.074.44.04.077 1.021 1.091 2.179 2.254 2.293 2.302 2.297 2.305 2.726 2.305.429 0 .433-.003 2.726-2.305 1.158-1.163 2.139-2.177 2.179-2.254.052-.099.074-.228.074-.44.001-.255-.015-.328-.107-.484a1 1 0 0 0-1.215-.45c-.173.058-.345.213-1.426 1.287l-1.229 1.221-.011-3.437-.011-3.437-.108-.184a1.005 1.005 0 0 0-1.177-.459" fill-rule="evenodd" fill="#000" stroke="none"/></svg>