<svg xmlns="http://www.w3.org/2000/svg" width="24" height="24" fill="none" stroke="currentColor" stroke-width="2" stroke-linecap="round" stroke-linejoin="round"><path d="M11.695 2.057a1.04 1.04 0 0 0-.567.459l-.108.184-.011 4.938-.01 4.938-1.73-1.722c-1.548-1.542-1.75-1.73-1.926-1.788-.48-.16-.961.018-1.215.45-.092.156-.108.229-.107.484 0 .212.022.341.074.44.04.077 1.246 1.316 2.679 2.754 2.833 2.842 2.791 2.805 3.226 2.805.435 0 .393.037 3.226-2.805 1.433-1.438 2.639-2.677 2.679-2.754.052-.099.074-.228.074-.44.001-.255-.015-.328-.107-.484a1.002 1.002 0 0 0-1.215-.45c-.176.058-.378.246-1.926 1.788l-1.73 1.722-.01-4.938L12.98 2.7l-.108-.184a1.005 1.005 0 0 0-1.177-.459m-9 12a1.04 1.04 0 0 0-.567.459l-.108.184v4.84l.094.3a3.086 3.086 0 0 0 2.046 2.046l.3.094h15.08l.3-.094a3.086 3.086 0 0 0 2.046-2.046l.094-.3V14.7l-.109-.186a1.01 1.01 0 0 0-1.742 0l-.109.186-.02 2.28c-.015 1.701-.033 2.309-.07 2.393a1.146 1.146 0 0 1-.446.499l-.184.108H4.7l-.184-.108a1.146 1.146 0 0 1-.446-.499c-.037-.084-.055-.692-.07-2.393l-.02-2.28-.108-.184a1.005 1.005 0 0 0-1.177-.459" fill-rule="evenodd" fill="#000" stroke="none"/></svg>