<svg width="24" height="24" xmlns="http://www.w3.org/2000/svg" fill="none" stroke="currentColor" stroke-width="2" stroke-linecap="round" stroke-linejoin="round"><path d="M17.45 1.922a3.049 3.049 0 0 0-1.39.641c-.132.105-3.096 3.05-6.586 6.544-5.936 5.944-6.349 6.366-6.408 6.553C2.927 16.101 2 19.888 2 20.014c0 .325.208.677.499.848.35.205.382.2 2.701-.38 1.155-.289 2.172-.561 2.26-.603.224-.108 12.947-12.846 13.16-13.176.362-.56.525-1.18.487-1.861a3.982 3.982 0 0 0-.088-.662c-.278-1.024-1.178-1.924-2.199-2.199-.289-.077-1.078-.112-1.37-.059m1.044 2.079c.222.111.388.279.513.519.132.255.132.704-.001.964-.069.135-1.78 1.869-6.32 6.405L6.46 18.11l-1.011.25c-.557.138-1.023.24-1.036.227-.013-.013.089-.479.227-1.036l.25-1.011 6.185-6.193c3.402-3.407 6.251-6.236 6.331-6.288.08-.052.206-.113.28-.135.208-.064.6-.027.808.077m-6.799 15.056a1.04 1.04 0 0 0-.567.459c-.091.156-.108.23-.108.484 0 .256.016.328.111.489.125.213.318.375.539.454.222.079 9.438.079 9.66 0 .221-.079.414-.241.539-.454.095-.161.111-.233.111-.489 0-.254-.017-.328-.108-.484a1.02 1.02 0 0 0-.582-.461c-.261-.079-9.344-.077-9.595.002" fill-rule="evenodd" fill="#000" stroke="none"/></svg>