<svg width="24" height="24" xmlns="http://www.w3.org/2000/svg" fill="none" stroke="currentColor" stroke-width="2" stroke-linecap="round" stroke-linejoin="round"><path d="M19.45.922a3.049 3.049 0 0 0-1.39.641c-.132.105-2.42 2.375-5.086 5.044-4.519 4.527-4.849 4.866-4.908 5.053C7.927 12.1 7 15.888 7 16.014c0 .325.208.677.499.848.35.205.382.2 2.701-.38 1.155-.289 2.172-.561 2.26-.603.223-.107 9.947-9.847 10.16-10.176.362-.56.525-1.18.487-1.861a3.982 3.982 0 0 0-.088-.662c-.278-1.024-1.178-1.924-2.199-2.199-.289-.077-1.078-.112-1.37-.059m1.044 2.079c.222.111.388.279.513.519.132.255.132.704-.001.964-.069.134-1.392 1.481-4.82 4.906l-4.726 4.72-1.011.25c-.557.138-1.023.24-1.036.227-.013-.013.089-.479.227-1.036l.25-1.011 4.685-4.693c2.577-2.582 4.751-4.736 4.831-4.788.08-.052.206-.113.28-.135.208-.064.6-.027.808.077m-16.995.042C2.383 3.23 1.461 4.048 1.114 5.16l-.094.3v15.08l.094.3a3.086 3.086 0 0 0 2.046 2.046l.3.094h15.08l.3-.094a3.086 3.086 0 0 0 2.046-2.046l.094-.3V12.7l-.109-.186a1.01 1.01 0 0 0-1.742 0l-.109.186-.02 3.78c-.015 2.903-.032 3.806-.07 3.893a1.146 1.146 0 0 1-.446.499l-.184.108H3.7l-.184-.108a1.199 1.199 0 0 1-.291-.249c-.239-.314-.225.172-.225-7.601 0-8.016-.025-7.391.303-7.719.318-.318.111-.303 4.234-.305 2.939-.001 3.672-.012 3.793-.055.221-.079.414-.241.539-.454.095-.161.111-.233.111-.489 0-.254-.017-.328-.108-.484a1.209 1.209 0 0 0-.254-.295c-.298-.227-.192-.221-4.214-.216-2.037.002-3.795.02-3.905.038" fill-rule="evenodd" fill="#000" stroke="none"/></svg>