<svg xmlns="http://www.w3.org/2000/svg" width="24" height="24" fill="none" stroke="currentColor" stroke-width="2" stroke-linecap="round" stroke-linejoin="round"><path d="M.695.057a1.04 1.04 0 0 0-.567.459C.036.672.02.745.021 1c0 .212.022.341.074.44.04.077 1.063 1.131 2.272 2.343l2.198 2.203-.534.481C2.704 7.662 1.358 9.356.385 11.054c-.524.916-.519 1.031.089 2.059a22.791 22.791 0 0 0 2.012 2.827c.418.504 1.659 1.751 2.134 2.145 1.879 1.561 3.786 2.467 5.9 2.805.706.113 2.049.119 2.78.013 1.521-.222 2.927-.711 4.18-1.457l.34-.202 2.3 2.294c1.265 1.262 2.363 2.327 2.44 2.367.099.052.228.074.44.074.258.001.327-.015.492-.112.476-.28.647-.9.373-1.359-.055-.092-5.1-5.166-11.212-11.275C1.73.316 1.536.125 1.323.063 1.066-.012.919-.013.695.057M11.28 3.024c-.766.069-1.624.226-1.843.338a.989.989 0 0 0-.282 1.53c.267.296.65.407 1.065.308 1.031-.247 2.286-.253 3.453-.015 2.726.555 5.452 2.67 7.6 5.896.663.995.625.842.331 1.328a20.38 20.38 0 0 1-1.287 1.837c-.382.48-.437.581-.465.853-.042.404.187.796.588 1.005.198.104.608.097.82-.014.419-.219 1.453-1.596 2.323-3.093.561-.964.558-1.071-.057-2.11a19.731 19.731 0 0 0-3.104-3.989c-1.28-1.279-2.323-2.047-3.742-2.753-1.161-.578-2.247-.914-3.44-1.064-.364-.046-1.662-.084-1.96-.057m-2.873 7.144c-.17.296-.391.981-.45 1.389-.055.381-.031.92.059 1.343a3.99 3.99 0 0 0 3.084 3.084c.895.19 1.79.072 2.638-.35l.318-.158 1.159 1.159 1.158 1.158-.439.22c-1.344.674-2.583.968-4.054.962-.844-.003-1.343-.069-2.06-.274-2.636-.751-5.154-2.82-7.17-5.891-.575-.876-.547-.736-.247-1.229A17.448 17.448 0 0 1 5.442 7.89l.537-.491 1.276 1.276 1.276 1.276-.124.217m2.891 2.55c.681.682 1.23 1.246 1.22 1.255a1.32 1.32 0 0 1-.206.061c-.791.194-1.737-.258-2.144-1.024-.171-.322-.263-.754-.228-1.07.035-.316.064-.46.095-.46.014 0 .583.557 1.263 1.238" fill-rule="evenodd" fill="#000" stroke="none"/></svg>