<svg xmlns="http://www.w3.org/2000/svg" width="24" height="24" fill="none" stroke="currentColor" stroke-width="2" stroke-linecap="round" stroke-linejoin="round"><path d="M14.38 1.043c-2.588.255-4.689 2.163-5.263 4.777-.078.357-.089.55-.106 1.79L8.992 9h-1.05c-1.145 0-1.299.022-1.56.221-.08.061-.195.194-.254.295L6.02 9.7l-.011 2.211c-.008 1.426.003 2.265.03 2.364.06.223.25.464.469.592l.192.113 1.15.012 1.15.013.002 3.587c.001 2.893.012 3.617.055 3.738.079.221.241.414.454.539l.189.111h4.6l.189-.111c.213-.125.375-.318.454-.539.043-.121.054-.845.055-3.738L15 15.005l1.153-.013 1.154-.012.195-.121c.369-.228.366-.22.964-2.601.462-1.84.538-2.189.52-2.37a1.015 1.015 0 0 0-.36-.666C18.344 9.007 18.279 9 16.575 9H15V7.003l1.65-.011 1.65-.012.192-.113a1.07 1.07 0 0 0 .469-.592c.027-.099.038-.938.03-2.364L18.98 1.7l-.108-.184a1.209 1.209 0 0 0-.254-.295c-.28-.214-.362-.221-2.214-.216-.937.003-1.848.02-2.024.038M17 4v1l-1.13.002c-.934.002-1.176.015-1.393.071-.671.176-1.239.75-1.417 1.435-.083.318-.085 3.591-.003 3.822.079.221.241.414.454.539l.189.111 1.514.012c1.159.009 1.509.023 1.496.06-.01.026-.124.475-.253.998l-.235.95h-1.165c-1.268 0-1.409.019-1.675.221-.08.061-.195.194-.254.295l-.108.184-.011 3.65-.011 3.65h-1.996l-.011-3.65-.011-3.65-.108-.184a1.209 1.209 0 0 0-.254-.295c-.262-.199-.415-.221-1.564-.221H8v-1.995l1.15-.013 1.15-.012.189-.111c.103-.061.236-.173.294-.25.21-.274.213-.31.215-2.139.003-2.204.044-2.495.466-3.32a3.978 3.978 0 0 1 1.696-1.696c.768-.393 1.129-.455 2.69-.46L17 3v1" fill-rule="evenodd" fill="#000" stroke="none"/></svg>