<svg xmlns="http://www.w3.org/2000/svg" width="24" height="24" fill="none" stroke="currentColor" stroke-width="2" stroke-linecap="round" stroke-linejoin="round"><path d="M1.689 4.056a1.001 1.001 0 0 0-.558.455L1.02 4.7l-.01 7.214c-.007 4.754.003 7.265.029 7.364.06.22.252.461.469.589.165.097.235.113.492.113.238 0 .331-.018.45-.088.082-.049 2.208-1.69 4.725-3.648 3.096-2.408 4.604-3.605 4.664-3.702.048-.079.103-.192.121-.253.018-.06.035 1.466.038 3.391.004 2.812.016 3.529.059 3.65.079.221.241.414.454.539.161.095.233.111.489.111.238 0 .331-.018.45-.088.082-.049 2.21-1.691 4.728-3.65 5.123-3.985 4.802-3.703 4.802-4.223 0-.561.38-.224-4.842-4.288-2.551-1.984-4.692-3.631-4.758-3.66-.21-.089-.615-.065-.841.051-.223.115-.435.366-.497.589-.027.097-.043 1.365-.045 3.629-.003 3.109-.01 3.462-.062 3.315a1.082 1.082 0 0 0-.187-.307c-.133-.146-9.07-7.104-9.298-7.239-.167-.099-.54-.125-.761-.053M6.213 9.54c1.728 1.342 3.143 2.449 3.143 2.46.001.011-1.429 1.131-3.178 2.489L3 16.958v-4.942c0-2.851.015-4.937.035-4.929A340.8 340.8 0 0 1 6.213 9.54m11 0c1.728 1.342 3.143 2.449 3.143 2.46.001.011-1.429 1.131-3.178 2.489L14 16.958v-4.942c0-2.851.015-4.937.035-4.929a340.8 340.8 0 0 1 3.178 2.453" fill="#000" fill-rule="evenodd" stroke="none"/></svg>