<svg xmlns="http://www.w3.org/2000/svg" width="24" height="24" fill="none" stroke="currentColor" stroke-width="2" stroke-linecap="round" stroke-linejoin="round"><path d="M15.2 1.044a7.033 7.033 0 0 0-3.42 1.369c-.2.149-1.687 1.602-3.954 3.863-2.925 2.917-3.653 3.663-3.73 3.824l-.095.2L4 14.44v4.14l-1.383 1.38c-.76.759-1.427 1.456-1.482 1.548-.274.459-.103 1.079.373 1.359.165.097.234.113.492.112.212 0 .341-.022.44-.074.077-.041.779-.71 1.56-1.489l1.42-1.415 4.18-.01 4.18-.011.16-.087c.221-.12 7.297-7.219 7.608-7.634 1.672-2.223 1.912-5.107.627-7.538-.938-1.776-2.669-3.103-4.615-3.541a7.385 7.385 0 0 0-2.36-.136m1.646 2.034a4.868 4.868 0 0 1 2.59 1.301c1.244 1.187 1.772 2.84 1.461 4.572a5.434 5.434 0 0 1-.426 1.269c-.315.631-.524.878-1.986 2.35L17.064 14H11.421l2.705-2.71c1.488-1.49 2.739-2.773 2.779-2.85.052-.099.074-.228.074-.44.001-.255-.015-.328-.107-.484a1.003 1.003 0 0 0-1.215-.451c-.181.06-.585.452-4.927 4.789L6 16.579v-5.682l3.39-3.382c3.056-3.049 3.43-3.408 3.791-3.647 1.134-.748 2.366-1.014 3.665-.79M14.859 16.21c-.109.115-.549.566-.978 1l-.78.79h-5.68l.999-1 .999-1h5.638l-.198.21" fill-rule="evenodd" fill="#000" stroke="none"/></svg>