<svg xmlns="http://www.w3.org/2000/svg" width="24" height="24" fill="none" stroke="currentColor" stroke-width="2" stroke-linecap="round" stroke-linejoin="round"><path d="M5.499 1.043C4.383 1.23 3.461 2.048 3.114 3.16l-.094.3v17.08l.094.3a3.086 3.086 0 0 0 2.046 2.046l.3.094h13.08l.3-.094c.976-.304 1.714-1.035 2.046-2.026l.094-.28.011-5.88c.011-5.381.006-5.895-.054-6.06-.056-.153-.615-.73-3.692-3.814-2.915-2.923-3.664-3.653-3.825-3.73l-.2-.095-3.76.004c-2.068.002-3.851.02-3.961.038m6.51 5.107.011 3.15.111.189c.125.213.318.375.539.454.12.043.763.054 3.24.055L19 10v5.054c0 4.166-.01 5.085-.055 5.236a1.02 1.02 0 0 1-.461.582l-.184.108H5.7l-.184-.108a1.199 1.199 0 0 1-.291-.249c-.24-.315-.225.265-.225-8.601 0-9.134-.026-8.39.304-8.719.309-.309.161-.297 3.625-.3L11.998 3l.011 3.15m3.791.07L17.58 8H14V6.22c0-.979.005-1.78.01-1.78.006 0 .811.801 1.79 1.78" fill-rule="evenodd" fill="#000" stroke="none"/></svg>