<svg xmlns="http://www.w3.org/2000/svg" width="24" height="24" fill="none" stroke="currentColor" stroke-width="2" stroke-linecap="round" stroke-linejoin="round"><path d="M6.96 1.041c-1.596.137-3.019.622-3.636 1.239-.357.357-.326-.669-.314 10.304l.01 9.722.121.197a.998.998 0 0 0 1.718 0l.121-.197.011-3.39.011-3.39.269-.101c.77-.291 1.479-.399 2.609-.4.742 0 .87.01 1.34.109.62.131 1.153.305 2.28.747 2.16.845 2.991 1.06 4.28 1.106 1.41.05 2.829-.178 3.853-.62.495-.213.773-.385 1.027-.634.372-.364.342.25.33-6.815L20.98 2.7l-.109-.186c-.221-.375-.667-.575-1.074-.481-.11.026-.31.121-.443.211-.669.454-1.617.696-2.914.743-1.311.048-2.055-.121-4.1-.928-1.473-.581-2.27-.823-3.16-.96-.493-.076-1.656-.106-2.22-.058m2.28 2.1c.597.123 1.134.299 2.26.74 1.611.63 2.309.849 3.28 1.025.544.099 2.101.1 2.8.002.43-.06 1.165-.218 1.35-.289.066-.026.07.224.07 4.912v4.94l-.255.103c-.598.239-1.382.38-2.305.413-1.311.048-2.055-.121-4.1-.928-2.332-.92-3.532-1.154-5.24-1.023-.799.062-1.685.213-2.037.348-.057.022-.063-.432-.063-4.916V3.527l.271-.103a6.367 6.367 0 0 1 1.449-.34l.56-.061c.077-.009.437-.009.8-.001.508.012.775.039 1.16.119" fill-rule="evenodd" fill="#000" stroke="none"/></svg>