<svg width="24" height="24" viewBox="0 0 24 24" fill="none" xmlns="http://www.w3.org/2000/svg">
<path d="M2.00002 4.99998C1.86751 4.9981 1.73595 5.02259 1.61298 5.072C1.49001 5.12141 1.37809 5.19477 1.28372 5.28782C1.18935 5.38086 1.11441 5.49173 1.06327 5.61399C1.01212 5.73625 0.985779 5.86745 0.985779 5.99998C0.985779 6.1325 1.01212 6.26371 1.06327 6.38596C1.11441 6.50822 1.18935 6.61909 1.28372 6.71214C1.37809 6.80518 1.49001 6.87854 1.61298 6.92796C1.73595 6.97737 1.86751 7.00185 2.00002 6.99998H20C20.1325 7.00185 20.2641 6.97737 20.3871 6.92796C20.51 6.87854 20.622 6.80518 20.7163 6.71214C20.8107 6.61909 20.8856 6.50822 20.9368 6.38596C20.9879 6.26371 21.0143 6.1325 21.0143 5.99998C21.0143 5.86745 20.9879 5.73625 20.9368 5.61399C20.8856 5.49173 20.8107 5.38086 20.7163 5.28782C20.622 5.19477 20.51 5.12141 20.3871 5.072C20.2641 5.02259 20.1325 4.9981 20 4.99998H2.00002Z" fill="black"/>
<path d="M4.00002 8.99998C3.86751 8.9981 3.73595 9.02258 3.61298 9.072C3.49001 9.12141 3.37809 9.19477 3.28372 9.28782C3.18935 9.38086 3.11441 9.49173 3.06327 9.61399C3.01212 9.73625 2.98578 9.86745 2.98578 9.99998C2.98578 10.1325 3.01212 10.2637 3.06327 10.386C3.11441 10.5082 3.18935 10.6191 3.28372 10.7121C3.37809 10.8052 3.49001 10.8785 3.61298 10.928C3.73595 10.9774 3.86751 11.0019 4.00002 11H9.47268C9.60519 11.0019 9.73675 10.9774 9.85972 10.928C9.98269 10.8785 10.0946 10.8052 10.189 10.7121C10.2833 10.6191 10.3583 10.5082 10.4094 10.386C10.4606 10.2637 10.4869 10.1325 10.4869 9.99998C10.4869 9.86745 10.4606 9.73625 10.4094 9.61399C10.3583 9.49173 10.2833 9.38086 10.189 9.28782C10.0946 9.19477 9.98269 9.12141 9.85972 9.072C9.73675 9.02258 9.60519 8.9981 9.47268 8.99998H4.00002Z" fill="black"/>
<path d="M13.4727 8.99998C13.3402 8.9981 13.2086 9.02258 13.0856 9.072C12.9627 9.12141 12.8507 9.19477 12.7564 9.28782C12.662 9.38086 12.5871 9.49173 12.5359 9.61399C12.4848 9.73625 12.4584 9.86745 12.4584 9.99998C12.4584 10.1325 12.4848 10.2637 12.5359 10.386C12.5871 10.5082 12.662 10.6191 12.7564 10.7121C12.8507 10.8052 12.9627 10.8785 13.0856 10.928C13.2086 10.9774 13.3402 11.0019 13.4727 11H22C22.1325 11.0019 22.2641 10.9774 22.3871 10.928C22.51 10.8785 22.622 10.8052 22.7163 10.7121C22.8107 10.6191 22.8856 10.5082 22.9368 10.386C22.9879 10.2637 23.0143 10.1325 23.0143 9.99998C23.0143 9.86745 22.9879 9.73625 22.9368 9.61399C22.8856 9.49173 22.8107 9.38086 22.7163 9.28782C22.622 9.19477 22.51 9.12141 22.3871 9.072C22.2641 9.02258 22.1325 8.9981 22 8.99998H13.4727Z" fill="black"/>
<path d="M2.00002 13C1.86751 12.9981 1.73595 13.0226 1.61298 13.072C1.49001 13.1214 1.37809 13.1948 1.28372 13.2878C1.18935 13.3809 1.11441 13.4917 1.06327 13.614C1.01212 13.7362 0.985779 13.8675 0.985779 14C0.985779 14.1325 1.01212 14.2637 1.06327 14.386C1.11441 14.5082 1.18935 14.6191 1.28372 14.7121C1.37809 14.8052 1.49001 14.8785 1.61298 14.928C1.73595 14.9774 1.86751 15.0019 2.00002 15H13.7813C13.9138 15.0019 14.0453 14.9774 14.1683 14.928C14.2913 14.8785 14.4032 14.8052 14.4976 14.7121C14.5919 14.6191 14.6669 14.5082 14.718 14.386C14.7692 14.2637 14.7955 14.1325 14.7955 14C14.7955 13.8675 14.7692 13.7362 14.718 13.614C14.6669 13.4917 14.5919 13.3809 14.4976 13.2878C14.4032 13.1948 14.2913 13.1214 14.1683 13.072C14.0453 13.0226 13.9138 12.9981 13.7813 13H2.00002Z" fill="black"/>
<path d="M17.7813 13C17.6488 12.9981 17.5172 13.0226 17.3942 13.072C17.2713 13.1214 17.1593 13.1948 17.065 13.2878C16.9706 13.3809 16.8957 13.4917 16.8445 13.614C16.7934 13.7362 16.767 13.8675 16.767 14C16.767 14.1325 16.7934 14.2637 16.8445 14.386C16.8957 14.5082 16.9706 14.6191 17.065 14.7121C17.1593 14.8052 17.2713 14.8785 17.3942 14.928C17.5172 14.9774 17.6488 15.0019 17.7813 15H20C20.1325 15.0019 20.2641 14.9774 20.3871 14.928C20.51 14.8785 20.622 14.8052 20.7163 14.7121C20.8107 14.6191 20.8856 14.5082 20.9368 14.386C20.9879 14.2637 21.0143 14.1325 21.0143 14C21.0143 13.8675 20.9879 13.7362 20.9368 13.614C20.8856 13.4917 20.8107 13.3809 20.7163 13.2878C20.622 13.1948 20.51 13.1214 20.3871 13.072C20.2641 13.0226 20.1325 12.9981 20 13H17.7813Z" fill="black"/>
<path d="M4.00002 17C3.86751 16.9981 3.73595 17.0226 3.61298 17.072C3.49001 17.1214 3.37809 17.1948 3.28372 17.2878C3.18935 17.3809 3.11441 17.4917 3.06327 17.614C3.01212 17.7362 2.98578 17.8675 2.98578 18C2.98578 18.1325 3.01212 18.2637 3.06327 18.386C3.11441 18.5082 3.18935 18.6191 3.28372 18.7121C3.37809 18.8052 3.49001 18.8785 3.61298 18.928C3.73595 18.9774 3.86751 19.0019 4.00002 19H6.17776C6.31027 19.0019 6.44183 18.9774 6.5648 18.928C6.68777 18.8785 6.79969 18.8052 6.89406 18.7121C6.98843 18.6191 7.06336 18.5082 7.11451 18.386C7.16566 18.2637 7.192 18.1325 7.192 18C7.192 17.8675 7.16566 17.7362 7.11451 17.614C7.06336 17.4917 6.98843 17.3809 6.89406 17.2878C6.79969 17.1948 6.68777 17.1214 6.5648 17.072C6.44183 17.0226 6.31027 16.9981 6.17776 17H4.00002Z" fill="black"/>
<path d="M10.1778 17C10.0452 16.9981 9.91368 17.0226 9.79071 17.072C9.66775 17.1214 9.55582 17.1948 9.46145 17.2878C9.36708 17.3809 9.29215 17.4917 9.241 17.614C9.18985 17.7362 9.16351 17.8675 9.16351 18C9.16351 18.1325 9.18985 18.2637 9.241 18.386C9.29215 18.5082 9.36708 18.6191 9.46145 18.7121C9.55582 18.8052 9.66775 18.8785 9.79071 18.928C9.91368 18.9774 10.0452 19.0019 10.1778 19H22C22.1325 19.0019 22.2641 18.9774 22.3871 18.928C22.51 18.8785 22.622 18.8052 22.7163 18.7121C22.8107 18.6191 22.8856 18.5082 22.9368 18.386C22.9879 18.2637 23.0143 18.1325 23.0143 18C23.0143 17.8675 22.9879 17.7362 22.9368 17.614C22.8856 17.4917 22.8107 17.3809 22.7163 17.2878C22.622 17.1948 22.51 17.1214 22.3871 17.072C22.2641 17.0226 22.1325 16.9981 22 17H10.1778Z" fill="black"/>
</svg>
