<svg xmlns="http://www.w3.org/2000/svg" width="24" height="24" fill="none" stroke="currentColor" stroke-width="2" stroke-linecap="round" stroke-linejoin="round"><path d="M3.499 2.043C2.383 2.23 1.461 3.048 1.114 4.16l-.094.3v15.08l.094.3a3.086 3.086 0 0 0 2.046 2.046l.3.094h17.08l.3-.094a3.086 3.086 0 0 0 2.046-2.046l.094-.3V7.46l-.094-.3a3.089 3.089 0 0 0-2.025-2.039l-.321-.101-4.504-.011-4.504-.011-.901-1.351C9.672 2.212 9.596 2.124 9.24 2.043c-.219-.05-5.443-.05-5.741 0M9.368 5.35c.521.78.956 1.389 1.029 1.442.296.217.087.208 5.081.208 5.223 0 4.897-.019 5.219.303.325.325.303-.119.303 6.198 0 4.635-.01 5.638-.055 5.789a1.02 1.02 0 0 1-.461.582l-.184.108H3.7l-.184-.108a1.199 1.199 0 0 1-.291-.249c-.239-.314-.225.172-.225-7.601 0-8.017-.025-7.391.304-7.719.302-.303.245-.297 2.859-.3L8.466 4l.902 1.35m2.327 4.707a1.04 1.04 0 0 0-.567.459l-.108.184-.012 1.15-.013 1.15H9.944c-1.147 0-1.301.022-1.562.221-.08.061-.195.194-.254.295-.091.156-.108.23-.108.484 0 .256.016.328.111.489.061.103.173.236.25.294.261.2.357.213 1.527.215l1.087.002.013 1.153.012 1.154.121.196a.998.998 0 0 0 1.718 0l.121-.196.012-1.154.013-1.153 1.087-.002c1.17-.002 1.266-.015 1.527-.215.077-.058.189-.191.25-.294.095-.161.111-.233.111-.489 0-.254-.017-.328-.108-.484a1.209 1.209 0 0 0-.254-.295c-.261-.199-.415-.221-1.562-.221h-1.051l-.013-1.15-.012-1.15-.108-.184a1.005 1.005 0 0 0-1.177-.459" fill-rule="evenodd" fill="#000" stroke="none"/></svg>