<svg xmlns="http://www.w3.org/2000/svg" width="24" height="24" fill="none" stroke="currentColor" stroke-width="2" stroke-linecap="round" stroke-linejoin="round"><path d="M3.499 2.043C2.383 2.23 1.461 3.048 1.114 4.16l-.094.3v15.08l.094.3a3.086 3.086 0 0 0 2.046 2.046l.3.094h17.08l.3-.094a3.086 3.086 0 0 0 2.046-2.046l.094-.3V7.46l-.094-.3a3.089 3.089 0 0 0-2.025-2.039l-.321-.101-4.504-.011-4.504-.011-.901-1.351C9.672 2.212 9.596 2.124 9.24 2.043c-.219-.05-5.443-.05-5.741 0M9.368 5.35c.521.78.956 1.389 1.029 1.442.296.217.087.208 5.081.208 5.223 0 4.897-.019 5.219.303.325.325.303-.119.303 6.198 0 4.635-.01 5.638-.055 5.789a1.02 1.02 0 0 1-.461.582l-.184.108H3.7l-.184-.108a1.199 1.199 0 0 1-.291-.249c-.239-.314-.225.172-.225-7.601 0-8.017-.025-7.391.304-7.719.302-.303.245-.297 2.859-.3L8.466 4l.902 1.35m-.673 7.707a1.04 1.04 0 0 0-.567.459c-.091.156-.108.23-.108.484 0 .256.016.328.111.489.125.213.318.375.539.454.221.079 6.439.079 6.66 0 .221-.079.414-.241.539-.454.095-.161.111-.233.111-.489 0-.254-.017-.328-.108-.484a1.02 1.02 0 0 0-.582-.461c-.26-.078-6.345-.076-6.595.002" fill-rule="evenodd" fill="#000" stroke="none"/></svg>