<svg width="24" height="24" xmlns="http://www.w3.org/2000/svg" fill="none" stroke="currentColor" stroke-width="2" stroke-linecap="round" stroke-linejoin="round"><path d="M4.695 1.057a.99.99 0 0 0-.635 1.268c.066.204.214.36 2.794 2.945L9.578 8H7.235c-2.542 0-2.565.002-2.853.221-.08.061-.195.194-.254.295L4.02 8.7v7.6l.107.18c.136.227 7.241 7.325 7.433 7.425.099.052.228.074.44.074.255.001.328-.015.484-.107.101-.059.232-.172.291-.249.231-.303.225-.205.225-3.548V17h3.075c3.343 0 3.245.006 3.548-.225.077-.059.19-.19.249-.291.092-.156.108-.229.107-.484 0-.212-.022-.341-.074-.44-.04-.077-1.29-1.359-2.777-2.849l-2.705-2.709 2.439-.011L19.3 9.98l.192-.113c.218-.128.409-.369.469-.59.027-.099.037-1.439.03-3.864L19.98 1.7l-.108-.184a1.02 1.02 0 0 0-.582-.461C19.027.976 4.947.978 4.695 1.057M18 5.5V8h-5.58l-2.5-2.5L7.42 3H18v2.5m-3.92 7 2.5 2.5H6v-5h5.58l2.5 2.5M11 18.78c0 .979-.005 1.78-.01 1.78-.006 0-.811-.801-1.79-1.78L7.42 17H11v1.78" fill-rule="evenodd" fill="#000" stroke="none"/></svg>