<svg xmlns="http://www.w3.org/2000/svg" width="24" height="24" fill="none" stroke="currentColor" stroke-width="2" stroke-linecap="round" stroke-linejoin="round"><path d="M6.873 1.063c-2.22.401-3.461 2.749-2.574 4.867.028.066-.044.07-1.188.07-1.326 0-1.462.017-1.729.221-.08.061-.195.194-.254.295L1.02 6.7l-.011 2.712c-.007 1.76.003 2.765.03 2.864.06.222.251.463.469.591.186.109.213.113.841.126l.65.014.01 4.646.011 4.647.111.189c.125.213.318.375.539.454.223.079 16.437.079 16.66 0 .221-.079.414-.241.539-.454l.111-.189.011-4.647.01-4.646.65-.014c.628-.013.655-.017.841-.126.218-.128.409-.369.469-.591.027-.099.037-1.104.03-2.864L22.98 6.7l-.108-.184a1.209 1.209 0 0 0-.254-.295C22.351 6.017 22.215 6 20.889 6c-1.144 0-1.216-.004-1.188-.07.444-1.06.384-2.189-.168-3.163-.584-1.029-1.661-1.686-2.873-1.753-.981-.054-2.019.279-2.875.923-.562.424-1.278 1.271-1.666 1.973-.051.094-.105.17-.119.17-.014 0-.068-.076-.12-.17a7.569 7.569 0 0 0-1.206-1.576C9.621 1.312 8.172.828 6.873 1.063m1.271 2.032c.844.225 1.617 1.008 2.215 2.245.127.264.244.521.259.572l.028.091-1.753-.011L7.14 5.98l-.24-.112a1.675 1.675 0 0 1-.765-.764c-.095-.208-.111-.296-.111-.604-.001-.309.015-.394.11-.6.193-.422.615-.77 1.04-.861.207-.044.701-.015.97.056m8.972.047c.301.137.611.449.749.754.095.208.111.296.111.604.001.309-.015.394-.11.6a1.68 1.68 0 0 1-.762.767l-.244.113-1.753.012-1.753.011.028-.091c.062-.205.504-1.071.686-1.345.235-.353.562-.731.829-.958.257-.219.746-.469 1.023-.524l.3-.062c.194-.045.678.02.896.119M11 9.5V11H3V8h8v1.5m10 0V11h-8V8h8v1.5M11 17v4H5v-8h6v4m8 0v4h-6v-8h6v4" fill-rule="evenodd" fill="#000" stroke="none"/></svg>