<svg xmlns="http://www.w3.org/2000/svg" width="24" height="24" fill="none" stroke="currentColor" stroke-width="2" stroke-linecap="round" stroke-linejoin="round"><path d="M5.358 2.061c-1.627.254-2.941 1.523-3.275 3.166-.383 1.878.673 3.804 2.457 4.484.176.067.351.132.389.144.066.021.071.352.08 5.737l.011 5.714.121.197a.998.998 0 0 0 1.718 0l.121-.197.011-5.714c.009-5.385.014-5.716.08-5.737 1.27-.404 2.166-1.209 2.633-2.367a3.963 3.963 0 0 0 .001-2.972 3.978 3.978 0 0 0-3.1-2.458 3.728 3.728 0 0 0-1.247.003m1.165 2.012a2.011 2.011 0 0 1 1.27 2.807c-.155.318-.566.745-.863.895a2.07 2.07 0 0 1-1.422.165c-.685-.178-1.259-.746-1.435-1.417a2.001 2.001 0 0 1 2.45-2.45m6.172.983c-.23.074-.44.244-.567.46-.091.156-.108.23-.108.484 0 .256.016.328.111.489.061.103.173.236.25.294.274.209.314.213 2.082.215 1.897.002 1.936.008 2.234.306.316.316.305.171.293 3.71l-.01 3.112-.26.091c-.896.314-1.696.96-2.151 1.736a3.992 3.992 0 0 0 1.943 5.751 3.988 3.988 0 0 0 5.192-2.216c.856-2.123-.24-4.505-2.424-5.271l-.26-.091-.02-3.353-.021-3.353-.093-.28c-.328-.982-1.07-1.72-2.025-2.017-.32-.099-.326-.1-2.161-.11-1.441-.008-1.876.001-2.005.043m5.828 11.017a2.011 2.011 0 0 1 1.444 1.617c.1.653-.094 1.243-.564 1.714-.401.403-.856.596-1.403.596-.515 0-.962-.178-1.347-.535-1.33-1.236-.464-3.46 1.347-3.46.143 0 .378.031.523.068" fill-rule="evenodd" fill="#000" stroke="none"/></svg>