<svg xmlns="http://www.w3.org/2000/svg" width="24" height="24" fill="none" stroke="currentColor" stroke-width="2" stroke-linecap="round" stroke-linejoin="round"><path d="M11.4 7.044c-1.639.185-3.139 1.246-3.874 2.741-.167.339-.343.823-.387 1.064l-.028.149-3.165.011c-3.153.011-3.167.011-3.327.097-.367.197-.556.501-.556.894 0 .304.088.505.322.731.286.278.161.269 3.618.269h3.108l.028.15c.044.242.22.726.387 1.065.677 1.377 1.96 2.359 3.514 2.692.471.101 1.449.101 1.92 0a5.146 5.146 0 0 0 3.074-1.959c.348-.472.741-1.324.827-1.798l.028-.15 3.125-.002c2.507-.001 3.156-.012 3.276-.055.221-.079.414-.241.539-.454.095-.161.111-.233.111-.489 0-.254-.017-.328-.108-.484a1.209 1.209 0 0 0-.254-.295c-.294-.224-.248-.221-3.598-.221h-3.087l-.051-.227c-.182-.812-.726-1.742-1.39-2.377A4.99 4.99 0 0 0 11.4 7.044m1.461 2.085c.943.276 1.723 1.054 2.014 2.01.083.273.098.403.098.861 0 .458-.015.588-.098.861a3.073 3.073 0 0 1-2.035 2.025c-.434.135-1.246.135-1.68 0a3.073 3.073 0 0 1-2.035-2.025c-.083-.273-.098-.403-.098-.861 0-.458.015-.588.098-.861a3.042 3.042 0 0 1 2.374-2.099c.333-.06 1.001-.017 1.362.089" fill="#000" fill-rule="evenodd" stroke="none"/></svg>