<svg xmlns="http://www.w3.org/2000/svg" width="24" height="24" fill="none" stroke="currentColor" stroke-width="2" stroke-linecap="round" stroke-linejoin="round"><path d="M4.656.121c-.284.146-.39.273-.544.652-.436 1.071-.552 2.476-.288 3.516l.058.229-.238.351a6.563 6.563 0 0 0-1.047 2.544c-.126.652-.115 1.927.025 2.883.131.893.484 2.014.826 2.622.915 1.623 2.323 2.665 4.382 3.243.233.065.431.127.441.136.009.01-.022.136-.07.281a4.152 4.152 0 0 0-.2 1.268L8 18.232l-.344.049c-.535.075-1.21.036-1.575-.094-.578-.204-.917-.497-1.691-1.461-.779-.972-1.326-1.427-1.957-1.626-.37-.117-.51-.123-.766-.036-.571.194-.836.913-.529 1.437.129.219.295.348.59.458.308.115.545.338 1.145 1.078.942 1.161 1.527 1.645 2.391 1.979.59.228.937.284 1.756.284.396 0 .777-.013.848-.029l.127-.028.013 1.032.012 1.032.121.196a.998.998 0 0 0 1.718 0l.121-.197.022-2.463c.017-1.86.035-2.502.074-2.623.089-.275.316-.671.526-.915.251-.293.327-.465.329-.745a1.005 1.005 0 0 0-.294-.713c-.198-.198-.302-.238-.864-.328-2.217-.354-3.547-1.021-4.309-2.159-.675-1.008-.981-2.289-.933-3.911.017-.593.037-.768.122-1.07A4.732 4.732 0 0 1 5.62 5.58c.115-.132.242-.303.283-.38.111-.213.099-.589-.031-1.009a3.937 3.937 0 0 1-.176-1.431c.027-.378.075-.665.121-.71.045-.046.802.234 1.27.47.261.132.703.381.983.554.757.467.776.471 1.561.287a11.26 11.26 0 0 1 2.869-.33c1.084 0 1.816.084 2.869.33.785.184.804.18 1.561-.287.98-.606 2.184-1.134 2.269-.995.018.029.056.234.083.454.075.616.01 1.202-.208 1.862-.096.292-.086.588.028.81.038.074.173.255.299.401.443.515.778 1.154.969 1.847.082.297.09.413.089 1.267-.002.784-.016 1.019-.088 1.42-.328 1.817-1.088 2.926-2.471 3.603-.738.361-1.604.604-2.689.753-.489.067-.68.143-.879.35a.938.938 0 0 0-.26.674c0 .279.081.476.303.736.237.278.401.554.512.864.092.259.093.27.113 2.723l.02 2.463.121.197a.998.998 0 0 0 1.718 0l.121-.197.012-2.383c.013-2.534 0-2.773-.175-3.323a3.99 3.99 0 0 1-.096-.326c-.001-.014.067-.037.149-.052.466-.085 1.377-.404 1.891-.662.746-.375 1.291-.773 1.819-1.326 1.157-1.212 1.782-2.858 1.897-5.001.094-1.764-.238-3.058-1.121-4.364l-.238-.351.058-.229c.263-1.038.148-2.447-.288-3.516-.154-.379-.26-.506-.544-.652C20.119.006 20.083 0 19.632 0c-.543 0-.905.063-1.512.265-.496.164-1.386.587-1.92.912l-.38.231-.28-.063c-.953-.215-1.927-.316-3.04-.316s-2.087.101-3.04.316l-.28.063-.38-.231C8.266.852 7.376.429 6.88.265 6.273.063 5.911 0 5.368 0c-.451 0-.487.006-.712.121" fill-rule="evenodd" fill="#000" stroke="none"/></svg>