<svg xmlns="http://www.w3.org/2000/svg" width="24" height="24" fill="none" stroke="currentColor" stroke-width="2" stroke-linecap="round" stroke-linejoin="round"><path d="M2.695 2.057a1.04 1.04 0 0 0-.567.459L2.02 2.7v7.6l.111.189c.125.213.318.375.539.454.221.079 7.439.079 7.66 0 .221-.079.414-.241.539-.454l.111-.189V2.7l-.108-.184a1.02 1.02 0 0 0-.582-.461c-.26-.078-7.345-.076-7.595.002m11 0a1.04 1.04 0 0 0-.567.459l-.108.184v7.6l.111.189c.125.213.318.375.539.454.221.079 7.439.079 7.66 0 .221-.079.414-.241.539-.454l.111-.189V2.7l-.108-.184a1.02 1.02 0 0 0-.582-.461c-.26-.078-7.345-.076-7.595.002M9 6.5V9H4V4h5v2.5m11 0V9h-5V4h5v2.5M2.695 13.057a1.04 1.04 0 0 0-.567.459l-.108.184v7.6l.111.189c.125.213.318.375.539.454.221.079 7.439.079 7.66 0 .221-.079.414-.241.539-.454l.111-.189v-7.6l-.108-.184a1.02 1.02 0 0 0-.582-.461c-.26-.078-7.345-.076-7.595.002m11 0a1.04 1.04 0 0 0-.567.459l-.108.184v7.6l.111.189c.125.213.318.375.539.454.221.079 7.439.079 7.66 0 .221-.079.414-.241.539-.454l.111-.189v-7.6l-.108-.184a1.02 1.02 0 0 0-.582-.461c-.26-.078-7.345-.076-7.595.002M9 17.5V20H4v-5h5v2.5m11 0V20h-5v-5h5v2.5" fill="#000" fill-rule="evenodd" stroke="none"/></svg>