<svg width="24" height="24" viewBox="0 0 24 24" fill="none" xmlns="http://www.w3.org/2000/svg">
<g clip-path="url(#clip0_3_8834)">
<path d="M9.50589 0.0137193C5.59953 -0.206547 1.9907 2.1305 0.593777 5.7852C0.19826 6.82006 0.00452889 7.89555 2.73616e-05 8.95903C-0.00334668 9.72157 0.0898929 10.4779 0.275418 11.211C0.307601 11.3383 0.364555 11.4581 0.443025 11.5634C0.521496 11.6688 0.619948 11.7576 0.732759 11.8249C0.845569 11.8922 0.97053 11.9366 1.10051 11.9556C1.23048 11.9746 1.36292 11.9678 1.49028 11.9356C1.61763 11.9035 1.73739 11.8465 1.84273 11.768C1.94806 11.6895 2.03691 11.5911 2.1042 11.4783C2.17148 11.3655 2.21589 11.2405 2.23488 11.1105C2.25387 10.9805 2.24707 10.8481 2.21487 10.7208C2.0704 10.1499 1.9974 9.56226 2.00003 8.9688C2.00353 8.14228 2.15444 7.30719 2.46292 6.50005C3.55199 3.65076 6.34892 1.84003 9.39456 2.01177C12.4393 2.1835 15.0142 4.29632 15.7774 7.25005C15.8328 7.46478 15.9581 7.65498 16.1335 7.79075C16.3088 7.92652 16.5243 8.00014 16.7461 8.00005H18.0059C19.9028 8.00336 21.5286 9.32486 21.916 11.1817C22.3045 13.0405 21.3447 14.9025 19.6055 15.6641C19.4815 15.7142 19.3688 15.7886 19.2741 15.883C19.1793 15.9773 19.1045 16.0898 19.054 16.2136C19.0035 16.3374 18.9783 16.4701 18.9799 16.6038C18.9816 16.7375 19.01 16.8695 19.0636 16.992C19.1171 17.1145 19.1947 17.2251 19.2917 17.3171C19.3887 17.4091 19.5032 17.4808 19.6284 17.5278C19.7536 17.5748 19.8869 17.5962 20.0205 17.5907C20.1542 17.5853 20.2853 17.5531 20.4063 17.4961C23.0011 16.3598 24.4526 13.5467 23.8731 10.7735C23.2946 8.00095 20.84 6.00364 18.0078 6.00005H18.0058H17.3867C16.1747 2.63092 13.1316 0.218222 9.50589 0.0137193Z" fill="black"/>
<path d="M6.61133 9.95117C6.48001 9.95322 6.35037 9.98112 6.22983 10.0333C6.10929 10.0854 6.0002 10.1608 5.90879 10.2551C5.81738 10.3494 5.74545 10.4608 5.69709 10.5829C5.64873 10.705 5.6249 10.8355 5.62695 10.9668V14C5.62508 14.1325 5.64956 14.2641 5.69897 14.387C5.74839 14.51 5.82175 14.6219 5.91479 14.7163C6.00784 14.8107 6.11871 14.8856 6.24097 14.9368C6.36322 14.9879 6.49443 15.0142 6.62695 15.0142C6.75948 15.0142 6.89068 14.9879 7.01294 14.9368C7.1352 14.8856 7.24607 14.8107 7.33911 14.7163C7.43216 14.6219 7.50552 14.51 7.55493 14.387C7.60435 14.2641 7.62883 14.1325 7.62695 14V10.9668C7.62905 10.8328 7.60421 10.6998 7.55391 10.5757C7.50362 10.4515 7.42888 10.3387 7.33415 10.244C7.23942 10.1492 7.12663 10.0745 7.00246 10.0242C6.87829 9.97391 6.74528 9.94908 6.61133 9.95117Z" fill="black"/>
<path d="M5.62694 16C5.45121 15.9998 5.27853 16.0459 5.12629 16.1337C4.97405 16.2215 4.84763 16.3478 4.75975 16.5L3.75975 18.2324C3.67199 18.3844 3.62579 18.5569 3.62579 18.7324C3.62579 18.908 3.67199 19.0804 3.75975 19.2324L4.75975 20.9648C4.84763 21.117 4.97405 21.2434 5.12629 21.3311C5.27853 21.4189 5.45121 21.465 5.62694 21.4648H7.62694C7.80234 21.4647 7.97462 21.4184 8.12648 21.3307C8.27835 21.2429 8.40447 21.1167 8.49217 20.9648L9.49217 19.2324C9.57993 19.0804 9.62613 18.908 9.62613 18.7324C9.62613 18.5569 9.57993 18.3844 9.49217 18.2324L8.49217 16.5C8.40447 16.3481 8.27835 16.2219 8.12648 16.1342C7.97462 16.0464 7.80234 16.0001 7.62694 16H5.62694ZM6.20311 18H7.04882L7.47069 18.7324L7.04882 19.4648H6.20311L5.78124 18.7324L6.20311 18Z" fill="black"/>
<path d="M14.6113 11.9512C14.48 11.9532 14.3504 11.9811 14.2298 12.0333C14.1093 12.0854 14.0002 12.1608 13.9088 12.2551C13.8174 12.3494 13.7454 12.4608 13.6971 12.5829C13.6487 12.705 13.6249 12.8355 13.627 12.9668V16C13.6251 16.1325 13.6496 16.2641 13.699 16.387C13.7484 16.51 13.8217 16.6219 13.9148 16.7163C14.0078 16.8107 14.1187 16.8856 14.241 16.9368C14.3632 16.9879 14.4944 17.0142 14.627 17.0142C14.7595 17.0142 14.8907 16.9879 15.0129 16.9368C15.1352 16.8856 15.2461 16.8107 15.3391 16.7163C15.4322 16.6219 15.5055 16.51 15.5549 16.387C15.6043 16.2641 15.6288 16.1325 15.627 16V12.9668C15.629 12.8328 15.6042 12.6998 15.5539 12.5757C15.5036 12.4515 15.4289 12.3387 15.3342 12.244C15.2394 12.1492 15.1266 12.0745 15.0025 12.0242C14.8783 11.9739 14.7453 11.9491 14.6113 11.9512Z" fill="black"/>
<path d="M13.6269 18C13.4512 17.9998 13.2785 18.0459 13.1263 18.1337C12.974 18.2215 12.8476 18.3478 12.7598 18.5L11.7598 20.2324C11.672 20.3844 11.6258 20.5569 11.6258 20.7324C11.6258 20.908 11.672 21.0804 11.7598 21.2324L12.7598 22.9648C12.8476 23.117 12.974 23.2434 13.1263 23.3311C13.2785 23.4189 13.4512 23.465 13.6269 23.4648H15.6269C15.8023 23.4647 15.9746 23.4184 16.1265 23.3307C16.2784 23.2429 16.4045 23.1167 16.4922 22.9648L17.4922 21.2324C17.5799 21.0804 17.6261 20.908 17.6261 20.7324C17.6261 20.5569 17.5799 20.3844 17.4922 20.2324L16.4922 18.5C16.4045 18.3481 16.2784 18.2219 16.1265 18.1342C15.9746 18.0464 15.8023 18.0001 15.6269 18H13.6269ZM14.2031 20H15.0488L15.4707 20.7324L15.0488 21.4648H14.2031L13.7812 20.7324L14.2031 20Z" fill="black"/>
</g>
<defs>
<clipPath id="clip0_3_8834">
<rect width="24" height="24" fill="white"/>
</clipPath>
</defs>
</svg>
