<svg xmlns="http://www.w3.org/2000/svg" width="24" height="24" fill="none" stroke="currentColor" stroke-width="2" stroke-linecap="round" stroke-linejoin="round"><path d="M6.781 3.044c-.788.117-1.586.63-2.036 1.309-.097.147-.98 1.875-1.962 3.841L.997 11.768l.012 3.406.012 3.406.093.28c.331.99 1.07 1.722 2.046 2.026l.3.094h17.08l.3-.094c.976-.304 1.715-1.036 2.046-2.026l.093-.28.012-3.406.012-3.406-1.786-3.574c-.982-1.966-1.865-3.694-1.962-3.841a3.112 3.112 0 0 0-1.15-1.013c-.703-.345-.2-.318-5.965-.325-2.816-.004-5.227.009-5.359.029m10.318 2.022c.374.127.39.154 1.88 3.132.759 1.518 1.381 2.77 1.381 2.781 0 .012-3.762.021-8.36.021-4.598 0-8.36-.009-8.36-.02 0-.011.623-1.267 1.385-2.79 1.101-2.203 1.416-2.8 1.537-2.916.298-.284-.043-.267 5.421-.271 4.466-.003 4.941.003 5.116.063M21 15.554c0 2.771 0 2.774-.221 3.064-.061.08-.194.195-.295.254l-.184.108H3.7l-.184-.108a1.199 1.199 0 0 1-.291-.249c-.229-.3-.225-.25-.225-3.048V13h18v2.554m-15.305-.499a1.05 1.05 0 0 0-.567.461c-.091.156-.108.23-.108.484 0 .257.016.327.113.492.518.882 1.865.526 1.865-.492a.994.994 0 0 0-.535-.888 1.17 1.17 0 0 0-.768-.057m4 0a1.05 1.05 0 0 0-.567.461c-.091.156-.108.23-.108.484 0 .257.016.327.113.492.518.882 1.865.526 1.865-.492a.994.994 0 0 0-.535-.888 1.17 1.17 0 0 0-.768-.057" fill-rule="evenodd" fill="#000" stroke="none"/></svg>