<svg xmlns="http://www.w3.org/2000/svg" width="24" height="24" fill="none" stroke="currentColor" stroke-width="2" stroke-linecap="round" stroke-linejoin="round"><path d="M9.67 2.057c-.311.111-.585.417-.646.723-.022.106-.584 5.103-.584 5.187 0 .018-1.023.033-2.274.033-2.467 0-2.497.002-2.784.221-.08.061-.195.194-.254.295-.091.156-.108.23-.108.484 0 .256.016.328.111.489.125.213.318.375.539.454.118.042.615.054 2.34.055 1.808.002 2.19.011 2.19.056 0 .079-.396 3.663-.422 3.816l-.022.13H5.825c-2.098 0-2.16.006-2.443.221-.08.061-.195.194-.254.295-.091.156-.108.23-.108.484 0 .256.016.328.111.489.125.213.318.375.539.454.117.042.561.054 2.012.055L7.544 16l-.277 2.496c-.187 1.689-.268 2.556-.25 2.679.037.247.24.536.48.684.174.107.232.121.5.121.26 0 .33-.016.495-.113.216-.127.41-.369.466-.583.029-.11.603-5.115.602-5.254 0-.016.896-.03 1.992-.03h1.992l-.277 2.496c-.187 1.689-.268 2.556-.25 2.679.037.247.24.536.48.684.174.107.232.121.5.121.26 0 .33-.016.495-.113.216-.127.41-.369.466-.583.029-.11.603-5.115.602-5.254 0-.016 1.039-.031 2.31-.032 1.825-.001 2.342-.013 2.46-.055.221-.079.414-.241.539-.454.095-.161.111-.233.111-.489 0-.254-.017-.328-.108-.484a1.209 1.209 0 0 0-.254-.295c-.285-.218-.327-.221-2.664-.221-1.779 0-2.154-.009-2.154-.054 0-.079.396-3.663.422-3.816l.022-.13 1.968-.002c1.539-.001 2.001-.013 2.118-.055.221-.079.414-.241.539-.454.095-.161.111-.233.111-.489 0-.254-.017-.328-.108-.484a1.209 1.209 0 0 0-.254-.295C20.337 8.007 20.264 8 18.282 8h-1.826l.281-2.535.281-2.535-.073-.23c-.241-.767-1.277-.939-1.747-.291-.065.09-.135.228-.156.307-.029.11-.603 5.115-.602 5.254 0 .017-.896.03-1.992.03h-1.992l.281-2.535.281-2.535-.073-.23c-.166-.527-.76-.827-1.275-.643m4.53 7.997c0 .079-.396 3.663-.422 3.816l-.022.13h-1.978c-1.631 0-1.978-.009-1.978-.054 0-.079.396-3.663.422-3.816l.022-.13h1.978c1.631 0 1.978.009 1.978.054" fill="#000" fill-rule="evenodd" stroke="none"/></svg>