<svg xmlns="http://www.w3.org/2000/svg" width="24" height="24" fill="none" stroke="currentColor" stroke-width="2" stroke-linecap="round" stroke-linejoin="round"><path d="M6.38 2.044A6.498 6.498 0 0 0 .757 6.891a6.612 6.612 0 0 0 0 3.218c.279 1.089.796 2.011 1.629 2.91.246.264 2.37 2.401 4.72 4.747 3.004 2.999 4.327 4.294 4.454 4.359.249.128.63.128.88 0 .128-.065 1.523-1.436 4.823-4.738 5.049-5.052 4.975-4.973 5.452-5.901a6.494 6.494 0 0 0 .528-4.595 6.589 6.589 0 0 0-2.907-3.934 6.546 6.546 0 0 0-3.895-.923c-.648.056-1.025.132-1.561.313-.933.316-1.714.796-2.49 1.531l-.39.37-.39-.37a6.928 6.928 0 0 0-1.201-.933 6.48 6.48 0 0 0-4.029-.901m1.24 2a4.646 4.646 0 0 1 1.94.722c.143.094.611.515 1.04.936.451.443.856.806.96.861.25.131.629.131.88 0 .104-.054.492-.4.92-.821.976-.959 1.196-1.12 1.944-1.419 1.944-.775 4.186-.081 5.37 1.662.245.361.515.959.635 1.404.096.354.106.459.106 1.111 0 .654-.01.757-.107 1.12a5.188 5.188 0 0 1-.865 1.7c-.153.187-2.115 2.176-4.361 4.42l-4.083 4.08-4.232-4.24c-4.442-4.451-4.414-4.421-4.764-5.128-.914-1.852-.388-4.168 1.241-5.459a4.499 4.499 0 0 1 3.376-.949" fill-rule="evenodd" fill="#000" stroke="none"/></svg>