<svg xmlns="http://www.w3.org/2000/svg" width="24" height="24" fill="none" stroke="currentColor" stroke-width="2" stroke-linecap="round" stroke-linejoin="round"><path d="M4.499 2.043C3.38 2.232 2.461 3.048 2.114 4.16l-.094.3v15.08l.094.3a3.086 3.086 0 0 0 2.046 2.046l.3.094h15.08l.3-.094a3.086 3.086 0 0 0 2.046-2.046l.094-.3V4.46l-.094-.3a3.089 3.089 0 0 0-2.025-2.039l-.321-.101-7.42-.006c-4.081-.003-7.511.01-7.621.029M19.31 4.061c.279.083.546.35.629.629.053.177.061.723.061 4.046v3.841l-1.73-1.723c-1.549-1.542-1.751-1.73-1.927-1.788a.982.982 0 0 0-.686-.001c-.181.06-.631.499-5.607 5.469l-5.409 5.404-.144-.077a1.026 1.026 0 0 1-.26-.225c-.253-.319-.237.202-.237-7.614 0-6.264.007-7.152.061-7.332.079-.269.351-.547.612-.627.291-.089 14.336-.092 14.637-.002M7.96 6.062a2.885 2.885 0 0 0-1.128.577c-.3.268-.593.713-.714 1.083-.084.254-.098.372-.096.798.002.439.016.536.111.8a2.585 2.585 0 0 0 1.547 1.547c.269.098.354.109.82.109.465 0 .552-.011.82-.108a2.589 2.589 0 0 0 1.547-1.548c.098-.269.109-.354.109-.82 0-.465-.011-.552-.108-.82A2.535 2.535 0 0 0 7.96 6.062m.764 2a.488.488 0 0 1 .198.686.485.485 0 0 1-.844 0 .478.478 0 0 1 .174-.67.453.453 0 0 1 .472-.016m9.286 5.368L20 15.42v1.843c0 2.002-.007 2.074-.221 2.355-.061.08-.194.195-.295.254l-.184.108-5.94.01-5.94.011 4.28-4.281a657.296 657.296 0 0 1 4.3-4.28c.011 0 .915.895 2.01 1.99" fill="#000" fill-rule="evenodd" stroke="none"/></svg>