<svg xmlns="http://www.w3.org/2000/svg" width="24" height="24" fill="none" stroke="currentColor" stroke-width="2" stroke-linecap="round" stroke-linejoin="round"><path d="M9.695 3.057c-.644.201-.896.983-.497 1.534.065.09.205.214.31.276l.192.113 1.924.02 1.924.02-2.622 6.99L8.305 19H6.599c-1.853 0-1.938.008-2.217.221-.08.061-.195.194-.254.295-.091.156-.108.23-.108.484 0 .256.016.328.111.489.125.213.318.375.539.454.122.044 1.022.053 4.83.053s4.708-.009 4.83-.053c.221-.079.414-.241.539-.454.095-.161.111-.233.111-.489 0-.254-.017-.328-.108-.484a1.146 1.146 0 0 0-.499-.446c-.083-.037-.617-.055-2.017-.07l-1.904-.02 2.622-6.99L15.695 5l1.742-.002c1.875-.002 1.907-.005 2.182-.215.077-.058.189-.191.25-.294.095-.161.111-.233.111-.489 0-.254-.017-.328-.108-.484a1.02 1.02 0 0 0-.582-.461c-.261-.079-9.344-.077-9.595.002" fill="#000" fill-rule="evenodd" stroke="none"/></svg>