<svg xmlns="http://www.w3.org/2000/svg" width="24" height="24" fill="none" stroke="currentColor" stroke-width="2" stroke-linecap="round" stroke-linejoin="round"><path d="M11.7 1.054c-.088.03-2.437 1.193-5.22 2.584-4.093 2.048-5.088 2.56-5.205 2.683a.985.985 0 0 0 .023 1.376c.135.132 1.129.644 5.295 2.723l5.129 2.56h.556l5.129-2.56c4.166-2.079 5.16-2.591 5.295-2.723a.977.977 0 0 0 0-1.394c-.135-.133-1.125-.641-5.284-2.716C11.851.81 12.1.92 11.7 1.054m4.16 3.996c2.123 1.061 3.86 1.939 3.86 1.95 0 .011-1.737.889-3.86 1.95L12 10.88 8.14 8.95C6.017 7.889 4.28 7.011 4.28 7c0-.015 7.656-3.866 7.71-3.878.005-.001 1.747.866 3.87 1.928M1.643 11.066C1.288 11.197 1 11.615 1 12c0 .243.119.521.298.697.135.132 1.129.644 5.295 2.723l5.129 2.56h.556l5.129-2.56c4.166-2.079 5.16-2.591 5.295-2.723.179-.176.298-.454.298-.697 0-.573-.529-1.05-1.095-.987-.167.018-1.096.467-5.055 2.444L12 15.88l-4.85-2.424c-4.542-2.269-4.865-2.424-5.09-2.439a1.048 1.048 0 0 0-.417.049m0 5C1.288 16.197 1 16.615 1 17c0 .243.119.521.298.697.135.132 1.129.644 5.295 2.723l5.129 2.56h.556l5.129-2.56c4.166-2.079 5.16-2.591 5.295-2.723.179-.176.298-.454.298-.697 0-.573-.529-1.05-1.095-.987-.167.018-1.096.467-5.055 2.444L12 20.88l-4.85-2.424c-4.542-2.269-4.865-2.424-5.09-2.439a1.048 1.048 0 0 0-.417.049" fill="#000" fill-rule="evenodd" stroke="none"/></svg>