<svg xmlns="http://www.w3.org/2000/svg" width="24" height="24" fill="none" stroke="currentColor" stroke-width="2" stroke-linecap="round" stroke-linejoin="round"><path d="M5.38 6.043C2.784 6.299.676 8.219.115 10.84c-.131.61-.131 1.718-.001 2.32.523 2.419 2.282 4.185 4.706 4.724.376.083.516.09 2.345.105 1.308.012 1.996.003 2.103-.026.23-.062.469-.25.599-.471.097-.165.113-.235.113-.492 0-.254-.017-.328-.108-.484a1.209 1.209 0 0 0-.254-.295C9.339 16.008 9.257 16 7.37 16c-1.598 0-1.77-.007-2.143-.083a3.986 3.986 0 0 1-3.169-3.312 3.416 3.416 0 0 1 0-1.21A3.986 3.986 0 0 1 4.16 8.464c.825-.422 1.116-.463 3.32-.466 1.829-.002 1.865-.005 2.139-.215.077-.058.189-.191.25-.294.095-.161.111-.233.111-.489 0-.254-.017-.328-.108-.484a1.209 1.209 0 0 0-.254-.295c-.28-.214-.362-.221-2.214-.216-.937.003-1.848.02-2.024.038m9.315.014a1.04 1.04 0 0 0-.567.459c-.091.156-.108.23-.108.484 0 .256.016.328.111.489.061.103.173.236.25.294.274.21.31.213 2.139.215 2.204.003 2.495.044 3.32.466.899.46 1.622 1.307 1.957 2.291.1.295.203.925.203 1.245 0 .322-.103.951-.204 1.245-.475 1.387-1.601 2.383-3.023 2.672-.373.076-.545.083-2.143.083-1.887 0-1.969.008-2.248.221-.08.061-.195.194-.254.295-.091.156-.108.23-.108.484 0 .257.016.327.113.492.13.221.369.409.599.471.107.029.795.038 2.103.026 2.152-.018 2.265-.03 3.105-.317a6.052 6.052 0 0 0 3.732-3.732c.237-.692.303-1.118.303-1.94 0-.617-.015-.81-.09-1.16-.259-1.209-.776-2.18-1.616-3.035a5.862 5.862 0 0 0-3.705-1.766c-.608-.059-3.669-.045-3.869.018m-7 5a1.04 1.04 0 0 0-.567.459c-.091.156-.108.23-.108.484 0 .256.016.328.111.489.125.213.318.375.539.454.222.079 8.438.079 8.66 0 .221-.079.414-.241.539-.454.095-.161.111-.233.111-.489 0-.254-.017-.328-.108-.484a1.02 1.02 0 0 0-.582-.461c-.261-.079-8.344-.076-8.595.002" fill-rule="evenodd" fill="#000" stroke="none"/></svg>