<svg xmlns="http://www.w3.org/2000/svg" width="24" height="24" fill="none" stroke="currentColor" stroke-width="2" stroke-linecap="round" stroke-linejoin="round"><path d="M3.499 1.04a3.05 3.05 0 0 0-2.385 2.12c-.135.434-.135 1.246 0 1.68A3.086 3.086 0 0 0 3.16 6.886c.434.135 1.246.135 1.68 0A3.086 3.086 0 0 0 6.886 4.84c.135-.434.135-1.246 0-1.68-.305-.981-1.076-1.753-2.025-2.031C4.5 1.023 3.832.98 3.499 1.04m.811 2.021c.378.112.69.537.69.94 0 .33-.216.695-.516.871-.156.091-.23.108-.484.108s-.328-.017-.484-.108c-.581-.342-.683-1.098-.212-1.569.279-.279.612-.359 1.006-.242m11.23 3.962c-.825.079-1.29.177-1.92.404-2.142.771-3.823 2.606-4.384 4.787-.214.83-.207.683-.224 4.935-.011 2.675-.002 4.02.026 4.124.061.225.251.465.47.594l.192.113h4.6l.189-.111c.213-.125.375-.318.454-.539.043-.121.054-.858.055-3.813.002-4.131-.015-3.894.308-4.217.18-.179.458-.3.694-.3.237 0 .514.12.697.303.318.318.303.111.305 4.234.001 2.939.012 3.672.055 3.793.079.221.241.414.454.539l.189.111h4.6l.192-.113c.219-.129.409-.369.47-.594.028-.104.037-1.449.026-4.124-.016-4.201-.012-4.107-.205-4.869-.68-2.687-2.965-4.771-5.681-5.182-.376-.057-1.289-.101-1.562-.075M1.695 8.057a1.04 1.04 0 0 0-.567.459L1.02 8.7l-.01 6.214c-.007 4.089.003 6.265.029 6.364.06.22.251.461.469.589l.192.113h4.6l.192-.113c.218-.128.409-.369.469-.589.026-.099.036-2.275.029-6.364L6.98 8.7l-.108-.184a1.02 1.02 0 0 0-.582-.461c-.257-.077-4.347-.076-4.595.002m14.857.986c.213.023.523.077.688.119a5.039 5.039 0 0 1 3.598 3.598c.145.568.162.995.162 4.158V20H19.003l-.012-3.29-.012-3.29-.093-.28c-.329-.983-1.075-1.725-2.025-2.015-.273-.083-.403-.098-.861-.098-.458 0-.588.015-.861.098-.95.29-1.696 1.032-2.025 2.015l-.093.28-.012 3.29-.012 3.29H11v-3.082c0-1.906.016-3.229.043-3.47a4.976 4.976 0 0 1 5.509-4.405M5 15v5H3V10h2v5" fill-rule="evenodd" fill="#000" stroke="none"/></svg>