<svg xmlns="http://www.w3.org/2000/svg" width="24" height="24" fill="none" stroke="currentColor" stroke-width="2" stroke-linecap="round" stroke-linejoin="round"><path d="M16.04 1.139c-.974.163-1.893.542-2.627 1.085-.338.25-2.318 2.152-2.469 2.372a.878.878 0 0 0-.183.597.975.975 0 0 0 .996.975c.124 0 .296-.029.381-.065.103-.043.496-.401 1.178-1.075.563-.557 1.141-1.095 1.284-1.196a3.944 3.944 0 0 1 2.375-.751 3.984 3.984 0 0 1 3.748 2.701c.168.493.21.831.186 1.478-.017.446-.043.633-.127.918a4.451 4.451 0 0 1-.659 1.302c-.108.143-.968 1.027-1.91 1.964-1.812 1.802-1.985 1.949-2.612 2.221-.575.249-.866.307-1.561.311-.685.004-.961-.043-1.51-.259a4.025 4.025 0 0 1-1.6-1.163c-.312-.373-.506-.501-.811-.537a.987.987 0 0 0-1.063 1.29c.135.409 1.008 1.297 1.714 1.746a5.982 5.982 0 0 0 5.926.302c.809-.403 1.015-.579 3.008-2.572 1.306-1.306 1.914-1.942 2.085-2.183a6.041 6.041 0 0 0 1.126-3.063 5.94 5.94 0 0 0-.539-3.008c-.756-1.659-2.371-2.937-4.208-3.331-.512-.11-1.634-.141-2.128-.059M9.16 8.062c-1.221.171-2.288.682-3.249 1.555-.823.747-3.448 3.433-3.698 3.783-1.546 2.166-1.531 5.019.036 7.12a6.238 6.238 0 0 0 2.344 1.878c.783.349 1.374.482 2.267.509.999.03 1.697-.097 2.563-.467.862-.367 1.242-.658 2.552-1.956 1.169-1.158 1.264-1.283 1.264-1.664 0-.37-.269-.777-.608-.918-.19-.079-.591-.08-.781 0-.094.039-.516.426-1.169 1.072-.561.556-1.128 1.09-1.259 1.186a4.764 4.764 0 0 1-1.282.625c-.336.103-.409.11-1.08.11-.669 0-.745-.008-1.08-.109-1.297-.393-2.29-1.34-2.714-2.588-.154-.453-.199-.824-.175-1.458.03-.811.22-1.391.68-2.08.177-.265 3.388-3.517 3.753-3.801a4.234 4.234 0 0 1 1.596-.766c.221-.053.453-.071.88-.07.731.002 1.118.09 1.745.396a3.88 3.88 0 0 1 1.322 1.023c.315.377.523.515.821.545a.99.99 0 0 0 1.056-1.294c-.14-.423-1.041-1.331-1.753-1.767-1.25-.764-2.633-1.061-4.031-.864" fill-rule="evenodd" fill="#000" stroke="none"/></svg>