<svg xmlns="http://www.w3.org/2000/svg" width="24" height="24" fill="none" stroke="currentColor" stroke-width="2" stroke-linecap="round" stroke-linejoin="round"><path d="M4.499 2.043C3.383 2.23 2.461 3.048 2.114 4.16l-.094.3v15.08l.094.3a3.113 3.113 0 0 0 2.026 2.045c.278.093.295.093 2.628.106 1.553.009 2.401-.001 2.504-.029.226-.061.466-.251.595-.47.097-.165.113-.235.113-.492 0-.254-.017-.328-.108-.484a1.146 1.146 0 0 0-.499-.446c-.084-.037-.692-.055-2.393-.07l-2.28-.02-.184-.108a1.199 1.199 0 0 1-.291-.249c-.239-.314-.225.172-.225-7.601 0-8.016-.025-7.391.303-7.719.306-.305.282-.303 2.734-.305 1.685-.001 2.175-.013 2.293-.055.221-.079.414-.241.539-.454.095-.161.111-.233.111-.489 0-.254-.017-.328-.108-.484a1.209 1.209 0 0 0-.254-.295c-.287-.219-.321-.221-2.714-.216-1.212.002-2.295.02-2.405.038m11.196 4.014a1.04 1.04 0 0 0-.567.459c-.092.156-.108.229-.107.484 0 .212.022.341.074.44.04.077.841.91 1.779 1.85L18.579 11h-4.843c-3.988 0-4.875.01-5.026.055a1.02 1.02 0 0 0-.582.461c-.091.156-.108.23-.108.484 0 .256.016.328.111.489.125.213.318.375.539.454.122.044 1.058.054 5.029.055l4.88.002-1.705 1.71c-.938.94-1.739 1.773-1.779 1.85-.052.099-.074.228-.074.44-.001.258.015.327.112.492.13.222.369.409.603.473.202.054.53.024.709-.066.074-.037 1.311-1.24 2.749-2.673 2.842-2.833 2.805-2.791 2.805-3.226 0-.436.04-.391-2.825-3.246-2.546-2.539-2.641-2.629-2.851-2.69-.257-.076-.404-.077-.628-.007" fill-rule="evenodd" fill="#000" stroke="none"/></svg>