<svg xmlns="http://www.w3.org/2000/svg" width="24" height="24" fill="none" stroke="currentColor" stroke-width="2" stroke-linecap="round" stroke-linejoin="round"><path d="M14.695 2.056c-.23.073-.44.244-.567.46-.091.156-.108.23-.108.484 0 .256.016.328.111.489.125.213.318.375.539.454.118.042.608.054 2.293.055 2.452.002 2.428 0 2.734.305.327.328.303-.294.303 7.698 0 5.906-.009 7.137-.055 7.289a1.02 1.02 0 0 1-.461.582l-.184.108-2.28.02c-1.701.015-2.309.033-2.393.07a1.146 1.146 0 0 0-.499.446c-.091.156-.108.23-.108.484 0 .257.016.327.113.492.129.219.369.409.595.47.103.028.951.038 2.504.029 2.333-.013 2.35-.013 2.628-.106a3.113 3.113 0 0 0 2.026-2.045l.094-.3V4.46l-.094-.3a3.084 3.084 0 0 0-2.025-2.038l-.321-.1-2.34-.009c-1.849-.008-2.375.001-2.505.043m-5 4.001a1.04 1.04 0 0 0-.567.459c-.092.156-.108.229-.107.484 0 .212.022.341.074.44.04.077.841.91 1.779 1.85L12.579 11H7.736c-3.988 0-4.875.01-5.026.055a1.02 1.02 0 0 0-.582.461c-.091.156-.108.23-.108.484 0 .256.016.328.111.489.125.213.318.375.539.454.122.044 1.058.054 5.029.055l4.88.002-1.705 1.71c-.938.94-1.739 1.773-1.779 1.85-.052.099-.074.228-.074.44-.001.258.015.327.112.492.13.222.369.409.603.473.202.054.53.024.709-.066.074-.037 1.311-1.24 2.749-2.673 2.842-2.833 2.805-2.791 2.805-3.226 0-.436.04-.391-2.825-3.246-2.546-2.539-2.641-2.629-2.851-2.69-.257-.076-.404-.077-.628-.007" fill-rule="evenodd" fill="#000" stroke="none"/></svg>