<svg width="24" height="24" viewBox="0 0 24 24" fill="none" xmlns="http://www.w3.org/2000/svg">
<g clip-path="url(#clip0_3_8840)">
<path d="M9.50589 0.0137193C5.59953 -0.206547 1.9907 2.1305 0.593777 5.7852C0.19826 6.82006 0.00452889 7.89555 2.73616e-05 8.95903C-0.00334668 9.72157 0.0898929 10.4779 0.275418 11.211C0.307601 11.3383 0.364555 11.4581 0.443025 11.5634C0.521496 11.6688 0.619948 11.7576 0.732759 11.8249C0.845569 11.8922 0.97053 11.9366 1.10051 11.9556C1.23048 11.9746 1.36292 11.9678 1.49028 11.9356C1.61763 11.9035 1.73739 11.8465 1.84273 11.768C1.94806 11.6895 2.03691 11.5911 2.1042 11.4783C2.17148 11.3655 2.21589 11.2405 2.23488 11.1105C2.25387 10.9805 2.24707 10.8481 2.21487 10.7208C2.0704 10.1499 1.9974 9.56226 2.00003 8.9688C2.00353 8.14228 2.15444 7.30719 2.46292 6.50005C3.55199 3.65076 6.34892 1.84003 9.39456 2.01177C12.4393 2.1835 15.0142 4.29632 15.7774 7.25005C15.8328 7.46478 15.9581 7.65498 16.1335 7.79075C16.3088 7.92652 16.5243 8.00014 16.7461 8.00005H18.0059C19.9028 8.00336 21.5286 9.32486 21.916 11.1817C22.3045 13.0405 21.3447 14.9025 19.6055 15.6641C19.4815 15.7142 19.3688 15.7886 19.2741 15.883C19.1793 15.9773 19.1045 16.0898 19.054 16.2136C19.0035 16.3374 18.9783 16.4701 18.9799 16.6038C18.9816 16.7375 19.01 16.8695 19.0636 16.992C19.1171 17.1145 19.1947 17.2251 19.2917 17.3171C19.3887 17.4091 19.5032 17.4808 19.6284 17.5278C19.7536 17.5748 19.8869 17.5962 20.0205 17.5907C20.1542 17.5853 20.2853 17.5531 20.4063 17.4961C23.0011 16.3598 24.4526 13.5467 23.8731 10.7735C23.2946 8.00095 20.84 6.00364 18.0078 6.00005H18.0058H17.3867C16.1747 2.63092 13.1316 0.218222 9.50589 0.0137193Z" fill="black"/>
<path d="M10.6113 9.98633C10.3464 9.99047 10.094 10.0995 9.90947 10.2896C9.72492 10.4796 9.6233 10.7351 9.62693 11V19.082C9.62506 19.2145 9.64954 19.3461 9.69895 19.4691C9.74836 19.592 9.82173 19.704 9.91477 19.7983C10.0078 19.8927 10.1187 19.9676 10.2409 20.0188C10.3632 20.0699 10.4944 20.0963 10.6269 20.0963C10.7595 20.0963 10.8907 20.0699 11.0129 20.0188C11.1352 19.9676 11.246 19.8927 11.3391 19.7983C11.4321 19.704 11.5055 19.592 11.5549 19.4691C11.6043 19.3461 11.6288 19.2145 11.6269 19.082V11C11.6288 10.8662 11.6037 10.7334 11.5533 10.6095C11.5029 10.4855 11.4281 10.373 11.3334 10.2784C11.2387 10.1839 11.126 10.1094 11.002 10.0592C10.8779 10.009 10.7451 9.98424 10.6113 9.98633Z" fill="black"/>
<path d="M7.15234 12.0137C6.92772 12.005 6.70672 12.0722 6.52499 12.2045C6.34326 12.3368 6.2114 12.5265 6.15069 12.7429C6.08998 12.9594 6.10396 13.19 6.19036 13.3975C6.27677 13.605 6.43057 13.7773 6.62695 13.8867L13.6269 17.9278C13.7409 17.9979 13.8677 18.0445 14 18.0647C14.1322 18.085 14.2672 18.0785 14.3969 18.0456C14.5266 18.0127 14.6484 17.9542 14.7551 17.8734C14.8617 17.7927 14.9511 17.6913 15.0179 17.5754C15.0847 17.4594 15.1275 17.3313 15.1439 17.1985C15.1603 17.0657 15.1498 16.931 15.1132 16.8023C15.0765 16.6736 15.0145 16.5536 14.9306 16.4493C14.8468 16.3451 14.7428 16.2587 14.625 16.1953L7.625 12.1543C7.48165 12.0687 7.31916 12.0204 7.15234 12.0137Z" fill="black"/>
<path d="M14.1699 12.0137C13.9792 12.0078 13.7908 12.0566 13.6269 12.1543L6.62692 16.1953C6.50909 16.2587 6.40517 16.345 6.32132 16.4493C6.23746 16.5536 6.17538 16.6736 6.13874 16.8023C6.10211 16.9309 6.09167 17.0657 6.10804 17.1985C6.12441 17.3312 6.16726 17.4594 6.23404 17.5753C6.30083 17.6913 6.3902 17.7926 6.49687 17.8734C6.60353 17.9542 6.72532 18.0127 6.85501 18.0456C6.98471 18.0784 7.11968 18.0849 7.25194 18.0647C7.38419 18.0444 7.51104 17.9979 7.62497 17.9277L14.625 13.8867C14.816 13.7802 14.9668 13.614 15.0543 13.4136C15.1419 13.2132 15.1613 12.9896 15.1097 12.7771C15.0581 12.5646 14.9382 12.3749 14.7685 12.237C14.5987 12.0991 14.3885 12.0207 14.1699 12.0137Z" fill="black"/>
</g>
<defs>
<clipPath id="clip0_3_8840">
<rect width="24" height="24" fill="white"/>
</clipPath>
</defs>
</svg>
