<svg xmlns="http://www.w3.org/2000/svg" width="24" height="24" fill="none" stroke="currentColor" stroke-width="2" stroke-linecap="round" stroke-linejoin="round"><path d="M3.499 3.043c-.641.108-1.104.355-1.603.853-.4.4-.6.717-.771 1.217l-.105.307v13.16l.105.307c.171.5.371.817.771 1.217.4.4.717.6 1.217.771l.307.105h17.16l.307-.105c.5-.171.817-.371 1.217-.771.4-.4.6-.717.771-1.217l.105-.307V5.42l-.105-.307c-.171-.5-.371-.817-.771-1.217-.41-.41-.741-.616-1.243-.775l-.321-.101-8.42-.006c-4.631-.003-8.511.01-8.621.029m16.76 2.002c.209.057.463.236.55.385.066.113.066.122 0 .178-.221.189-8.758 6.129-8.809 6.129-.051 0-8.588-5.94-8.809-6.129-.066-.056-.066-.065 0-.178.083-.142.342-.329.532-.383.203-.059 16.326-.061 16.536-.002m-8.548 8.913c.198.055.384.053.584-.007.103-.031 1.764-1.169 4.436-3.039l4.27-2.989-.01 5.169c-.011 5.043-.013 5.172-.089 5.326a1.418 1.418 0 0 1-.232.307c-.306.297.399.275-8.67.275-9.069 0-8.364.022-8.67-.275a1.418 1.418 0 0 1-.232-.307c-.076-.154-.078-.283-.089-5.326l-.01-5.169L7.28 10.92c2.545 1.781 4.342 3.014 4.431 3.038" fill-rule="evenodd" fill="#000" stroke="none"/></svg>