<svg xmlns="http://www.w3.org/2000/svg" width="24" height="24" fill="none" stroke="currentColor" stroke-width="2" stroke-linecap="round" stroke-linejoin="round"><path d="M11.08.045C9.206.21 7.361.947 5.8 2.154c-.497.384-1.371 1.278-1.767 1.806-1.4 1.87-2.101 4.068-2.021 6.334.047 1.347.36 2.65.975 4.063 1.155 2.655 3.497 5.511 6.633 8.089 1.006.827 1.8 1.402 2.065 1.496.321.113.63.054.985-.188 1.128-.765 2.776-2.161 4.011-3.394 3.025-3.022 4.763-6.022 5.225-9.02.102-.659.102-2.084 0-2.74a10.162 10.162 0 0 0-2.059-4.8c-.337-.435-1.208-1.306-1.647-1.646C16.133.555 13.646-.182 11.08.045m1.654 1.996a7.925 7.925 0 0 1 4.82 2.215 7.857 7.857 0 0 1 1.63 2.244c.97 1.974 1.067 4.24.273 6.367-.581 1.557-1.536 3.102-2.916 4.719-.795.932-2.255 2.347-3.372 3.269-.467.386-1.138.905-1.169.905-.034 0-.713-.525-1.16-.896-1.158-.962-2.59-2.349-3.382-3.277-1.79-2.096-2.916-4.17-3.298-6.078A7.953 7.953 0 0 1 5.848 4.9 7.824 7.824 0 0 1 8.5 2.816a7.918 7.918 0 0 1 4.234-.775m-1.376 4.02c-1.128.176-2.215.913-2.789 1.892a3.992 3.992 0 0 0 1.943 5.751 3.988 3.988 0 0 0 5.192-2.216 3.963 3.963 0 0 0 .001-2.972 3.978 3.978 0 0 0-3.1-2.458 3.728 3.728 0 0 0-1.247.003m1.165 2.012a2.011 2.011 0 0 1 1.444 1.617c.1.653-.094 1.243-.564 1.714-.401.403-.856.596-1.403.596-.515 0-.962-.178-1.347-.535-1.33-1.236-.464-3.46 1.347-3.46.143 0 .378.031.523.068" fill-rule="evenodd" fill="#000" stroke="none"/></svg>