<svg xmlns="http://www.w3.org/2000/svg" width="24" height="24" fill="none" stroke="currentColor" stroke-width="2" stroke-linecap="round" stroke-linejoin="round"><path d="M7.72 1.028c-.033.012-1.689.951-3.679 2.087C1.592 4.513.374 5.229.274 5.331-.022 5.636 0 4.93.002 14.017c.002 8.825-.011 8.306.215 8.602.235.308.708.455 1.069.332.096-.033 1.632-.893 3.414-1.911 1.782-1.019 3.269-1.86 3.304-1.869.035-.009 1.798.85 3.918 1.91l3.856 1.927.265-.015.265-.015 3.632-2.075c2.535-1.449 3.678-2.123 3.784-2.232.3-.309.278.406.266-8.752L23.98 1.7l-.109-.186c-.22-.373-.667-.575-1.071-.482-.134.031-1.229.636-3.428 1.894a254.184 254.184 0 0 1-3.332 1.886c-.088.033-.58-.202-3.951-1.887C8.314 1.038 8.234 1 8.009 1.003a1.476 1.476 0 0 0-.289.025m4.3 4.102L15 6.62v6.87c0 3.778-.009 6.87-.02 6.87-.011 0-1.361-.67-3-1.49L9 17.38v-6.87c0-3.778.009-6.87.02-6.87.011 0 1.361.67 3 1.49M7 10.572v6.851l-2.41 1.376a341.582 341.582 0 0 0-2.5 1.433l-.09.057v-6.854l.001-6.855L4.49 5.154c1.37-.785 2.495-1.428 2.5-1.43.005-.002.01 3.079.01 6.848m15 0v6.851l-2.41 1.376c-1.325.756-2.45 1.401-2.5 1.433l-.09.057v-6.854l.001-6.855 2.489-1.426a949.51 949.51 0 0 1 2.5-1.43c.006-.002.01 3.079.01 6.848" fill="#000" fill-rule="evenodd" stroke="none"/></svg>