<svg xmlns="http://www.w3.org/2000/svg" width="24" height="24" fill="none" stroke="currentColor" stroke-width="2" stroke-linecap="round" stroke-linejoin="round"><path d="M14.695 2.057a1.04 1.04 0 0 0-.567.459c-.091.156-.108.23-.108.484 0 .256.016.328.111.489.125.213.318.375.539.454.117.042.564.054 2.03.055L18.579 4l-2.705 2.71c-1.488 1.49-2.736 2.771-2.773 2.845-.229.455-.045 1.046.407 1.312.165.097.234.113.492.112.212 0 .341-.022.44-.074.077-.04 1.359-1.29 2.849-2.777l2.708-2.704.012 1.941.011 1.941.121.197a.998.998 0 0 0 1.718 0l.121-.197.011-3.243c.01-2.937.005-3.259-.055-3.417a1.007 1.007 0 0 0-.516-.552l-.2-.093-3.18.002c-2.483.002-3.216.014-3.345.054M9.64 13.068c-.155.053-.559.44-2.909 2.785l-2.728 2.722-.012-1.937L3.98 14.7l-.109-.186a1.01 1.01 0 0 0-1.742 0l-.109.186-.011 3.24c-.01 2.934-.005 3.256.055 3.414.091.241.279.442.516.552l.2.093 3.2-.001c2.569-.001 3.23-.012 3.35-.055.221-.079.414-.241.539-.454.095-.161.111-.233.111-.489 0-.254-.017-.328-.108-.484a1.209 1.209 0 0 0-.254-.295C9.337 20.007 9.265 20 7.264 20H5.421l2.705-2.71c1.488-1.49 2.739-2.773 2.779-2.85.052-.099.074-.228.074-.44.001-.255-.015-.328-.107-.484a1.016 1.016 0 0 0-1.232-.448" fill="#000" fill-rule="evenodd" stroke="none"/></svg>