<svg width="24" height="24" viewBox="0 0 24 24" fill="none" xmlns="http://www.w3.org/2000/svg">
<g clip-path="url(#clip0_3_8845)">
<path d="M7.48631 3.12886C2.88381 3.9126 -0.365959 8.10971 0.0292833 12.7617C0.424497 17.4144 4.33502 21.0044 9.00389 21H18.0039C21.3061 21 24.0039 18.3021 24.0039 15C24.0039 11.6986 21.3063 8.99995 18.0039 8.99995H17.3574C15.8944 4.95256 11.8061 2.39326 7.48631 3.12886ZM7.82225 5.09956C11.4178 4.48728 14.864 6.71865 15.7754 10.25C15.8308 10.4644 15.9557 10.6543 16.1307 10.7901C16.3057 10.9258 16.5207 10.9996 16.7422 11H18.0039C20.2255 11 22.0039 12.7793 22.0039 15C22.0039 17.2218 20.2257 19 18.0039 19H9.00389H9.00194C5.35482 19.0035 2.33026 16.227 2.02147 12.5917C1.71271 8.95771 4.22675 5.71182 7.82225 5.09956Z" fill="black"/>
</g>
<defs>
<clipPath id="clip0_3_8845">
<rect width="24" height="24" fill="white"/>
</clipPath>
</defs>
</svg>
