<svg xmlns="http://www.w3.org/2000/svg" width="24" height="24" fill="none" stroke="currentColor" stroke-width="2" stroke-linecap="round" stroke-linejoin="round"><path d="M11.78 2.024c-1.403.138-2.496.455-3.646 1.055-.902.471-1.531.922-2.223 1.594-1.965 1.908-2.99 4.436-2.898 7.144.038 1.114.202 1.944.594 3.001l.207.557-.907 2.725C2.326 19.844 2 20.882 2 20.985 2 21.535 2.465 22 3.015 22c.103 0 1.141-.326 2.885-.907l2.725-.907.557.207c1.047.388 1.886.556 2.978.594 2.722.095 5.255-.929 7.168-2.9A9.582 9.582 0 0 0 21.9 12.9c.089-.56.122-1.817.064-2.382A9.504 9.504 0 0 0 15.3 2.405c-.89-.272-1.52-.367-2.54-.384a17.27 17.27 0 0 0-.98.003m1.56 2.017a7.357 7.357 0 0 1 4.509 2.185c1.332 1.356 2.059 3.026 2.138 4.914a7.426 7.426 0 0 1-.783 3.692c-.415.829-1.047 1.679-1.625 2.188-1.417 1.247-3.006 1.899-4.799 1.967-1.214.047-2.212-.152-3.426-.681-.651-.285-.545-.302-2.812.453-1.054.352-1.923.634-1.929.627-.006-.006.267-.847.608-1.869.341-1.021.634-1.947.652-2.057.041-.263 0-.438-.21-.898-.876-1.918-.873-4.214.008-6.142.453-.994 1.149-1.935 1.9-2.572 1.178-.998 2.672-1.651 4.129-1.804a9.46 9.46 0 0 1 1.64-.003" fill-rule="evenodd" fill="#000" stroke="none"/></svg>