<svg xmlns="http://www.w3.org/2000/svg" width="24" height="24" fill="none" stroke="currentColor" stroke-width="2" stroke-linecap="round" stroke-linejoin="round"><path d="M.695.057a1.04 1.04 0 0 0-.567.459C.036.672.02.745.021 1c0 .212.022.341.074.44.04.077 1.834 1.904 3.987 4.06l3.914 3.92.015 1.62c.014 1.534.02 1.637.105 1.939a4.178 4.178 0 0 0 1.079 1.861 3.988 3.988 0 0 0 4.571.743l.267-.131.733.735.734.736-.1.077c-.181.138-.674.406-1.034.562a5.949 5.949 0 0 1-2.366.472c-.958.003-1.725-.17-2.626-.592-1.446-.678-2.607-2.033-3.107-3.627-.21-.668-.236-.926-.263-2.575L5.98 9.7l-.109-.186a1.01 1.01 0 0 0-1.742 0L4.02 9.7l.001 1.62c.001 1.719.012 1.856.224 2.7a8.057 8.057 0 0 0 3.315 4.686c.847.564 2.042 1.053 2.962 1.212.142.025.308.054.368.066l.11.022V22H9.446c-1.688 0-1.788.011-2.064.221-.08.061-.195.194-.254.295-.091.156-.108.23-.108.484 0 .256.016.328.111.489.125.213.318.375.539.454.222.079 8.438.079 8.66 0 .221-.079.414-.241.539-.454.095-.161.111-.233.111-.489 0-.254-.017-.328-.108-.484a1.209 1.209 0 0 0-.254-.295c-.276-.21-.376-.221-2.064-.221H13v-1.998l.09-.019c.049-.011.24-.048.423-.083 1.129-.216 2.278-.705 3.12-1.328l.298-.22 2.744 2.74c1.51 1.507 2.806 2.77 2.88 2.807.455.229 1.046.045 1.312-.407.097-.165.113-.234.112-.492 0-.212-.022-.341-.074-.44-.079-.151-1.753-1.833-14.254-14.327C1.696.283 1.536.125 1.323.063 1.066-.012.919-.013.695.057M11.46.028a4.543 4.543 0 0 0-1.16.353 3.972 3.972 0 0 0-2.181 2.674c-.113.477-.044.774.248 1.053a.971.971 0 0 0 1.093.198c.309-.144.474-.357.6-.772.134-.441.318-.749.603-1.01a1.975 1.975 0 0 1 2.727.059c.29.289.509.705.571 1.079.022.138.039 1.424.039 3.058l.001 2.82.094.2c.181.381.5.588.905.588s.724-.207.905-.588l.094-.2L16 6.595c0-3.169-.007-3.29-.213-3.895-.21-.615-.494-1.056-1.007-1.56A3.83 3.83 0 0 0 12.683.064 5.179 5.179 0 0 0 11.46.028m7.235 9.029a1.04 1.04 0 0 0-.567.459l-.108.184-.023 1.44c-.013.792-.047 1.611-.075 1.82-.048.359-.046.392.035.606.112.295.354.522.66.618a.692.692 0 0 0 .455.024c.28-.059.512-.22.662-.46.202-.322.243-.744.245-2.508l.001-1.54-.108-.184a1.005 1.005 0 0 0-1.177-.459m-6.224 4.885c-.013.014-.166.035-.338.047a1.929 1.929 0 0 1-1.515-.566c-.438-.439-.577-.785-.606-1.503l-.02-.5 1.252 1.248c.689.687 1.241 1.26 1.227 1.274" fill-rule="evenodd" fill="#000" stroke="none"/></svg>