<svg xmlns="http://www.w3.org/2000/svg" width="24" height="24" fill="none" stroke="currentColor" stroke-width="2" stroke-linecap="round" stroke-linejoin="round"><path d="M11.358.061C9.731.315 8.417 1.584 8.083 3.227 8.002 3.622 8 3.744 8 8c0 4.256.002 4.378.083 4.773a3.973 3.973 0 0 0 2.429 2.931 3.988 3.988 0 0 0 5.192-2.216c.075-.188.173-.516.217-.731C15.997 12.382 16 12.2 16 8c0-4.2-.003-4.382-.079-4.757-.2-.979-.724-1.828-1.483-2.4a3.945 3.945 0 0 0-1.833-.785 3.728 3.728 0 0 0-1.247.003m1.165 2.012c.499.13.993.526 1.249.998.229.423.227.373.227 4.929 0 4.554.002 4.502-.227 4.931-.147.277-.581.712-.842.844a2.044 2.044 0 0 1-1.847.006c-.267-.135-.634-.484-.802-.764-.288-.478-.276-.27-.279-4.989-.002-4.703-.01-4.559.263-5.014.381-.636 1.023-1.009 1.735-1.009.143 0 .378.031.523.068M4.695 9.057a1.04 1.04 0 0 0-.567.459L4.02 9.7l-.013 1.32c-.014 1.393.018 1.915.159 2.6a8.37 8.37 0 0 0 1.508 3.28c.259.339.932 1.025 1.286 1.311a8.348 8.348 0 0 0 2.54 1.384c.479.156 1.203.325 1.398.325H11V22H9.446c-1.688 0-1.788.011-2.064.221-.08.061-.195.194-.254.295-.091.156-.108.23-.108.484 0 .256.016.328.111.489.125.213.318.375.539.454.222.079 8.438.079 8.66 0 .221-.079.414-.241.539-.454.095-.161.111-.233.111-.489 0-.254-.017-.328-.108-.484a1.209 1.209 0 0 0-.254-.295c-.276-.21-.376-.221-2.064-.221H13v-2.08h.102c.195 0 .919-.169 1.398-.325a8.348 8.348 0 0 0 2.54-1.384c.354-.286 1.027-.972 1.286-1.311a8.37 8.37 0 0 0 1.508-3.28c.141-.685.173-1.207.159-2.6L19.98 9.7l-.109-.186a1.01 1.01 0 0 0-1.742 0l-.109.186-.026 1.5c-.029 1.733-.064 2.009-.355 2.829-.693 1.953-2.381 3.406-4.479 3.856-.606.13-1.714.13-2.32 0-2.101-.451-3.785-1.901-4.479-3.856-.291-.82-.326-1.096-.355-2.829L5.98 9.7l-.108-.184a1.005 1.005 0 0 0-1.177-.459" fill-rule="evenodd" fill="#000" stroke="none"/></svg>