<svg xmlns="http://www.w3.org/2000/svg" width="24" height="24" fill="none" stroke="currentColor" stroke-width="2" stroke-linecap="round" stroke-linejoin="round"><path d="M7.695 2.057a1.04 1.04 0 0 0-.567.459L7.02 2.7l-.021 1.78c-.014 1.288-.034 1.811-.07 1.893a1.137 1.137 0 0 1-.445.499L6.3 6.98l-1.78.021c-1.288.014-1.811.034-1.893.07a1.137 1.137 0 0 0-.499.445c-.091.156-.108.23-.108.484 0 .257.016.327.113.492.129.22.369.409.597.471.104.028.785.037 2.004.028 1.802-.014 1.853-.016 2.126-.106A3.111 3.111 0 0 0 8.886 6.84c.093-.297.094-.319.094-2.22V2.7l-.108-.184a1.005 1.005 0 0 0-1.177-.459m8 0a1.04 1.04 0 0 0-.567.459l-.108.184v1.92c0 1.901.001 1.923.094 2.22a3.111 3.111 0 0 0 2.026 2.045c.273.09.324.092 2.126.106 1.219.009 1.9 0 2.004-.028.228-.062.468-.251.597-.471.097-.165.113-.235.113-.492 0-.254-.017-.328-.108-.484a1.137 1.137 0 0 0-.499-.445c-.082-.036-.605-.056-1.893-.07L17.7 6.98l-.184-.108a1.146 1.146 0 0 1-.446-.499c-.036-.082-.055-.595-.07-1.893l-.02-1.78-.108-.184a1.005 1.005 0 0 0-1.177-.459m-13 12.999c-.23.074-.44.244-.567.46-.091.156-.108.23-.108.484 0 .256.016.328.111.489.061.103.173.236.25.294.274.209.314.213 2.082.215 1.871.002 1.932.01 2.216.285.307.299.299.24.321 2.24l.02 1.783.121.197a.998.998 0 0 0 1.718 0l.121-.197v-1.923c0-1.905-.001-1.926-.094-2.223a3.08 3.08 0 0 0-2.025-2.037c-.32-.099-.326-.1-2.161-.11-1.441-.008-1.876.001-2.005.043m14.804-.013c-1.116.187-2.038 1.005-2.385 2.117-.093.297-.094.318-.094 2.223v1.923l.121.197a.998.998 0 0 0 1.718 0l.121-.197.02-1.783c.022-2 .014-1.941.321-2.24.284-.275.345-.283 2.216-.285 1.768-.002 1.808-.006 2.082-.215.077-.058.189-.191.25-.294.095-.161.111-.233.111-.489 0-.254-.017-.328-.108-.484a1.209 1.209 0 0 0-.254-.295c-.28-.213-.362-.221-2.214-.216-.937.002-1.795.02-1.905.038" fill-rule="evenodd" fill="#000" stroke="none"/></svg>