<svg xmlns="http://www.w3.org/2000/svg" width="24" height="24" fill="none" stroke="currentColor" stroke-width="2" stroke-linecap="round" stroke-linejoin="round"><path d="M2.643 2.067c-.386.141-.674.597-.634 1.008.012.127.95 2.426 2.99 7.325 1.635 3.927 3.244 7.797 3.577 8.6.572 1.383.615 1.471.804 1.661.22.222.407.299.727.299.253 0 .57-.155.73-.356.13-.164.121-.139 1.231-3.404l.841-2.474.101-.295 2.705 2.7c1.488 1.486 2.768 2.734 2.845 2.774.099.052.228.074.44.074.258.001.327-.015.492-.112.222-.13.409-.369.473-.603.054-.202.024-.53-.066-.709-.037-.074-1.282-1.352-2.766-2.839l-2.7-2.703.654-.226c.359-.124 1.681-.575 2.937-1.002 1.257-.427 2.35-.807 2.431-.845.292-.139.503-.5.503-.86a.99.99 0 0 0-.558-.899c-.099-.05-3.996-1.681-8.66-3.624-9.199-3.832-8.693-3.638-9.097-3.49m8.315 5.332c3.325 1.386 6.072 2.534 6.103 2.551.038.021-.806.326-2.405.868-1.603.544-2.525.877-2.64.953a1.05 1.05 0 0 0-.272.277c-.052.088-.47 1.266-.928 2.616-.541 1.594-.845 2.435-.866 2.397-.038-.068-5.07-12.142-5.07-12.165 0-.009.007-.016.016-.016.009 0 2.736 1.134 6.062 2.519" fill-rule="evenodd" fill="#000" stroke="none"/></svg>