<svg width="24" height="24" xmlns="http://www.w3.org/2000/svg" fill="none" stroke="currentColor" stroke-width="2" stroke-linecap="round" stroke-linejoin="round"><path d="M14.764 3.022c-5.002.837-6.088 1.03-6.24 1.108-.21.108-.422.363-.482.581C8.014 4.81 8 6.486 8 9.69c0 2.657-.01 4.83-.021 4.83-.012 0-.124-.051-.25-.114A4.249 4.249 0 0 0 6 14c-1.365 0-2.747.787-3.431 1.953a3.992 3.992 0 0 0 1.943 5.751 3.988 3.988 0 0 0 5.192-2.216c.075-.188.173-.516.217-.731.077-.379.079-.561.079-6.653 0-3.445.009-6.264.021-6.264.011 0 2.234-.369 4.939-.82 2.705-.451 4.946-.82 4.979-.82.054 0 .061.47.061 4.16 0 2.288-.01 4.16-.021 4.16-.012 0-.124-.051-.25-.114A4.249 4.249 0 0 0 18 12c-1.365 0-2.747.787-3.431 1.953a3.992 3.992 0 0 0 1.943 5.751 3.95 3.95 0 0 0 2.245.217c1.628-.332 2.832-1.537 3.164-3.166.078-.384.08-.53.069-7.223L21.98 2.7l-.108-.184c-.186-.315-.541-.521-.887-.512-.091.002-2.89.46-6.221 1.018m3.759 11.051a2.011 2.011 0 0 1 1.444 1.617c.1.653-.094 1.243-.564 1.714-.401.403-.856.596-1.403.596-.515 0-.962-.178-1.347-.535-1.33-1.236-.464-3.46 1.347-3.46.143 0 .378.031.523.068m-12 2a2.011 2.011 0 0 1 1.444 1.617c.1.653-.094 1.243-.564 1.714C7.002 19.807 6.547 20 6 20c-.515 0-.962-.178-1.347-.535-1.33-1.236-.464-3.46 1.347-3.46.143 0 .378.031.523.068" fill-rule="evenodd" fill="#000" stroke="none"/></svg>