<svg xmlns="http://www.w3.org/2000/svg" width="24" height="24" fill="none" stroke="currentColor" stroke-width="2" stroke-linecap="round" stroke-linejoin="round"><path d="M11.726 1.046c-.21.06-.436.22-.543.384-.14.215-7.151 19.268-7.174 19.496-.068.684.649 1.247 1.298 1.018.087-.03 1.628-.895 3.425-1.922L12 18.154l3.29 1.879c1.809 1.034 3.362 1.899 3.45 1.923.222.06.374.055.6-.022.401-.137.693-.589.651-1.008-.027-.262-7.042-19.298-7.189-19.506-.224-.319-.697-.483-1.076-.374m2.808 10.725c1.38 3.747 2.519 6.852 2.532 6.9.019.071-.45-.181-2.271-1.222-1.262-.721-2.358-1.338-2.435-1.369a1.18 1.18 0 0 0-.72 0c-.077.031-1.173.648-2.435 1.369-1.821 1.041-2.29 1.293-2.271 1.222C6.988 18.465 11.978 4.96 12 4.96c.013 0 1.154 3.065 2.534 6.811" fill="#000" fill-rule="evenodd" stroke="none"/></svg>