<svg xmlns="http://www.w3.org/2000/svg" width="24" height="24" fill="none" stroke="currentColor" stroke-width="2" stroke-linecap="round" stroke-linejoin="round"><path d="M21.66 1.074c-.16.058-17.552 8.284-18.931 8.954-.416.203-.571.356-.674.666a.995.995 0 0 0 .094.82c.229.371.065.318 4.232 1.361l3.795.949.946 3.785c.651 2.6.976 3.83 1.038 3.931.339.549 1.202.603 1.603.1.102-.129 9.085-19.046 9.191-19.356.16-.47-.135-1.054-.614-1.218a.919.919 0 0 0-.68.008M19.825 4.25c-.031.071-1.474 3.118-3.206 6.77a4209.605 4209.605 0 0 0-3.227 6.813c-.043.096-.088.164-.099.153-.012-.011-.323-1.229-.693-2.706-.523-2.088-.696-2.72-.777-2.842-.206-.312-.213-.314-3.103-1.038-1.477-.37-2.695-.682-2.707-.694-.012-.012.039-.047.113-.079.074-.032 3.194-1.509 6.934-3.282 3.74-1.773 6.805-3.224 6.811-3.225a.507.507 0 0 1-.046.13" fill="#000" fill-rule="evenodd" stroke="none"/></svg>