<svg width="24" height="24" viewBox="0 0 24 24" fill="none" xmlns="http://www.w3.org/2000/svg">
<path fill-rule="evenodd" clip-rule="evenodd" d="M12 3C7.02944 3 3 7.02944 3 12C3 16.9706 7.02944 21 12 21C16.9706 21 21 16.9706 21 12C21 7.02944 16.9706 3 12 3ZM1 12C1 5.92487 5.92487 1 12 1C18.0751 1 23 5.92487 23 12C23 18.0751 18.0751 23 12 23C5.92487 23 1 18.0751 1 12Z" fill="black"/>
<path fill-rule="evenodd" clip-rule="evenodd" d="M7.96882 16.8472C7.5009 16.5539 7.3594 15.9367 7.65276 15.4688L8.58856 13.9762C8.13028 13.9222 7.67521 13.7761 7.25023 13.5307C5.5764 12.5643 5.00291 10.424 5.96929 8.7502C6.93567 7.07638 9.07598 6.50288 10.7498 7.46926C12.4236 8.43565 12.9971 10.576 12.0307 12.2498C11.9905 12.3194 11.9483 12.3872 11.9041 12.453L9.34727 16.5312C9.0539 16.9991 8.43675 17.1406 7.96882 16.8472ZM10.3066 11.2359C10.7096 10.5208 10.4624 9.61275 9.74981 9.20131C9.03257 8.78722 8.11544 9.03296 7.70134 9.7502C7.28724 10.4674 7.53299 11.3846 8.25023 11.7987C8.9305 12.1914 9.7906 11.9906 10.2308 11.3569L10.3066 11.2359Z" fill="black"/>
<path fill-rule="evenodd" clip-rule="evenodd" d="M16 10C16.5523 10 17 10.4477 17 11V14C17 14.5523 16.5523 15 16 15C15.4477 15 15 14.5523 15 14V11C15 10.4477 15.4477 10 16 10Z" fill="black"/>
<path fill-rule="evenodd" clip-rule="evenodd" d="M13.5 12.5C13.5 11.9477 13.9477 11.5 14.5 11.5H17.5C18.0523 11.5 18.5 11.9477 18.5 12.5C18.5 13.0523 18.0523 13.5 17.5 13.5H14.5C13.9477 13.5 13.5 13.0523 13.5 12.5Z" fill="black"/>
</svg>
