<svg width="24" height="24" viewBox="0 0 24 24" fill="none" xmlns="http://www.w3.org/2000/svg">
<path fill-rule="evenodd" clip-rule="evenodd" d="M11.0429 3.0429C12.3563 1.72952 14.1376 0.991669 15.995 0.991669C17.8524 0.991669 19.6337 1.72952 20.9471 3.0429C22.2605 4.35628 22.9983 6.1376 22.9983 7.99501C22.9983 9.85204 22.2608 11.633 20.9479 12.9463C20.9476 12.9466 20.9474 12.9469 20.9471 12.9471L14.2082 19.7061C14.0205 19.8942 13.7657 20 13.5 20H5C4.44772 20 4 19.5523 4 19V10.5C4 10.2348 4.10536 9.98044 4.29289 9.7929L11.0429 3.0429ZM15.995 2.99167C14.668 2.99167 13.3954 3.5188 12.4571 4.45711L6 10.9142V18H13.0849L19.5318 11.5339L19.5329 11.5329C20.4712 10.5946 20.9983 9.32197 20.9983 7.99501C20.9983 6.66804 20.4712 5.39542 19.5329 4.45711C18.5946 3.5188 17.322 2.99167 15.995 2.99167Z" fill="black"/>
<path fill-rule="evenodd" clip-rule="evenodd" d="M16.7071 7.29289C17.0976 7.68342 17.0976 8.31658 16.7071 8.70711L2.70711 22.7071C2.31658 23.0976 1.68342 23.0976 1.29289 22.7071C0.902369 22.3166 0.902369 21.6834 1.29289 21.2929L15.2929 7.29289C15.6834 6.90237 16.3166 6.90237 16.7071 7.29289Z" fill="black"/>
<path fill-rule="evenodd" clip-rule="evenodd" d="M10.5145 13.1425C10.6552 13.227 10.773 13.3448 10.8575 13.4855L13.8575 18.4855C14.1416 18.9591 13.9881 19.5734 13.5145 19.8575C13.0409 20.1417 12.4266 19.9881 12.1425 19.5145L9.27111 14.7289L4.48549 11.8575C4.01191 11.5734 3.85834 10.9591 4.14249 10.4855C4.42664 10.0119 5.0409 9.85837 5.51448 10.1425L10.5145 13.1425Z" fill="black"/>
<path fill-rule="evenodd" clip-rule="evenodd" d="M13.5145 10.1425C13.6552 10.227 13.773 10.3448 13.8575 10.4855L16.8575 15.4855C17.1416 15.9591 16.9881 16.5734 16.5145 16.8575C16.0409 17.1417 15.4266 16.9881 15.1425 16.5145L12.2711 11.7289L7.48549 8.85751C7.01191 8.57336 6.85834 7.9591 7.14249 7.48552C7.42664 7.01194 8.0409 6.85837 8.51448 7.14252L13.5145 10.1425Z" fill="black"/>
<path fill-rule="evenodd" clip-rule="evenodd" d="M16.5145 7.14252C16.6552 7.22697 16.773 7.34477 16.8575 7.48552L19.8575 12.4855C20.1416 12.9591 19.9881 13.5734 19.5145 13.8575C19.0409 14.1417 18.4266 13.9881 18.1425 13.5145L15.2711 8.72888L10.4855 5.85751C10.0119 5.57336 9.85834 4.9591 10.1425 4.48552C10.4266 4.01194 11.0409 3.85837 11.5145 4.14252L16.5145 7.14252Z" fill="black"/>
</svg>
