<svg xmlns="http://www.w3.org/2000/svg" width="24" height="24" fill="none" stroke="currentColor" stroke-width="2" stroke-linecap="round" stroke-linejoin="round"><path d="M11.541 1.042c-.537.084-.639.133-2.657 1.288-.846.483-1.609.904-1.698.935a1.701 1.701 0 0 0-.363.21c-.112.084-.955.582-1.875 1.106-.954.544-1.762 1.032-1.882 1.137-.494.43-.744.82-.952 1.482l-.094.3v9l.094.3c.236.756.681 1.35 1.307 1.746.436.276 6.98 3.997 7.279 4.139.298.142.656.26 1.11.366.14.033.24.033.38 0a5.457 5.457 0 0 0 1.11-.366c.299-.142 6.843-3.863 7.279-4.139a2.91 2.91 0 0 0 1.084-1.206c.339-.69.317-.312.317-5.34 0-4.163-.005-4.477-.072-4.72-.182-.661-.47-1.123-.975-1.563-.207-.18-7.143-4.177-7.694-4.433a3.512 3.512 0 0 0-.496-.182 3.826 3.826 0 0 0-1.202-.06m.743 2.013c.097.03 1.639.892 3.427 1.915l3.252 1.86-1.229.71c-.93.538-1.243.701-1.291.673-.035-.021-1.588-.917-3.453-1.991C11.126 5.148 9.6 4.258 9.6 4.244c.001-.04 1.951-1.14 2.111-1.191a.873.873 0 0 1 .573.002m-1.314 4.31a296.722 296.722 0 0 1 3.46 2.011c.039.036-.221.203-1.158.745-.664.385-1.237.699-1.272.699-.035 0-1.616-.898-3.513-1.995L5.037 6.83l1.251-.715C6.977 5.722 7.544 5.4 7.55 5.4c.005 0 1.544.884 3.42 1.965M7.534 10.58l3.463 2 .002 3.99c0 2.195-.008 3.99-.019 3.99s-1.49-.84-3.287-1.867c-2.292-1.309-3.312-1.913-3.419-2.024-.285-.294-.274-.121-.274-4.34 0-2.218.015-3.77.036-3.762.02.007 1.594.913 3.498 2.013M20 12.333c0 4.215.011 4.042-.274 4.336-.107.111-1.127.715-3.419 2.024a363.268 363.268 0 0 1-3.287 1.867c-.011 0-.019-1.795-.019-3.99l.002-3.99 3.468-2.007a332.4 332.4 0 0 1 3.499-2.01c.017-.002.03 1.695.03 3.77" fill-rule="evenodd" fill="#000" stroke="none"/></svg>