<svg xmlns="http://www.w3.org/2000/svg" width="24" height="24" fill="none" stroke="currentColor" stroke-width="2" stroke-linecap="round" stroke-linejoin="round"><path d="M14.94.464a5.18 5.18 0 0 0-2.211.976c-.209.163-2.305 2.232-5.233 5.166-5.29 5.3-5.175 5.176-5.671 6.115a7.387 7.387 0 0 0-.751 2.259c-.066.412-.066 1.627 0 2.04.379 2.351 1.834 4.305 3.946 5.302a6.966 6.966 0 0 0 6.259-.147c.939-.496.816-.383 6.094-5.651 2.942-2.936 4.905-4.925 4.953-5.019.254-.489.047-1.094-.463-1.354-.23-.117-.621-.114-.863.007-.13.065-1.528 1.436-5.04 4.94-5.125 5.114-5.041 5.035-5.755 5.383a4.779 4.779 0 0 1-2.025.505c-2.177.092-4.202-1.304-4.906-3.383a5.025 5.025 0 0 1 .737-4.609c.127-.17 2.298-2.367 5.135-5.198l4.914-4.904.38-.184a3.02 3.02 0 0 1 2.68.002c.324.158.436.241.764.568.327.326.41.438.57.762.228.461.304.804.305 1.364.001.704-.183 1.263-.594 1.798-.324.423-9.558 9.613-9.743 9.698a.99.99 0 0 1-1.411-.82c-.045-.49-.35-.151 4.531-5.04 4.303-4.311 4.413-4.425 4.475-4.637.078-.27.079-.336.001-.598-.167-.562-.827-.85-1.378-.602-.14.063-1.137 1.036-4.474 4.369-2.362 2.358-4.399 4.417-4.526 4.575-.413.512-.595 1.004-.629 1.697-.028.561.055.976.289 1.456a3.062 3.062 0 0 0 1.839 1.576c.416.127 1.211.141 1.619.029.33-.091.693-.259.927-.43.102-.074 2.363-2.304 5.026-4.955 3.377-3.362 4.913-4.918 5.079-5.145a5.012 5.012 0 0 0 .699-4.654 4.845 4.845 0 0 0-1.149-1.824C18.358.905 17.124.393 15.743.404a6.033 6.033 0 0 0-.803.06" fill-rule="evenodd" fill="#000" stroke="none"/></svg>