<svg xmlns="http://www.w3.org/2000/svg" width="24" height="24" fill="none" stroke="currentColor" stroke-width="2" stroke-linecap="round" stroke-linejoin="round"><path d="M5.695 3.057a1.04 1.04 0 0 0-.567.459L5.02 3.7l-.01 8.214c-.007 5.419.003 8.266.03 8.364.059.22.251.461.468.589l.192.113h4.6l.192-.113c.217-.128.409-.369.468-.589.027-.098.037-2.945.03-8.364L10.98 3.7l-.108-.184a1.02 1.02 0 0 0-.582-.461c-.257-.077-4.347-.076-4.595.002m8 0a1.04 1.04 0 0 0-.567.459l-.108.184-.01 8.214c-.007 5.419.003 8.266.03 8.364.059.22.251.461.468.589l.192.113h4.6l.192-.113c.217-.128.409-.369.468-.589.027-.098.037-2.945.03-8.364L18.98 3.7l-.108-.184a1.02 1.02 0 0 0-.582-.461c-.257-.077-4.347-.076-4.595.002M9 12v7H7V5h2v7m8 0v7h-2V5h2v7" fill="#000" fill-rule="evenodd" stroke="none"/></svg>