<svg width="24" height="24" viewBox="0 0 24 24" fill="none" xmlns="http://www.w3.org/2000/svg">
<g clip-path="url(#clip0_3_8847)">
<path d="M7.48631 6.12891C2.88381 6.91265 -0.365959 11.1098 0.0292833 15.7617C0.424517 20.4136 4.33515 24.0034 9.00389 24H18.0039C21.3063 24 24.0039 21.3014 24.0039 18C24.0039 14.6986 21.3063 12 18.0039 12H17.3574C15.8944 7.95253 11.8064 5.39222 7.48631 6.12891ZM7.82225 8.09962C11.4176 7.4865 14.864 9.71867 15.7754 13.25C15.8308 13.4644 15.9557 13.6544 16.1307 13.7901C16.3057 13.9258 16.5207 13.9997 16.7422 14H18.0039C20.2255 14 22.0039 15.7794 22.0039 18C22.0039 20.2206 20.2255 22 18.0039 22H9.00389H9.00194C5.35468 22.0026 2.33024 19.226 2.02147 15.5918C1.71271 11.9578 4.22675 8.71188 7.82225 8.09962Z" fill="black"/>
<path d="M16.3145 10.6972C16.183 10.699 16.0531 10.7268 15.9324 10.7788C15.8116 10.8308 15.7023 10.9062 15.6107 11.0005C15.519 11.0948 15.4469 11.2063 15.3984 11.3286C15.35 11.4508 15.3261 11.5814 15.3281 11.7129C15.3281 11.7129 15.3418 11.8768 15.3418 11.8769C15.3418 11.877 15.4355 12.16 15.4355 12.1601C15.4356 12.1603 15.7752 12.5448 15.7754 12.5449C15.7755 12.545 16.3298 12.7129 16.3301 12.7129C16.5303 12.7152 16.7265 12.6574 16.8935 12.5469C17.0604 12.4365 17.1904 12.2784 17.2666 12.0933C17.3427 11.9082 17.3616 11.7044 17.3207 11.5085C17.2797 11.3125 17.181 11.1333 17.0371 10.9941C17.0364 10.9928 17.0358 10.9915 17.0351 10.9902C17.0331 10.9882 17.0312 10.9863 17.0292 10.9843C17.0247 10.9804 17.0201 10.9765 17.0155 10.9726C16.8266 10.7929 16.5751 10.6941 16.3145 10.6972Z" fill="black"/>
<path d="M15.5196 4C13.4573 4 11.7072 5.43072 11.2442 7.36719C11.212 7.49548 11.2056 7.62887 11.2254 7.75965C11.2451 7.89042 11.2906 8.01598 11.3592 8.12906C11.4278 8.24213 11.5182 8.34047 11.6251 8.41839C11.7319 8.49631 11.8532 8.55226 11.9818 8.583C12.1105 8.61373 12.2439 8.61865 12.3745 8.59747C12.505 8.57628 12.6301 8.52941 12.7424 8.45957C12.8547 8.38973 12.9521 8.2983 13.0288 8.19058C13.1055 8.08287 13.1602 7.961 13.1895 7.83203C13.4404 6.7825 14.3778 6 15.5196 6C16.859 6 17.9278 7.06876 17.9278 8.4082C17.9278 9.54866 17.1456 10.4895 16.0977 10.7402C15.965 10.7657 15.8388 10.8179 15.7269 10.8935C15.6149 10.969 15.5194 11.0666 15.4461 11.1801C15.3728 11.2936 15.3233 11.4208 15.3006 11.554C15.2778 11.6872 15.2823 11.8236 15.3138 11.955C15.3452 12.0864 15.4029 12.2101 15.4835 12.3186C15.564 12.4271 15.6657 12.5181 15.7824 12.5862C15.8991 12.6543 16.0284 12.698 16.1625 12.7148C16.2966 12.7315 16.4327 12.7209 16.5625 12.6836C18.4986 12.2203 19.9278 10.4697 19.9278 8.4082C19.9278 5.98565 17.9421 4 15.5196 4Z" fill="black"/>
<path d="M15.4844 -0.013672C15.2195 -0.00953155 14.9671 0.0995285 14.7825 0.289572C14.598 0.479616 14.4964 0.735117 14.5 1V2.36328C14.4981 2.49579 14.5226 2.62736 14.572 2.75032C14.6214 2.87329 14.6948 2.98521 14.7878 3.07958C14.8809 3.17395 14.9917 3.24889 15.114 3.30004C15.2362 3.35118 15.3675 3.37752 15.5 3.37752C15.6325 3.37752 15.7637 3.35118 15.886 3.30004C16.0082 3.24889 16.1191 3.17395 16.2121 3.07958C16.3052 2.98521 16.3785 2.87329 16.428 2.75032C16.4774 2.62736 16.5019 2.49579 16.5 2.36328V1C16.5018 0.86621 16.4768 0.733414 16.4264 0.609473C16.3759 0.485533 16.3012 0.372969 16.2065 0.278448C16.1118 0.183927 15.9991 0.10937 15.875 0.0591931C15.751 0.00901587 15.6181 -0.0157616 15.4844 -0.013672Z" fill="black"/>
<path d="M10.1836 2.18555C9.98485 2.18599 9.79072 2.24565 9.62601 2.35691C9.4613 2.46817 9.33348 2.62599 9.25887 2.81022C9.18426 2.99445 9.16623 3.19674 9.20709 3.39126C9.24796 3.58578 9.34586 3.76371 9.4883 3.90235L10.4571 4.8711C10.5492 4.96707 10.6596 5.04369 10.7817 5.09647C10.9038 5.14925 11.0353 5.17713 11.1683 5.17849C11.3013 5.17984 11.4333 5.15463 11.5565 5.10434C11.6797 5.05405 11.7916 4.97969 11.8856 4.88562C11.9797 4.79154 12.0541 4.67964 12.1044 4.55646C12.1547 4.43328 12.1799 4.30131 12.1785 4.16827C12.1772 4.03523 12.1493 3.9038 12.0965 3.78168C12.0437 3.65955 11.9671 3.54918 11.8711 3.45703L10.9024 2.48828C10.8089 2.39225 10.6972 2.31597 10.5737 2.26397C10.4503 2.21196 10.3176 2.1853 10.1836 2.18555Z" fill="black"/>
<path d="M21.6367 7.49998C21.5042 7.4981 21.3727 7.52259 21.2497 7.572C21.1267 7.62141 21.0148 7.69477 20.9204 7.78782C20.8261 7.88086 20.7511 7.99173 20.7 8.11399C20.6488 8.23625 20.6225 8.36745 20.6225 8.49998C20.6225 8.6325 20.6488 8.76371 20.7 8.88596C20.7511 9.00822 20.8261 9.11909 20.9204 9.21214C21.0148 9.30518 21.1267 9.37854 21.2497 9.42796C21.3727 9.47737 21.5042 9.50185 21.6367 9.49998H23C23.1325 9.50185 23.2641 9.47737 23.3871 9.42796C23.51 9.37854 23.622 9.30518 23.7163 9.21214C23.8107 9.11909 23.8856 9.00822 23.9368 8.88596C23.9879 8.76371 24.0143 8.6325 24.0143 8.49998C24.0143 8.36745 23.9879 8.23625 23.9368 8.11399C23.8856 7.99173 23.8107 7.88086 23.7163 7.78782C23.622 7.69477 23.51 7.62141 23.3871 7.572C23.2641 7.52259 23.1325 7.4981 23 7.49998H21.6367Z" fill="black"/>
<path d="M20.7852 2.18549C20.5254 2.19323 20.2788 2.30181 20.0977 2.48823L19.1289 3.45698C19.0329 3.54912 18.9563 3.65949 18.9035 3.78162C18.8508 3.90375 18.8229 4.03518 18.8215 4.16822C18.8202 4.30126 18.8454 4.43323 18.8957 4.5564C18.946 4.67958 19.0203 4.79148 19.1144 4.88556C19.2085 4.97964 19.3204 5.054 19.4436 5.10429C19.5667 5.15458 19.6987 5.17978 19.8317 5.17843C19.9648 5.17708 20.0962 5.14919 20.2183 5.09641C20.3405 5.04363 20.4508 4.96701 20.543 4.87104L21.5117 3.90229C21.6562 3.76183 21.7549 3.58099 21.7949 3.38347C21.8348 3.18595 21.8142 2.98096 21.7357 2.79538C21.6571 2.60979 21.5243 2.45226 21.3547 2.34343C21.1851 2.2346 20.9866 2.17955 20.7852 2.18549Z" fill="black"/>
</g>
<defs>
<clipPath id="clip0_3_8847">
<rect width="24" height="24" fill="white"/>
</clipPath>
</defs>
</svg>
