<svg width="24" height="24" viewBox="0 0 24 24" fill="none" xmlns="http://www.w3.org/2000/svg">
<g clip-path="url(#clip0_3_8855)">
<path d="M7.48631 6.12891C2.88381 6.91265 -0.365959 11.1098 0.0292833 15.7617C0.424517 20.4136 4.33515 24.0034 9.00389 24H18.0039C21.3063 24 24.0039 21.3014 24.0039 18C24.0039 14.6986 21.3063 12 18.0039 12H17.3574C15.8944 7.95253 11.8064 5.39222 7.48631 6.12891ZM7.82225 8.09962C11.4176 7.4865 14.864 9.71867 15.7754 13.25C15.8308 13.4644 15.9557 13.6544 16.1307 13.7901C16.3057 13.9258 16.5207 13.9997 16.7422 14H18.0039C20.2255 14 22.0039 15.7794 22.0039 18C22.0039 20.2206 20.2255 22 18.0039 22H9.00389H9.00194C5.35468 22.0026 2.33024 19.226 2.02147 15.5918C1.71271 11.9578 4.22675 8.71188 7.82225 8.09962Z" fill="black"/>
<path d="M16.1641 3.96663e-05C16.1315 -0.00025067 16.0989 0.00105297 16.0664 0.00394592C12.3441 0.347986 9.46474 3.38002 9.24807 7.05082C9.24034 7.18203 9.25854 7.31348 9.30162 7.43766C9.3447 7.56184 9.41182 7.67632 9.49915 7.77455C9.58648 7.87279 9.6923 7.95286 9.81058 8.01019C9.92886 8.06752 10.0573 8.10099 10.1885 8.10869C10.3197 8.11638 10.4511 8.09815 10.5753 8.05504C10.6995 8.01193 10.8139 7.94478 10.9122 7.85743C11.0104 7.77008 11.0904 7.66423 11.1477 7.54594C11.205 7.42765 11.2385 7.29922 11.2461 7.16801C11.3666 5.12643 12.6 3.36726 14.3809 2.51762C13.8695 4.53906 14.3932 6.7526 15.9414 8.30082C17.4493 9.80789 19.5853 10.3219 21.5625 9.87895C21.0302 10.9449 20.2944 11.876 19.2403 12.4082C19.0035 12.5279 18.824 12.7367 18.7413 12.9887C18.6585 13.2407 18.6792 13.5153 18.7989 13.752C18.9185 13.9887 19.1273 14.1682 19.3793 14.251C19.6313 14.3338 19.9059 14.3131 20.1426 14.1934C22.3822 13.0626 23.9932 10.8329 24.2383 8.17777C24.256 7.98568 24.2178 7.79257 24.1283 7.6217C24.0387 7.45083 23.9017 7.3095 23.7337 7.21475C23.5656 7.12 23.3738 7.07587 23.1812 7.08767C22.9887 7.09948 22.8037 7.16672 22.6485 7.28129C21.0235 8.48165 18.7848 8.31522 17.3555 6.88676C15.9275 5.45874 15.7618 3.21862 16.9629 1.59379C17.0725 1.44528 17.1388 1.26935 17.1545 1.08548C17.1703 0.90161 17.1348 0.716967 17.0522 0.551987C16.9695 0.387007 16.8427 0.248124 16.686 0.150709C16.5293 0.0532949 16.3486 0.0011478 16.1641 3.96663e-05Z" fill="black"/>
</g>
<defs>
<clipPath id="clip0_3_8855">
<rect width="24" height="24" fill="white"/>
</clipPath>
</defs>
</svg>
