<svg width="24" height="24" xmlns="http://www.w3.org/2000/svg" fill="none" stroke="currentColor" stroke-width="2" stroke-linecap="round" stroke-linejoin="round"><path d="M1.58 1.095a.951.951 0 0 0-.497.505c-.117.258-.103.471.074 1.187.087.348.88 3.63 1.764 7.293.883 3.663 1.641 6.74 1.684 6.839.098.223.17.303.389.431.143.084.701.208 3.099.688l2.925.586.002.338c.001.248.021.375.075.478.101.192 3.201 3.3 3.425 3.433.152.091.226.107.48.107s.328-.016.48-.107c.227-.136 7.325-7.241 7.425-7.433.052-.099.074-.228.074-.44.001-.254-.015-.327-.106-.48-.059-.099-.833-.903-1.72-1.786-1.538-1.531-1.623-1.609-1.83-1.67-.249-.073-.37-.079-.553-.027-.116.033-.132.028-.151-.05-.011-.048-.279-1.379-.595-2.958-.638-3.19-.62-3.132-.986-3.358-.148-.092-1.352-.394-6.979-1.752-3.739-.902-7.05-1.703-7.356-1.78-.659-.165-.851-.172-1.123-.044m8.894 3.981c2.823.681 5.143 1.248 5.155 1.26.013.012.307 1.44.654 3.173l.632 3.151-2.128 2.127-2.127 2.128-3.151-.632c-1.733-.347-3.161-.641-3.173-.654-.012-.012-.579-2.332-1.26-5.155A1370.56 1370.56 0 0 0 3.818 5.28c-.012-.033.986.948 2.218 2.18L8.275 9.7l-.126.36c-.116.335-.125.399-.127.92-.002.479.012.603.092.86a3.086 3.086 0 0 0 2.046 2.046c.434.135 1.246.135 1.68 0a3.086 3.086 0 0 0 2.046-2.046c.135-.434.135-1.246 0-1.68a3.073 3.073 0 0 0-2.025-2.035c-.273-.083-.403-.098-.861-.098-.465 0-.584.014-.86.101a8.094 8.094 0 0 0-.38.126c-.043.019-.71-.624-2.3-2.215-1.232-1.233-2.213-2.233-2.18-2.222.033.012 2.37.578 5.194 1.259m.836 4.985c.378.112.69.537.69.94 0 .33-.216.695-.516.871-.156.091-.23.108-.484.108s-.328-.017-.484-.108c-.581-.342-.683-1.098-.212-1.569.279-.279.612-.359 1.006-.242m8.49 4.159.78.78-2.79 2.79L15 20.58l-.79-.79-.79-.79 2.78-2.78a278.647 278.647 0 0 1 2.8-2.78c.012 0 .372.351.8.78" fill-rule="evenodd" fill="#000" stroke="none"/></svg>