<svg xmlns="http://www.w3.org/2000/svg" width="24" height="24" fill="none" stroke="currentColor" stroke-width="2" stroke-linecap="round" stroke-linejoin="round"><path d="M5.873 3.06a3.536 3.536 0 0 0-1.915 1.045c-.399.422-.644.852-.825 1.443-.095.315-.107.415-.107.952 0 .537.012.637.107.952.592 1.941 2.541 2.977 4.455 2.369 1.016-.323 1.909-1.215 2.232-2.23.123-.386.179-.731.179-1.091a3.53 3.53 0 0 0-2.621-3.382c-.419-.109-1.098-.135-1.505-.058M18.64 4.068c-.158.053-1.065.945-7.293 7.167-4.167 4.162-7.157 7.18-7.22 7.285-.091.152-.107.226-.107.48 0 .257.016.327.113.492.28.476.9.647 1.359.373.218-.129 14.317-14.24 14.413-14.425.052-.099.074-.228.074-.44.001-.255-.015-.328-.107-.484a1.015 1.015 0 0 0-1.232-.448M7.119 5.143c.298.136.608.449.746.753.095.209.111.296.111.604s-.016.395-.111.604c-.14.309-.448.616-.765.764-.207.097-.29.112-.6.112s-.393-.015-.6-.112a1.675 1.675 0 0 1-.765-.764c-.095-.208-.111-.296-.111-.604-.001-.309.015-.394.11-.6.193-.422.615-.771 1.04-.861.267-.057.696-.009.945.104m9.754 8.917a3.536 3.536 0 0 0-1.915 1.045c-.399.422-.644.852-.825 1.443-.095.315-.107.415-.107.952 0 .537.012.637.107.952.592 1.941 2.541 2.977 4.455 2.369 1.016-.323 1.909-1.215 2.232-2.23.123-.386.179-.731.179-1.091a3.53 3.53 0 0 0-2.621-3.382c-.419-.109-1.098-.135-1.505-.058m1.246 2.083c.298.136.608.449.746.753.095.209.111.296.111.604s-.016.395-.111.604c-.14.309-.448.616-.765.764-.207.097-.29.112-.6.112s-.393-.015-.6-.112a1.675 1.675 0 0 1-.765-.764c-.095-.208-.111-.296-.111-.604-.001-.309.015-.394.11-.6.193-.422.615-.771 1.04-.861.267-.057.696-.009.945.104" fill="#000" fill-rule="evenodd" stroke="none"/></svg>