<svg xmlns="http://www.w3.org/2000/svg" width="24" height="24" fill="none" stroke="currentColor" stroke-width="2" stroke-linecap="round" stroke-linejoin="round"><path d="M14.66.094c-.404.198-.593.486-.596.906-.002.295.081.49.302.716.183.186.299.227.961.341.937.162 1.639.395 2.416.802a7.88 7.88 0 0 1 3.399 3.401c.405.771.637 1.471.803 2.418.113.643.177.802.407 1.01.261.236.637.31.985.194.22-.074.478-.327.583-.572.078-.181.087-.249.064-.523-.032-.386-.188-1.162-.329-1.647-.95-3.25-3.567-5.858-6.816-6.793-.588-.17-1.225-.295-1.664-.328-.281-.021-.336-.013-.515.075m-11.04.948A3.008 3.008 0 0 0 1.438 2.66c-.339.686-.386 1.205-.216 2.38.396 2.74 1.275 5.253 2.651 7.58 1.643 2.779 3.795 5.078 6.343 6.778 2.191 1.463 4.282 2.405 6.644 2.997 1.202.301 2.569.525 3.202.525 1.086 0 2.154-.687 2.636-1.695.284-.594.282-.576.282-2.845 0-2.027-.001-2.042-.094-2.34-.3-.961-1.011-1.702-1.933-2.014a6.37 6.37 0 0 0-.68-.146c-.954-.159-1.253-.234-2.273-.569-.575-.189-.655-.205-1.102-.222-.406-.015-.538-.004-.84.071-.646.162-.985.372-1.665 1.031l-.469.456-.192-.13c-.958-.649-1.56-1.143-2.333-1.916a13.484 13.484 0 0 1-1.679-1.997l-.369-.526.457-.47c.769-.793 1.004-1.232 1.107-2.068.058-.472.002-.828-.254-1.618a12.696 12.696 0 0 1-.518-2.087 7.908 7.908 0 0 0-.166-.78A3.002 3.002 0 0 0 8.46 1.318c-.601-.296-.573-.293-2.72-.302-1.056-.005-2.01.007-2.12.026m3.789 2c.204.056.472.269.579.459.048.086.117.328.153.538.17.998.337 1.668.638 2.559.166.492.181.769.058 1.042-.057.125-.319.419-.855.96-.738.744-.777.791-.844 1.02-.125.428-.013.71.713 1.8a17.154 17.154 0 0 0 4.729 4.729c1.087.725 1.372.838 1.798.714.226-.066.278-.109 1.06-.878.886-.872.935-.905 1.349-.905.12 0 .36.055.615.141.877.297 1.549.466 2.45.616.293.049.535.114.638.171.197.109.41.375.468.583.052.187.055 3.364.004 3.586-.085.363-.466.698-.836.733-.368.036-1.883-.215-2.886-.477-4.11-1.074-7.841-3.559-10.345-6.893-1.805-2.402-2.987-5.035-3.53-7.86-.158-.819-.265-1.703-.23-1.887.032-.172.24-.494.387-.602.245-.18.331-.187 2.078-.189 1.026-.001 1.717.014 1.809.04m7.331 1.007c-.477.17-.787.718-.665 1.174.058.215.25.496.414.606.073.048.311.135.529.191.764.199 1.368.538 1.896 1.066.528.528.867 1.132 1.066 1.896.056.218.143.456.191.529.11.164.391.356.606.414.559.15 1.166-.303 1.213-.905.02-.252-.126-.832-.35-1.389-.7-1.746-2.31-3.124-4.151-3.554-.366-.085-.567-.093-.749-.028" fill-rule="evenodd" fill="#000" stroke="none"/></svg>