<svg xmlns="http://www.w3.org/2000/svg" width="24" height="24" fill="none" stroke="currentColor" stroke-width="2" stroke-linecap="round" stroke-linejoin="round"><path d="M22.66.066c-.19.057-.782.642-11.313 11.167C4.792 17.785.191 22.414.127 22.52c-.091.152-.107.226-.107.48 0 .257.016.327.113.492.13.222.369.409.603.473.202.054.53.024.709-.066.074-.037 1.551-1.481 3.281-3.209l3.146-3.141.494.417c.654.553 1.225.987 1.831 1.392 2.873 1.923 5.893 3.069 9.163 3.479.497.063.687.07.955.04 1.059-.121 1.976-.78 2.401-1.723.271-.604.264-.526.264-2.774 0-2.027-.001-2.042-.094-2.34-.3-.961-1.011-1.702-1.933-2.014a6.37 6.37 0 0 0-.68-.146c-.954-.159-1.253-.234-2.273-.569-.575-.189-.655-.205-1.102-.222-.406-.015-.538-.004-.84.071-.646.162-.985.372-1.666 1.032l-.47.457-.497-.349a18.697 18.697 0 0 1-.898-.678l-.401-.329 5.82-5.816c3.377-3.376 5.864-5.893 5.927-5.997.091-.153.107-.226.107-.48s-.017-.328-.108-.484a1.02 1.02 0 0 0-.582-.461c-.228-.069-.375-.066-.63.011m-19.04.976a3.041 3.041 0 0 0-2.156 1.557c-.338.647-.407 1.23-.267 2.241a20.992 20.992 0 0 0 1.714 5.901c.484 1.057 1.313 2.493 1.605 2.78.551.541 1.478.258 1.648-.504.072-.321.015-.494-.382-1.157-1.059-1.768-1.746-3.394-2.197-5.2-.274-1.1-.506-2.574-.45-2.867.06-.319.381-.664.7-.752.197-.055 3.377-.054 3.574.001.204.056.472.269.579.459.048.086.117.328.153.538.17.998.337 1.668.638 2.559.166.491.181.769.058 1.041-.056.124-.323.424-.855.962-.707.715-.78.801-.838.998-.08.269-.08.333 0 .604.141.473.655.783 1.133.684.119-.025.283-.092.365-.148.215-.149 1.598-1.563 1.757-1.796.174-.255.331-.581.425-.883.059-.19.074-.364.073-.84l-.001-.6-.231-.7a12.304 12.304 0 0 1-.522-2.085 7.908 7.908 0 0 0-.166-.78A3.002 3.002 0 0 0 8.46 1.318c-.601-.296-.573-.293-2.72-.302-1.056-.005-2.01.007-2.12.026m7.375 13.911c.391.344 1.04.834 1.585 1.196 1.088.725 1.372.838 1.798.714.226-.066.278-.109 1.06-.878.886-.872.935-.905 1.349-.905.12 0 .36.055.615.141.877.297 1.549.466 2.45.616.293.049.535.114.638.171.201.111.412.378.471.594.028.104.038.745.031 1.868-.012 1.665-.014 1.714-.098 1.87-.187.345-.506.546-.871.548-.425.002-1.874-.248-2.743-.473a19.171 19.171 0 0 1-6.74-3.269c-.522-.395-1.22-.977-1.22-1.019 0-.027 1.367-1.407 1.394-1.407.009 0 .135.105.281.233" fill-rule="evenodd" fill="#000" stroke="none"/></svg>