<svg xmlns="http://www.w3.org/2000/svg" width="24" height="24" fill="none" stroke="currentColor" stroke-width="2" stroke-linecap="round" stroke-linejoin="round"><path d="M22.66.066c-.186.057-.385.246-2.929 2.785l-2.728 2.724-.012-1.937L16.98 1.7l-.109-.186a1.01 1.01 0 0 0-1.742 0l-.109.186-.011 3.24c-.01 2.934-.005 3.256.055 3.414.091.241.279.442.516.552l.2.093 3.2-.001c2.569-.001 3.23-.012 3.35-.055.221-.079.414-.241.539-.454.095-.161.111-.233.111-.489 0-.254-.017-.328-.108-.484a1.209 1.209 0 0 0-.254-.295C22.337 7.007 22.265 7 20.264 7h-1.843l2.705-2.71c1.488-1.49 2.739-2.773 2.779-2.85.052-.099.074-.228.074-.44.001-.255-.015-.328-.107-.484a1.02 1.02 0 0 0-.582-.461c-.228-.069-.375-.066-.63.011m-19.04.976a3.041 3.041 0 0 0-2.156 1.557c-.354.679-.414 1.271-.246 2.421.405 2.776 1.276 5.267 2.655 7.6 1.643 2.779 3.795 5.078 6.343 6.778 2.191 1.463 4.282 2.405 6.644 2.997 1.202.301 2.569.525 3.202.525 1.086 0 2.154-.687 2.636-1.695.284-.594.282-.576.282-2.845 0-2.027-.001-2.042-.094-2.34-.3-.961-1.011-1.702-1.933-2.014a6.37 6.37 0 0 0-.68-.146c-.954-.159-1.253-.234-2.273-.569-.575-.189-.655-.205-1.102-.222-.406-.015-.538-.004-.84.071-.646.162-.985.372-1.665 1.031l-.469.456-.192-.13c-.958-.649-1.56-1.143-2.333-1.916a13.484 13.484 0 0 1-1.679-1.997l-.369-.526.457-.47c.486-.501.662-.73.834-1.085.216-.449.257-.655.255-1.303l-.001-.6-.231-.7a12.304 12.304 0 0 1-.522-2.085 7.908 7.908 0 0 0-.166-.78A3.002 3.002 0 0 0 8.46 1.318c-.601-.296-.573-.293-2.72-.302-1.056-.005-2.01.007-2.12.026m3.789 2c.204.056.472.269.579.459.048.086.117.328.153.538.17.998.337 1.668.638 2.559.166.492.181.769.058 1.042-.057.125-.319.419-.855.96-.71.716-.779.798-.838.997-.112.38-.076.554.217 1.052 1.266 2.15 3.111 4.094 5.219 5.5 1.087.725 1.372.838 1.798.714.226-.066.278-.109 1.06-.878.886-.872.935-.905 1.349-.905.12 0 .36.055.615.141.877.297 1.549.466 2.45.616.293.049.535.114.638.171.197.109.41.375.468.583.052.187.055 3.364.004 3.586-.085.363-.466.698-.836.733-.368.036-1.883-.215-2.886-.477-4.11-1.074-7.841-3.559-10.345-6.893-1.805-2.402-2.987-5.035-3.53-7.86-.158-.819-.265-1.703-.23-1.887.032-.172.24-.494.387-.602.245-.18.331-.187 2.078-.189 1.026-.001 1.717.014 1.809.04" fill-rule="evenodd" fill="#000" stroke="none"/></svg>