<svg xmlns="http://www.w3.org/2000/svg" width="24" height="24" fill="none" stroke="currentColor" stroke-width="2" stroke-linecap="round" stroke-linejoin="round"><path d="M11.695 1.054c-.232.077-.44.247-.567.462l-.108.184v10.6l.111.189c.125.213.318.375.539.454.222.079 10.438.079 10.66 0 .22-.079.414-.241.536-.45.138-.235.163-.596.096-1.384a11.04 11.04 0 0 0-2.192-5.746c-.454-.608-1.523-1.677-2.13-2.128-1.877-1.396-3.951-2.135-6.22-2.216-.412-.014-.604-.005-.725.035m-4.218.919c-1.906.832-3.7 2.415-4.851 4.279a11.008 11.008 0 0 0-1.261 8.546 10.975 10.975 0 0 0 2.048 4.062c.425.533 1.305 1.401 1.842 1.817a10.959 10.959 0 0 0 9.483 1.965 11.024 11.024 0 0 0 6.363-4.479c.623-.912 1.097-1.894 1.098-2.274a.974.974 0 0 0-.956-.983c-.513-.004-.761.192-1.074.85-.531 1.113-1.098 1.901-1.977 2.747-1.006.969-2.123 1.63-3.498 2.072-2.792.897-5.885.333-8.238-1.502a10.943 10.943 0 0 1-1.46-1.433c-2.012-2.513-2.539-5.931-1.375-8.91.819-2.095 2.346-3.757 4.42-4.809.614-.311.8-.467.896-.752a.943.943 0 0 0-.017-.7c-.214-.573-.803-.775-1.443-.496m6.412 1.23c2.26.464 4.354 1.911 5.671 3.917.667 1.017 1.232 2.545 1.346 3.641l.025.239H13V3.069l.239.025c.131.013.423.062.65.109" fill-rule="evenodd" fill="#000" stroke="none"/></svg>