<svg xmlns="http://www.w3.org/2000/svg" width="24" height="24" fill="none" stroke="currentColor" stroke-width="2" stroke-linecap="round" stroke-linejoin="round"><path d="M4.695 2.057a1.04 1.04 0 0 0-.567.459L4.02 2.7l-.01 9.219c-.012 10.35-.038 9.455.288 9.781.267.267.684.367 1.022.246.077-.027 3.341-2.108 7.254-4.623 7.576-4.871 7.286-4.673 7.39-5.059.095-.353-.046-.805-.317-1.017-.306-.238-14.194-9.14-14.342-9.192a.944.944 0 0 0-.61.002m6.979 6.423c2.995 1.925 5.445 3.509 5.445 3.52.001.016-10.854 7.014-11.063 7.132-.048.027-.056-.982-.056-7.134V4.832l.115.074 5.559 3.574" fill="#000" fill-rule="evenodd" stroke="none"/></svg>