<svg xmlns="http://www.w3.org/2000/svg" width="24" height="24" fill="none" stroke="currentColor" stroke-width="2" stroke-linecap="round" stroke-linejoin="round"><path d="M3.499 2.043c-1.108.187-2.012.982-2.385 2.097l-.093.28-.013 3.48c-.008 2.279.003 3.665.031 4.015.168 2.053.921 4.021 2.187 5.718.46.615 1.526 1.681 2.141 2.141a11.03 11.03 0 0 0 4.671 2.046c3.044.548 6.093-.179 8.599-2.05.609-.454 1.679-1.524 2.133-2.133 1.274-1.707 2.021-3.662 2.19-5.737.031-.382.042-1.662.033-4.02l-.014-3.46-.093-.28c-.329-.981-1.065-1.715-2.025-2.019l-.321-.101-8.42-.006c-4.631-.003-8.511.01-8.621.029M20.31 4.061a.887.887 0 0 1 .387.243c.323.322.309.132.293 4.104-.016 3.799-.014 3.754-.257 4.752a9.03 9.03 0 0 1-2.417 4.24 8.464 8.464 0 0 1-2.336 1.661 8.925 8.925 0 0 1-8-.019c-.936-.473-1.6-.949-2.315-1.66a9.047 9.047 0 0 1-2.398-4.222c-.243-.998-.241-.953-.257-4.752-.016-3.973-.03-3.782.293-4.105a.94.94 0 0 1 .37-.24c.16-.049 1.357-.058 8.31-.06 7.161-.003 8.147.004 8.327.058m-12.64 5c-.222.081-.42.248-.542.455-.091.156-.108.23-.108.484s.016.328.107.48c.134.225 4.241 4.325 4.433 4.425.1.052.227.073.44.073s.34-.021.44-.073c.192-.1 4.299-4.2 4.433-4.425.091-.152.107-.226.107-.48s-.017-.328-.108-.484a1.002 1.002 0 0 0-1.215-.45c-.176.058-.378.246-1.927 1.788L12 12.577l-1.73-1.723c-1.549-1.542-1.751-1.73-1.927-1.788a1.01 1.01 0 0 0-.673-.005" fill-rule="evenodd" fill="#000" stroke="none"/></svg>