<svg xmlns="http://www.w3.org/2000/svg" width="24" height="24" fill="none" stroke="currentColor" stroke-width="2" stroke-linecap="round" stroke-linejoin="round"><path d="M11.695 1.057a1.04 1.04 0 0 0-.567.459l-.108.184v10.606l.121.197a.998.998 0 0 0 1.718 0l.121-.197V1.7l-.108-.184a1.005 1.005 0 0 0-1.177-.459M5.36 5.675c-.219.072-.355.171-.622.452a10.18 10.18 0 0 0-2.64 5.415c-.089.564-.12 1.811-.06 2.398.19 1.881.861 3.599 1.998 5.118.384.514 1.387 1.516 1.908 1.907a10.383 10.383 0 0 0 4.634 1.944c.626.098 2.181.098 2.822-.002 1.796-.277 3.454-.993 4.82-2.081 2.471-1.968 3.886-5.036 3.766-8.166a9.903 9.903 0 0 0-1.027-4.08c-.598-1.227-1.757-2.703-2.256-2.873a1 1 0 0 0-1.215.449c-.092.156-.108.229-.107.484.001.371.044.457.447.892a7.977 7.977 0 0 1 1.992 3.848 8.08 8.08 0 0 1-.002 3.26c-.746 3.673-4.05 6.362-7.812 6.36a8.014 8.014 0 0 1-6.71-3.628 9.246 9.246 0 0 1-.892-1.864A7.948 7.948 0 0 1 4.8 9.529 7.66 7.66 0 0 1 6.14 7.56c.397-.433.477-.587.477-.92 0-.394-.194-.705-.554-.888-.172-.088-.545-.129-.703-.077" fill-rule="evenodd" fill="#000" stroke="none"/></svg>