<svg xmlns="http://www.w3.org/2000/svg" width="24" height="24" fill="none" stroke="currentColor" stroke-width="2" stroke-linecap="round" stroke-linejoin="round"><path d="M5.695 1.057a1.04 1.04 0 0 0-.567.459L5.02 1.7l-.011 3.145-.011 3.146-.769.019c-.662.017-.813.033-1.09.116a3.068 3.068 0 0 0-2.025 2.034l-.094.3v6.08l.094.3a3.099 3.099 0 0 0 2.026 2.042c.239.076.396.092 1.068.108l.789.019.011 1.646.012 1.645.111.189c.125.213.318.375.539.454.222.079 12.438.079 12.66 0 .221-.079.414-.241.539-.454l.111-.189.012-1.645.011-1.646.789-.019c.672-.016.829-.032 1.068-.108a3.099 3.099 0 0 0 2.026-2.042l.094-.3v-6.08l-.094-.3a3.068 3.068 0 0 0-2.025-2.034c-.277-.083-.428-.099-1.09-.116l-.769-.019-.011-3.146L18.98 1.7l-.108-.184a1.02 1.02 0 0 0-.582-.461C18.028.976 5.947.978 5.695 1.057M17 5.5V8H7V3h10v2.5m3.31 4.561c.279.083.546.35.629.629.086.289.092 5.316.006 5.6a1.02 1.02 0 0 1-.461.582c-.176.103-.212.109-.832.121l-.649.014-.011-1.654-.012-1.653-.108-.184a1.02 1.02 0 0 0-.582-.461c-.272-.082-12.308-.082-12.58 0a1.02 1.02 0 0 0-.582.461l-.108.184-.012 1.653-.011 1.654-.649-.014c-.62-.012-.656-.018-.832-.121a1.051 1.051 0 0 1-.458-.556c-.088-.252-.086-5.326.003-5.626.079-.269.351-.547.612-.627.16-.049 1.357-.058 8.31-.06 7.161-.003 8.147.004 8.327.058M17 18v3H7v-6h10v3" fill-rule="evenodd" fill="#000" stroke="none"/></svg>