<svg xmlns="http://www.w3.org/2000/svg" width="24" height="24" fill="none" stroke="currentColor" stroke-width="2" stroke-linecap="round" stroke-linejoin="round"><path d="M4.709 3.963c-.258.062-.364.139-.766.562-1.478 1.555-2.48 3.64-2.831 5.895-.126.809-.126 2.351 0 3.16a11.259 11.259 0 0 0 1.029 3.28A10.23 10.23 0 0 0 4 19.527c.386.393.44.434.66.497.201.057.275.061.46.022a.988.988 0 0 0 .792-.88c.026-.367-.037-.517-.382-.906-.789-.887-1.181-1.449-1.591-2.28-.645-1.308-.915-2.481-.915-3.98s.27-2.672.915-3.98c.41-.831.803-1.394 1.59-2.28.329-.37.39-.502.391-.842 0-.364-.278-.766-.62-.897a1.298 1.298 0 0 0-.591-.038m14.138-.001c-.412.083-.767.515-.767.933.001.356.062.486.413.874.737.815 1.157 1.419 1.567 2.251.545 1.105.813 2.1.908 3.368a8.993 8.993 0 0 1-1.439 5.532c-.293.448-.51.722-1.035 1.306-.367.408-.433.561-.406.94a.988.988 0 0 0 .792.88.768.768 0 0 0 .46-.022c.221-.063.273-.102.662-.501 1.504-1.542 2.529-3.654 2.886-5.943.126-.809.126-2.351 0-3.16-.291-1.868-1.008-3.581-2.108-5.039-.453-.6-1.097-1.275-1.289-1.352a1.156 1.156 0 0 0-.644-.067M7.336 6.856c-.15.07-.294.195-.541.473a7.007 7.007 0 0 0-.756 8.331c.352.573.956 1.284 1.229 1.446.46.272 1.079.102 1.359-.374.097-.165.113-.234.112-.492-.001-.362-.043-.451-.403-.85-.98-1.084-1.448-2.486-1.298-3.89.12-1.126.529-2.041 1.3-2.902.35-.392.445-.608.41-.938a.988.988 0 0 0-1.412-.804m8.599-.039a1.04 1.04 0 0 0-.567.459c-.092.156-.108.229-.107.484.001.362.043.451.403.85.98 1.084 1.448 2.485 1.299 3.89-.12 1.122-.535 2.046-1.31 2.912-.341.382-.435.6-.401.928a.978.978 0 0 0 .988.899c.356.001.572-.126.965-.568a7.145 7.145 0 0 0 1.721-3.651c.028-.176.051-.635.051-1.02s-.023-.844-.051-1.02c-.237-1.468-.893-2.799-1.877-3.807-.228-.234-.32-.299-.492-.35-.251-.075-.399-.076-.622-.006M11.499 9.04a3.05 3.05 0 0 0-2.385 2.12c-.135.434-.135 1.246 0 1.68a3.086 3.086 0 0 0 2.046 2.046c.434.135 1.246.135 1.68 0a3.086 3.086 0 0 0 2.046-2.046c.135-.434.135-1.246 0-1.68-.305-.981-1.076-1.753-2.025-2.031-.361-.106-1.029-.149-1.362-.089m.811 2.021c.378.112.69.537.69.94 0 .33-.216.695-.516.871-.156.091-.23.108-.484.108s-.328-.017-.484-.108c-.581-.342-.683-1.098-.212-1.569.279-.279.612-.359 1.006-.242" fill-rule="evenodd" fill="#000" stroke="none"/></svg>