<svg width="24" height="24" viewBox="0 0 24 24" fill="none" xmlns="http://www.w3.org/2000/svg">
<g clip-path="url(#clip0_3_8714)">
<path d="M9.50589 0.0137193C5.59953 -0.206547 1.9907 2.1305 0.593777 5.7852C0.19826 6.82006 0.00452889 7.89555 2.73616e-05 8.95903C-0.00334668 9.72157 0.0898929 10.4779 0.275418 11.211C0.307601 11.3383 0.364555 11.4581 0.443025 11.5634C0.521496 11.6688 0.619948 11.7576 0.732759 11.8249C0.845569 11.8922 0.97053 11.9366 1.10051 11.9556C1.23048 11.9746 1.36292 11.9678 1.49028 11.9356C1.61763 11.9035 1.73739 11.8465 1.84273 11.768C1.94806 11.6895 2.03691 11.5911 2.1042 11.4783C2.17148 11.3655 2.21589 11.2405 2.23488 11.1105C2.25387 10.9805 2.24707 10.8481 2.21487 10.7208C2.0704 10.1499 1.9974 9.56226 2.00003 8.9688C2.00353 8.14228 2.15444 7.30719 2.46292 6.50005C3.55199 3.65076 6.34892 1.84003 9.39456 2.01177C12.4393 2.1835 15.0142 4.29632 15.7774 7.25005C15.8328 7.46478 15.9581 7.65498 16.1335 7.79075C16.3088 7.92652 16.5243 8.00014 16.7461 8.00005H18.0059C19.9028 8.00336 21.5286 9.32486 21.916 11.1817C22.3045 13.0405 21.3447 14.9025 19.6055 15.6641C19.4815 15.7142 19.3688 15.7886 19.2741 15.883C19.1793 15.9773 19.1045 16.0898 19.054 16.2136C19.0035 16.3374 18.9783 16.4701 18.9799 16.6038C18.9816 16.7375 19.01 16.8695 19.0636 16.992C19.1171 17.1145 19.1947 17.2251 19.2917 17.3171C19.3887 17.4091 19.5032 17.4808 19.6284 17.5278C19.7536 17.5748 19.8869 17.5962 20.0205 17.5907C20.1542 17.5853 20.2853 17.5531 20.4063 17.4961C23.0011 16.3598 24.4526 13.5467 23.8731 10.7735C23.2946 8.00095 20.84 6.00364 18.0078 6.00005H18.0058H17.3867C16.1747 2.63092 13.1316 0.218222 9.50589 0.0137193Z" fill="black"/>
<path d="M7.10935 9.99997C6.8489 10.0036 6.60014 10.1087 6.41599 10.2929L4.65036 12.0605C3.6512 13.0597 3.35168 14.5696 3.89255 15.875C4.43305 17.1794 5.71308 18.0371 7.12693 18.0371C8.54017 18.0371 9.81885 17.1794 10.3593 15.875C10.9002 14.5696 10.5987 13.0597 9.59958 12.0605L7.83005 10.2929C7.73559 10.1984 7.62314 10.1238 7.49936 10.0735C7.37557 10.0232 7.24296 9.99818 7.10935 9.99997ZM7.12497 12.414L8.18552 13.4746C8.61636 13.9054 8.74482 14.5467 8.51169 15.1093C8.27819 15.6729 7.73568 16.0371 7.12693 16.0371C6.51677 16.0371 5.97371 15.6729 5.74021 15.1093C5.50708 14.5467 5.63359 13.9054 6.06443 13.4746H6.06638L7.12497 12.414Z" fill="black"/>
<path d="M14.1094 15C13.8489 15.0036 13.6001 15.1087 13.416 15.293L11.6504 17.0625C10.6515 18.0613 10.3518 19.5699 10.8926 20.875C11.433 22.1806 12.7137 23.0371 14.1269 23.0371C15.5395 23.0371 16.819 22.1806 17.3594 20.875C17.9001 19.5699 17.5984 18.0613 16.5996 17.0625L14.832 15.293C14.7373 15.1982 14.6246 15.1235 14.5004 15.0731C14.3763 15.0228 14.2433 14.9979 14.1094 15ZM14.125 17.416L15.1855 18.4766C15.6167 18.9077 15.7449 19.5465 15.5117 20.1094V20.1114C15.2781 20.6758 14.7364 21.0372 14.1269 21.0372C13.5161 21.0372 12.9738 20.6758 12.7402 20.1114V20.1094C12.507 19.5465 12.6333 18.9077 13.0644 18.4766L13.0664 18.4746L14.125 17.416Z" fill="black"/>
</g>
<defs>
<clipPath id="clip0_3_8714">
<rect width="24" height="24" fill="white"/>
</clipPath>
</defs>
</svg>
