<svg xmlns="http://www.w3.org/2000/svg" width="24" height="24" fill="none" stroke="currentColor" stroke-width="2" stroke-linecap="round" stroke-linejoin="round"><path d="M11 2.062a9.838 9.838 0 0 0-4.5 1.601c-.663.438-.934.673-2.78 2.408l-1.7 1.598L2 5.685 1.98 3.7l-.109-.186a1.01 1.01 0 0 0-1.742 0L.02 3.7.009 6.94c-.01 2.934-.005 3.256.055 3.414.091.241.279.442.516.552l.2.093 3.2-.001c2.569-.001 3.23-.012 3.35-.055.221-.079.414-.241.539-.454.095-.161.111-.233.111-.489 0-.254-.017-.328-.108-.484a1.146 1.146 0 0 0-.499-.446c-.083-.037-.608-.055-1.969-.07l-1.857-.02 1.606-1.51c1.708-1.608 2.113-1.951 2.744-2.327a8.008 8.008 0 0 1 7.717-.273 7.6 7.6 0 0 1 2.128 1.576c.791.816 1.302 1.62 1.772 2.787.218.54.493.748.986.745.43-.002.721-.19.897-.578.132-.293.111-.536-.096-1.065a9.969 9.969 0 0 0-4.861-5.286 8.838 8.838 0 0 0-1.9-.71c-1.265-.319-2.34-.403-3.54-.277m5.695 10.995c-.644.201-.896.983-.497 1.534.065.09.205.214.31.276l.192.113 1.877.02 1.876.02-1.645 1.547c-2.008 1.889-2.364 2.169-3.348 2.637a7.967 7.967 0 0 1-6.934-.005 7.647 7.647 0 0 1-2.268-1.645c-.79-.816-1.303-1.621-1.771-2.784-.073-.181-.188-.384-.255-.451-.497-.498-1.289-.38-1.602.238-.21.415-.131.768.427 1.903A9.947 9.947 0 0 0 6.5 20.352c.494.329 1.461.818 2.02 1.024.526.192 1.477.434 2.08.529.649.101 2.119.103 2.76.003 1.864-.29 3.537-1.014 4.9-2.121.176-.143 1.085-.979 2.02-1.858l1.7-1.598.02 1.988.02 1.987.121.197a.998.998 0 0 0 1.718 0l.121-.197.011-3.243c.01-2.937.005-3.259-.055-3.417a1.007 1.007 0 0 0-.516-.552l-.2-.093-3.18.002c-2.483.002-3.216.014-3.345.054" fill-rule="evenodd" fill="#000" stroke="none"/></svg>