<svg xmlns="http://www.w3.org/2000/svg" width="24" height="24" fill="none" stroke="currentColor" stroke-width="2" stroke-linecap="round" stroke-linejoin="round"><path d="M16.695.057a1.04 1.04 0 0 0-.567.459c-.092.156-.108.229-.107.484 0 .213.022.341.074.44.041.077.616.684 1.279 1.35L18.578 4h-5.87c-3.877 0-6.003.014-6.26.043-.883.096-1.63.385-2.38.92-1.001.714-1.704 1.808-1.975 3.077-.063.294-.073.539-.073 1.803v1.463l.121.197a.998.998 0 0 0 1.718 0l.121-.196.023-1.424c.022-1.361.028-1.437.121-1.744a3.08 3.08 0 0 1 2.015-2.018l.321-.101 6.06-.011 6.06-.011-1.206 1.211c-.663.666-1.236 1.272-1.273 1.346-.229.454-.045 1.046.407 1.312.165.097.234.113.492.112.212 0 .341-.022.44-.074.077-.04 1.091-1.021 2.254-2.179C21.996 5.433 21.999 5.429 21.999 5c0-.43 0-.431-2.325-2.746C17.622.209 17.532.125 17.323.064c-.257-.076-.404-.077-.628-.007m4 12a1.04 1.04 0 0 0-.567.459l-.108.184-.023 1.42c-.022 1.358-.028 1.434-.121 1.741-.291.951-1.032 1.695-2.016 2.025l-.28.094-6.08.011-6.08.011 1.206-1.211c.663-.666 1.238-1.274 1.279-1.351.052-.099.074-.227.074-.44.001-.255-.015-.328-.107-.484a1.003 1.003 0 0 0-1.215-.451c-.178.059-.407.275-2.331 2.19C2.001 18.569 2.001 18.569 2.001 19c0 .429.003.433 2.305 2.726 1.163 1.158 2.177 2.139 2.254 2.179.099.052.228.074.44.074.258.001.327-.015.492-.112.222-.13.409-.369.473-.603a1.187 1.187 0 0 0-.066-.709c-.037-.074-.61-.679-1.272-1.344l-1.204-1.209 6.139-.013c5.733-.011 6.158-.017 6.438-.084 1.546-.368 2.756-1.291 3.433-2.617.229-.449.372-.849.474-1.328.063-.294.073-.539.073-1.8V12.7l-.108-.184a1.005 1.005 0 0 0-1.177-.459" fill-rule="evenodd" fill="#000" stroke="none"/></svg>