<svg xmlns="http://www.w3.org/2000/svg" width="24" height="24" fill="none" stroke="currentColor" stroke-width="2" stroke-linecap="round" stroke-linejoin="round"><path d="M10.671 4.054c-.082.031-.28.157-.44.28-.16.123-2.252 1.75-4.649 3.615-4.908 3.82-4.562 3.51-4.562 4.07 0 .52-.321.238 4.802 4.223 2.518 1.959 4.646 3.601 4.728 3.65.119.07.212.088.45.088.256 0 .328-.016.489-.111.213-.125.375-.318.454-.539.043-.121.055-.838.059-3.65.003-1.925.02-3.451.038-3.391.018.061.073.174.121.253.06.097 1.568 1.294 4.664 3.702 2.517 1.958 4.643 3.599 4.725 3.648.119.07.212.088.45.088.256 0 .328-.016.489-.111.213-.125.375-.318.454-.539.044-.123.054-1.433.055-7.31.001-4.814-.012-7.209-.04-7.309-.062-.223-.274-.474-.497-.589-.264-.135-.689-.144-.901-.019-.235.139-9.171 7.095-9.308 7.245a1.082 1.082 0 0 0-.187.307c-.052.147-.059-.206-.062-3.315-.002-2.264-.018-3.532-.045-3.629a1.064 1.064 0 0 0-.485-.582c-.229-.118-.594-.152-.802-.075M10 12.019v4.939l-3.178-2.469C5.073 13.131 3.644 12.011 3.644 12c.001-.027 6.288-4.914 6.326-4.917.016-.002.03 2.22.03 4.936m11 0v4.939l-3.178-2.469c-1.749-1.358-3.178-2.478-3.178-2.489.001-.027 6.288-4.914 6.326-4.917.017-.002.03 2.22.03 4.936" fill="#000" fill-rule="evenodd" stroke="none"/></svg>