<svg xmlns="http://www.w3.org/2000/svg" width="24" height="24" fill="none" stroke="currentColor" stroke-width="2" stroke-linecap="round" stroke-linejoin="round"><path d="M11.34 2.026c-.775.063-1.698.239-2.36.45-1.714.546-3.337 1.606-4.477 2.924-1.319 1.525-2.094 3.21-2.408 5.24-.1.643-.1 2.074-.001 2.738.085.571.295 1.411.49 1.962 1.658 4.686 6.572 7.462 11.426 6.456a10.022 10.022 0 0 0 7.295-6.141c.216-.554.229-.774.065-1.098-.313-.618-1.105-.736-1.602-.238-.067.067-.182.27-.255.451-.458 1.135-.987 1.969-1.761 2.773a7.642 7.642 0 0 1-2.278 1.656c-1.721.831-3.593 1.016-5.474.54-2.235-.566-4.151-2.133-5.177-4.235-1.053-2.157-1.083-4.605-.084-6.824.818-1.816 2.419-3.356 4.249-4.083a8.006 8.006 0 0 1 4.641-.415 8.055 8.055 0 0 1 3.311 1.533c.17.134 1.031.924 1.913 1.754l1.604 1.511-1.858.02c-1.364.015-1.889.033-1.972.07a1.146 1.146 0 0 0-.499.446c-.091.156-.108.23-.108.484 0 .256.016.328.111.489.125.213.318.375.539.454.12.043.781.054 3.35.055l3.2.001.2-.093c.237-.11.425-.311.516-.552.06-.158.065-.48.055-3.414L23.98 3.7l-.109-.186a1.01 1.01 0 0 0-1.742 0l-.109.186L22 5.685l-.02 1.985-.661-.625c-1.953-1.847-2.775-2.606-3.099-2.864a9.902 9.902 0 0 0-5.5-2.14 9.515 9.515 0 0 0-1.38-.015" fill-rule="evenodd" fill="#000" stroke="none"/></svg>