<svg xmlns="http://www.w3.org/2000/svg" width="24" height="24" fill="none" stroke="currentColor" stroke-width="2" stroke-linecap="round" stroke-linejoin="round"><path d="M11.359 2.039c-.89.06-1.866.258-2.679.542-.583.204-1.621.718-2.141 1.061-.783.516-.893.614-4.012 3.551l-.524.493-.012-1.993L1.98 3.7l-.109-.186a1.01 1.01 0 0 0-1.742 0L.02 3.7.009 6.94c-.01 2.934-.005 3.256.055 3.414.091.241.279.442.516.552l.2.093 3.2-.001c2.569-.001 3.23-.012 3.35-.055.221-.079.414-.241.539-.454.095-.161.111-.233.111-.489 0-.254-.017-.328-.108-.484a1.146 1.146 0 0 0-.499-.446c-.083-.037-.608-.055-1.97-.07l-1.858-.02 1.602-1.503c.88-.827 1.727-1.605 1.881-1.728 1.088-.868 2.403-1.432 3.851-1.653.552-.084 1.639-.084 2.223-.001 3.553.505 6.287 3.247 6.824 6.845.076.509.065 1.771-.021 2.28-.387 2.306-1.607 4.191-3.557 5.496-.748.501-1.821.934-2.848 1.149-.477.1-.597.11-1.46.112-.961.003-1.198-.02-1.86-.182a7.912 7.912 0 0 1-2.133-.84c-.695-.399-1.072-.694-1.707-1.332-.467-.468-.676-.715-.936-1.103a9.906 9.906 0 0 1-.917-1.75c-.073-.181-.188-.384-.255-.451-.497-.498-1.289-.38-1.602.238-.164.324-.151.544.066 1.098 1.201 3.072 3.835 5.341 7.084 6.101 1.211.283 2.722.322 3.94.1a10.12 10.12 0 0 0 4.48-2.009c.481-.381 1.304-1.205 1.646-1.647 1.472-1.907 2.222-4.182 2.142-6.5-.053-1.535-.397-2.857-1.11-4.261-1.335-2.63-3.81-4.536-6.749-5.195a10.67 10.67 0 0 0-2.77-.205" fill-rule="evenodd" fill="#000" stroke="none"/></svg>