<svg xmlns="http://www.w3.org/2000/svg" width="24" height="24" fill="none" stroke="currentColor" stroke-width="2" stroke-linecap="round" stroke-linejoin="round"><path d="M3.695 3.057a1.04 1.04 0 0 0-.567.459c-.092.156-.108.23-.108.487 0 .268.014.326.121.5.148.24.439.445.67.472.093.011.529.039.969.063 1.478.08 2.555.277 3.866.705a14.998 14.998 0 0 1 9.611 9.611c.428 1.311.625 2.388.705 3.866.024.44.052.876.063.969.027.231.232.522.472.67.174.107.232.121.5.121.259 0 .33-.016.492-.111.382-.224.507-.497.509-1.111.005-1.258-.253-3.04-.632-4.358-.839-2.92-2.296-5.38-4.431-7.487-1.39-1.37-2.682-2.289-4.435-3.155-2.102-1.037-4.082-1.562-6.479-1.717-.813-.052-1.12-.049-1.326.016m0 7a1.04 1.04 0 0 0-.567.459c-.092.156-.108.23-.108.487 0 .268.014.326.121.5.148.24.439.445.67.472.093.011.43.038.749.06a7.603 7.603 0 0 1 2.94.781 7.92 7.92 0 0 1 3.684 3.684c.462.941.705 1.856.781 2.94.022.319.049.656.06.749.027.231.232.522.472.67.174.107.232.121.5.121.26 0 .33-.016.495-.113.222-.13.409-.369.473-.603.096-.349-.021-1.657-.225-2.524a9.835 9.835 0 0 0-2.678-4.801 9.821 9.821 0 0 0-4.196-2.516c-1.078-.327-2.699-.514-3.171-.366m.782 7.016c-.671.176-1.239.75-1.417 1.435a2.07 2.07 0 0 0 .165 1.422c.136.269.576.709.845.845a2.047 2.047 0 0 0 1.86 0c.266-.135.708-.575.841-.838a2.05 2.05 0 0 0 .169-1.408 1.806 1.806 0 0 0-.475-.876A1.972 1.972 0 0 0 5 17.005c-.143 0-.378.031-.523.068" fill-rule="evenodd" fill="#000" stroke="none"/></svg>