<svg xmlns="http://www.w3.org/2000/svg" width="24" height="24" fill="none" stroke="currentColor" stroke-width="2" stroke-linecap="round" stroke-linejoin="round"><path d="M4.499 2.043c-1.118.189-2.038 1.005-2.385 2.117l-.094.3v15.08l.094.3a3.086 3.086 0 0 0 2.046 2.046l.3.094h15.08l.3-.094c.976-.304 1.714-1.035 2.046-2.026l.094-.28.011-5.857c.01-5.336.005-5.875-.055-6.06-.06-.188-.261-.399-2.711-2.847-1.773-1.773-2.698-2.669-2.805-2.72-.155-.073-.353-.076-5.94-.082-3.179-.003-5.871.01-5.981.029m1.51 4.107L6.02 8.3l.111.189c.125.213.318.375.539.454.222.079 8.438.079 8.66 0 .221-.079.414-.241.539-.454.095-.161.111-.233.111-.489 0-.254-.017-.328-.108-.484a1.209 1.209 0 0 0-.254-.295C15.322 6.995 15.41 7 11.554 7H8V4h7.58l2.21 2.21L20 8.42v5.344c0 4.412-.01 5.375-.055 5.526a1.02 1.02 0 0 1-.461.582c-.176.103-.212.109-.833.121l-.649.014-.011-3.654-.011-3.653-.108-.184a1.02 1.02 0 0 0-.582-.461c-.271-.082-10.309-.082-10.58 0a1.02 1.02 0 0 0-.582.461l-.108.184-.011 3.653-.011 3.654-.649-.014c-.621-.012-.657-.018-.833-.121a1.199 1.199 0 0 1-.291-.249c-.239-.314-.225.172-.225-7.601 0-8.017-.025-7.391.304-7.719.25-.25.424-.297 1.125-.3L5.997 4l.012 2.15M16 17v3H8v-6h8v3" fill-rule="evenodd" fill="#000" stroke="none"/></svg>