<svg xmlns="http://www.w3.org/2000/svg" width="24" height="24" fill="none" stroke="currentColor" stroke-width="2" stroke-linecap="round" stroke-linejoin="round"><path d="M10.34 2.024c-1.314.136-2.249.391-3.28.894A8.874 8.874 0 0 0 2.939 7.02a8.91 8.91 0 0 0 0 7.96 8.46 8.46 0 0 0 1.682 2.357 8.968 8.968 0 0 0 10.319 1.746 9.659 9.659 0 0 0 1.498-.91l.178-.136 1.902 1.897c1.046 1.044 1.963 1.928 2.037 1.965.455.229 1.046.045 1.312-.407.097-.165.113-.234.112-.492 0-.212-.022-.341-.074-.44-.04-.077-.927-.996-1.971-2.042l-1.897-1.902.136-.178c.306-.401.651-.97.91-1.498a8.95 8.95 0 0 0 .001-7.88 8.996 8.996 0 0 0-6.764-4.959c-.409-.062-1.658-.11-1.98-.077m1.762 2.074c2.997.453 5.389 2.887 5.822 5.922.066.463.066 1.497 0 1.96-.437 3.067-2.798 5.444-5.904 5.946-.413.066-1.627.066-2.04 0-3.107-.502-5.467-2.879-5.904-5.946-.109-.763-.054-1.887.129-2.64A7.038 7.038 0 0 1 9.34 4.205c.284-.07.724-.136 1.2-.182.273-.026 1.186.018 1.562.075" fill="#000" fill-rule="evenodd" stroke="none"/></svg>