<svg xmlns="http://www.w3.org/2000/svg" width="24" height="24" fill="none" stroke="currentColor" stroke-width="2" stroke-linecap="round" stroke-linejoin="round"><path d="M11.499.04a2.976 2.976 0 0 0-1.41.655C9.42 1.269 9.061 1.974 9.016 2.8c-.038.698-.133.868-.544.975-.317.083-.448.036-.843-.298-.39-.33-.932-.614-1.329-.697a4.007 4.007 0 0 0-1.347 0c-.17.034-.453.139-.673.248-.322.16-.438.247-.762.57-.622.622-.88 1.233-.881 2.088-.001.834.211 1.389.785 2.054.264.306.298.374.298.599a.806.806 0 0 1-.279.594c-.132.111-.21.13-.693.167-1.222.093-2.259.936-2.634 2.14-.135.434-.135 1.246 0 1.68.124.399.323.769.565 1.051.596.696 1.285 1.049 2.141 1.095.22.011.463.04.54.063.274.081.44.311.44.612 0 .225-.034.293-.298.599-.574.665-.786 1.22-.785 2.054.001.855.259 1.466.881 2.088.622.622 1.233.88 2.088.881.834.001 1.389-.211 2.054-.785.306-.264.374-.298.599-.298.219 0 .451.109.594.278.104.125.123.208.168.757.097 1.167.96 2.204 2.139 2.571.434.135 1.246.135 1.68 0a3.006 3.006 0 0 0 1.051-.565c.696-.596 1.049-1.285 1.095-2.141.011-.22.04-.463.063-.54.081-.274.311-.44.612-.44.225 0 .293.034.599.298.665.574 1.22.786 2.054.785.855-.001 1.466-.259 2.088-.881.622-.622.88-1.233.881-2.088.001-.834-.211-1.389-.785-2.054-.264-.306-.298-.374-.298-.599 0-.301.166-.531.44-.612.077-.023.303-.052.503-.064 1.228-.077 2.284-.928 2.663-2.145.078-.252.093-.387.093-.84 0-.453-.015-.588-.093-.84a3.02 3.02 0 0 0-.565-1.052c-.598-.698-1.291-1.045-2.181-1.094a3.257 3.257 0 0 1-.523-.059c-.249-.075-.417-.358-.417-.704 0-.216.035-.286.298-.591.574-.665.786-1.22.785-2.054-.001-.855-.259-1.466-.881-2.088-.324-.323-.44-.41-.762-.57a3.222 3.222 0 0 0-.673-.248 4.007 4.007 0 0 0-1.347 0c-.397.083-.939.367-1.329.697-.35.297-.526.374-.74.325-.403-.09-.526-.295-.566-.945A2.991 2.991 0 0 0 12.861.129C12.5.023 11.832-.02 11.499.04m.832 2.023c.22.075.491.324.577.53.034.081.077.341.096.579.071.873.435 1.569 1.066 2.035 1.032.763 2.404.692 3.389-.174.35-.307.53-.391.841-.391a.95.95 0 0 1 .978.978c0 .307-.083.49-.374.82-.655.745-.866 1.629-.611 2.569.118.437.209.636.429.934.467.632 1.171.99 2.071 1.054.257.018.533.06.614.094.319.135.593.555.593.91 0 .175-.103.461-.221.617-.195.255-.4.344-.889.386-.752.065-1.193.23-1.672.625-1.163.959-1.275 2.666-.251 3.83.307.35.391.53.391.841a.95.95 0 0 1-.978.978c-.307 0-.49-.083-.82-.374a2.888 2.888 0 0 0-1.138-.626c-.448-.121-1.108-.099-1.535.053-1.079.381-1.717 1.251-1.804 2.458-.019.259-.054.522-.079.584-.074.19-.247.386-.44.499-.156.091-.23.108-.484.108s-.328-.017-.484-.108c-.33-.194-.516-.533-.516-.939 0-.119-.029-.355-.063-.525A2.649 2.649 0 0 0 9.6 18.586c-.475-.229-.794-.305-1.285-.305-.671-.001-1.253.227-1.795.703-.33.291-.513.374-.82.374a.95.95 0 0 1-.978-.978c0-.307.083-.49.374-.82 1.039-1.181.935-2.887-.234-3.851-.49-.404-.936-.567-1.714-.625-.389-.029-.494-.052-.64-.137a.986.986 0 0 1-.202-1.567c.2-.2.461-.3.783-.3.107 0 .333-.029.503-.063 1.22-.251 2.141-1.402 2.141-2.677 0-.661-.239-1.275-.7-1.799-.307-.35-.391-.53-.391-.841a.95.95 0 0 1 .978-.978c.307 0 .49.083.82.374.745.655 1.629.866 2.569.611.437-.118.636-.209.934-.429.632-.467.99-1.171 1.054-2.071.038-.54.093-.7.322-.921a.96.96 0 0 1 1.012-.223m-.973 5.998c-1.128.176-2.215.913-2.789 1.892a3.992 3.992 0 0 0 1.943 5.751 3.988 3.988 0 0 0 5.192-2.216 3.963 3.963 0 0 0 .001-2.972 3.978 3.978 0 0 0-3.1-2.458 3.728 3.728 0 0 0-1.247.003m1.165 2.012a2.011 2.011 0 0 1 1.444 1.617c.1.653-.094 1.243-.564 1.714-.401.403-.856.596-1.403.596-.515 0-.962-.178-1.347-.535-1.33-1.236-.464-3.46 1.347-3.46.143 0 .378.031.523.068" fill-rule="evenodd" fill="#000" stroke="none"/></svg>