<svg xmlns="http://www.w3.org/2000/svg" width="24" height="24" fill="none" stroke="currentColor" stroke-width="2" stroke-linecap="round" stroke-linejoin="round"><path d="M7.664 2.56c-2.474.928-4.209 1.6-4.289 1.661a1.218 1.218 0 0 0-.244.29L3.02 4.7l-.012 3.84c-.008 2.66.002 3.963.033 4.24.167 1.481.69 2.847 1.622 4.24 1.272 1.902 3.472 3.873 6.017 5.39.796.475 1.016.57 1.32.57.304 0 .524-.095 1.32-.57 1.36-.811 2.683-1.794 3.74-2.782 2.358-2.202 3.604-4.383 3.899-6.827.025-.209.041-1.797.041-4.143 0-4.277.016-4.044-.297-4.357-.157-.157-.348-.233-4.348-1.733C13.15 1.367 12.13 1 11.996 1.001c-.133 0-1.199.384-4.332 1.559m7.848 1.828 3.492 1.308-.015 3.522c-.015 3.398-.018 3.536-.099 3.908-.466 2.142-1.96 4.183-4.497 6.143-.741.573-2.261 1.571-2.393 1.571-.132 0-1.652-.998-2.393-1.571-2.537-1.96-4.031-4.001-4.497-6.143-.081-.372-.084-.51-.099-3.908l-.015-3.522 3.472-1.305c1.91-.718 3.49-1.307 3.512-1.309.022-.002 1.611.586 3.532 1.306" fill-rule="evenodd" fill="#000" stroke="none"/></svg>