<svg xmlns="http://www.w3.org/2000/svg" width="24" height="24" fill="none" stroke="currentColor" stroke-width="2" stroke-linecap="round" stroke-linejoin="round"><path d="M.695.057a1.04 1.04 0 0 0-.567.459C.037.672.02.746.02 1s.016.327.107.48c.059.099.754.825 1.544 1.614l1.437 1.434-.052.146c-.067.186-.08 7.587-.015 8.127.18 1.491.698 2.839 1.622 4.219 1.272 1.902 3.472 3.873 6.017 5.39.923.55 1.24.66 1.585.55.296-.095 1.543-.822 2.255-1.314a21.173 21.173 0 0 0 2.494-1.996l.634-.581 2.386 2.381c1.312 1.31 2.449 2.415 2.526 2.455.099.052.228.074.44.074.258.001.327-.015.492-.112.476-.28.647-.9.373-1.359-.055-.092-5.1-5.166-11.212-11.275C1.73.316 1.536.125 1.323.063 1.066-.012.919-.013.695.057M11.64 1.069c-.099.035-.889.33-1.756.655-1.744.654-1.79.679-1.966 1.09-.205.475.05 1.084.538 1.287.349.146.455.121 2.058-.479l1.481-.554 3.504 1.314 3.505 1.314-.015 3.502c-.017 3.773-.006 3.575-.232 4.421-.102.379-.085.582.072.87.298.549 1.009.674 1.504.266.082-.067.183-.188.224-.269.096-.189.229-.667.334-1.201.08-.41.084-.562.098-4.42.016-4.503.032-4.246-.285-4.563-.158-.158-.341-.231-4.349-1.734C11.884.892 12.021.936 11.64 1.069m4.171 16.969a19.088 19.088 0 0 1-2.531 2.028c-.592.395-1.218.774-1.278.774-.133 0-1.648-.993-2.395-1.571-2.537-1.96-4.033-4.003-4.497-6.143-.08-.37-.084-.519-.098-3.546l-.015-3.16 5.612 5.613 5.611 5.612-.409.393" fill-rule="evenodd" fill="#000" stroke="none"/></svg>