<svg xmlns="http://www.w3.org/2000/svg" width="24" height="24" fill="none" stroke="currentColor" stroke-width="2" stroke-linecap="round" stroke-linejoin="round"><path d="M.695.056C.465.129.256.299.128.516.037.672.02.746.02 1c0 .256.016.328.111.489.061.103.173.236.25.294.274.21.312.213 2.119.215L4.18 2l1.286 6.43c.919 4.593 1.318 6.508 1.395 6.701a3.034 3.034 0 0 0 2.299 1.827c.219.034 1.724.043 5.58.034l5.28-.012.324-.113c.574-.201.997-.49 1.396-.954.257-.299.394-.54.52-.913.057-.167.466-2.214.925-4.62.645-3.386.818-4.362.8-4.514a1.036 1.036 0 0 0-.359-.644c-.31-.237.269-.222-8.641-.222H6.819l-.436-2.186C5.893.363 5.901.386 5.503.141L5.306.02 3.083.012C1.344.006.824.015.695.056M21.776 7.07c-.009.039-.322 1.674-.695 3.634-.373 1.961-.697 3.613-.72 3.673-.07.184-.245.382-.437.495l-.184.108H9.34l-.184-.108a1.08 1.08 0 0 1-.439-.499c-.043-.11-1.477-7.222-1.477-7.322C7.24 7.01 8.674 7 14.516 7c6.91 0 7.276.004 7.26.07M8.477 19.073c-.671.176-1.239.75-1.417 1.435a2.07 2.07 0 0 0 .165 1.422c.136.269.576.709.845.845a2.047 2.047 0 0 0 1.86 0c.266-.135.708-.575.841-.838a2.05 2.05 0 0 0 .169-1.408 1.806 1.806 0 0 0-.475-.876A1.972 1.972 0 0 0 9 19.005c-.143 0-.378.031-.523.068m11 0c-.671.176-1.239.75-1.417 1.435a2.07 2.07 0 0 0 .165 1.422c.136.269.576.709.845.845a2.047 2.047 0 0 0 1.86 0c.266-.135.708-.575.841-.838a2.05 2.05 0 0 0 .169-1.408 1.806 1.806 0 0 0-.475-.876A1.972 1.972 0 0 0 20 19.005c-.143 0-.378.031-.523.068" fill-rule="evenodd" fill="#000" stroke="none"/></svg>