<svg xmlns="http://www.w3.org/2000/svg" width="24" height="24" fill="none" stroke="currentColor" stroke-width="2" stroke-linecap="round" stroke-linejoin="round"><path d="M5.731 1.045c-.325.093-.393.172-1.986 2.289C2.884 4.479 2.14 5.497 2.09 5.598L2 5.78l.01 7.4.01 7.4.094.28c.332.991 1.07 1.722 2.046 2.026l.3.094h15.08l.3-.094c.976-.304 1.714-1.035 2.046-2.026l.094-.28.01-7.4.01-7.4-.09-.182c-.151-.307-3.204-4.327-3.36-4.424a1.33 1.33 0 0 0-.294-.13c-.2-.056-12.333-.055-12.525.001M18.25 4 19 5H5l.75-1 .749-1h11.002l.749 1M20 13.554c0 5.437-.009 6.584-.055 6.736a1.02 1.02 0 0 1-.461.582l-.184.108H4.7l-.184-.108a1.199 1.199 0 0 1-.291-.249c-.239-.313-.225.12-.225-7.048V7h16v6.554M7.695 9.057a1.04 1.04 0 0 0-.567.459c-.101.172-.108.215-.107.644.004 1.745 1.078 3.45 2.692 4.273.793.405 1.388.547 2.287.547.898 0 1.494-.142 2.286-.547 1.61-.821 2.689-2.533 2.693-4.273.001-.43-.006-.472-.108-.646-.389-.661-1.351-.667-1.735-.01-.084.143-.11.258-.141.617-.083.96-.405 1.602-1.103 2.2a3.02 3.02 0 0 1-1.052.565c-.434.135-1.246.135-1.68 0a3.02 3.02 0 0 1-1.052-.565c-.698-.598-1.02-1.24-1.103-2.2-.03-.357-.057-.475-.139-.615a1.005 1.005 0 0 0-1.171-.449" fill-rule="evenodd" fill="#000" stroke="none"/></svg>