<svg width="24" height="24" viewBox="0 0 24 24" fill="none" xmlns="http://www.w3.org/2000/svg">
<g clip-path="url(#clip0_3_8703)">
<path d="M9.50589 0.0137193C5.59953 -0.206547 1.9907 2.1305 0.593777 5.7852C0.19826 6.82006 0.00452889 7.89555 2.73616e-05 8.95903C-0.00334668 9.72157 0.0898929 10.4779 0.275418 11.211C0.307601 11.3383 0.364555 11.4581 0.443025 11.5634C0.521496 11.6688 0.619948 11.7576 0.732759 11.8249C0.845569 11.8922 0.97053 11.9366 1.10051 11.9556C1.23048 11.9746 1.36292 11.9678 1.49028 11.9356C1.61763 11.9035 1.73739 11.8465 1.84273 11.768C1.94806 11.6895 2.03691 11.5911 2.1042 11.4783C2.17148 11.3655 2.21589 11.2405 2.23488 11.1105C2.25387 10.9805 2.24707 10.8481 2.21487 10.7208C2.0704 10.1499 1.9974 9.56226 2.00003 8.9688C2.00353 8.14228 2.15444 7.30719 2.46292 6.50005C3.55199 3.65076 6.34892 1.84003 9.39456 2.01177C12.4393 2.1835 15.0142 4.29632 15.7774 7.25005C15.8328 7.46478 15.9581 7.65498 16.1335 7.79075C16.3088 7.92652 16.5243 8.00014 16.7461 8.00005H18.0059C19.9028 8.00336 21.5286 9.32486 21.916 11.1817C22.3045 13.0405 21.3447 14.9025 19.6055 15.6641C19.4815 15.7142 19.3688 15.7886 19.2741 15.883C19.1793 15.9773 19.1045 16.0898 19.054 16.2136C19.0035 16.3374 18.9783 16.4701 18.9799 16.6038C18.9816 16.7375 19.01 16.8695 19.0636 16.992C19.1171 17.1145 19.1947 17.2251 19.2917 17.3171C19.3887 17.4091 19.5032 17.4808 19.6284 17.5278C19.7536 17.5748 19.8869 17.5962 20.0205 17.5907C20.1542 17.5853 20.2853 17.5531 20.4063 17.4961C23.0011 16.3598 24.4526 13.5467 23.8731 10.7735C23.2946 8.00095 20.84 6.00364 18.0078 6.00005H18.0058H17.3867C16.1747 2.63092 13.1316 0.218222 9.50589 0.0137193Z" fill="black"/>
<path d="M10.6074 10C10.3476 10.0041 10.0997 10.1092 9.91601 10.293L7.44335 12.7695C6.15896 14.0542 5.77329 15.9936 6.46874 17.6719C7.16348 19.3516 8.80935 20.4512 10.6269 20.4512C12.4438 20.4512 14.0885 19.3516 14.7832 17.6719C15.479 15.9927 15.0914 14.0543 13.8066 12.7695L11.3301 10.293C11.2354 10.1982 11.1226 10.1235 10.9985 10.0731C10.8743 10.0228 10.7414 9.99794 10.6074 10ZM10.623 12.4141L12.3926 14.1836C13.1098 14.9009 13.3237 15.9694 12.9355 16.9062C12.9355 16.9069 12.9355 16.9076 12.9355 16.9082C12.5483 17.8446 11.6401 18.4512 10.627 18.4512C9.61255 18.4512 8.70367 17.8446 8.3164 16.9082C8.31641 16.9076 8.31641 16.9069 8.3164 16.9062C7.9282 15.9694 8.14132 14.9009 8.85937 14.1836C8.85937 14.1829 8.85937 14.1823 8.85937 14.1816L10.623 12.4141Z" fill="black"/>
</g>
<defs>
<clipPath id="clip0_3_8703">
<rect width="24" height="24" fill="white"/>
</clipPath>
</defs>
</svg>
