<svg xmlns="http://www.w3.org/2000/svg" width="24" height="24" fill="none" stroke="currentColor" stroke-width="2" stroke-linecap="round" stroke-linejoin="round"><path d="M15.695 2.057a1.04 1.04 0 0 0-.567.459c-.091.156-.108.23-.108.484 0 .256.016.328.111.489.061.103.173.236.25.294.269.206.335.213 1.819.215L18.58 4l-7.706 7.71c-4.239 4.24-7.739 7.773-7.779 7.85-.052.099-.074.228-.074.44-.001.258.015.327.112.492.13.222.369.409.603.473.202.054.53.024.709-.066.074-.037 3.604-3.534 7.843-7.771l7.708-7.704.012 1.441.012 1.441.121.197a.998.998 0 0 0 1.718 0l.121-.197.011-2.743c.011-2.474.005-2.76-.055-2.917a1.007 1.007 0 0 0-.516-.552l-.2-.093-2.68.002c-2.074.002-2.717.014-2.845.054M3.67 3.061c-.222.081-.42.248-.542.455-.091.156-.108.23-.108.484s.016.328.107.48c.135.226 5.241 5.325 5.433 5.425.099.052.228.074.44.074.258.001.327-.015.492-.112.476-.28.646-.899.374-1.359-.055-.092-1.276-1.34-2.713-2.773-2.37-2.363-2.631-2.611-2.81-2.67a1.015 1.015 0 0 0-.673-.004m11 11c-.222.081-.42.248-.542.455-.092.156-.108.229-.107.484 0 .212.022.341.074.44.04.077 1.066 1.135 2.279 2.35L18.579 20h-1.343c-1.461 0-1.583.015-1.854.221-.08.061-.195.194-.254.295-.091.156-.108.23-.108.484 0 .256.016.328.111.489.125.213.318.375.539.454.12.043.698.054 2.85.055l2.7.001.2-.093c.237-.11.425-.311.516-.552.06-.157.066-.443.055-2.914l-.011-2.74-.109-.186a1.01 1.01 0 0 0-1.742 0l-.109.186-.012 1.437-.012 1.437-2.228-2.222c-2.013-2.006-2.247-2.228-2.425-2.287a1.015 1.015 0 0 0-.673-.004" fill="#000" fill-rule="evenodd" stroke="none"/></svg>