<svg xmlns="http://www.w3.org/2000/svg" width="24" height="24" fill="none" stroke="currentColor" stroke-width="2" stroke-linecap="round" stroke-linejoin="round"><path d="M4.695 3.055a1.05 1.05 0 0 0-.567.461L4.02 3.7l-.01 8.214c-.007 5.419.003 8.266.03 8.364.059.22.251.461.468.589.165.097.235.113.492.113.234 0 .332-.019.444-.085.08-.047 2.44-1.922 5.245-4.166 5.723-4.579 5.292-4.192 5.29-4.749 0-.223-.02-.316-.1-.457-.082-.146-.99-.89-5.199-4.259-2.805-2.245-5.17-4.117-5.256-4.16a1.085 1.085 0 0 0-.729-.049m14 1.002a1.04 1.04 0 0 0-.567.459l-.108.184v14.606l.121.197a.998.998 0 0 0 1.718 0l.121-.197V4.7l-.108-.184a1.005 1.005 0 0 0-1.177-.459M13.36 12c0 .018-1.656 1.357-3.68 2.976L6 17.92V6.08l3.68 2.944c2.024 1.619 3.68 2.958 3.68 2.976" fill="#000" fill-rule="evenodd" stroke="none"/></svg>