<svg width="24" height="24" viewBox="0 0 24 24" fill="none" xmlns="http://www.w3.org/2000/svg">
<path fill-rule="evenodd" clip-rule="evenodd" d="M16 7.66669C16.5523 7.66669 17 8.1144 17 8.66669V15.3334C17 15.8856 16.5523 16.3334 16 16.3334C15.4477 16.3334 15 15.8856 15 15.3334V8.66669C15 8.1144 15.4477 7.66669 16 7.66669Z" fill="black"/>
<path fill-rule="evenodd" clip-rule="evenodd" d="M7.58213 7.0915C7.22733 7.25469 6.99999 7.60948 6.99999 8.00001V16C6.99999 16.3905 7.22733 16.7453 7.58213 16.9085C7.93693 17.0717 8.35427 17.0134 8.65078 16.7593L13.3174 12.7593C13.5391 12.5693 13.6667 12.2919 13.6667 12C13.6667 11.7081 13.5391 11.4307 13.3174 11.2408L8.65078 7.24076C8.35427 6.9866 7.93693 6.92832 7.58213 7.0915ZM11.1301 12L8.99999 13.8258V10.1742L11.1301 12Z" fill="black"/>
</svg>
