<svg xmlns="http://www.w3.org/2000/svg" width="24" height="24" fill="none" stroke="currentColor" stroke-width="2" stroke-linecap="round" stroke-linejoin="round"><path d="M7.96 1.062a2.885 2.885 0 0 0-1.128.577c-.3.268-.593.713-.714 1.083-.14.427-.141 1.127-.002 1.551.24.733.876 1.37 1.606 1.609.288.095.338.098 1.438.098h1.14l.192-.113a1.07 1.07 0 0 0 .471-.6c.028-.103.038-.54.029-1.224-.015-1.039-.018-1.07-.124-1.363A2.535 2.535 0 0 0 7.96 1.062m6 0a2.885 2.885 0 0 0-1.128.577c-.3.268-.593.713-.714 1.083l-.098.298v5.96l.096.293c.24.733.876 1.37 1.606 1.609.254.084.372.098.798.096.439-.002.536-.016.8-.111a2.596 2.596 0 0 0 1.549-1.547l.111-.3V2.98l-.111-.3a2.537 2.537 0 0 0-2.909-1.618m-5.236 2c.201.104.276.274.276.628V4l-.31-.001c-.356 0-.471-.046-.599-.235-.159-.237-.09-.533.161-.686a.453.453 0 0 1 .472-.016m6 0c.066.034.155.12.198.19.075.124.078.22.078 2.752v2.624l-.091.136c-.215.318-.603.318-.818 0L14 8.628V6.012c0-2.887-.01-2.774.252-2.934a.453.453 0 0 1 .472-.016m5.236 3a2.885 2.885 0 0 0-1.128.577c-.3.268-.593.713-.714 1.083-.095.288-.098.338-.098 1.438v1.14l.113.192c.13.221.369.409.6.471.103.028.54.038 1.224.029 1.039-.015 1.07-.018 1.363-.124a2.591 2.591 0 0 0 1.547-1.548c.098-.269.109-.354.109-.82 0-.465-.011-.552-.108-.82a2.535 2.535 0 0 0-2.908-1.618m-17 1a2.885 2.885 0 0 0-1.128.577c-.3.268-.593.713-.714 1.083-.14.427-.141 1.127-.002 1.551.24.733.876 1.37 1.606 1.609l.298.098h6l.3-.111a2.593 2.593 0 0 0 1.547-1.549c.098-.269.109-.354.109-.82 0-.465-.011-.552-.108-.82A2.53 2.53 0 0 0 9.62 7.277c-.559-.277-.549-.276-3.64-.273-2.204.002-2.812.014-3.02.058m17.764 1c.15.077.276.279.276.442 0 .148-.143.375-.281.445-.055.027-.238.05-.409.05L20 9v-.302c0-.35.063-.504.252-.62a.453.453 0 0 1 .472-.016M8.748 9.078A.537.537 0 0 1 9 9.512c0 .141-.146.369-.281.437-.144.072-5.294.072-5.438 0C3.146 9.881 3 9.653 3 9.512c0-.165.103-.343.252-.434C3.376 9.003 3.472 9 6 9s2.624.003 2.748.078m6.212 2.984a2.885 2.885 0 0 0-1.128.577c-.3.268-.593.713-.714 1.083-.14.427-.141 1.127-.002 1.551.24.733.876 1.37 1.606 1.609l.298.098h6l.3-.111a2.593 2.593 0 0 0 1.547-1.549c.098-.269.109-.354.109-.82 0-.465-.011-.552-.108-.82a2.53 2.53 0 0 0-1.248-1.403c-.559-.277-.549-.276-3.64-.273-2.204.002-2.812.014-3.02.058m-12 1a2.885 2.885 0 0 0-1.128.577c-.3.268-.593.713-.714 1.083-.14.427-.141 1.127-.002 1.551.24.733.876 1.37 1.606 1.609.254.084.372.098.798.096.439-.002.536-.016.8-.111a2.596 2.596 0 0 0 1.549-1.547l.111-.3V13.7l-.108-.184a1.02 1.02 0 0 0-.582-.461c-.254-.077-1.965-.071-2.33.007m6 0a2.885 2.885 0 0 0-1.128.577c-.3.268-.593.713-.714 1.083l-.098.298v5.96l.096.293c.24.733.876 1.37 1.606 1.609.254.084.372.098.798.096.439-.002.536-.016.8-.111a2.596 2.596 0 0 0 1.549-1.547l.111-.3v-6.04l-.111-.3a2.537 2.537 0 0 0-2.909-1.618m11.788 1.016a.537.537 0 0 1 .252.434c0 .141-.146.369-.281.437-.144.072-5.294.072-5.438 0-.135-.068-.281-.296-.281-.437 0-.165.103-.343.252-.434.124-.075.22-.078 2.748-.078s2.624.003 2.748.078M4 15.314c0 .261-.015.337-.091.45-.215.318-.603.318-.818 0a.448.448 0 0 1-.029-.488c.104-.201.274-.276.628-.276H4v.314m5.724-.252c.066.034.155.12.198.19.075.124.078.22.078 2.752v2.624l-.091.136c-.107.158-.241.235-.409.235-.168 0-.302-.077-.409-.235L9 20.628v-2.616c0-2.887-.01-2.774.252-2.934a.453.453 0 0 1 .472-.016m3.971 2.995a1.04 1.04 0 0 0-.567.459l-.108.184v1.14c0 1.1.003 1.15.098 1.438.239.73.876 1.366 1.609 1.606.248.081.369.096.793.094.439-.002.536-.016.8-.111a2.585 2.585 0 0 0 1.547-1.547c.098-.269.109-.354.109-.82 0-.465-.011-.552-.108-.82a2.775 2.775 0 0 0-.703-1.044 2.845 2.845 0 0 0-1.145-.576c-.37-.078-2.08-.08-2.325-.003m2.053 2.021a.537.537 0 0 1 .252.434c0 .141-.146.369-.281.437-.224.113-.477.038-.628-.185-.076-.113-.091-.189-.091-.45V20h.31c.237 0 .34.019.438.078" fill-rule="evenodd" fill="#000" stroke="none"/></svg>