<svg xmlns="http://www.w3.org/2000/svg" width="24" height="24" fill="none" stroke="currentColor" stroke-width="2" stroke-linecap="round" stroke-linejoin="round"><path d="M3.695 2.057a1.04 1.04 0 0 0-.567.459L3.02 2.7v7.606l.121.197c.068.11.205.253.311.325.471.316 1.102.171 1.407-.325l.121-.197V2.7l-.108-.184a1.005 1.005 0 0 0-1.177-.459m8 0a1.04 1.04 0 0 0-.567.459l-.108.184-.011 2.15L10.997 7H9.945c-1.148 0-1.302.022-1.563.221-.08.061-.195.194-.254.295-.091.156-.108.23-.108.484 0 .256.016.328.111.489.125.213.318.375.539.454.221.079 6.439.079 6.66 0 .221-.079.414-.241.539-.454.095-.161.111-.233.111-.489 0-.254-.017-.328-.108-.484a1.209 1.209 0 0 0-.254-.295C15.357 7.022 15.203 7 14.055 7h-1.052l-.012-2.15-.011-2.15-.108-.184a1.005 1.005 0 0 0-1.177-.459m8 0a1.04 1.04 0 0 0-.567.459l-.108.184v9.606l.121.197a.998.998 0 0 0 1.718 0l.121-.197V2.7l-.108-.184a1.005 1.005 0 0 0-1.177-.459m-8 9a1.04 1.04 0 0 0-.567.459l-.108.184v9.606l.121.197a.998.998 0 0 0 1.718 0l.121-.197V11.7l-.108-.184a1.005 1.005 0 0 0-1.177-.459m-11 2a1.04 1.04 0 0 0-.567.459c-.091.156-.108.23-.108.484 0 .256.016.328.111.489.061.103.173.236.25.294.261.2.357.213 1.528.215L2.998 15l.011 3.153.011 3.153.121.197c.068.11.205.253.311.325.471.316 1.102.171 1.407-.325l.121-.197.011-3.153L5.002 15l1.089-.002c1.171-.002 1.267-.015 1.528-.215.077-.058.189-.191.25-.294.095-.161.111-.233.111-.489 0-.254-.017-.328-.108-.484a1.02 1.02 0 0 0-.582-.461c-.26-.078-6.345-.076-6.595.002m16 2a1.04 1.04 0 0 0-.567.459c-.091.156-.108.23-.108.484 0 .256.016.328.111.489.061.103.173.236.25.294.261.2.357.213 1.528.215l1.088.002.012 2.153.011 2.153.121.197a.998.998 0 0 0 1.718 0l.121-.197.011-2.153.012-2.153 1.088-.002c1.171-.002 1.267-.015 1.528-.215.077-.058.189-.191.25-.294.095-.161.111-.233.111-.489 0-.254-.017-.328-.108-.484a1.02 1.02 0 0 0-.582-.461c-.26-.078-6.345-.076-6.595.002" fill="#000" fill-rule="evenodd" stroke="none"/></svg>