<svg xmlns="http://www.w3.org/2000/svg" width="24" height="24" fill="none" stroke="currentColor" stroke-width="2" stroke-linecap="round" stroke-linejoin="round"><path d="M6.499 1.043c-1.12.19-2.038 1.005-2.385 2.117l-.094.3v17.08l.094.3a3.086 3.086 0 0 0 2.046 2.046l.3.094h11.08l.3-.094a3.086 3.086 0 0 0 2.046-2.046l.094-.3V3.46l-.094-.3a3.089 3.089 0 0 0-2.025-2.039l-.321-.101-5.42-.006c-2.981-.003-5.511.01-5.621.029M17.31 3.061c.279.083.546.35.629.629.054.18.061 1.17.061 8.311 0 6.753-.009 8.137-.055 8.289a1.02 1.02 0 0 1-.461.582l-.184.108H6.7l-.184-.108a1.199 1.199 0 0 1-.291-.249c-.24-.315-.225.265-.225-8.601 0-9.134-.026-8.39.304-8.719.317-.318-.07-.297 5.679-.3 4.475-.003 5.148.005 5.327.058m-5.615 13.994a1.05 1.05 0 0 0-.567.461c-.091.156-.108.23-.108.484 0 .257.016.327.113.492.518.882 1.865.526 1.865-.492a.994.994 0 0 0-.535-.888 1.17 1.17 0 0 0-.768-.057" fill="#000" fill-rule="evenodd" stroke="none"/></svg>