<svg width="24" height="24" viewBox="0 0 24 24" fill="none" xmlns="http://www.w3.org/2000/svg">
<g clip-path="url(#clip0_3_8864)">
<path d="M9.50589 0.0137193C5.59953 -0.206547 1.9907 2.1305 0.593777 5.7852C0.19826 6.82006 0.00452889 7.89555 2.73616e-05 8.95903C-0.00334668 9.72157 0.0898929 10.4779 0.275418 11.211C0.307601 11.3383 0.364555 11.4581 0.443025 11.5634C0.521496 11.6688 0.619948 11.7576 0.732759 11.8249C0.845569 11.8922 0.97053 11.9366 1.10051 11.9556C1.23048 11.9746 1.36292 11.9678 1.49028 11.9356C1.61763 11.9035 1.73739 11.8465 1.84273 11.768C1.94806 11.6895 2.03691 11.5911 2.1042 11.4783C2.17148 11.3655 2.21589 11.2405 2.23488 11.1105C2.25387 10.9805 2.24707 10.8481 2.21487 10.7208C2.0704 10.1499 1.9974 9.56226 2.00003 8.9688C2.00353 8.14228 2.15444 7.30719 2.46292 6.50005C3.55199 3.65076 6.34892 1.84003 9.39456 2.01177C12.4393 2.1835 15.0142 4.29632 15.7774 7.25005C15.8328 7.46478 15.9581 7.65498 16.1335 7.79075C16.3088 7.92652 16.5243 8.00014 16.7461 8.00005H18.0059C19.9028 8.00336 21.5286 9.32486 21.916 11.1817C22.3045 13.0405 21.3447 14.9025 19.6055 15.6641C19.4815 15.7142 19.3688 15.7886 19.2741 15.883C19.1793 15.9773 19.1045 16.0898 19.054 16.2136C19.0035 16.3374 18.9783 16.4701 18.9799 16.6038C18.9816 16.7375 19.01 16.8695 19.0636 16.992C19.1171 17.1145 19.1947 17.2251 19.2917 17.3171C19.3887 17.4091 19.5032 17.4808 19.6284 17.5278C19.7536 17.5748 19.8869 17.5962 20.0205 17.5907C20.1542 17.5853 20.2853 17.5531 20.4063 17.4961C23.0011 16.3598 24.4526 13.5467 23.8731 10.7735C23.2946 8.00095 20.84 6.00364 18.0078 6.00005H18.0058H17.3867C16.1747 2.63092 13.1316 0.218222 9.50589 0.0137193Z" fill="black"/>
<path d="M14.7441 15.5664C14.4792 15.5705 14.2268 15.6796 14.0423 15.8697C13.8577 16.0597 13.7561 16.3152 13.7597 16.5801V22.3535C13.7579 22.486 13.7824 22.6176 13.8318 22.7406C13.8812 22.8635 13.9545 22.9754 14.0476 23.0698C14.1406 23.1642 14.2515 23.2391 14.3738 23.2903C14.496 23.3414 14.6272 23.3678 14.7597 23.3678C14.8923 23.3678 15.0235 23.3414 15.1457 23.2903C15.268 23.2391 15.3789 23.1642 15.4719 23.0698C15.5649 22.9754 15.6383 22.8635 15.6877 22.7406C15.7371 22.6176 15.7616 22.486 15.7597 22.3535V16.5801C15.7616 16.4463 15.7365 16.3135 15.6861 16.1896C15.6357 16.0656 15.5609 15.953 15.4662 15.8585C15.3715 15.764 15.2588 15.6894 15.1348 15.6393C15.0107 15.5891 14.8779 15.5643 14.7441 15.5664Z" fill="black"/>
<path d="M12.2852 17.0156C12.0605 17.0069 11.8395 17.0742 11.6578 17.2065C11.4761 17.3388 11.3442 17.5285 11.2835 17.7449C11.2228 17.9613 11.2368 18.1919 11.3232 18.3994C11.4096 18.6069 11.5634 18.7793 11.7598 18.8887L16.7598 21.7754C16.8736 21.8474 17.0008 21.8956 17.1337 21.9172C17.2667 21.9387 17.4026 21.9333 17.5333 21.901C17.6641 21.8688 17.787 21.8105 17.8947 21.7297C18.0024 21.6488 18.0926 21.547 18.16 21.4304C18.2274 21.3138 18.2705 21.1848 18.2868 21.0511C18.3031 20.9174 18.2923 20.7818 18.2549 20.6524C18.2175 20.5231 18.1544 20.4026 18.0693 20.2982C17.9842 20.1938 17.8789 20.1076 17.7598 20.0449L12.7598 17.1563C12.6158 17.0704 12.4526 17.022 12.2852 17.0156Z" fill="black"/>
<path d="M17.3047 17.0157C17.1133 17.0094 16.9242 17.0582 16.7597 17.1563L11.7597 20.045C11.6406 20.1077 11.5353 20.1938 11.4502 20.2982C11.3651 20.4026 11.302 20.5231 11.2646 20.6525C11.2273 20.7819 11.2164 20.9174 11.2327 21.0511C11.249 21.1848 11.2921 21.3138 11.3595 21.4304C11.4269 21.547 11.5171 21.6488 11.6248 21.7297C11.7325 21.8106 11.8554 21.8689 11.9862 21.9011C12.1169 21.9333 12.2528 21.9388 12.3858 21.9172C12.5187 21.8956 12.6459 21.8474 12.7597 21.7754L17.7597 18.8887C17.9507 18.7822 18.1016 18.616 18.1891 18.4156C18.2767 18.2152 18.2961 17.9916 18.2445 17.7791C18.1928 17.5666 18.073 17.3769 17.9032 17.239C17.7335 17.1011 17.5232 17.0227 17.3047 17.0157Z" fill="black"/>
<path d="M6.47654 9.98633C6.21167 9.99047 5.95925 10.0995 5.7747 10.2896C5.59015 10.4796 5.48854 10.7351 5.49217 11V16.7734C5.49029 16.9059 5.51477 17.0375 5.56419 17.1605C5.6136 17.2834 5.68696 17.3954 5.78001 17.4897C5.87305 17.5841 5.98392 17.659 6.10618 17.7102C6.22844 17.7613 6.35964 17.7877 6.49217 17.7877C6.62469 17.7877 6.75589 17.7613 6.87815 17.7102C7.00041 17.659 7.11128 17.5841 7.20433 17.4897C7.29737 17.3954 7.37073 17.2834 7.42014 17.1605C7.46956 17.0375 7.49404 16.9059 7.49217 16.7734V11C7.494 10.8662 7.46896 10.7334 7.41855 10.6095C7.36813 10.4855 7.29336 10.373 7.19866 10.2784C7.10395 10.1839 6.99125 10.1094 6.86721 10.0592C6.74317 10.009 6.61033 9.98424 6.47654 9.98633Z" fill="black"/>
<path d="M3.91794 11.4375C3.70235 11.451 3.49691 11.5339 3.33235 11.6738C3.16779 11.8137 3.05296 12.0032 3.00503 12.2138C2.9571 12.4244 2.97866 12.6449 3.06646 12.8422C3.15427 13.0396 3.30362 13.2032 3.49216 13.3086L8.49216 16.1953C8.606 16.2673 8.7332 16.3155 8.86613 16.3371C8.99906 16.3587 9.13498 16.3532 9.26574 16.321C9.3965 16.2888 9.5194 16.2305 9.62708 16.1496C9.73476 16.0687 9.825 15.9669 9.89238 15.8503C9.95976 15.7337 10.0029 15.6047 10.0192 15.471C10.0355 15.3373 10.0247 15.2018 9.98728 15.0724C9.94991 14.943 9.88679 14.8225 9.80171 14.7181C9.71663 14.6137 9.61134 14.5276 9.49216 14.4649L4.49216 11.5762C4.31908 11.4732 4.11894 11.4249 3.91794 11.4375Z" fill="black"/>
<path d="M9.03709 11.4356C8.84574 11.4293 8.65661 11.4781 8.49217 11.5762L3.49217 14.4649C3.37299 14.5276 3.2677 14.6137 3.18262 14.7181C3.09754 14.8225 3.03442 14.943 2.99705 15.0724C2.95968 15.2018 2.94882 15.3374 2.96512 15.4711C2.98143 15.6047 3.02457 15.7337 3.09195 15.8503C3.15933 15.9669 3.24957 16.0687 3.35725 16.1496C3.46493 16.2305 3.58784 16.2888 3.7186 16.321C3.84936 16.3532 3.98528 16.3587 4.1182 16.3371C4.25113 16.3155 4.37833 16.2673 4.49217 16.1954L9.49217 13.3086C9.68317 13.2021 9.83399 13.0359 9.92154 12.8355C10.0091 12.6351 10.0285 12.4116 9.9769 12.1991C9.92527 11.9866 9.8054 11.7968 9.63567 11.6589C9.46593 11.521 9.25567 11.4426 9.03709 11.4356Z" fill="black"/>
</g>
<defs>
<clipPath id="clip0_3_8864">
<rect width="24" height="24" fill="white"/>
</clipPath>
</defs>
</svg>
