<svg width="24" height="24" viewBox="0 0 24 24" fill="none" xmlns="http://www.w3.org/2000/svg">
<g clip-path="url(#clip0_7_12344)">
<path fill-rule="evenodd" clip-rule="evenodd" d="M12 0C12.5523 0 13 0.447715 13 1V3.58579L14.2929 2.29289C14.6834 1.90237 15.3166 1.90237 15.7071 2.29289C16.0976 2.68342 16.0976 3.31658 15.7071 3.70711L13 6.41421V10.2677L16.3403 8.33937L17.3321 4.64097C17.4752 4.10754 18.0236 3.79107 18.557 3.93413C19.0904 4.07719 19.4069 4.62559 19.2639 5.15903L18.7903 6.92498L21.03 5.63196C21.5083 5.35583 22.1199 5.51973 22.396 5.99803C22.6722 6.47633 22.5083 7.08792 22.03 7.36404L19.7905 8.65692L21.5567 9.13005C22.0902 9.27296 22.4068 9.82127 22.2639 10.3547C22.121 10.8882 21.5727 11.2048 21.0392 11.0619L17.3407 10.0712L14.0014 11.999L17.3407 13.9268L21.0392 12.9361C21.5727 12.7932 22.121 13.1098 22.2639 13.6433C22.4068 14.1767 22.0902 14.725 21.5567 14.8679L19.7905 15.3411L22.03 16.634C22.5083 16.9101 22.6722 17.5217 22.396 18C22.1199 18.4783 21.5083 18.6422 21.03 18.366L18.7903 17.073L19.2639 18.839C19.4069 19.3724 19.0904 19.9208 18.557 20.0639C18.0236 20.2069 17.4752 19.8905 17.3321 19.357L16.3403 15.6586L13.002 13.7314V17.5868L15.7091 20.2939C16.0996 20.6844 16.0996 21.3176 15.7091 21.7081C15.3186 22.0986 14.6854 22.0986 14.2949 21.7081L13.002 20.4152V23.001C13.002 23.5533 12.5543 24.001 12.002 24.001C11.4497 24.001 11.002 23.5533 11.002 23.001V20.4152L9.70909 21.7081C9.31857 22.0986 8.6854 22.0986 8.29488 21.7081C7.90435 21.3176 7.90435 20.6844 8.29488 20.2939L11.002 17.5868V13.7309L7.66271 15.6589L6.67191 19.3568C6.52898 19.8903 5.98064 20.2069 5.44718 20.0639C4.91371 19.921 4.59712 19.3727 4.74005 18.8392L5.21324 17.0732L2.97399 18.366C2.4957 18.6422 1.88411 18.4783 1.60796 18C1.33182 17.5217 1.49568 16.9101 1.97397 16.634L4.21322 15.3411L2.44718 14.8679C1.91371 14.725 1.59712 14.1767 1.74005 13.6432C1.88299 13.1097 2.43132 12.7931 2.96479 12.9361L6.66269 13.9269L10.0018 11.999L6.66269 10.0711L2.96479 11.0619C2.43132 11.2049 1.88299 10.8883 1.74005 10.3548C1.59712 9.82134 1.91371 9.27301 2.44718 9.13007L4.21322 8.65689L1.97397 7.36402C1.49568 7.08787 1.33182 6.47628 1.60796 5.99799C1.88411 5.5197 2.4957 5.35583 2.97399 5.63198L5.21324 6.92485L4.74005 5.15881C4.59712 4.62534 4.91371 4.07701 5.44718 3.93407C5.98064 3.79114 6.52898 4.10773 6.67191 4.64119L7.66271 8.33909L11 10.2659V6.41421L8.29288 3.70711C7.90235 3.31658 7.90235 2.68342 8.29288 2.29289C8.6834 1.90237 9.31657 1.90237 9.70709 2.29289L11 3.58579V1C11 0.447715 11.4477 0 12 0Z" fill="black"/>
</g>
<defs>
<clipPath id="clip0_7_12344">
<rect width="24" height="24" fill="white"/>
</clipPath>
</defs>
</svg>
