<svg xmlns="http://www.w3.org/2000/svg" width="24" height="24" fill="none" stroke="currentColor" stroke-width="2" stroke-linecap="round" stroke-linejoin="round"><path d="M11.643 1.066c-.373.137-.391.169-1.938 3.315a259.333 259.333 0 0 1-1.46 2.946c-.014.015-1.465.236-3.225.491-1.76.256-3.278.493-3.374.528-.655.239-.851 1.072-.375 1.598.082.091 1.162 1.15 2.399 2.355a333.497 333.497 0 0 1 2.25 2.2l-.544 3.165c-.299 1.736-.544 3.247-.545 3.357a.98.98 0 0 0 .975.99c.289.002.215.039 3.526-1.705 1.447-.762 2.648-1.386 2.668-1.386.021 0 1.222.624 2.669 1.386 3.271 1.723 3.234 1.705 3.51 1.705a.99.99 0 0 0 .988-.991c-.001-.11-.246-1.62-.545-3.356-.298-1.735-.542-3.16-.542-3.166 0-.006 1.04-1.024 2.31-2.263 1.271-1.238 2.357-2.315 2.414-2.393.354-.483.199-1.173-.324-1.441-.198-.101-.244-.109-3.64-.602-1.683-.245-3.072-.457-3.086-.472A259.96 259.96 0 0 1 14.302 4.4c-.785-1.595-1.477-2.963-1.539-3.04-.237-.297-.747-.43-1.12-.294m1.474 5.464c.599 1.215 1.135 2.269 1.19 2.342.132.174.348.305.593.361.11.025 1.262.2 2.559.389 1.298.189 2.363.347 2.368.352.005.005-.809.806-1.81 1.781-1.149 1.119-1.849 1.831-1.9 1.931-.156.307-.148.39.299 2.991.233 1.352.415 2.465.406 2.475-.01.009-1.014-.507-2.233-1.148-1.437-.755-2.281-1.176-2.402-1.199a1.173 1.173 0 0 0-.374 0c-.121.023-.966.445-2.402 1.199-1.219.64-2.224 1.156-2.234 1.146-.01-.009.173-1.123.406-2.474.449-2.601.457-2.683.3-2.99-.051-.1-.751-.812-1.9-1.931a136.408 136.408 0 0 1-1.811-1.781c.005-.005 1.071-.163 2.369-.352 1.297-.189 2.449-.364 2.559-.389a1.03 1.03 0 0 0 .593-.361c.055-.073.59-1.127 1.19-2.342S11.985 4.32 12 4.32c.015 0 .517.995 1.117 2.21" fill="#000" fill-rule="evenodd" stroke="none"/></svg>