<svg xmlns="http://www.w3.org/2000/svg" width="24" height="24" fill="none" stroke="currentColor" stroke-width="2" stroke-linecap="round" stroke-linejoin="round"><path d="M1.695 1.057a1.04 1.04 0 0 0-.567.459L1.02 1.7l-.011 5.218c-.009 4.732-.004 5.237.055 5.42.061.188.36.497 4.311 4.456 2.335 2.34 4.407 4.398 4.605 4.573.657.581 1.331.823 2.176.782.693-.034 1.184-.216 1.697-.629.471-.38 7.671-7.625 7.848-7.898.34-.526.482-1.091.449-1.799-.03-.676-.209-1.15-.634-1.683-.105-.132-2.158-2.204-4.563-4.604-2.969-2.963-4.424-4.388-4.533-4.44-.154-.073-.341-.076-5.36-.084-4.173-.006-5.233.003-5.365.045M15.788 7.21c3.28 3.28 4.227 4.25 4.29 4.39.105.236.105.564 0 .8-.122.271-7.373 7.527-7.658 7.664a1.002 1.002 0 0 1-.82.013c-.14-.063-1.113-1.013-4.39-4.288L3 11.581V3h8.58l4.208 4.21M6.695 6.055a1.05 1.05 0 0 0-.567.461c-.091.156-.108.23-.108.484 0 .257.016.327.113.492.518.882 1.865.526 1.865-.492a.994.994 0 0 0-.535-.888 1.17 1.17 0 0 0-.768-.057" fill-rule="evenodd" fill="#000" stroke="none"/></svg>