<svg xmlns="http://www.w3.org/2000/svg" width="24" height="24" fill="none" stroke="currentColor" stroke-width="2" stroke-linecap="round" stroke-linejoin="round"><path d="M10.873.06a3.536 3.536 0 0 0-1.915 1.045c-.396.419-.64.844-.828 1.443l-.11.352-.011 5.666-.011 5.666-.409.414c-.756.765-1.21 1.604-1.479 2.732-.072.304-.086.484-.087 1.122 0 .664.012.808.094 1.14.286 1.161.72 1.959 1.482 2.723.798.8 1.711 1.296 2.841 1.542.26.057.509.074 1.06.074.782 0 1.086-.046 1.746-.261 1-.326 2.059-1.1 2.705-1.976.423-.575.784-1.414.957-2.222.101-.477.101-1.565-.001-2.04-.166-.774-.516-1.599-.927-2.182a6.647 6.647 0 0 0-.588-.669L15 14.238V8.729c0-3.552-.015-5.598-.041-5.76A3.543 3.543 0 0 0 12.378.118C11.959.009 11.28-.017 10.873.06m1.246 2.083c.296.135.608.449.748.753l.113.244.02 5.94c.018 5.433.026 5.952.087 6.08.09.19.204.311.534.569.931.728 1.434 1.816 1.365 2.951-.08 1.33-.834 2.441-2.032 2.996-.525.244-.807.302-1.454.302-.647 0-.929-.058-1.454-.302-1.198-.555-1.951-1.664-2.033-2.996-.071-1.153.483-2.314 1.439-3.016.26-.191.391-.337.479-.533.038-.086.054-1.471.069-6.051l.02-5.94.112-.24c.197-.423.618-.771 1.042-.861.267-.057.696-.009.945.104" fill-rule="evenodd" fill="#000" stroke="none"/></svg>