<svg width="24" height="24" viewBox="0 0 24 24" fill="none" xmlns="http://www.w3.org/2000/svg">
<path fill-rule="evenodd" clip-rule="evenodd" d="M12 3C7.02944 3 3 7.02944 3 12C3 16.9706 7.02944 21 12 21C16.9706 21 21 16.9706 21 12C21 7.02944 16.9706 3 12 3ZM1 12C1 5.92487 5.92487 1 12 1C18.0751 1 23 5.92487 23 12C23 18.0751 18.0751 23 12 23C5.92487 23 1 18.0751 1 12Z" fill="black"/>
<path fill-rule="evenodd" clip-rule="evenodd" d="M11.303 10.8992C11.3684 10.3508 11.866 9.95926 12.4144 10.0246C12.9813 10.0922 13.5231 10.2975 13.9925 10.6225C14.4618 10.9475 14.8446 11.3825 15.1073 11.8893C15.3701 12.3962 15.5048 12.9597 15.4998 13.5306C15.4949 14.1015 15.3503 14.6625 15.0787 15.1647C14.8072 15.6669 14.4169 16.0951 13.9419 16.4119C13.4669 16.7286 12.9217 16.9244 12.3537 16.9821C11.7857 17.0398 11.2122 16.9577 10.6832 16.7429C10.1542 16.5281 9.6858 16.1871 9.31882 15.7498C8.96382 15.3267 9.019 14.696 9.44207 14.341C9.86515 13.986 10.4959 14.0411 10.8509 14.4642C11.0082 14.6516 11.2089 14.7978 11.4356 14.8898C11.6623 14.9819 11.9081 15.0171 12.1516 14.9924C12.395 14.9676 12.6287 14.8837 12.8322 14.748C13.0358 14.6122 13.2031 14.4287 13.3194 14.2135C13.4358 13.9982 13.4978 13.7578 13.4999 13.5131C13.5021 13.2684 13.4443 13.027 13.3317 12.8097C13.2191 12.5925 13.0551 12.4061 12.8539 12.2668C12.6527 12.1275 12.4205 12.0396 12.1776 12.0106C11.6292 11.9452 11.2376 11.4476 11.303 10.8992Z" fill="black"/>
<path fill-rule="evenodd" clip-rule="evenodd" d="M9 8C9 7.44772 9.44772 7 10 7H14.5C14.8801 7 15.2274 7.21553 15.3961 7.55618C15.5648 7.89682 15.5258 8.30367 15.2954 8.60604L13.0097 11.606C12.675 12.0453 12.0475 12.1301 11.6082 11.7954C11.1689 11.4607 11.0841 10.8333 11.4189 10.394L12.4809 9H10C9.44772 9 9 8.55228 9 8Z" fill="black"/>
</svg>
