<svg xmlns="http://www.w3.org/2000/svg" width="24" height="24" fill="none" stroke="currentColor" stroke-width="2" stroke-linecap="round" stroke-linejoin="round"><path d="M15.105 1.062c-1.15.157-2.077.501-2.985 1.11A6.965 6.965 0 0 0 9.268 6.08c-.206.734-.248 1.072-.245 1.98.002.88.052 1.251.256 1.907l.079.253-3.352 3.36C3.813 15.778 2.6 17.022 2.5 17.177a3.03 3.03 0 0 0-.487 1.861c.012.232.052.53.088.662.278 1.024 1.175 1.921 2.199 2.199.132.036.43.076.662.088a3.03 3.03 0 0 0 1.861-.487c.155-.1 1.399-1.313 3.597-3.506l3.36-3.352.253.079c.66.205 1.027.255 1.907.257.916.002 1.29-.045 2.02-.257 1.171-.34 2.095-.891 2.983-1.778 1.305-1.306 1.98-2.864 2.046-4.725a6.532 6.532 0 0 0-.469-2.754c-.193-.494-.36-.712-.64-.837-.229-.103-.605-.105-.823-.006-.105.048-.805.718-2.107 2.015l-1.951 1.943-.789-.789-.789-.789 1.966-1.971c1.889-1.893 1.968-1.978 2.029-2.187.083-.284.081-.396-.016-.653-.145-.389-.457-.598-1.288-.864a6.949 6.949 0 0 0-3.007-.264m1.355 1.963c.05.02-.269.363-1.329 1.43-1.303 1.312-1.404 1.424-1.522 1.686a1.985 1.985 0 0 0 .017 1.747c.127.267.228.381 1.166 1.316.937.934 1.055 1.038 1.328 1.17.584.284 1.175.284 1.767 0 .27-.13.396-.243 1.681-1.524 1.108-1.104 1.395-1.369 1.416-1.313.049.126-.019 1.152-.099 1.523-.215.985-.628 1.733-1.36 2.465-.976.976-2.174 1.475-3.542 1.475-.666 0-1.186-.106-1.923-.39-.309-.12-.394-.136-.602-.12a1.288 1.288 0 0 0-.38.089c-.076.038-1.767 1.694-3.758 3.68-3.308 3.3-3.637 3.617-3.817 3.676a1.131 1.131 0 0 1-1.383-.56c-.129-.251-.14-.708-.023-.955.051-.109 1.224-1.311 3.667-3.76 2.779-2.785 3.611-3.641 3.673-3.78.13-.288.109-.525-.093-1.067-.262-.705-.322-1.037-.322-1.793-.001-.471.019-.735.074-1a4.838 4.838 0 0 1 1.288-2.46c.822-.852 1.676-1.301 2.856-1.501.32-.054 1.109-.076 1.22-.034" fill-rule="evenodd" fill="#000" stroke="none"/></svg>