<svg width="24" height="24" viewBox="0 0 24 24" fill="none" xmlns="http://www.w3.org/2000/svg">
<path d="M1.99999 0.999978C1.86748 0.998104 1.73592 1.02259 1.61295 1.072C1.48998 1.12141 1.37806 1.19477 1.28369 1.28782C1.18932 1.38086 1.11438 1.49173 1.06324 1.61399C1.01209 1.73625 0.985748 1.86745 0.985748 1.99998C0.985748 2.1325 1.01209 2.26371 1.06324 2.38596C1.11438 2.50822 1.18932 2.61909 1.28369 2.71214C1.37806 2.80518 1.48998 2.87854 1.61295 2.92796C1.73592 2.97737 1.86748 3.00185 1.99999 2.99998H22C22.1325 3.00185 22.2641 2.97737 22.387 2.92796C22.51 2.87854 22.6219 2.80518 22.7163 2.71214C22.8107 2.61909 22.8856 2.50822 22.9367 2.38596C22.9879 2.26371 23.0142 2.1325 23.0142 1.99998C23.0142 1.86745 22.9879 1.73625 22.9367 1.61399C22.8856 1.49173 22.8107 1.38086 22.7163 1.28782C22.6219 1.19477 22.51 1.12141 22.387 1.072C22.2641 1.02259 22.1325 0.998104 22 0.999978H1.99999Z" fill="black"/>
<path d="M2.99999 4.99998C2.86748 4.9981 2.73592 5.02259 2.61295 5.072C2.48998 5.12141 2.37806 5.19477 2.28369 5.28782C2.18932 5.38086 2.11438 5.49173 2.06324 5.61399C2.01209 5.73625 1.98575 5.86745 1.98575 5.99998C1.98575 6.1325 2.01209 6.26371 2.06324 6.38596C2.11438 6.50822 2.18932 6.61909 2.28369 6.71214C2.37806 6.80518 2.48998 6.87854 2.61295 6.92796C2.73592 6.97737 2.86748 7.00185 2.99999 6.99998H18C18.1325 7.00185 18.2641 6.97737 18.387 6.92796C18.51 6.87854 18.6219 6.80518 18.7163 6.71214C18.8107 6.61909 18.8856 6.50822 18.9367 6.38596C18.9879 6.26371 19.0142 6.1325 19.0142 5.99998C19.0142 5.86745 18.9879 5.73625 18.9367 5.61399C18.8856 5.49173 18.8107 5.38086 18.7163 5.28782C18.6219 5.19477 18.51 5.12141 18.387 5.072C18.2641 5.02259 18.1325 4.9981 18 4.99998H2.99999Z" fill="black"/>
<path d="M5.99999 8.99998C5.86748 8.9981 5.73592 9.02258 5.61295 9.072C5.48998 9.12141 5.37806 9.19477 5.28369 9.28782C5.18932 9.38086 5.11438 9.49173 5.06324 9.61399C5.01209 9.73625 4.98575 9.86745 4.98575 9.99998C4.98575 10.1325 5.01209 10.2637 5.06324 10.386C5.11438 10.5082 5.18932 10.6191 5.28369 10.7121C5.37806 10.8052 5.48998 10.8785 5.61295 10.928C5.73592 10.9774 5.86748 11.0019 5.99999 11H16C16.1325 11.0019 16.2641 10.9774 16.387 10.928C16.51 10.8785 16.6219 10.8052 16.7163 10.7121C16.8107 10.6191 16.8856 10.5082 16.9367 10.386C16.9879 10.2637 17.0142 10.1325 17.0142 9.99998C17.0142 9.86745 16.9879 9.73625 16.9367 9.61399C16.8856 9.49173 16.8107 9.38086 16.7163 9.28782C16.6219 9.19477 16.51 9.12141 16.387 9.072C16.2641 9.02258 16.1325 8.9981 16 8.99998H5.99999Z" fill="black"/>
<path d="M9.99999 13C9.86748 12.9981 9.73592 13.0226 9.61295 13.072C9.48998 13.1214 9.37806 13.1948 9.28369 13.2878C9.18932 13.3809 9.11438 13.4917 9.06324 13.614C9.01209 13.7362 8.98575 13.8675 8.98575 14C8.98575 14.1325 9.01209 14.2637 9.06324 14.386C9.11438 14.5082 9.18932 14.6191 9.28369 14.7121C9.37806 14.8052 9.48998 14.8785 9.61295 14.928C9.73592 14.9774 9.86748 15.0019 9.99999 15H17C17.1325 15.0019 17.2641 14.9774 17.387 14.928C17.51 14.8785 17.6219 14.8052 17.7163 14.7121C17.8107 14.6191 17.8856 14.5082 17.9367 14.386C17.9879 14.2637 18.0142 14.1325 18.0142 14C18.0142 13.8675 17.9879 13.7362 17.9367 13.614C17.8856 13.4917 17.8107 13.3809 17.7163 13.2878C17.6219 13.1948 17.51 13.1214 17.387 13.072C17.2641 13.0226 17.1325 12.9981 17 13H9.99999Z" fill="black"/>
<path d="M13 17C12.8675 16.9981 12.7359 17.0226 12.6129 17.072C12.49 17.1214 12.3781 17.1948 12.2837 17.2878C12.1893 17.3809 12.1144 17.4917 12.0632 17.614C12.0121 17.7362 11.9857 17.8675 11.9857 18C11.9857 18.1325 12.0121 18.2637 12.0632 18.386C12.1144 18.5082 12.1893 18.6191 12.2837 18.7121C12.3781 18.8052 12.49 18.8785 12.6129 18.928C12.7359 18.9774 12.8675 19.0019 13 19H18C18.1325 19.0019 18.2641 18.9774 18.387 18.928C18.51 18.8785 18.6219 18.8052 18.7163 18.7121C18.8107 18.6191 18.8856 18.5082 18.9367 18.386C18.9879 18.2637 19.0142 18.1325 19.0142 18C19.0142 17.8675 18.9879 17.7362 18.9367 17.614C18.8856 17.4917 18.8107 17.3809 18.7163 17.2878C18.6219 17.1948 18.51 17.1214 18.387 17.072C18.2641 17.0226 18.1325 16.9981 18 17H13Z" fill="black"/>
<path d="M12 21C11.8675 20.9981 11.7359 21.0226 11.6129 21.072C11.49 21.1214 11.3781 21.1948 11.2837 21.2878C11.1893 21.3809 11.1144 21.4917 11.0632 21.614C11.0121 21.7362 10.9857 21.8675 10.9857 22C10.9857 22.1325 11.0121 22.2637 11.0632 22.386C11.1144 22.5082 11.1893 22.6191 11.2837 22.7121C11.3781 22.8052 11.49 22.8785 11.6129 22.928C11.7359 22.9774 11.8675 23.0019 12 23H15C15.1325 23.0019 15.2641 22.9774 15.387 22.928C15.51 22.8785 15.6219 22.8052 15.7163 22.7121C15.8107 22.6191 15.8856 22.5082 15.9367 22.386C15.9879 22.2637 16.0142 22.1325 16.0142 22C16.0142 21.8675 15.9879 21.7362 15.9367 21.614C15.8856 21.4917 15.8107 21.3809 15.7163 21.2878C15.6219 21.1948 15.51 21.1214 15.387 21.072C15.2641 21.0226 15.1325 20.9981 15 21H12Z" fill="black"/>
</svg>
