<svg xmlns="http://www.w3.org/2000/svg" width="24" height="24" fill="none" stroke="currentColor" stroke-width="2" stroke-linecap="round" stroke-linejoin="round"><path d="M9.499 1.042A3.057 3.057 0 0 0 7.118 3.14c-.076.239-.092.396-.108 1.07L6.991 5H4.942c-2.224 0-2.276.004-2.56.221-.08.061-.195.194-.254.295-.091.156-.108.23-.108.484 0 .256.016.328.111.489.125.213.318.375.539.454.098.035.353.054.739.055L3.998 7l.011 6.79.011 6.79.094.28c.332.991 1.07 1.722 2.046 2.026l.3.094h11.08l.3-.094c.976-.304 1.714-1.035 2.046-2.026l.094-.28.011-6.79.011-6.79.589-.002c.386-.001.641-.02.739-.055.221-.079.414-.241.539-.454.095-.161.111-.233.111-.489 0-.254-.017-.328-.108-.484a1.209 1.209 0 0 0-.254-.295c-.284-.217-.336-.221-2.56-.221h-2.049l-.019-.79c-.016-.674-.032-.831-.108-1.07a3.096 3.096 0 0 0-2.021-2.018l-.321-.1-2.42-.007c-1.331-.004-2.511.008-2.621.027m4.811 2.019a.893.893 0 0 1 .387.242c.251.251.303.448.303 1.144V5H9v-.553c0-.697.052-.893.304-1.144.3-.301.265-.297 2.679-.3 1.789-.003 2.155.007 2.327.058M18 13.554c0 5.437-.009 6.584-.055 6.736a1.02 1.02 0 0 1-.461.582l-.184.108H6.7l-.184-.108a1.199 1.199 0 0 1-.291-.249c-.239-.313-.225.12-.225-7.048V7h12v6.554m-8.305-3.497a1.04 1.04 0 0 0-.567.459l-.108.184v6.606l.121.197a.998.998 0 0 0 1.718 0l.121-.197V10.7l-.108-.184a1.005 1.005 0 0 0-1.177-.459m4 0a1.04 1.04 0 0 0-.567.459l-.108.184v6.606l.121.197a.998.998 0 0 0 1.718 0l.121-.197V10.7l-.108-.184a1.005 1.005 0 0 0-1.177-.459" fill-rule="evenodd" fill="#000" stroke="none"/></svg>