<svg xmlns="http://www.w3.org/2000/svg" width="24" height="24" fill="none" stroke="currentColor" stroke-width="2" stroke-linecap="round" stroke-linejoin="round"><path d="M.67 5.061c-.222.081-.42.248-.542.455C.036 5.672.02 5.745.021 6c0 .212.022.341.074.44.083.159 7.598 7.705 7.848 7.88.292.205.797.22 1.074.032.068-.046 1.104-1.062 2.303-2.258L13.5 9.92l3.54 3.54L20.58 17h-1.844c-2.001 0-2.073.007-2.354.221-.08.061-.195.194-.254.295-.091.156-.108.23-.108.484 0 .256.016.328.111.489.125.213.318.375.539.454.12.043.781.054 3.35.055l3.2.001.2-.093c.237-.11.425-.311.516-.552.06-.158.065-.48.055-3.414l-.011-3.24-.109-.186a1.041 1.041 0 0 0-.657-.479 1.009 1.009 0 0 0-1.085.479l-.109.186-.011 1.938-.012 1.938-3.948-3.946C14.98 8.563 14.06 7.665 13.92 7.603a1.06 1.06 0 0 0-.862.016c-.15.075-.728.629-2.378 2.28l-2.179 2.18L5.02 8.605c-3.179-3.174-3.497-3.48-3.677-3.54a1.015 1.015 0 0 0-.673-.004" fill="#000" fill-rule="evenodd" stroke="none"/></svg>