<svg xmlns="http://www.w3.org/2000/svg" width="24" height="24" fill="none" stroke="currentColor" stroke-width="2" stroke-linecap="round" stroke-linejoin="round"><path d="M16.695 5.057a1.04 1.04 0 0 0-.567.459c-.091.156-.108.23-.108.484 0 .256.016.328.111.489.125.213.318.375.539.454.117.042.564.054 2.03.055L20.58 7l-3.54 3.54-3.539 3.54-2.201-2.198c-1.676-1.675-2.243-2.218-2.38-2.279a1.13 1.13 0 0 0-.84 0c-.14.062-1.038.938-4.013 3.909C1.959 15.617.19 17.416.135 17.508c-.274.459-.103 1.079.373 1.359.165.097.234.113.492.112.212 0 .341-.022.44-.074.077-.04 1.697-1.628 3.6-3.529L8.5 11.92l2.14 2.143c1.177 1.179 2.213 2.194 2.303 2.257.312.219.801.219 1.112.001.091-.063 1.911-1.863 4.045-3.998l3.88-3.883.02 1.933.02 1.933.121.197a.998.998 0 0 0 1.718 0l.121-.197.011-3.243c.01-2.937.005-3.259-.055-3.417a1.007 1.007 0 0 0-.516-.552l-.2-.093-3.18.002c-2.483.002-3.216.014-3.345.054" fill="#000" fill-rule="evenodd" stroke="none"/></svg>