<svg xmlns="http://www.w3.org/2000/svg" width="24" height="24" fill="none" stroke="currentColor" stroke-width="2" stroke-linecap="round" stroke-linejoin="round"><path d="M.695 2.057a1.04 1.04 0 0 0-.567.459L.02 2.7.01 9.414c-.007 4.421.003 6.765.029 6.864.06.22.252.461.469.589.191.112.196.113 1.005.126.742.012.811.019.785.08a3.74 3.74 0 0 0-.285 1.627A3.486 3.486 0 0 0 5.3 21.987a3.47 3.47 0 0 0 1.94-.456c.469-.263 1.028-.822 1.291-1.291.555-.99.615-2.108.17-3.17-.028-.066.144-.07 3.299-.07s3.327.004 3.299.07c-.49 1.17-.356 2.462.361 3.47.876 1.231 2.46 1.748 3.928 1.281 1.016-.323 1.909-1.215 2.232-2.23a3.552 3.552 0 0 0-.118-2.518c-.026-.061.043-.068.785-.08.806-.013.815-.014 1.002-.124.213-.125.375-.318.454-.539.043-.119.054-.693.055-2.813.002-2.359-.005-2.685-.063-2.86-.059-.177-.235-.367-1.71-1.841-1.073-1.073-1.701-1.67-1.805-1.72-.148-.07-.286-.077-1.789-.088l-1.628-.011-.012-2.149L16.98 2.7l-.108-.184a1.02 1.02 0 0 0-.582-.461C16.027 1.976.947 1.978.695 2.057M15 9.5V15H2V4h13v5.5m5.79.71L22 11.42V15h-5V9h2.58l1.21 1.21M6.119 17.143c.298.136.608.449.746.753.095.209.111.296.111.604s-.016.395-.111.604c-.14.309-.448.616-.765.764-.207.097-.29.112-.6.112s-.393-.015-.6-.112a1.675 1.675 0 0 1-.765-.764c-.095-.208-.111-.296-.111-.604-.001-.309.015-.394.11-.6.193-.422.615-.771 1.04-.861.267-.057.696-.009.945.104m13 0c.298.136.608.449.746.753.095.209.111.296.111.604s-.016.395-.111.604c-.14.309-.448.616-.765.764-.207.097-.29.112-.6.112s-.393-.015-.6-.112a1.675 1.675 0 0 1-.765-.764c-.095-.208-.111-.296-.111-.604-.001-.309.015-.394.11-.6.193-.422.615-.771 1.04-.861.267-.057.696-.009.945.104" fill="#000" fill-rule="evenodd" stroke="none"/></svg>