<svg width="24" height="24" viewBox="0 0 24 24" fill="none" xmlns="http://www.w3.org/2000/svg">
<g clip-path="url(#clip0_3_8690)">
<path d="M9.50586 0.0137193C5.5995 -0.206547 1.99067 2.1305 0.593747 5.7852C0.19823 6.82006 0.00449837 7.89555 -3.15595e-06 8.95903C-0.0033772 9.72157 0.0898624 10.4779 0.275387 11.211C0.307571 11.3383 0.364524 11.4581 0.442995 11.5634C0.521466 11.6688 0.619917 11.7576 0.732728 11.8249C0.845539 11.8922 0.970499 11.9366 1.10047 11.9556C1.23045 11.9746 1.36289 11.9678 1.49024 11.9356C1.6176 11.9035 1.73736 11.8465 1.8427 11.768C1.94803 11.6895 2.03688 11.5911 2.10417 11.4783C2.17145 11.3655 2.21586 11.2405 2.23485 11.1105C2.25384 10.9805 2.24704 10.8481 2.21484 10.7208C2.07037 10.1499 1.99737 9.56226 2 8.9688C2.0035 8.14228 2.1544 7.30719 2.46289 6.50005C3.55196 3.65076 6.34889 1.84003 9.39453 2.01177C12.4392 2.1835 15.0142 4.29632 15.7773 7.25005C15.8328 7.46478 15.9581 7.65498 16.1334 7.79075C16.3088 7.92652 16.5243 8.00014 16.7461 8.00005H18.0059C19.9028 8.00336 21.5286 9.32486 21.916 11.1817C22.3045 13.0405 21.3446 14.9025 19.6055 15.6641C19.4815 15.7142 19.3688 15.7886 19.274 15.883C19.1793 15.9773 19.1045 16.0898 19.0539 16.2136C19.0034 16.3374 18.9782 16.4701 18.9799 16.6038C18.9815 16.7375 19.01 16.8695 19.0635 16.992C19.1171 17.1145 19.1947 17.2251 19.2917 17.3171C19.3887 17.4091 19.5032 17.4808 19.6284 17.5278C19.7536 17.5748 19.8869 17.5962 20.0205 17.5907C20.1541 17.5853 20.2853 17.5531 20.4062 17.4961C23.0011 16.3598 24.4526 13.5467 23.873 10.7735C23.2946 8.00095 20.84 6.00364 18.0078 6.00005H18.0058H17.3867C16.1747 2.63092 13.1316 0.218222 9.50586 0.0137193Z" fill="black"/>
<path d="M7.02345 9.98829C6.86075 9.99245 6.70153 10.0363 6.5596 10.1159C6.41767 10.1955 6.29732 10.3086 6.20899 10.4453L3.54298 14.4453C3.44252 14.5961 3.3849 14.7713 3.37626 14.9522C3.36762 15.1332 3.40829 15.313 3.49392 15.4727C3.57955 15.6323 3.70693 15.7657 3.86246 15.8586C4.01798 15.9514 4.19581 16.0003 4.37696 16H6.50782L4.87696 18.4453C4.80166 18.5545 4.74884 18.6776 4.72157 18.8075C4.6943 18.9373 4.69313 19.0712 4.71812 19.2015C4.74312 19.3318 4.79378 19.4558 4.86716 19.5663C4.94054 19.6768 5.03518 19.7716 5.14555 19.8452C5.25592 19.9188 5.37983 19.9696 5.51007 19.9949C5.6403 20.0201 5.77425 20.0192 5.90411 19.9922C6.03398 19.9651 6.15718 19.9125 6.26652 19.8374C6.37587 19.7623 6.46918 19.6662 6.54102 19.5547L9.20899 15.5547C9.30935 15.4041 9.36697 15.2291 9.37569 15.0483C9.38441 14.8675 9.34391 14.6878 9.25851 14.5282C9.17312 14.3686 9.04602 14.2352 8.89077 14.1422C8.73552 14.0492 8.55794 14.0001 8.37696 14H6.2461L7.87501 11.5547C7.9796 11.4026 8.04005 11.2246 8.04969 11.0402C8.05933 10.8559 8.01776 10.6725 7.92961 10.5103C7.84145 10.3482 7.71013 10.2136 7.5502 10.1214C7.39027 10.0293 7.20795 9.98322 7.02345 9.98829Z" fill="black"/>
<path d="M14.3593 14C14.0989 14.0036 13.8501 14.1087 13.666 14.2929L11.9004 16.0605C10.9012 17.0597 10.6017 18.5696 11.1426 19.875C11.683 21.1794 12.9631 22.0371 14.3769 22.0371C15.7902 22.0371 17.0689 21.1794 17.6093 19.875C18.1502 18.5696 17.8487 17.0597 16.8496 16.0605L15.0801 14.2929C14.9856 14.1984 14.8731 14.1238 14.7494 14.0735C14.6256 14.0232 14.493 13.9982 14.3593 14ZM14.375 16.414L15.4355 17.4746C15.8664 17.9054 15.9948 18.5467 15.7617 19.1093C15.5282 19.6729 14.9857 20.0371 14.3769 20.0371C13.7668 20.0371 13.2237 19.6729 12.9902 19.1093C12.7571 18.5467 12.8836 17.9054 13.3144 17.4746H13.3164L14.375 16.414Z" fill="black"/>
</g>
<defs>
<clipPath id="clip0_3_8690">
<rect width="24" height="24" fill="white"/>
</clipPath>
</defs>
</svg>
