<svg width="24" height="24" viewBox="0 0 24 24" fill="none" xmlns="http://www.w3.org/2000/svg">
<g clip-path="url(#clip0_3_8660)">
<path d="M9.50586 0.0137193C5.5995 -0.206547 1.99067 2.1305 0.593747 5.7852C0.19823 6.82006 0.00449837 7.89555 -3.15595e-06 8.95903C-0.0033772 9.72157 0.0898624 10.4779 0.275387 11.211C0.307571 11.3383 0.364524 11.4581 0.442995 11.5634C0.521466 11.6688 0.619917 11.7576 0.732728 11.8249C0.845539 11.8922 0.970499 11.9366 1.10047 11.9556C1.23045 11.9746 1.36289 11.9678 1.49024 11.9356C1.6176 11.9035 1.73736 11.8465 1.8427 11.768C1.94803 11.6895 2.03688 11.5911 2.10417 11.4783C2.17145 11.3655 2.21586 11.2405 2.23485 11.1105C2.25384 10.9805 2.24704 10.8481 2.21484 10.7208C2.07037 10.1499 1.99737 9.56226 2 8.9688C2.0035 8.14228 2.1544 7.30719 2.46289 6.50005C3.55196 3.65076 6.34889 1.84003 9.39453 2.01177C12.4392 2.1835 15.0142 4.29632 15.7773 7.25005C15.8328 7.46478 15.9581 7.65498 16.1334 7.79075C16.3088 7.92652 16.5243 8.00014 16.7461 8.00005H18.0059C19.9028 8.00336 21.5286 9.32486 21.916 11.1817C22.3045 13.0405 21.3446 14.9025 19.6055 15.6641C19.4815 15.7142 19.3688 15.7886 19.274 15.883C19.1793 15.9773 19.1045 16.0898 19.0539 16.2136C19.0034 16.3374 18.9782 16.4701 18.9799 16.6038C18.9815 16.7375 19.01 16.8695 19.0635 16.992C19.1171 17.1145 19.1947 17.2251 19.2917 17.3171C19.3887 17.4091 19.5032 17.4808 19.6284 17.5278C19.7536 17.5748 19.8869 17.5962 20.0205 17.5907C20.1541 17.5853 20.2853 17.5531 20.4062 17.4961C23.0011 16.3598 24.4526 13.5467 23.873 10.7735C23.2946 8.00095 20.84 6.00364 18.0078 6.00005H18.0058H17.3867C16.1747 2.63092 13.1316 0.218222 9.50586 0.0137193Z" fill="black"/>
<path d="M6.52345 9.98829C6.36075 9.99245 6.20153 10.0363 6.0596 10.1159C5.91767 10.1955 5.79732 10.3086 5.70899 10.4453L3.04298 14.4453C2.94252 14.5961 2.8849 14.7713 2.87626 14.9522C2.86762 15.1332 2.90829 15.313 2.99392 15.4727C3.07955 15.6323 3.20693 15.7657 3.36246 15.8586C3.51798 15.9514 3.69581 16.0003 3.87696 16H6.00782L4.37696 18.4453C4.30166 18.5545 4.24884 18.6776 4.22157 18.8075C4.1943 18.9373 4.19313 19.0712 4.21812 19.2015C4.24312 19.3318 4.29378 19.4558 4.36716 19.5663C4.44054 19.6768 4.53518 19.7716 4.64555 19.8452C4.75592 19.9188 4.87983 19.9696 5.01007 19.9949C5.1403 20.0201 5.27425 20.0192 5.40411 19.9922C5.53398 19.9651 5.65718 19.9125 5.76652 19.8374C5.87587 19.7623 5.96918 19.6662 6.04102 19.5547L8.70899 15.5547C8.80935 15.4041 8.86697 15.2291 8.87569 15.0483C8.88441 14.8675 8.84391 14.6878 8.75851 14.5282C8.67312 14.3686 8.54602 14.2352 8.39077 14.1422C8.23552 14.0492 8.05794 14.0001 7.87696 14H5.7461L7.37501 11.5547C7.4796 11.4026 7.54005 11.2246 7.54969 11.0402C7.55933 10.8559 7.51776 10.6725 7.42961 10.5103C7.34145 10.3482 7.21013 10.2136 7.0502 10.1214C6.89027 10.0293 6.70795 9.98322 6.52345 9.98829Z" fill="black"/>
<path d="M12.8594 10C12.5996 10.0041 12.3516 10.1092 12.168 10.293L11.1074 11.3535C10.3944 12.0666 10.1813 13.1469 10.5664 14.0781C10.9522 15.0093 11.868 15.6211 12.8769 15.6211C13.8846 15.6211 14.7972 15.0097 15.1836 14.0801C15.5709 13.1476 15.3551 12.066 14.6426 11.3535L13.582 10.293C13.4873 10.1982 13.3746 10.1235 13.2504 10.0731C13.1263 10.0228 12.9933 9.99794 12.8594 10ZM12.875 12.4141L13.2285 12.7676C13.374 12.9131 13.4166 13.123 13.3379 13.3125C13.2596 13.5014 13.0803 13.6211 12.8769 13.6211C12.6719 13.6211 12.4923 13.5014 12.4141 13.3125C12.3362 13.1222 12.377 12.912 12.5215 12.7676L12.875 12.4141Z" fill="black"/>
<path d="M15.8594 16C15.5996 16.0041 15.3516 16.1092 15.168 16.293L14.1074 17.3535C13.3944 18.0666 13.1813 19.1469 13.5664 20.0781C13.952 21.0105 14.8691 21.6211 15.8769 21.6211C16.8835 21.6211 17.7973 21.011 18.1836 20.0801C18.5709 19.1476 18.3551 18.066 17.6426 17.3535L16.582 16.293C16.4873 16.1982 16.3746 16.1235 16.2504 16.0731C16.1263 16.0228 15.9933 15.9979 15.8594 16ZM15.875 18.4141L16.2285 18.7676C16.374 18.9131 16.4166 19.123 16.3379 19.3125C16.3372 19.3132 16.3366 19.3138 16.3359 19.3145C16.2575 19.5041 16.0814 19.6211 15.8769 19.6211C15.6708 19.6211 15.4924 19.5041 15.414 19.3145C15.3351 19.1237 15.3765 18.9126 15.5214 18.7676L15.875 18.4141Z" fill="black"/>
</g>
<defs>
<clipPath id="clip0_3_8660">
<rect width="24" height="24" fill="white"/>
</clipPath>
</defs>
</svg>
