<svg xmlns="http://www.w3.org/2000/svg" width="24" height="24" fill="none" stroke="currentColor" stroke-width="2" stroke-linecap="round" stroke-linejoin="round"><path d="M6.67 1.061c-.222.081-.42.248-.542.455-.092.156-.108.229-.107.484 0 .212.022.341.074.44.04.077.84.909 1.777 1.848l1.703 1.709-3.057.012-3.058.012-.321.101A3.086 3.086 0 0 0 1.114 8.16l-.094.3v12.08l.094.3a3.086 3.086 0 0 0 2.046 2.046l.3.094h17.08l.3-.094a3.086 3.086 0 0 0 2.046-2.046l.094-.3V8.46l-.094-.3a3.086 3.086 0 0 0-2.025-2.038l-.321-.101-3.058-.012-3.057-.012 1.703-1.709c.937-.939 1.737-1.771 1.777-1.848.052-.099.074-.228.074-.44.001-.255-.015-.328-.107-.484a1.003 1.003 0 0 0-1.215-.451c-.178.059-.413.281-2.427 2.289L12 5.578 9.77 3.354c-2.014-2.008-2.249-2.23-2.427-2.289a1.015 1.015 0 0 0-.673-.004m13.64 7c.279.083.546.35.629.629.053.179.061.908.061 5.811 0 4.635-.01 5.638-.055 5.789a1.02 1.02 0 0 1-.461.582l-.184.108H3.7l-.184-.108a1.051 1.051 0 0 1-.458-.556c-.09-.255-.087-11.323.003-11.626.079-.269.351-.547.612-.627.16-.049 1.357-.058 8.31-.06 7.161-.003 8.147.004 8.327.058" fill="#000" fill-rule="evenodd" stroke="none"/></svg>