<svg xmlns="http://www.w3.org/2000/svg" width="24" height="24" fill="none" stroke="currentColor" stroke-width="2" stroke-linecap="round" stroke-linejoin="round"><path d="M2.695 1.057a1.04 1.04 0 0 0-.567.459L2.02 1.7l-.01 8.214c-.007 5.419.003 8.266.03 8.364.059.22.251.461.468.589l.192.113 2.15.011 2.15.012.002 1.588c.001 1.223.014 1.624.055 1.739.184.515.739.782 1.268.61.202-.066.335-.19 2.156-2.005L12.423 19h2.361c2.073 0 2.386-.008 2.559-.065.178-.059.402-.27 2.362-2.23 1.991-1.99 2.171-2.181 2.231-2.367.059-.183.064-.767.054-6.42L21.98 1.7l-.108-.184a1.02 1.02 0 0 0-.582-.461C21.027.976 2.947.978 2.695 1.057M20 8.29v5.29l-1.71 1.709-1.71 1.709-2.42.011c-2.292.01-2.428.015-2.58.088-.1.048-.616.53-1.367 1.276l-1.208 1.199-.012-.936c-.013-.935-.013-.936-.121-1.12a1.209 1.209 0 0 0-.254-.295C8.334 17.004 8.283 17 6.054 17H4V3h16v5.29m-9.305-2.233a1.04 1.04 0 0 0-.567.459l-.108.184v4.606l.121.197c.068.11.205.253.311.325.471.316 1.102.171 1.407-.325l.121-.197V6.7l-.108-.184a1.005 1.005 0 0 0-1.177-.459m5 0a1.04 1.04 0 0 0-.567.459l-.108.184v4.606l.121.197c.068.11.205.253.311.325.471.316 1.102.171 1.407-.325l.121-.197V6.7l-.108-.184a1.005 1.005 0 0 0-1.177-.459" fill-rule="evenodd" fill="#000" stroke="none"/></svg>