<svg xmlns="http://www.w3.org/2000/svg" width="24" height="24" fill="none" stroke="currentColor" stroke-width="2" stroke-linecap="round" stroke-linejoin="round"><path d="M15.84 2.024c-.854.156-1.197.259-1.74.518a5.459 5.459 0 0 0-2.856 3.318c-.135.439-.243 1.071-.244 1.429v.229l-.19-.022c-2.352-.277-4.323-1.209-5.912-2.795-.37-.37-.567-.601-1.063-1.248-.41-.533-1.089-.601-1.536-.154-.42.42-.98 2.476-1.142 4.196-.085.898-.012 2.314.164 3.173.232 1.136.751 2.397 1.356 3.293.738 1.094 1.749 2.086 2.913 2.858.159.106.29.199.29.207 0 .06-1.262.517-1.82.659a10.73 10.73 0 0 1-2.58.316c-.438.002-.709.02-.807.055a1.01 1.01 0 0 0-.612 1.266c.109.33.305.49 1.06.866 1.783.888 3.389 1.384 5.299 1.635.664.087 2.352.12 3.068.06a13.792 13.792 0 0 0 6.612-2.328c3.741-2.547 5.898-6.932 5.9-11.991v-.575l.173-.205a8.693 8.693 0 0 0 1.729-3.295A2.72 2.72 0 0 0 24 2.997c.001-.407-.301-.821-.684-.934-.414-.123-.548-.088-1.196.318-.253.158-.613.37-.8.47-.348.186-1.083.509-1.158.509-.023 0-.207-.125-.408-.278-.596-.452-1.366-.797-2.195-.982-.29-.064-1.491-.117-1.719-.076m1.28 2.034c.75.145 1.307.446 1.88 1.016.165.164.372.331.46.371.234.107.523.093.948-.043.203-.066.374-.113.381-.107.006.007-.11.151-.259.321-.635.725-.644.747-.57 1.414.051.462.037 1.106-.044 2.01-.382 4.271-2.632 7.78-6.136 9.567-.679.346-.93.454-1.569.676-.855.296-1.827.507-2.751.596-.598.058-1.925.048-2.56-.019-.663-.07-1.537-.223-1.857-.325-.031-.01.178-.098.466-.196a12.51 12.51 0 0 0 2.815-1.358c.404-.264.52-.389.617-.663a.935.935 0 0 0-.003-.647c-.109-.319-.258-.439-1.018-.822-1.131-.57-1.897-1.104-2.621-1.828a7.237 7.237 0 0 1-1.903-3.295c-.318-1.235-.356-2.55-.116-4.007.118-.717.084-.693.481-.329.896.82 1.707 1.383 2.739 1.9 1.586.794 3.071 1.17 4.81 1.218.947.026 1.082.002 1.357-.239.287-.252.307-.338.337-1.409.022-.792.041-1.015.111-1.275.234-.875.863-1.697 1.626-2.126a3.582 3.582 0 0 1 2.379-.401" fill-rule="evenodd" fill="#000" stroke="none"/></svg>