<svg xmlns="http://www.w3.org/2000/svg" width="24" height="24" fill="none" stroke="currentColor" stroke-width="2" stroke-linecap="round" stroke-linejoin="round"><path d="M3.695 3.057a1.04 1.04 0 0 0-.567.459L3.02 3.7v3.606l.121.197a.998.998 0 0 0 1.718 0l.121-.196.012-1.154L5.005 5H11v14H9.946c-1.149 0-1.302.022-1.564.221-.08.061-.195.194-.254.295-.091.156-.108.23-.108.484 0 .256.016.328.111.489.125.213.318.375.539.454.221.079 6.439.079 6.66 0 .221-.079.414-.241.539-.454.095-.161.111-.233.111-.489 0-.254-.017-.328-.108-.484a1.209 1.209 0 0 0-.254-.295c-.262-.199-.415-.221-1.564-.221H13V5h5.995l.013 1.153.012 1.154.121.196a.998.998 0 0 0 1.718 0l.121-.197V3.7l-.108-.184a1.02 1.02 0 0 0-.582-.461c-.263-.079-16.343-.077-16.595.002" fill="#000" fill-rule="evenodd" stroke="none"/></svg>