<svg xmlns="http://www.w3.org/2000/svg" width="24" height="24" fill="none" stroke="currentColor" stroke-width="2" stroke-linecap="round" stroke-linejoin="round"><path d="M11.025 1.044c-2.085.172-4.03.856-5.784 2.036-1.34.9-2.756 2.381-3.522 3.68A12.698 12.698 0 0 0 .658 8.986c-.35.966-.623 2.232-.633 2.934-.005.348.004.396.106.569.061.103.17.234.243.289.306.233.023.222 5.551.222H11v3.184c0 3.059.003 3.199.083 3.589a3.973 3.973 0 0 0 2.429 2.931 3.986 3.986 0 0 0 5.193-2.22c.309-.764.378-1.607.163-1.974a1.011 1.011 0 0 0-1.463-.305c-.259.191-.363.405-.408.842a4.249 4.249 0 0 1-.096.575c-.123.426-.568.949-.989 1.162a2.05 2.05 0 0 1-1.829-.003c-.267-.135-.634-.484-.802-.764-.281-.467-.276-.397-.279-3.887L13 13l5.09-.002c4.148-.001 5.118-.011 5.24-.055.221-.079.414-.241.539-.454.1-.17.111-.224.108-.549-.008-.807-.328-2.187-.766-3.3-.62-1.574-1.462-2.854-2.688-4.085A11.755 11.755 0 0 0 15.7 1.586a12.298 12.298 0 0 0-4.675-.542M13.4 3.101c1.833.276 3.505 1.001 4.9 2.127A13.309 13.309 0 0 1 19.791 6.7c.606.742 1.215 1.791 1.582 2.724.123.315.37 1.128.444 1.466l.025.11H2.162l.025-.13c.119-.615.454-1.55.813-2.27.532-1.066 1.016-1.744 1.853-2.595A9.517 9.517 0 0 1 7.58 4.038a10.168 10.168 0 0 1 3.68-1.013c.401-.033 1.731.015 2.14.076" fill-rule="evenodd" fill="#000" stroke="none"/></svg>