<svg xmlns="http://www.w3.org/2000/svg" width="24" height="24" fill="none" stroke="currentColor" stroke-width="2" stroke-linecap="round" stroke-linejoin="round"><path d="M5.695 2.057a1.04 1.04 0 0 0-.567.459L5.02 2.7v3.98c0 3.097.012 4.055.053 4.32.479 3.09 2.808 5.425 5.907 5.926.412.066 1.627.066 2.04 0 3.096-.5 5.429-2.84 5.907-5.926.041-.264.053-1.226.053-4.32V2.7l-.109-.186a1.01 1.01 0 0 0-1.742 0l-.109.186-.024 3.98c-.016 2.52-.04 4.053-.066 4.18-.127.606-.27 1.008-.532 1.493a5.015 5.015 0 0 1-2.798 2.379c-.556.19-.93.248-1.6.248s-1.044-.058-1.6-.248a5.075 5.075 0 0 1-3.08-2.98 6.387 6.387 0 0 1-.25-.892c-.026-.127-.05-1.66-.066-4.18L6.98 2.7l-.108-.184a1.005 1.005 0 0 0-1.177-.459m-2 18a1.04 1.04 0 0 0-.567.459c-.091.156-.108.23-.108.484 0 .256.016.328.111.489.125.213.318.375.539.454.223.079 16.437.079 16.66 0 .221-.079.414-.241.539-.454.095-.161.111-.233.111-.489 0-.254-.017-.328-.108-.484a1.02 1.02 0 0 0-.582-.461c-.263-.079-16.343-.077-16.595.002" fill-rule="evenodd" fill="#000" stroke="none"/></svg>