<svg width="24" height="24" fill="none" xmlns="http://www.w3.org/2000/svg"><path d="M11.388 1.04c-2.493.24-4.774 2.01-5.711 4.434-.263.678-.437 1.549-.437 2.176.001.261.02.372.094.53.18.388.559.608.98.57.282-.026.44-.103.645-.314.184-.19.281-.449.281-.753 0-.325.102-.901.224-1.265.379-1.135 1.236-2.182 2.288-2.797a4.557 4.557 0 0 1 4.2-.18c1.522.713 2.57 2.2 2.771 3.931.113.966-.132 1.755-.837 2.708-.267.359-1.46 1.563-2.343 2.363-1.394 1.264-1.563 1.438-1.944 2.011-.282.425-.45.815-.538 1.25-.054.265-.063.53-.053 1.463l.012 1.14.121.196a.998.998 0 0 0 1.718 0l.121-.196.02-1.164c.019-1.125.023-1.169.114-1.343.167-.318.51-.741.848-1.044 2.643-2.378 3.317-3.077 3.945-4.09.27-.436.453-.82.594-1.25.202-.617.234-.832.234-1.576-.001-.744-.054-1.152-.236-1.8-.664-2.369-2.52-4.224-4.824-4.821a7.599 7.599 0 0 0-2.287-.179m.276 20.023a1.005 1.005 0 0 0-.533.448c-.095.161-.111.233-.111.489s.016.328.111.489a.993.993 0 0 0 1.57.212c.18-.18.299-.459.299-.701 0-.674-.705-1.168-1.336-.937" fill-rule="evenodd" fill="#000"/></svg>