<svg width="24" height="24" fill="none" xmlns="http://www.w3.org/2000/svg"><path d="M11.4 2.015c-.758.176-1.339.543-1.776 1.123-.297.392-8.73 14.491-8.85 14.795a3.008 3.008 0 0 0 .366 2.889c.405.568 1.086 1.008 1.8 1.163.193.042 1.958.052 9.064.054 8.685.001 8.828 0 9.14-.079a3.427 3.427 0 0 0 1.195-.589 3.029 3.029 0 0 0 .886-3.446c-.125-.308-8.567-14.415-8.852-14.792a3.118 3.118 0 0 0-1.593-1.077c-.315-.085-1.093-.108-1.38-.041m.934 1.994c.09.027.237.121.328.21.114.111 1.206 1.9 3.517 5.761l4.29 7.166c.893 1.492.939 1.578.96 1.81a.976.976 0 0 1-.554.987l-.192.097h-8.677c-9.563 0-8.803.021-9.111-.25a1 1 0 0 1-.263-1.098c.037-.092 1.967-3.34 4.288-7.218 2.979-4.976 4.273-7.104 4.4-7.234.099-.1.243-.203.32-.227a1.36 1.36 0 0 1 .694-.004m-.714 4.016-.3.06c-.536.107-1.216.54-1.612 1.027-.467.574-.674 1.112-.683 1.771-.005.405 0 .431.116.62.396.644 1.316.654 1.708.017.079-.129.122-.271.151-.5.048-.376.172-.609.433-.808.414-.316.935-.259 1.297.143.136.15.27.475.27.654 0 .19-.206.447-.921 1.151-.692.682-.763.765-.904 1.06-.151.316-.153.326-.168.887-.019.678.029.872.277 1.123.23.232.406.308.716.308.31 0 .486-.076.715-.307.211-.213.285-.439.285-.871v-.346l.505-.457c.812-.735 1.182-1.219 1.377-1.797.176-.524.136-1.262-.101-1.851-.315-.783-1.049-1.493-1.804-1.744-.415-.138-1.039-.203-1.357-.14m.044 8.038a1.005 1.005 0 0 0-.533.448c-.095.161-.111.233-.111.489s.016.328.111.489a.993.993 0 0 0 1.57.212c.18-.18.299-.459.299-.701 0-.674-.705-1.168-1.336-.937" fill-rule="evenodd" fill="#000"/></svg>