<svg xmlns="http://www.w3.org/2000/svg" width="24" height="24" fill="none" stroke="currentColor" stroke-width="2" stroke-linecap="round" stroke-linejoin="round"><path d="M11.178 1.059a5.915 5.915 0 0 0-1.862.58 5.99 5.99 0 0 0-3.121 3.859c-.174.676-.194.958-.194 2.767L6 9.991l-.77.019c-.663.017-.814.033-1.091.116a3.068 3.068 0 0 0-2.025 2.034l-.094.3v8.08l.094.3a3.086 3.086 0 0 0 2.046 2.046l.3.094h15.08l.3-.094a3.086 3.086 0 0 0 2.046-2.046l.094-.3v-8.08l-.094-.3a3.089 3.089 0 0 0-2.025-2.039l-.321-.101-5.77-.011L8 9.998V8.346c0-1.336.012-1.724.064-2.029a3.965 3.965 0 0 1 3.408-3.279 3.927 3.927 0 0 1 3.107.909c.703.593 1.058 1.194 1.361 2.305a.992.992 0 0 0 1.653.456c.366-.35.385-.748.079-1.648a6.023 6.023 0 0 0-4.482-3.942c-.53-.11-1.5-.138-2.012-.059m8.132 11.002c.279.083.546.35.629.629.053.176.061.699.061 3.811 0 3.914.005 3.82-.221 4.117-.061.08-.194.195-.295.254l-.184.108H4.7l-.184-.108a1.051 1.051 0 0 1-.458-.556c-.089-.254-.087-7.325.003-7.626.079-.269.351-.547.612-.627.291-.089 14.336-.092 14.637-.002" fill-rule="evenodd" fill="#000" stroke="none"/></svg>