<svg xmlns="http://www.w3.org/2000/svg" width="24" height="24" fill="none" stroke="currentColor" stroke-width="2" stroke-linecap="round" stroke-linejoin="round"><path d="M8.08 2.042a9.264 9.264 0 0 0-4.923 2.11C1.598 5.463.496 7.395.11 9.496c-.121.659-.13 2.215-.016 2.864.281 1.607.799 2.839 1.691 4.025.361.479.637.759.825.836.215.088.56.087.78-.001.228-.092.507-.406.565-.636.104-.413.025-.667-.35-1.123-1.008-1.225-1.527-2.599-1.593-4.221a6.944 6.944 0 0 1 2.175-5.321C5.145 5.01 6.506 4.326 7.8 4.103c1.689-.291 3.538.083 4.95.999A6.98 6.98 0 0 1 15.661 8.9c.21.65.323.826.636.992.151.079.244.088 1.243.112.976.024 1.117.036 1.462.127A4.047 4.047 0 0 1 21.56 12.2c.927 1.84.321 4.039-1.426 5.173-.584.379-.734.594-.734 1.054 0 .248.153.568.348.729.194.16.528.26.756.226.389-.059 1.175-.579 1.756-1.162.849-.854 1.418-1.96 1.666-3.24.09-.465.069-1.59-.04-2.107-.349-1.661-1.191-2.931-2.544-3.84-1.006-.675-1.94-.968-3.274-1.027l-.593-.026-.151-.384c-.874-2.224-2.863-4.161-5.144-5.01a10.339 10.339 0 0 0-1.9-.487c-.51-.076-1.734-.108-2.2-.057m3.52 9.041c-.269.12-4.369 4.214-4.504 4.497A.996.996 0 0 0 8 16.999c.406 0 .505-.075 1.8-1.375l1.18-1.185.02 3.434.02 3.433.121.197c.068.11.205.253.311.325.471.316 1.102.171 1.407-.325l.121-.197.02-3.433.02-3.434 1.18 1.185c1.295 1.3 1.394 1.375 1.8 1.375a.997.997 0 0 0 .999-.999c.001-.428-.003-.432-2.305-2.728-2.283-2.277-2.275-2.27-2.694-2.27-.135 0-.29.031-.4.081" fill-rule="evenodd" fill="#000" stroke="none"/></svg>