<svg xmlns="http://www.w3.org/2000/svg" width="24" height="24" fill="none" stroke="currentColor" stroke-width="2" stroke-linecap="round" stroke-linejoin="round"><path d="M11.58 2.096c-.159.076-.729.627-2.806 2.71C7.341 6.244 6.135 7.483 6.095 7.56c-.052.099-.074.228-.074.44-.001.258.015.327.112.492.13.222.369.409.603.473.203.054.531.024.709-.066.074-.037.904-.834 1.844-1.772l1.71-1.705.01 4.942.011 4.942.121.197c.305.496.936.641 1.407.325.106-.072.243-.215.311-.325l.121-.197.011-4.942.01-4.942 1.71 1.705c.94.938 1.772 1.738 1.849 1.778.099.052.228.074.44.074.258.001.327-.015.492-.112.222-.13.409-.369.473-.603.054-.202.024-.53-.066-.709-.037-.074-1.24-1.311-2.673-2.749-2.077-2.083-2.647-2.634-2.806-2.71a.967.967 0 0 0-.84 0M2.695 14.057a1.04 1.04 0 0 0-.567.459l-.108.184v4.84l.094.3a3.086 3.086 0 0 0 2.046 2.046l.3.094h15.08l.3-.094a3.086 3.086 0 0 0 2.046-2.046l.094-.3V14.7l-.109-.186a1.01 1.01 0 0 0-1.742 0l-.109.186-.02 2.28c-.015 1.701-.033 2.309-.07 2.393a1.146 1.146 0 0 1-.446.499l-.184.108H4.7l-.184-.108a1.146 1.146 0 0 1-.446-.499c-.037-.084-.055-.692-.07-2.393l-.02-2.28-.108-.184a1.005 1.005 0 0 0-1.177-.459" fill-rule="evenodd" fill="#000" stroke="none"/></svg>