<svg xmlns="http://www.w3.org/2000/svg" width="24" height="24" fill="none" stroke="currentColor" stroke-width="2" stroke-linecap="round" stroke-linejoin="round"><path d="M11.4 2.044c-1.639.185-3.139 1.246-3.874 2.741C7.158 5.533 7.02 6.136 7.02 7c0 .67.058 1.044.248 1.6.578 1.691 1.985 2.925 3.772 3.307.471.101 1.449.101 1.92 0 1.528-.327 2.788-1.277 3.473-2.619.405-.794.547-1.389.547-2.288 0-.899-.142-1.494-.547-2.287a5.022 5.022 0 0 0-3.193-2.551 5.223 5.223 0 0 0-1.84-.118m1.461 2.085c.943.276 1.723 1.054 2.014 2.01.083.273.098.403.098.861 0 .458-.015.588-.098.861a3.073 3.073 0 0 1-2.035 2.025c-.434.135-1.246.135-1.68 0a3.073 3.073 0 0 1-2.035-2.025c-.083-.273-.098-.403-.098-.861 0-.458.015-.588.098-.861a3.042 3.042 0 0 1 2.374-2.099c.333-.06 1.001-.017 1.362.089M7.4 14.044c-1.639.185-3.139 1.246-3.874 2.741a5.382 5.382 0 0 0-.433 1.255c-.063.294-.073.539-.073 1.803v1.463l.121.197a.998.998 0 0 0 1.718 0l.121-.196.023-1.424c.022-1.361.028-1.437.121-1.744a3.073 3.073 0 0 1 2.054-2.027l.322-.092h9l.322.092a3.073 3.073 0 0 1 2.054 2.027c.093.307.099.383.121 1.744l.023 1.424.121.196a.998.998 0 0 0 1.718 0l.121-.197v-1.463c0-1.264-.01-1.509-.073-1.803-.282-1.319-1.044-2.464-2.107-3.166-.754-.499-1.404-.739-2.248-.831-.468-.052-8.697-.05-9.152.001" fill-rule="evenodd" fill="#000" stroke="none"/></svg>