<svg xmlns="http://www.w3.org/2000/svg" width="24" height="24" fill="none" stroke="currentColor" stroke-width="2" stroke-linecap="round" stroke-linejoin="round"><path d="M7.891 2.044c-1.881.219-3.5 1.543-4.132 3.378-.338.983-.328 2.244.027 3.227.54 1.497 1.673 2.607 3.158 3.093 3.235 1.06 6.542-1.338 6.542-4.742a4.984 4.984 0 0 0-5.595-4.956m1.38 2.051c1.06.292 1.933 1.197 2.15 2.228a3.958 3.958 0 0 1-.006 1.369 2.987 2.987 0 0 1-2.304 2.244 2.986 2.986 0 0 1-3.057-1.202C5.684 8.216 5.52 7.683 5.52 7c0-.814.246-1.457.779-2.035.371-.403 1.023-.786 1.501-.881l.3-.062c.152-.035.961.015 1.171.073M22.64 8.068c-.152.053-.444.326-1.909 1.785l-1.729 1.722-.731-.72c-.616-.608-.762-.732-.928-.788a1 1 0 0 0-1.215.449c-.092.156-.108.229-.107.484 0 .213.022.341.074.44.102.193 2.202 2.3 2.425 2.433.153.091.225.107.48.106.212 0 .341-.022.44-.074.192-.1 4.299-4.2 4.433-4.425.091-.152.107-.226.107-.48s-.017-.328-.108-.484a1.016 1.016 0 0 0-1.232-.448M4.4 14.044c-1.639.185-3.139 1.246-3.874 2.741a5.382 5.382 0 0 0-.433 1.255c-.063.294-.073.539-.073 1.803v1.463l.121.197a.998.998 0 0 0 1.718 0l.121-.196.024-1.424c.026-1.591.037-1.665.316-2.223a3.082 3.082 0 0 1 1.858-1.548l.322-.092h8l.322.092a3.073 3.073 0 0 1 2.054 2.027c.093.307.099.383.121 1.744l.023 1.424.121.196a.998.998 0 0 0 1.718 0l.121-.197v-1.463c0-1.264-.01-1.509-.073-1.803-.282-1.319-1.044-2.464-2.107-3.166-.754-.499-1.404-.739-2.248-.831-.467-.052-7.698-.05-8.152.001" fill-rule="evenodd" fill="#000" stroke="none"/></svg>