<svg xmlns="http://www.w3.org/2000/svg" width="24" height="24" fill="none" stroke="currentColor" stroke-width="2" stroke-linecap="round" stroke-linejoin="round"><path d="M7.891 2.044c-1.881.219-3.5 1.543-4.132 3.378-.338.983-.328 2.244.027 3.227.54 1.497 1.673 2.607 3.158 3.093 3.235 1.06 6.542-1.338 6.542-4.742a4.984 4.984 0 0 0-5.595-4.956m1.38 2.051c1.06.292 1.933 1.197 2.15 2.228a3.958 3.958 0 0 1-.006 1.369 2.987 2.987 0 0 1-2.304 2.244 2.986 2.986 0 0 1-3.057-1.202C5.684 8.216 5.52 7.683 5.52 7c0-.814.246-1.457.779-2.035.371-.403 1.023-.786 1.501-.881l.3-.062c.152-.035.961.015 1.171.073m8.399 2.966c-.222.081-.42.248-.542.455-.091.156-.108.23-.108.484s.016.328.107.48c.059.099.523.594 1.03 1.099l.922.92-.955.96c-.525.529-.986 1.022-1.023 1.096-.229.454-.045 1.046.407 1.312.165.097.235.113.492.113.254 0 .328-.016.48-.107.099-.059.594-.523 1.099-1.03l.92-.922.96.955c.529.525 1.024.988 1.101 1.029.099.052.227.074.44.074.258.001.327-.015.492-.112.222-.13.409-.369.473-.603a1.187 1.187 0 0 0-.066-.709c-.037-.074-.498-.567-1.023-1.096l-.955-.96.922-.92c.507-.505.971-1 1.03-1.099.091-.152.107-.226.107-.48s-.017-.328-.108-.484a1.001 1.001 0 0 0-1.215-.45c-.171.058-.327.196-1.177 1.038l-.98.972-.98-.972c-.849-.842-1.006-.98-1.177-1.038a1.003 1.003 0 0 0-.673-.005M4.4 14.044c-1.639.185-3.139 1.246-3.874 2.741a5.382 5.382 0 0 0-.433 1.255c-.063.294-.073.539-.073 1.803v1.463l.121.197a.998.998 0 0 0 1.718 0l.121-.196.024-1.424c.026-1.591.037-1.665.316-2.223a3.082 3.082 0 0 1 1.858-1.548l.322-.092h8l.322.092a3.073 3.073 0 0 1 2.054 2.027c.093.307.099.383.121 1.744l.023 1.424.121.196a.998.998 0 0 0 1.718 0l.121-.197v-1.463c0-1.264-.01-1.509-.073-1.803-.282-1.319-1.044-2.464-2.107-3.166-.754-.499-1.404-.739-2.248-.831-.467-.052-7.698-.05-8.152.001" fill-rule="evenodd" fill="#000" stroke="none"/></svg>