<svg xmlns="http://www.w3.org/2000/svg" width="24" height="24" fill="none" stroke="currentColor" stroke-width="2" stroke-linecap="round" stroke-linejoin="round"><path d="M8.4 2.044c-1.639.185-3.139 1.246-3.874 2.741C4.158 5.533 4.02 6.136 4.02 7c0 .67.058 1.044.248 1.6.578 1.691 1.985 2.925 3.772 3.307.471.101 1.449.101 1.92 0 1.528-.327 2.788-1.277 3.473-2.619.405-.794.547-1.389.547-2.288 0-.899-.142-1.494-.547-2.287a5.022 5.022 0 0 0-3.193-2.551 5.223 5.223 0 0 0-1.84-.118m7.373.112a.999.999 0 0 0-.553 1.587c.142.187.289.274.68.401a3.02 3.02 0 0 1 1.986 2.016c.076.247.093.391.093.82.001.615-.045.831-.28 1.32-.38.79-.953 1.28-1.854 1.585-.395.133-.565.253-.707.494-.365.623.051 1.424.773 1.49.193.017.3-.003.657-.122.761-.255 1.38-.626 1.909-1.145 1.045-1.024 1.567-2.329 1.512-3.777-.023-.603-.087-.97-.255-1.459-.399-1.166-1.339-2.246-2.433-2.796-.654-.329-1.238-.487-1.528-.414M9.861 4.129c.943.276 1.723 1.054 2.014 2.01.083.273.098.403.098.861 0 .458-.015.588-.098.861A3.073 3.073 0 0 1 9.84 9.886c-.434.135-1.246.135-1.68 0a3.073 3.073 0 0 1-2.035-2.025c-.083-.273-.098-.403-.098-.861 0-.458.015-.588.098-.861A3.042 3.042 0 0 1 8.499 4.04c.333-.06 1.001-.017 1.362.089M4.4 14.044c-1.639.185-3.139 1.246-3.874 2.741a5.382 5.382 0 0 0-.433 1.255c-.063.294-.073.539-.073 1.803v1.463l.121.197a.998.998 0 0 0 1.718 0l.121-.196.024-1.424c.026-1.591.037-1.665.316-2.223a3.082 3.082 0 0 1 1.858-1.548l.322-.092h9l.322.092a3.073 3.073 0 0 1 2.054 2.027c.093.307.099.383.121 1.744l.023 1.424.121.196a.998.998 0 0 0 1.718 0l.121-.197v-1.463c0-1.264-.01-1.509-.073-1.803-.282-1.319-1.044-2.464-2.107-3.166-.754-.499-1.404-.739-2.248-.831-.468-.052-8.697-.05-9.152.001m15.373.112a1.01 1.01 0 0 0-.761 1.072c.04.386.287.699.656.834.548.2.735.284.972.439.457.298.912.834 1.121 1.321.196.458.209.568.234 2.061l.025 1.424.121.196a.998.998 0 0 0 1.718 0l.121-.197v-1.483c0-1.298-.009-1.525-.075-1.823-.384-1.753-1.629-3.16-3.294-3.723-.384-.13-.65-.168-.838-.121" fill-rule="evenodd" fill="#000" stroke="none"/></svg>