<svg xmlns="http://www.w3.org/2000/svg" width="24" height="24" fill="none" stroke="currentColor" stroke-width="2" stroke-linecap="round" stroke-linejoin="round"><path d="M2.499 4.043C1.379 4.233.461 5.048.114 6.16l-.094.3v11.08l.094.3a3.086 3.086 0 0 0 2.046 2.046l.3.094h12.08l.3-.094a3.108 3.108 0 0 0 2.044-2.026c.09-.271.093-.338.114-2.09l.022-1.81 2.771 1.979c1.933 1.38 2.821 1.992 2.94 2.024a1.01 1.01 0 0 0 1.225-.691c.035-.129.044-1.47.035-5.372l-.011-5.2-.108-.184a1.016 1.016 0 0 0-1.162-.468c-.097.029-1.235.816-2.925 2.023l-2.765 1.975-.022-1.813c-.021-1.755-.024-1.822-.114-2.093a3.109 3.109 0 0 0-2.023-2.019l-.321-.101-5.92-.006c-3.256-.003-6.011.01-6.121.029M14.31 6.061c.279.083.546.35.629.629.053.178.061.856.061 5.311 0 4.211-.01 5.138-.055 5.289a1.02 1.02 0 0 1-.461.582l-.184.108H2.7l-.184-.108a1.051 1.051 0 0 1-.458-.556c-.089-.255-.087-10.323.003-10.626.079-.269.351-.547.612-.627.29-.089 11.337-.091 11.637-.002m7.68 7.462-.01 1.522-2.112-1.508c-1.161-.829-2.106-1.523-2.1-1.542.007-.019.957-.71 2.112-1.535l2.1-1.5.01 1.52c.006.836.006 2.205 0 3.043" fill="#000" fill-rule="evenodd" stroke="none"/></svg>