<svg xmlns="http://www.w3.org/2000/svg" width="24" height="24" fill="none" stroke="currentColor" stroke-width="2" stroke-linecap="round" stroke-linejoin="round"><path d="M.695.057a1.04 1.04 0 0 0-.567.459C.037.672.02.746.02 1s.016.328.107.48c.059.099.639.71 1.288 1.357l1.18 1.177-.359.091C1.241 4.357.432 5.14.114 6.16l-.094.3v11.08l.094.3a3.086 3.086 0 0 0 2.046 2.046l.3.094h12.08l.3-.094c.759-.237 1.449-.795 1.804-1.461l.126-.234 2.825 2.82c1.554 1.552 2.886 2.851 2.96 2.888.455.229 1.046.045 1.312-.407.097-.165.113-.235.113-.492 0-.254-.016-.328-.107-.48-.064-.106-4.665-4.735-11.22-11.287C1.73.316 1.536.125 1.323.063 1.066-.012.919-.013.695.057M10.4 4.036c-.45.142-.728.51-.728.964 0 .405.207.724.588.905l.2.094L12.283 6c2.097 0 2.113.002 2.414.303.301.301.303.317.303 2.414l.001 1.823.095.2c.134.283 1.336 1.468 1.564 1.542.2.065.476.067.663.004.078-.026 1.158-.782 2.4-1.681l2.257-1.633.02 4.167.02 4.167.121.197a.998.998 0 0 0 1.718 0l.121-.197.011-5.221c.011-5.874.032-5.464-.289-5.785a.983.983 0 0 0-.995-.251c-.104.031-1.152.764-2.885 2.017-1.943 1.405-2.735 1.957-2.769 1.928-.035-.029-.051-.499-.062-1.807-.014-1.719-.017-1.775-.107-2.047a3.102 3.102 0 0 0-2.023-2.017l-.321-.1-2.02-.009c-1.111-.005-2.065.005-2.12.022m-.61 7.174L15 16.42v.344c0 .572-.149.892-.516 1.108l-.184.108H2.7l-.184-.108a1.199 1.199 0 0 1-.291-.249C1.988 17.312 2 17.608 2 12.022c0-5.782-.021-5.395.304-5.719.269-.27.397-.297 1.416-.3L4.58 6l5.21 5.21" fill-rule="evenodd" fill="#000" stroke="none"/></svg>