<svg xmlns="http://www.w3.org/2000/svg" width="24" height="24" fill="none" stroke="currentColor" stroke-width="2" stroke-linecap="round" stroke-linejoin="round"><path d="M10.647 4.072c-.107.042-1.094.805-2.586 1.998L5.65 8H3.771c-2.039 0-2.107.006-2.389.221-.08.061-.195.194-.254.295L1.02 8.7l-.011 3.212c-.007 2.093.003 3.265.03 3.364.06.222.251.463.469.591l.192.113 1.977.011 1.977.012 2.378 1.903c1.309 1.047 2.444 1.942 2.523 1.989.113.066.21.085.445.085.257 0 .327-.016.492-.113.217-.128.409-.369.469-.589.026-.099.036-2.61.029-7.364L11.98 4.7l-.108-.184c-.253-.43-.776-.62-1.225-.444M10 12v4.921l-1.749-1.4c-1.228-.983-1.802-1.418-1.927-1.46-.147-.051-.45-.061-1.751-.061H3v-3.997l1.65-.011c1.295-.009 1.673-.024 1.756-.066.058-.03.886-.682 1.84-1.448.954-.765 1.739-1.393 1.744-1.395.005-.002.01 2.211.01 4.917m6.67-3.939c-.222.081-.42.248-.542.455-.092.156-.108.229-.107.484 0 .213.022.341.074.44.041.077.616.685 1.279 1.35L18.578 12l-1.204 1.21c-.663.666-1.236 1.271-1.273 1.345-.229.454-.045 1.046.407 1.312.165.097.234.113.492.112.213 0 .341-.022.44-.074.077-.041.685-.616 1.35-1.279L20 13.422l1.21 1.204c.666.663 1.271 1.236 1.345 1.273.454.229 1.046.045 1.312-.407.097-.165.113-.234.112-.492 0-.213-.022-.341-.074-.44-.041-.077-.616-.684-1.279-1.35L21.422 12l1.204-1.21c.663-.665 1.238-1.273 1.279-1.35.052-.099.074-.227.074-.44.001-.255-.015-.328-.107-.484a1 1 0 0 0-1.215-.45c-.173.058-.345.213-1.427 1.288L20 10.576l-1.23-1.222c-1.082-1.075-1.254-1.23-1.427-1.288a1.003 1.003 0 0 0-.673-.005" fill="#000" fill-rule="evenodd" stroke="none"/></svg>