<svg xmlns="http://www.w3.org/2000/svg" width="24" height="24" fill="none" stroke="currentColor" stroke-width="2" stroke-linecap="round" stroke-linejoin="round"><path d="M10.647 4.072c-.107.042-1.094.805-2.586 1.998L5.65 8H3.771c-2.039 0-2.107.006-2.389.221-.08.061-.195.194-.254.295L1.02 8.7l-.011 3.212c-.007 2.093.003 3.265.03 3.364.06.222.251.463.469.591l.192.113 1.977.011 1.977.012 2.378 1.903c1.309 1.047 2.444 1.942 2.523 1.989.113.066.21.085.445.085.257 0 .327-.016.492-.113.217-.128.409-.369.469-.589.026-.099.036-2.61.029-7.364L11.98 4.7l-.108-.184c-.253-.43-.776-.62-1.225-.444M10 12v4.921l-1.749-1.4c-1.228-.983-1.802-1.418-1.927-1.46-.147-.051-.45-.061-1.751-.061H3v-3.997l1.65-.011c1.295-.009 1.673-.024 1.756-.066.058-.03.886-.682 1.84-1.448.954-.765 1.739-1.393 1.744-1.395.005-.002.01 2.211.01 4.917m5.084-4.415a.98.98 0 0 0-.516 1.077c.047.221.12.342.396.647.436.483.76 1.1.924 1.756.118.474.127 1.323.019 1.795-.152.659-.461 1.247-.966 1.84-.322.378-.389.519-.389.823 0 .377.209.727.542.908.176.095.717.094.895-.002.178-.097.599-.544.887-.943a6.01 6.01 0 0 0 .311-6.506c-.356-.612-.906-1.252-1.2-1.399a1.007 1.007 0 0 0-.903.004" fill-rule="evenodd" fill="#000" stroke="none"/></svg>