<svg xmlns="http://www.w3.org/2000/svg" width="24" height="24" fill="none" stroke="currentColor" stroke-width="2" stroke-linecap="round" stroke-linejoin="round"><path d="M9.26.059c-.516.099-.867.263-1.308.614a2.97 2.97 0 0 0-1.089 1.911c-.014.108-.096.958-.182 1.89l-.157 1.693-.333.347C4.8 7.961 4 9.964 4 12c0 2.033.8 4.039 2.187 5.482l.329.342.164 1.798c.09.989.189 1.907.219 2.04.25 1.083 1.006 1.884 2.101 2.225l.3.093h5.4l.3-.094c1.124-.351 1.932-1.256 2.119-2.374.023-.139.113-1.023.199-1.965l.156-1.713.334-.347C19.2 16.039 20 14.037 20 12a8 8 0 0 0-2.183-5.48l-.325-.34-.166-1.842c-.176-1.949-.22-2.209-.449-2.669A3.143 3.143 0 0 0 15.384.246C14.871.02 14.949.025 12.14.015 10.1.007 9.48.017 9.26.059m5.363 2.048c.189.101.418.341.489.513.042.101.254 2.057.227 2.092-.005.006-.16-.05-.344-.126-1.857-.766-4.211-.763-6.015.008-.154.066-.285.114-.292.107-.022-.022.155-1.837.194-1.981a.921.921 0 0 1 .335-.5c.29-.222.245-.218 2.843-.209 2.38.009 2.401.01 2.563.096m-2.059 3.932a5.991 5.991 0 0 1 5.107 4.021c.497 1.457.397 3.191-.261 4.52-.86 1.736-2.354 2.898-4.25 3.305-.606.13-1.714.13-2.32 0-1.899-.407-3.389-1.566-4.25-3.305-.658-1.329-.758-3.063-.261-4.52a5.892 5.892 0 0 1 1.402-2.255 5.918 5.918 0 0 1 4.833-1.766m-.869 2.018a1.04 1.04 0 0 0-.567.459l-.108.184-.012 1.715c-.01 1.525-.004 1.737.057 1.92.059.179.17.309.891 1.039.453.459.897.885.987.947.448.311 1.125.166 1.397-.298.188-.32.193-.774.011-1.042a13.654 13.654 0 0 0-.715-.761l-.633-.64-.012-1.44-.011-1.44-.108-.184a1.005 1.005 0 0 0-1.177-.459M9.68 19.655a8.004 8.004 0 0 0 5.31-.236c.182-.073.33-.115.33-.094 0 .174-.172 1.847-.202 1.959-.056.214-.25.456-.466.583l-.192.113H12c-2.455 0-2.46 0-2.624-.088-.188-.1-.402-.33-.478-.511-.045-.107-.218-1.696-.218-1.996v-.099l.33.133c.181.073.483.179.67.236" fill-rule="evenodd" fill="#000" stroke="none"/></svg>