<svg width="24" height="24" fill="none" xmlns="http://www.w3.org/2000/svg"><path d="M.695.057a1.04 1.04 0 0 0-.567.459C.036.672.02.745.021 1c0 .212.022.341.074.44.04.077.966 1.035 2.057 2.129 1.091 1.093 1.976 1.994 1.966 2.002-.01.008-.153.092-.318.188-.882.513-1.717 1.139-2.647 1.985C.524 8.317.4 8.504.4 8.878c.002.714.751 1.213 1.388.924.092-.042.343-.241.558-.443A13.935 13.935 0 0 1 5.24 7.24l.373-.207 1.131 1.131 1.132 1.131-.288.126A10.773 10.773 0 0 0 4.354 11.6c-.253.249-.316.337-.37.517-.084.284-.081.395.017.658a.974.974 0 0 0 .94.638c.288-.002.526-.124.864-.44a9.418 9.418 0 0 1 1.543-1.187 12.222 12.222 0 0 1 1.702-.793l.389-.133 1.301 1.3c.715.715 1.3 1.311 1.3 1.324 0 .014-.202.035-.45.046-1.301.062-2.658.641-3.646 1.555-.371.344-.462.513-.463.866-.002.428.189.729.579.914.388.183.735.112 1.132-.231.597-.515 1.119-.807 1.793-1.003.275-.079.405-.091 1.015-.091.61 0 .74.012 1.015.091a4.115 4.115 0 0 1 1.685.921c.308.271.468.362.692.395.133.02.494.367 3.588 3.454 1.892 1.887 3.501 3.461 3.575 3.498.455.229 1.046.045 1.312-.407.097-.165.113-.235.113-.492 0-.254-.016-.328-.107-.48-.064-.106-4.665-4.735-11.22-11.287C1.73.316 1.536.125 1.323.063 1.066-.012.919-.013.695.057m9.739 3.523c-.416.041-.541.07-.706.16a1.083 1.083 0 0 0-.487.596c-.117.359.047.833.368 1.066.275.199.405.219 1.065.165 2.127-.174 4.11.07 5.993.737 1.942.688 3.534 1.675 5.1 3.163.31.296.536.411.808.412a.95.95 0 0 0 .671-.233c.33-.283.446-.779.272-1.163-.162-.357-1.534-1.556-2.598-2.27a16.077 16.077 0 0 0-7.356-2.634c-.744-.071-2.404-.071-3.13.001m5.026 5.792a1.001 1.001 0 0 0-.444 1.405c.141.24.211.289.914.635.886.435 1.49.848 2.21 1.51.404.371.624.488.919.491a.974.974 0 0 0 .94-.638c.098-.263.101-.374.017-.658-.055-.184-.117-.268-.41-.558-.738-.726-1.737-1.424-2.76-1.928-.579-.285-.685-.324-.92-.339-.22-.013-.3 0-.466.08m-3.93 9.232c-.216.107-.462.384-.523.588-.113.378-.031.704.252.995.327.335.767.409 1.173.196.141-.073.34-.287.432-.463.108-.205.101-.648-.013-.864-.1-.19-.328-.402-.517-.481-.203-.085-.603-.07-.804.029" fill-rule="evenodd" fill="#000"/></svg>