<svg xmlns="http://www.w3.org/2000/svg" width="24" height="24" fill="none" stroke="currentColor" stroke-width="2" stroke-linecap="round" stroke-linejoin="round"><path d="M11.2 4.024a26.77 26.77 0 0 0-1.64.159 17.004 17.004 0 0 0-8.48 3.8c-.187.158-.38.331-.428.383-.219.236-.286.69-.152 1.024.092.228.406.507.636.565.424.107.7.013 1.184-.403C4.245 7.9 6.709 6.732 9.26 6.261c1.007-.187 1.555-.233 2.74-.233 1.185 0 1.733.046 2.74.233 2.551.471 5.015 1.639 6.94 3.291.484.416.76.51 1.182.403.224-.056.504-.299.619-.537.159-.328.099-.802-.133-1.052a7.613 7.613 0 0 0-.428-.383c-2.299-1.947-5.204-3.278-8.206-3.76-.947-.152-2.723-.253-3.514-.199m-.14 5.022a12.083 12.083 0 0 0-3.9 1.001c-.675.299-1.194.589-1.86 1.04-.685.463-1.079.795-1.182.996a.97.97 0 0 0 .132 1.099c.224.255.43.352.75.354.305.002.449-.063.84-.376 1.059-.85 2.425-1.517 3.8-1.855.891-.22 1.408-.28 2.4-.28s1.509.06 2.4.28c1.375.338 2.741 1.005 3.8 1.855.391.313.535.378.84.376.32-.002.526-.099.75-.354a.97.97 0 0 0 .132-1.099c-.105-.206-.506-.54-1.222-1.021a10.908 10.908 0 0 0-1.84-1.023 12.016 12.016 0 0 0-5.84-.993m.24 4.993a6.977 6.977 0 0 0-3.128 1.115c-.418.275-.55.44-.621.777-.04.194-.037.257.026.457.1.318.357.575.675.675.324.102.581.044.985-.22a5.017 5.017 0 0 1 4.243-.617c.365.109.923.37 1.206.564.356.244.519.307.794.308a.772.772 0 0 0 .466-.113c.477-.263.665-.856.421-1.33-.101-.197-.235-.32-.596-.55a7.16 7.16 0 0 0-2.525-.987c-.528-.091-1.477-.129-1.946-.079m.395 5.016a1.05 1.05 0 0 0-.567.461c-.091.156-.108.23-.108.484 0 .257.016.327.113.492.518.882 1.865.526 1.865-.492a.994.994 0 0 0-.535-.888 1.17 1.17 0 0 0-.768-.057" fill-rule="evenodd" fill="#000" stroke="none"/></svg>