<svg xmlns="http://www.w3.org/2000/svg" width="24" height="24" fill="none" stroke="currentColor" stroke-width="2" stroke-linecap="round" stroke-linejoin="round"><path d="M.695.057a1.04 1.04 0 0 0-.567.459C.036.672.02.745.021 1c0 .212.022.341.074.44.04.077 1.02 1.089 2.177 2.249 1.157 1.159 2.096 2.116 2.086 2.125-.01.009-.132.074-.271.143C2.744 6.631.686 8.152.5 8.609a1.182 1.182 0 0 0 0 .781c.092.228.406.507.636.565.409.103.702.011 1.124-.354a14.567 14.567 0 0 1 3.034-2.008l.587-.292 1.16 1.16c.926.925 1.146 1.165 1.089 1.186-1.101.429-1.477.603-2.115.977-.86.505-1.74 1.179-1.886 1.443a.965.965 0 0 0 .121 1.115c.224.255.43.352.75.354.311.002.442-.059.895-.417a9.964 9.964 0 0 1 3.81-1.839c.123-.029.158.002 1.51 1.355l1.384 1.385-.669.004c-1.394.009-2.607.373-3.758 1.13-.418.275-.55.44-.621.777-.04.194-.037.257.026.457.1.318.357.575.675.675.324.102.581.044.985-.22a5.017 5.017 0 0 1 4.243-.617c.365.109.923.37 1.206.564.324.222.524.303.771.314l.237.011 3.363 3.358c1.85 1.848 3.426 3.392 3.503 3.432.099.052.228.074.44.074.258.001.327-.015.492-.112.476-.28.647-.9.373-1.359-.055-.092-5.1-5.166-11.212-11.275C1.73.316 1.536.125 1.323.063 1.066-.012.919-.013.695.057m10.159 3.981c-.461.036-.705.129-.879.335-.423.501-.308 1.204.256 1.554.148.092.157.093 1.549.097 1.46.003 1.873.035 2.9.22 2.521.453 5.091 1.668 6.999 3.307.484.416.76.511 1.183.404.224-.056.504-.299.619-.537.159-.328.099-.802-.133-1.052-.285-.308-1.324-1.115-2.032-1.578-2.243-1.468-4.719-2.358-7.476-2.687-.618-.074-2.373-.111-2.986-.063m5.447 6.125c-.381.19-.606.567-.57.958.023.256.13.491.295.646.063.059.33.227.594.374a10.43 10.43 0 0 1 1.468.964c.472.373.599.433.912.431.32-.002.526-.099.75-.354a.97.97 0 0 0 .132-1.098c-.175-.343-1.422-1.245-2.46-1.779-.403-.207-.459-.225-.7-.223a.925.925 0 0 0-.421.081m-4.606 8.892a1.05 1.05 0 0 0-.567.461c-.091.156-.108.23-.108.484 0 .257.016.327.113.492.518.882 1.865.526 1.865-.492a.994.994 0 0 0-.535-.888 1.17 1.17 0 0 0-.768-.057" fill-rule="evenodd" fill="#000" stroke="none"/></svg>