<svg width="24" height="24" fill="none" xmlns="http://www.w3.org/2000/svg"><path d="M10.82 3.543c-2.206.207-3.789.623-5.62 1.477-1.492.697-2.803 1.583-4.107 2.777C.528 8.314.4 8.514.4 8.878c.002.718.751 1.213 1.395.921.096-.044.312-.211.48-.371C4.235 7.554 6.597 6.311 9.2 5.785c1.041-.211 1.407-.243 2.8-.243 1.026 0 1.405.015 1.8.071 3.082.435 5.715 1.702 7.925 3.815.348.332.57.45.85.451.419.002.759-.208.93-.577.177-.379.107-.784-.19-1.11-.455-.499-1.57-1.418-2.387-1.967-2.115-1.42-4.367-2.26-6.994-2.609-.447-.06-2.694-.112-3.114-.073m.14 5.002c-1.413.168-2.537.479-3.66 1.012a10.654 10.654 0 0 0-2.906 2.003c-.294.289-.355.373-.41.557-.084.284-.081.395.017.658a.974.974 0 0 0 .94.638c.296-.003.516-.12.919-.492a9.007 9.007 0 0 1 4.956-2.34c.608-.079 1.76-.079 2.368 0a9.007 9.007 0 0 1 4.956 2.34c.403.372.623.489.919.492a.974.974 0 0 0 .94-.638c.097-.26.101-.374.021-.644-.073-.243-.277-.482-.793-.924a11.151 11.151 0 0 0-5.587-2.589c-.403-.064-2.32-.116-2.68-.073m.28 4.999c-1.139.207-1.795.457-2.6.995-.483.323-.989.789-1.085 1-.092.201-.098.608-.013.812.136.327.549.608.893.609.286 0 .474-.08.757-.326.597-.515 1.119-.807 1.793-1.003.275-.079.405-.091 1.015-.091.61 0 .74.012 1.015.091.674.196 1.196.488 1.793 1.003.396.343.743.414 1.132.232a.954.954 0 0 0 .58-.906c0-.357-.062-.477-.425-.829-.747-.725-1.769-1.258-2.895-1.511-.291-.066-1.713-.12-1.96-.076m.29 5.06c-.216.107-.462.384-.523.588-.113.378-.031.704.252.995.327.335.767.409 1.173.196.141-.073.34-.287.432-.463.108-.205.101-.648-.013-.864-.1-.19-.328-.402-.517-.481-.203-.085-.603-.07-.804.029" fill-rule="evenodd" fill="#000"/></svg>