<svg width="24" height="24" fill="none" xmlns="http://www.w3.org/2000/svg"><path d="M11.24 13.544c-1.139.207-1.795.457-2.6.995-.483.323-.989.789-1.085 1-.092.201-.098.608-.013.812.136.327.549.608.893.609.286 0 .474-.08.757-.326.597-.515 1.119-.807 1.793-1.003.275-.079.405-.091 1.015-.091.61 0 .74.012 1.015.091.674.196 1.196.488 1.793 1.003.396.343.743.414 1.132.232a.954.954 0 0 0 .58-.906c0-.357-.062-.477-.425-.829-.747-.725-1.769-1.258-2.895-1.511-.291-.066-1.713-.12-1.96-.076m.29 5.06c-.216.107-.462.384-.523.588-.113.378-.031.704.252.995.327.335.767.409 1.173.196.141-.073.34-.287.432-.463.108-.205.101-.648-.013-.864-.1-.19-.328-.402-.517-.481-.203-.085-.603-.07-.804.029" fill-rule="evenodd" fill="#000"/></svg>