<svg width="24" height="24" viewBox="0 0 24 24" fill="none" xmlns="http://www.w3.org/2000/svg">
<path d="M11.5996 2.4668C10.7401 2.4668 9.95031 2.81924 9.38479 3.38477C9.28881 3.47691 9.21219 3.58728 9.15941 3.70941C9.10662 3.83154 9.07874 3.96297 9.07739 4.09601C9.07603 4.22905 9.10124 4.36102 9.15153 4.4842C9.20182 4.60737 9.27618 4.71928 9.37026 4.81336C9.46434 4.90744 9.57624 4.9818 9.69942 5.03209C9.82259 5.08237 9.95457 5.10758 10.0876 5.10623C10.2206 5.10487 10.3521 5.07699 10.4742 5.02421C10.5963 4.97142 10.7067 4.8948 10.7988 4.79883C11.0053 4.59235 11.2811 4.4668 11.5996 4.4668C12.2351 4.4668 12.7324 4.9641 12.7324 5.59961C12.7324 6.23512 12.2351 6.73242 11.5996 6.73242H4.13283C4.00032 6.73055 3.86876 6.75503 3.74579 6.80444C3.62282 6.85386 3.5109 6.92722 3.41653 7.02026C3.32216 7.11331 3.24723 7.22418 3.19608 7.34644C3.14493 7.46869 3.11859 7.5999 3.11859 7.73242C3.11859 7.86495 3.14493 7.99615 3.19608 8.11841C3.24723 8.24067 3.32216 8.35154 3.41653 8.44458C3.5109 8.53763 3.62282 8.61099 3.74579 8.6604C3.86876 8.70982 4.00032 8.7343 4.13283 8.73242H11.5996C13.3181 8.73242 14.7324 7.3181 14.7324 5.59961C14.7324 3.88112 13.3181 2.4668 11.5996 2.4668Z" fill="black"/>
<path d="M3.06643 15.2676C2.93392 15.2657 2.80235 15.2902 2.67938 15.3396C2.55642 15.389 2.4445 15.4624 2.35013 15.5554C2.25576 15.6484 2.18082 15.7593 2.12967 15.8816C2.07852 16.0038 2.05219 16.135 2.05219 16.2676C2.05219 16.4001 2.07852 16.5313 2.12967 16.6535C2.18082 16.7758 2.25576 16.8867 2.35013 16.9797C2.4445 17.0728 2.55642 17.1461 2.67938 17.1955C2.80235 17.2449 2.93392 17.2694 3.06643 17.2676H16.9336C17.5706 17.2676 18.0664 17.7649 18.0664 18.4004C18.0664 19.0359 17.5706 19.5332 16.9336 19.5332C16.6166 19.5332 16.3387 19.407 16.1328 19.2011C16.0407 19.1052 15.9303 19.0286 15.8082 18.9758C15.6861 18.923 15.5546 18.8951 15.4216 18.8937C15.2885 18.8924 15.1566 18.9176 15.0334 18.9679C14.9102 19.0182 14.7983 19.0925 14.7042 19.1866C14.6102 19.2807 14.5358 19.3926 14.4855 19.5158C14.4352 19.639 14.41 19.7709 14.4114 19.904C14.4127 20.037 14.4406 20.1684 14.4934 20.2906C14.5462 20.4127 14.6228 20.5231 14.7188 20.6152C15.2849 21.1813 16.0746 21.5332 16.9336 21.5332C18.6526 21.5332 20.0664 20.1189 20.0664 18.4004C20.0664 16.6819 18.6526 15.2676 16.9336 15.2676H3.06643Z" fill="black"/>
<path d="M19.3321 5.66795C19.1995 5.66607 19.068 5.69055 18.945 5.73997C18.822 5.78938 18.7101 5.86274 18.6157 5.95579C18.5214 6.04883 18.4464 6.1597 18.3953 6.28196C18.3441 6.40422 18.3178 6.53542 18.3178 6.66795C18.3178 6.80047 18.3441 6.93168 18.3953 7.05393C18.4464 7.17619 18.5214 7.28706 18.6157 7.38011C18.7101 7.47315 18.822 7.54651 18.945 7.59593C19.068 7.64534 19.1995 7.66982 19.3321 7.66795C20.2628 7.66795 21 8.40259 21 9.33201C21 10.2628 20.2628 11 19.3321 11H2.00002C1.86751 10.9981 1.73595 11.0226 1.61298 11.072C1.49001 11.1214 1.37809 11.1948 1.28372 11.2878C1.18935 11.3809 1.11441 11.4917 1.06327 11.614C1.01212 11.7362 0.985779 11.8675 0.985779 12C0.985779 12.1325 1.01212 12.2637 1.06327 12.386C1.11441 12.5082 1.18935 12.6191 1.28372 12.7121C1.37809 12.8052 1.49001 12.8785 1.61298 12.928C1.73595 12.9774 1.86751 13.0019 2.00002 13H19.3321C21.3453 13 23 11.3452 23 9.33201C23 7.31943 21.3453 5.66795 19.3321 5.66795Z" fill="black"/>
</svg>
