<svg xmlns="http://www.w3.org/2000/svg" width="24" height="24" fill="none" stroke="currentColor" stroke-width="2" stroke-linecap="round" stroke-linejoin="round"><path d="M10.448 3.06c-.791.143-1.68.745-1.809 1.224-.158.586.183 1.161.761 1.282.307.064.581-.02.921-.284.325-.251.572-.319.9-.245a.994.994 0 0 1 .671.524c.102.194.114.249.098.484-.013.178-.05.322-.114.438-.113.203-.376.417-.587.475C11.19 6.986 9.578 7 6.516 7c-5.019 0-4.834-.008-5.134.221-.08.061-.195.194-.254.295-.091.156-.108.23-.108.484 0 .257.016.327.113.492.128.218.369.409.591.469.1.027 1.788.037 4.984.029 5.41-.012 4.982.011 5.632-.308 1.482-.728 2.083-2.527 1.342-4.022-.313-.632-.7-1.008-1.384-1.346a2.816 2.816 0 0 0-1.85-.254m8.446 2.996a3.51 3.51 0 0 0-1.434.604c-.575.408-.8.809-.706 1.26a.988.988 0 0 0 .88.792c.324.023.509-.041.814-.286.4-.32.615-.402 1.053-.404.328-.002.385.01.627.129.542.267.846.751.846 1.349s-.304 1.082-.846 1.349l-.266.131-9.061.02c-7.132.016-9.085.031-9.174.07a1.146 1.146 0 0 0-.499.446c-.091.156-.108.23-.108.484 0 .256.016.328.111.489.125.213.318.375.539.454.124.044 1.732.054 9.13.055 5.947.001 9.068-.012 9.24-.04a3.536 3.536 0 0 0 2.621-1.972 3.507 3.507 0 0 0-1.71-4.667c-.567-.265-1.453-.378-2.057-.263M1.695 15.057c-.23.072-.439.242-.567.459-.091.156-.108.23-.108.484 0 .256.016.328.111.489.125.213.318.375.539.454.123.044 1.269.054 6.31.055 4.115.002 6.209.016 6.309.044.21.058.474.272.586.473.06.109.102.265.115.427.018.221.006.285-.087.476-.305.623-1.037.765-1.582.307-.226-.19-.305-.232-.533-.283-.582-.131-1.188.346-1.188.933.001.318.069.496.273.715a2.917 2.917 0 0 0 2.284.899 2.714 2.714 0 0 0 1.186-.311c1.686-.832 2.183-2.997 1.035-4.513-.351-.465-.996-.898-1.598-1.074-.224-.066-.665-.071-6.58-.078-5.118-.007-6.372.002-6.505.044" fill-rule="evenodd" fill="#000" stroke="none"/></svg>