<svg xmlns="http://www.w3.org/2000/svg" width="24" height="24" fill="none" stroke="currentColor" stroke-width="2" stroke-linecap="round" stroke-linejoin="round"><path d="M7.54 1.061a1.639 1.639 0 0 1-.179.058A370.74 370.74 0 0 0 4.266 4.19C1.807 6.646 1.173 7.3 1.096 7.46l-.095.2V12c.001 4.266.002 4.343.081 4.52.063.139.776.876 3.13 3.233 1.742 1.744 3.117 3.09 3.208 3.14l.16.087H12c4.22 0 4.426-.003 4.56-.074.193-.102 6.223-6.125 6.333-6.326l.087-.16V12c0-4.22-.003-4.426-.074-4.56-.102-.193-6.125-6.223-6.326-6.333l-.16-.087-4.36-.009c-3.724-.007-4.383 0-4.52.05M18.37 5.63 21 8.26v7.48l-2.63 2.63L15.74 21H8.26l-2.63-2.63L3 15.74V8.26l2.63-2.63L8.26 3h7.48l2.63 2.63m-9.7 2.431c-.222.081-.42.248-.542.455-.092.156-.108.229-.107.484 0 .213.022.341.074.44.041.077.616.685 1.279 1.35L10.578 12l-1.204 1.21c-.663.666-1.236 1.271-1.273 1.345-.229.454-.045 1.046.407 1.312.165.097.234.113.492.112.213 0 .341-.022.44-.074.077-.041.685-.616 1.35-1.279L12 13.422l1.21 1.204c.666.663 1.271 1.236 1.345 1.273.454.229 1.046.045 1.312-.407.097-.165.113-.234.112-.492 0-.213-.022-.341-.074-.44-.041-.077-.616-.684-1.279-1.35L13.422 12l1.204-1.21c.663-.665 1.238-1.273 1.279-1.35.052-.099.074-.227.074-.44.001-.255-.015-.328-.107-.484a1 1 0 0 0-1.215-.45c-.173.058-.345.213-1.427 1.288L12 10.576l-1.23-1.222c-1.082-1.075-1.254-1.23-1.427-1.288a1.003 1.003 0 0 0-.673-.005" fill="#000" fill-rule="evenodd" stroke="none"/></svg>