<svg xmlns="http://www.w3.org/2000/svg" width="24" height="24" fill="none" stroke="currentColor" stroke-width="2" stroke-linecap="round" stroke-linejoin="round"><path d="M.695.057a1.04 1.04 0 0 0-.567.459C.036.672.02.745.021 1c0 .212.022.341.074.44.04.077 1.53 1.599 3.312 3.383l3.238 3.243L4.4 10.76c-1.235 1.482-2.273 2.747-2.306 2.812-.175.339-.085.839.204 1.128.317.317.054.3 4.562.3h4.005l-.44 3.522c-.398 3.184-.436 3.541-.391 3.71a.99.99 0 0 0 1.517.592c.071-.046 1.115-1.267 2.32-2.712l2.189-2.628 3.18 3.174c1.749 1.746 3.243 3.207 3.32 3.247.099.052.228.074.44.074.258.001.327-.015.492-.112.476-.28.647-.9.373-1.359-.055-.092-5.1-5.166-11.212-11.275C1.73.316 1.536.125 1.323.063 1.066-.012.919-.013.695.057m12.04.987c-.285.082-.511.315-1.738 1.793-.684.824-1.282 1.571-1.329 1.66-.11.209-.115.618-.011.823.121.236.38.473.596.544.405.135.807.009 1.123-.352.217-.249.212-.281.102.588-.045.358-.069.711-.054.8a1 1 0 0 0 1.262.805.95.95 0 0 0 .61-.516c.09-.186.134-.483.411-2.735l.31-2.526-.072-.229a.993.993 0 0 0-1.21-.655M15.4 9.037c-.446.136-.728.509-.728.963 0 .385.195.703.548.894.155.083.212.087 1.891.106l1.732.02-.583.7c-.478.574-.594.738-.646.914a.984.984 0 0 0 .946 1.264c.49.002.484.008 1.947-1.746.714-.857 1.335-1.618 1.379-1.693.199-.338.117-.858-.184-1.159-.311-.311-.193-.3-3.379-.297-1.553.002-2.868.018-2.923.034M9.96 12.99c-.88.006-2.322.006-3.205 0l-1.605-.01 1.455-1.748L8.06 9.484l1.75 1.748 1.75 1.748-1.6.01m4.648 3.111c-.112.186-2.15 2.576-2.159 2.532-.01-.049.427-3.658.495-4.088l.025-.155.833.832c.505.505.823.851.806.879" fill="#000" fill-rule="evenodd" stroke="none"/></svg>