<svg xmlns="http://www.w3.org/2000/svg" width="24" height="24" fill="none" stroke="currentColor" stroke-width="2" stroke-linecap="round" stroke-linejoin="round"><path d="M12.735 1.044c-.069.02-.209.094-.311.166-.125.088-1.816 2.09-5.227 6.187-2.773 3.332-5.07 6.11-5.103 6.175-.175.339-.085.839.204 1.128.317.317.054.3 4.562.3h4.005l-.44 3.522c-.398 3.184-.436 3.541-.391 3.71.183.704.981.989 1.555.556.176-.134 10.211-12.155 10.317-12.36.175-.339.085-.839-.204-1.128-.317-.317-.054-.3-4.561-.3h-4.006l.442-3.535.441-3.534-.073-.23a.992.992 0 0 0-1.21-.657m-1.457 6.653c-.2 1.595-.279 2.355-.261 2.48.037.245.241.535.48.682l.197.121 3.578.02 3.578.02-3.195 3.834c-1.757 2.109-3.2 3.809-3.206 3.779-.007-.031.116-1.073.273-2.315.181-1.437.276-2.329.262-2.452-.037-.333-.279-.648-.611-.796-.087-.038-.945-.055-3.668-.07l-3.555-.02 3.194-3.833c1.757-2.108 3.2-3.814 3.208-3.792.007.023-.116 1.077-.274 2.342" fill="#000" fill-rule="evenodd" stroke="none"/></svg>